<svg width="80" height="80" viewBox="0 0 80 80" fill="none" xmlns="http://www.w3.org/2000/svg">
    <path d="M61.5669 1.33325H9.73523C7.52696 1.33325 5.73535 3.12486 5.73535 5.33313V63.3313L21.0682 78.6642H61.5669C63.7752 78.6642 65.5668 76.8726 65.5668 74.6643V5.33313C65.5668 3.12486 63.7752 1.33325 61.5669 1.33325Z"
          fill="#E8F3FF"/>
    <path d="M65.5668 25.7529V74.6643C65.5668 76.8734 63.776 78.6642 61.5669 78.6642H21.0682L5.73535 63.3314V47.0474C5.73535 46.1991 6.51583 45.5666 7.34547 45.7436C30.0068 50.5798 50.6709 41.8722 63.1584 24.9647C63.924 23.9279 65.5668 24.4641 65.5668 25.7529Z"
          fill="#D1E7FF"/>
    <path d="M21.0682 66.5595V78.6642L5.73535 63.3313H17.84C19.6233 63.3313 21.0682 64.7763 21.0682 66.5595Z"
          fill="#B9DCFF"/>
    <path d="M53.5676 11.9996V18.666C53.5676 20.1393 52.3743 21.3326 50.901 21.3326H19.9019C18.4286 21.3326 17.2354 20.1393 17.2354 18.666V11.9996C17.2354 10.5263 18.4286 9.33301 19.9019 9.33301H50.901C52.3743 9.33301 53.5676 10.5263 53.5676 11.9996Z"
          fill="#D1E7FF"/>
    <path d="M74.2681 61.0348C74.2681 68.4262 69.8571 75.0622 63.1568 77.7476C61.9007 78.2511 62.0417 78.2009 61.9869 78.2009C60.4455 78.8193 58.725 78.8193 57.1837 78.2009L56.052 77.7476C49.3522 75.061 44.9424 68.4262 44.9424 61.0348V50.7068C44.9424 49.3735 46.0357 48.3202 47.3323 48.3969C50.991 48.6114 54.7162 47.9311 58.1853 46.3103C58.6235 46.1053 59.1015 45.999 59.5853 45.999C60.0691 45.999 60.547 46.1053 60.9852 46.3103C64.4226 47.9144 68.1393 48.6137 71.8382 48.3969C73.1348 48.3202 74.2281 49.3735 74.2281 50.7068C74.2281 61.8151 74.2061 61.0348 74.2681 61.0348Z"
          fill="#B9DCFF"/>
    <path d="M71.996 51.4881C70.9615 51.3236 69.9398 51.0871 68.9383 50.7801C66.0592 49.8972 62.9837 49.954 60.1001 50.822C57.5846 51.5803 54.9548 51.8878 52.3322 51.7301C51.0355 51.6534 49.9422 52.7067 49.9422 54.04C49.9422 54.04 49.9424 64.4699 49.9429 64.5209C49.9656 67.2823 45.9944 67.7669 45.3892 65.0724C45.0919 63.7471 44.942 62.393 44.9424 61.0348V50.7068C44.9424 49.3735 46.0357 48.3207 47.3323 48.3969C51.0027 48.6125 54.7399 47.9271 58.2198 46.2941C59.0963 45.883 60.1079 45.901 60.9854 46.3103C64.4219 47.9136 68.1403 48.6155 71.8384 48.3969C74.7443 48.2251 74.1366 51.8294 71.996 51.4881Z"
          fill="#D1E7FF"/>
    <path d="M75.5627 60.7128V50.7072C75.5627 48.6413 73.8561 46.9424 71.7607 47.0655C71.4077 47.0862 71.0773 47.2462 70.8423 47.5104C70.6073 47.7746 70.4868 48.1213 70.5074 48.4743C70.5505 49.2093 71.183 49.7713 71.9162 49.7276C72.4421 49.6974 72.896 50.1334 72.896 50.7072C72.896 61.8894 72.8795 61.1234 72.9325 61.3461C72.8131 68.1144 68.8091 74.0459 62.6623 76.5099C61.3208 77.0478 61.6768 76.8893 61.4917 76.9633C60.2689 77.4556 58.9031 77.4556 57.6804 76.9633L56.5495 76.5103C50.3085 74.0069 46.2758 67.9324 46.2758 61.0351V50.7072C46.2758 50.1566 46.7091 49.6963 47.2554 49.7276C51.1438 49.9564 55.0933 49.2273 58.7506 47.5177C59.012 47.3951 59.2973 47.3316 59.5861 47.3316C59.8748 47.3317 60.1601 47.3952 60.4215 47.5178C62.3261 48.4077 64.4916 49.0501 65.3452 49.1936C65.9653 49.3001 66.5508 48.9573 66.7873 48.4173C66.9573 48.032 66.9008 50.8891 66.9008 5.33317C66.9008 2.39243 64.5084 0 61.5676 0H9.73593C6.79519 0 4.40276 2.39243 4.40276 5.33317C4.40276 65.9163 4.3786 63.4487 4.46009 63.718C4.51071 63.8849 4.59355 64.0403 4.70392 64.1753C4.75909 64.2428 20.1259 79.6232 20.2778 79.7353C20.5011 79.9005 20.7705 79.9918 21.0482 79.9963C21.1176 79.998 19.5886 79.9973 47.2724 79.9973C47.626 79.9973 47.9652 79.8569 48.2152 79.6068C48.4652 79.3568 48.6057 79.0176 48.6057 78.664C48.6057 78.3104 48.4652 77.9713 48.2152 77.7213C47.9652 77.4712 47.626 77.3307 47.2724 77.3307H22.402V66.5591C22.402 64.044 20.3559 61.9979 17.8408 61.9979H14.3161C13.9625 61.9979 13.6234 62.1384 13.3733 62.3884C13.1233 62.6384 12.9828 62.9776 12.9828 63.3312C12.9828 63.6848 13.1233 64.0239 13.3733 64.274C13.6234 64.524 13.9625 64.6645 14.3161 64.6645H17.8407C18.8855 64.6645 19.7353 65.5145 19.7353 66.5591V75.4451L7.06901 62.7787V5.33317C7.06901 3.86288 8.26531 2.66658 9.7356 2.66658H61.5673C63.0376 2.66658 64.2339 3.86288 64.2339 5.33317V46.1421C63.3171 45.856 62.4205 45.5085 61.5503 45.1021C60.9355 44.8138 60.2648 44.6643 59.5857 44.6643C58.9067 44.6643 58.2359 44.8138 57.6211 45.1021C54.4909 46.5649 51 47.276 47.4109 47.0655C45.311 46.9427 43.6089 48.6445 43.6089 50.7072V61.0351C43.6089 68.806 48.2014 76.0371 55.5568 78.9855C56.903 79.525 57.9018 80 59.5855 80C61.2148 79.9997 62.272 79.5393 63.6541 78.9852C70.9965 76.042 75.6015 68.8213 75.6015 61.0351C75.6019 60.9265 75.5888 60.8182 75.5627 60.7128Z"
          fill="#2E58FF"/>
    <path d="M63.9582 58.3889L58.8315 63.5158L56.2689 61.3193C56 61.0926 55.6524 60.9812 55.3018 61.0096C54.9512 61.038 54.626 61.2038 54.3971 61.4709C54.1681 61.738 54.054 62.0847 54.0796 62.4356C54.1052 62.7864 54.2684 63.1129 54.5337 63.3439L58.0336 66.3438C58.2886 66.5624 58.6167 66.6767 58.9524 66.6638C59.288 66.651 59.6065 66.5119 59.844 66.2743L65.8438 60.2745C66.0939 60.0245 66.2343 59.6853 66.2343 59.3317C66.2343 58.9781 66.0939 58.639 65.8438 58.3889C65.5938 58.1389 65.2546 57.9984 64.901 57.9984C64.5474 57.9984 64.2082 58.1389 63.9582 58.3889ZM59.2345 29.3327C59.2345 28.9791 59.094 28.6399 58.844 28.3899C58.594 28.1398 58.2548 27.9994 57.9012 27.9994H12.9026C12.549 27.9994 12.2099 28.1398 11.9598 28.3899C11.7098 28.6399 11.5693 28.9791 11.5693 29.3327C11.5693 29.6863 11.7098 30.0254 11.9598 30.2754C12.2099 30.5255 12.549 30.666 12.9026 30.666H57.9012C58.2548 30.666 58.594 30.5255 58.844 30.2754C59.094 30.0254 59.2345 29.6863 59.2345 29.3327ZM53.568 16.6664C53.9216 16.6664 54.2608 16.5259 54.5108 16.2759C54.7608 16.0258 54.9013 15.6867 54.9013 15.3331V11.9999C54.9013 9.79444 53.1069 8 50.9014 8H19.9024C17.697 8 15.9025 9.79444 15.9025 11.9999V18.6663C15.9025 20.8718 17.697 22.6662 19.9024 22.6662H49.6703C50.0239 22.6662 50.3631 22.5257 50.6131 22.2757C50.8631 22.0257 51.0036 21.6865 51.0036 21.3329C51.0036 20.9793 50.8631 20.6402 50.6131 20.3901C50.3631 20.1401 50.0239 19.9996 49.6703 19.9996H19.9024C19.1673 19.9996 18.5691 19.4015 18.5691 18.6663V11.9999C18.5691 11.2647 19.1673 10.6666 19.9024 10.6666H50.9014C51.6366 10.6666 52.2347 11.2647 52.2347 11.9999V15.3331C52.2347 15.6867 52.3752 16.0258 52.6252 16.2759C52.8753 16.5259 53.2144 16.6664 53.568 16.6664ZM21.9023 37.9991H17.9025C17.5489 37.9991 17.2097 38.1395 16.9597 38.3896C16.7097 38.6396 16.5692 38.9787 16.5692 39.3324C16.5692 39.686 16.7097 40.0251 16.9597 40.2751C17.2097 40.5252 17.5489 40.6656 17.9025 40.6656H21.9023C22.256 40.6656 22.5951 40.5252 22.8451 40.2751C23.0952 40.0251 23.2356 39.686 23.2356 39.3324C23.2356 38.9787 23.0952 38.6396 22.8451 38.3896C22.5951 38.1395 22.256 37.9991 21.9023 37.9991ZM21.9023 50.6653H17.9025C17.5489 50.6653 17.2097 50.8058 16.9597 51.0558C16.7097 51.3059 16.5692 51.645 16.5692 51.9986C16.5692 52.3522 16.7097 52.6914 16.9597 52.9414C17.2097 53.1914 17.5489 53.3319 17.9025 53.3319H21.9023C22.256 53.3319 22.5951 53.1914 22.8451 52.9414C23.0952 52.6914 23.2356 52.3522 23.2356 51.9986C23.2356 51.645 23.0952 51.3059 22.8451 51.0558C22.5951 50.8058 22.256 50.6653 21.9023 50.6653ZM54.9013 39.3324C54.9013 38.9787 54.7608 38.6396 54.5108 38.3896C54.2608 38.1395 53.9216 37.9991 53.568 37.9991H29.5688C29.2152 37.9991 28.876 38.1395 28.626 38.3896C28.376 38.6396 28.2355 38.9787 28.2355 39.3324C28.2355 39.686 28.376 40.0251 28.626 40.2751C28.876 40.5252 29.2152 40.6656 29.5688 40.6656H53.568C53.9216 40.6656 54.2608 40.5252 54.5108 40.2751C54.7608 40.0251 54.9013 39.686 54.9013 39.3324ZM40.2351 50.6653H29.5688C29.2152 50.6653 28.876 50.8058 28.626 51.0558C28.376 51.3059 28.2355 51.645 28.2355 51.9986C28.2355 52.3522 28.376 52.6914 28.626 52.9414C28.876 53.1914 29.2152 53.3319 29.5688 53.3319H40.2351C40.5887 53.3319 40.9278 53.1914 41.1779 52.9414C41.4279 52.6914 41.5684 52.3522 41.5684 51.9986C41.5684 51.645 41.4279 51.3059 41.1779 51.0558C40.9278 50.8058 40.5887 50.6653 40.2351 50.6653ZM40.2351 63.3316H29.5688C29.2152 63.3316 28.876 63.4721 28.626 63.7221C28.376 63.9722 28.2355 64.3113 28.2355 64.6649C28.2355 65.0185 28.376 65.3576 28.626 65.6077C28.876 65.8577 29.2152 65.9982 29.5688 65.9982H40.2351C40.5887 65.9982 40.9278 65.8577 41.1779 65.6077C41.4279 65.3576 41.5684 65.0185 41.5684 64.6649C41.5684 64.3113 41.4279 63.9722 41.1779 63.7221C40.9278 63.4721 40.5887 63.3316 40.2351 63.3316Z"
          fill="#2E58FF"/>
</svg>
