<svg width="80" height="80" viewBox="0 0 80 80" fill="none" xmlns="http://www.w3.org/2000/svg">
    <g clip-path="url(#clip0_67_242)">
        <path d="M65.6668 1.33325H39.3336C37.8603 1.33325 36.667 2.52658 36.667 3.9999V51.4995C36.667 52.9728 37.8603 54.1661 39.3336 54.1661H76C77.4733 54.1661 78.6666 52.9728 78.6666 51.4995V14.3331L65.6668 1.33325Z"
              fill="#E8F3FF"/>
        <path d="M78.6669 14.3331H68.3336C66.8603 14.3331 65.667 13.1398 65.667 11.6665V1.33325L78.6669 14.3331Z"
              fill="#B9DCFF"/>
        <path d="M78.6666 28.0765V51.4997C78.6666 52.9725 77.4728 54.1663 76 54.1663H39.3336C37.8608 54.1663 36.667 52.9725 36.667 51.4997V37.5413C36.667 36.6573 37.5122 36.0168 38.3623 36.2593C52.3475 40.2503 66.6439 37.7216 76.346 27.1809C77.1718 26.2839 78.6666 26.8572 78.6666 28.0765Z"
              fill="#D1E7FF"/>
        <path d="M40.667 25.833H4.00063C2.52731 25.833 1.33398 27.0263 1.33398 28.4997V65.666L14.3339 78.6659H40.667C42.1403 78.6659 43.3336 77.4726 43.3336 75.9993V28.4997C43.3336 27.0263 42.1403 25.833 40.667 25.833Z"
              fill="#E8F3FF"/>
        <path d="M46.0003 28.4998V52.8329C46.0003 53.1865 45.8598 53.5257 45.6097 53.7757C45.3597 54.0258 45.0205 54.1662 44.6669 54.1662H43.3336V28.4998C43.3336 27.027 42.1398 25.8331 40.667 25.8331H36.667V24.4998C36.667 24.1462 36.8075 23.8071 37.0575 23.557C37.3076 23.307 37.6467 23.1665 38.0003 23.1665H40.667C43.6124 23.1665 46.0003 25.5543 46.0003 28.4998Z"
              fill="#B9DCFF"/>
        <path d="M43.3336 45.0686V75.9994C43.3336 77.4722 42.1398 78.666 40.667 78.666H14.3339L1.33398 65.6661V60.3105C1.33398 59.4495 2.13831 58.815 2.9758 59.0149C18.5123 62.7225 32.9229 56.7325 40.8733 44.357C41.5955 43.2327 43.3336 43.7325 43.3336 45.0686Z"
              fill="#D1E7FF"/>
        <path d="M14.3339 68.3327V78.6659L1.33398 65.666H11.6672C13.1406 65.666 14.3339 66.8593 14.3339 68.3327Z"
              fill="#B9DCFF"/>
        <path d="M79.6098 13.3904C65.4668 -0.754994 66.5421 0.285164 66.2759 0.147999C66.0875 0.0513235 65.8789 0.000608734 65.6671 0L39.334 0C37.1283 0 35.334 1.79432 35.334 3.99997V18.0832C35.334 18.4368 35.4745 18.7759 35.7245 19.026C35.9746 19.276 36.3137 19.4165 36.6673 19.4165C37.021 19.4165 37.3601 19.276 37.6101 19.026C37.8602 18.7759 38.0007 18.4368 38.0007 18.0832V3.99997C38.0007 3.26481 38.5988 2.66664 39.334 2.66664H64.3338V11.6666C64.3338 13.8722 66.1283 15.6665 68.3337 15.6665H71.0272C71.3808 15.6665 71.72 15.5261 71.97 15.276C72.2201 15.026 72.3605 14.6868 72.3605 14.3332C72.3605 13.9796 72.2201 13.6405 71.97 13.3904C71.72 13.1404 71.3808 12.9999 71.0272 12.9999H68.3337C67.5986 12.9999 67.0004 12.4017 67.0004 11.6666V4.55213L77.3337 14.8854V51.4996C77.3337 52.2347 76.7355 52.8329 76.0003 52.8329H44.6673V28.4998C44.6673 26.2941 42.8728 24.4998 40.6673 24.4998H4.00094C1.79529 24.4998 0.000976562 26.2941 0.000976562 28.4998V65.6661C0.000976562 66.0198 0.141475 66.3588 0.391473 66.6089C14.2839 80.5013 13.4654 79.749 13.824 79.8978C14.6082 80.2227 15.4813 79.7398 15.6417 78.9268C15.6795 78.7365 15.6675 79.3057 15.6675 68.3329C15.6675 66.1273 13.8732 64.333 11.6675 64.333H9.1569C8.80328 64.333 8.46415 64.4734 8.2141 64.7235C7.96405 64.9735 7.82358 65.3127 7.82358 65.6663C7.82358 66.0199 7.96405 66.359 8.2141 66.6091C8.46415 66.8591 8.80328 66.9996 9.1569 66.9996H11.6675C12.4027 66.9996 13.0009 67.5978 13.0009 68.3329V75.4472L2.66762 65.114V28.4998C2.66762 27.7646 3.26578 27.1664 4.00094 27.1664H40.6673C41.4025 27.1664 42.0006 27.7646 42.0006 28.4998V75.9994C42.0006 76.7345 41.4025 77.3327 40.6673 77.3327H22.4578C22.1042 77.3327 21.765 77.4732 21.515 77.7232C21.2649 77.9733 21.1245 78.3124 21.1245 78.666C21.1245 79.0196 21.2649 79.3588 21.515 79.6088C21.765 79.8589 22.1042 79.9993 22.4578 79.9993H40.6673C42.8728 79.9993 44.6673 78.205 44.6673 75.9994V55.4995H76.0003C78.2058 55.4995 80.0003 53.7052 80.0003 51.4996V14.3332C80.0003 14.1581 79.9658 13.9847 79.8988 13.823C79.8318 13.6612 79.7336 13.5142 79.6098 13.3904Z"
              fill="#2E58FF"/>
        <path d="M53.5003 27.6664C53.5003 28.0201 53.6408 28.3592 53.8908 28.6092C54.1409 28.8593 54.48 28.9998 54.8336 28.9998H68.3335C68.6871 28.9998 69.0263 28.8593 69.2763 28.6092C69.5264 28.3592 69.6668 28.0201 69.6668 27.6664C69.6668 27.3128 69.5264 26.9737 69.2763 26.7236C69.0263 26.4736 68.6871 26.3331 68.3335 26.3331H54.8336C54.48 26.3331 54.1409 26.4736 53.8908 26.7236C53.6408 26.9737 53.5003 27.3128 53.5003 27.6664ZM47.0004 28.9998H48.8337C49.1873 28.9998 49.5264 28.8593 49.7765 28.6092C50.0265 28.3592 50.167 28.0201 50.167 27.6664C50.167 27.3128 50.0265 26.9737 49.7765 26.7236C49.5264 26.4736 49.1873 26.3331 48.8337 26.3331H47.0004C46.6467 26.3331 46.3076 26.4736 46.0576 26.7236C45.8075 26.9737 45.667 27.3128 45.667 27.6664C45.667 28.0201 45.8075 28.3592 46.0576 28.6092C46.3076 28.8593 46.6467 28.9998 47.0004 28.9998ZM57.6669 14.8332H47.0004C46.6467 14.8332 46.3076 14.9737 46.0576 15.2237C45.8075 15.4738 45.667 15.8129 45.667 16.1665C45.667 16.5202 45.8075 16.8593 46.0576 17.1093C46.3076 17.3594 46.6467 17.4999 47.0004 17.4999H57.6669C58.0206 17.4999 58.3597 17.3594 58.6097 17.1093C58.8598 16.8593 59.0003 16.5202 59.0003 16.1665C59.0003 15.8129 58.8598 15.4738 58.6097 15.2237C58.3597 14.9737 58.0206 14.8332 57.6669 14.8332ZM47.0004 40.833H64.6185C64.9722 40.833 65.3113 40.6925 65.5613 40.4425C65.8114 40.1924 65.9519 39.8533 65.9519 39.4997C65.9519 39.1461 65.8114 38.8069 65.5613 38.5569C65.3113 38.3068 64.9722 38.1664 64.6185 38.1664H47.0004C46.6467 38.1664 46.3076 38.3068 46.0576 38.5569C45.8075 38.8069 45.667 39.1461 45.667 39.4997C45.667 39.8533 45.8075 40.1924 46.0576 40.4425C46.3076 40.6925 46.6467 40.833 47.0004 40.833ZM12.6673 40.833H24.1242C24.4778 40.833 24.817 40.6925 25.067 40.4425C25.3171 40.1924 25.4575 39.8533 25.4575 39.4997C25.4575 39.1461 25.3171 38.8069 25.067 38.5569C24.817 38.3068 24.4778 38.1664 24.1242 38.1664H12.6673C12.3137 38.1664 11.9746 38.3068 11.7245 38.5569C11.4745 38.8069 11.334 39.1461 11.334 39.4997C11.334 39.8533 11.4745 40.1924 11.7245 40.4425C11.9746 40.6925 12.3137 40.833 12.6673 40.833ZM12.6673 54.1662H32.0005C32.3541 54.1662 32.6932 54.0257 32.9433 53.7757C33.1933 53.5257 33.3338 53.1865 33.3338 52.8329C33.3338 52.4793 33.1933 52.1401 32.9433 51.8901C32.6932 51.64 32.3541 51.4996 32.0005 51.4996H12.6673C12.3137 51.4996 11.9746 51.64 11.7245 51.8901C11.4745 52.1401 11.334 52.4793 11.334 52.8329C11.334 53.1865 11.4745 53.5257 11.7245 53.7757C11.9746 54.0257 12.3137 54.1662 12.6673 54.1662ZM32.0005 67.4994C32.3541 67.4994 32.6932 67.359 32.9433 67.1089C33.1933 66.8589 33.3338 66.5197 33.3338 66.1661C33.3338 65.8125 33.1933 65.4734 32.9433 65.2233C32.6932 64.9733 32.3541 64.8328 32.0005 64.8328H21.1566C20.803 64.8328 20.4638 64.9733 20.2138 65.2233C19.9637 65.4734 19.8232 65.8125 19.8232 66.1661C19.8232 66.5197 19.9637 66.8589 20.2138 67.1089C20.4638 67.359 20.803 67.4994 21.1566 67.4994H32.0005ZM64.6097 59.39C64.4859 59.2662 64.3389 59.1679 64.1772 59.1009C64.0154 59.0339 63.842 58.9994 63.6669 58.9994C63.4918 58.9994 63.3184 59.0339 63.1566 59.1009C62.9948 59.1679 62.8479 59.2662 62.7241 59.39L59.5574 62.5566C59.3074 62.8067 59.167 63.1458 59.167 63.4994C59.167 63.853 59.3074 64.1921 59.5574 64.4421C59.6812 64.566 59.8282 64.6642 59.99 64.7312C60.1517 64.7983 60.3251 64.8327 60.5002 64.8327C60.6754 64.8327 60.8487 64.7983 61.0105 64.7312C61.1723 64.6642 61.3193 64.566 61.4431 64.4421L62.4444 63.4408C62.3134 68.3049 58.1261 71.9517 53.0751 71.0214C52.9029 70.9895 52.7261 70.9919 52.5548 71.0285C52.3835 71.065 52.2211 71.1349 52.0769 71.2343C51.9326 71.3337 51.8094 71.4605 51.7143 71.6076C51.6191 71.7546 51.5539 71.919 51.5223 72.0912C51.4583 72.439 51.5351 72.7979 51.7357 73.0891C51.9363 73.3803 52.2444 73.5798 52.5921 73.6439C59.2121 74.8627 64.8582 70.0736 65.107 63.6585L65.8907 64.4421C66.0144 64.5661 66.1613 64.6644 66.3231 64.7315C66.4849 64.7985 66.6584 64.8329 66.8335 64.8326C68.0102 64.8326 68.6193 63.3995 67.7763 62.5565L64.6097 59.39ZM15.3911 20.6093C15.5149 20.7331 15.6619 20.8314 15.8236 20.8984C15.9854 20.9654 16.1588 20.9999 16.3339 20.9999C16.5089 20.9999 16.6823 20.9654 16.8441 20.8984C17.0058 20.8314 17.1528 20.7331 17.2766 20.6093L20.4432 17.4427C20.5671 17.3189 20.6653 17.1719 20.7323 17.0102C20.7993 16.8484 20.8338 16.675 20.8338 16.4999C20.8338 16.3249 20.7993 16.1515 20.7323 15.9897C20.6653 15.828 20.5671 15.681 20.4432 15.5572C20.3195 15.4334 20.1725 15.3351 20.0107 15.2681C19.849 15.2011 19.6756 15.1666 19.5005 15.1666C19.3254 15.1666 19.152 15.2011 18.9903 15.2681C18.8285 15.3351 18.6815 15.4334 18.5578 15.5572L17.5563 16.5587C17.6874 11.6936 21.8752 8.0481 26.9257 8.97809C27.0979 9.00983 27.2747 9.00734 27.4459 8.97075C27.6171 8.93416 27.7795 8.86419 27.9237 8.76484C28.0678 8.6655 28.191 8.53871 28.2862 8.39174C28.3814 8.24476 28.4467 8.08048 28.4783 7.90827C28.5424 7.56051 28.4656 7.20156 28.265 6.91038C28.0644 6.61921 27.7563 6.41965 27.4085 6.35561C20.7432 5.12829 15.1406 9.97225 14.8936 16.341L14.11 15.5574C13.9862 15.4335 13.8392 15.3353 13.6774 15.2683C13.5157 15.2013 13.3423 15.1668 13.1672 15.1668C12.9921 15.1668 12.8187 15.2013 12.657 15.2683C12.4952 15.3353 12.3483 15.4335 12.2245 15.5574C12.1006 15.6812 12.0024 15.8281 11.9354 15.9899C11.8684 16.1516 11.8339 16.325 11.8339 16.5001C11.8339 16.6752 11.8684 16.8486 11.9354 17.0103C12.0024 17.1721 12.1006 17.3191 12.2245 17.4429L15.3911 20.6093Z"
              fill="#2E58FF"/>
    </g>
    <defs>
        <clipPath id="clip0_67_242">
            <rect width="80" height="80" fill="white"/>
        </clipPath>
    </defs>
</svg>
