<svg width="80" height="80" viewBox="0 0 80 80" fill="none" xmlns="http://www.w3.org/2000/svg">
    <g clip-path="url(#clip0_67_240)">
        <path d="M59.441 1.33325H7.60925C5.40099 1.33325 3.60938 3.12486 3.60938 5.33313V63.3313L18.9422 78.6642H59.441C61.6492 78.6642 63.4408 76.8726 63.4408 74.6643V5.33313C63.4408 3.12486 61.6492 1.33325 59.441 1.33325Z"
              fill="#D1E7FF"/>
        <path d="M63.4408 25.7529V74.6643C63.4408 76.8734 61.6501 78.6642 59.441 78.6642H18.9422L3.60938 63.3314V47.0474C3.60938 46.1991 4.38985 45.5666 5.21949 45.7436C27.8808 50.5798 48.545 41.8722 61.0324 24.9647C61.7981 23.9279 63.4408 24.4641 63.4408 25.7529Z"
              fill="#B9DCFF"/>
        <path d="M54.4411 26.0156V63.4811C54.4411 65.1477 53.0911 66.4977 51.4245 66.4977H15.459C13.7923 66.4977 12.4424 65.1477 12.4424 63.4811V26.0156C12.4424 24.349 13.7923 22.999 15.459 22.999H51.4245C53.0911 22.999 54.4411 24.349 54.4411 26.0156Z"
              fill="#E8F3FF"/>
        <path d="M54.4411 35.4092V63.4813C54.4411 65.1472 53.0905 66.4979 51.4245 66.4979H15.459C13.793 66.4979 12.4424 65.1472 12.4424 63.4813V48.2744C12.4424 47.5063 13.0894 46.8943 13.856 46.944C28.5599 47.8975 41.9291 43.1649 52.2458 34.3935C53.1114 33.6574 54.4411 34.2727 54.4411 35.4092Z"
              fill="#D1E7FF"/>
        <path d="M18.9422 66.5595V78.6642L3.60938 63.3313H15.714C17.4973 63.3313 18.9422 64.7763 18.9422 66.5595Z"
              fill="#A2D0FF"/>
        <path d="M75.1219 27.0057L74.4702 26.2474C72.5536 24.0108 69.1854 23.7524 66.9505 25.6707L42.6595 46.5017L40.5049 54.5843C40.2638 55.4888 41.0056 56.3534 41.9362 56.2531L50.2543 55.3564L74.5452 34.5254C76.7801 32.6088 77.0385 29.2423 75.1219 27.0057Z"
              fill="#B9DCFF"/>
        <path d="M42.6595 46.502L50.2543 55.3567L41.9362 56.2533C41.0056 56.3536 40.2638 55.489 40.5049 54.5845L42.6595 46.502Z"
              fill="#A2D0FF"/>
        <path d="M74.482 26.2627C74.9748 26.88 74.5072 27.7712 73.7185 27.727C72.3922 27.6525 71.0368 28.0705 69.95 29.0041L46.3082 49.3715C46.2187 49.4487 46.1148 49.5076 46.0025 49.5446C45.8902 49.5816 45.7717 49.5961 45.6538 49.5872C45.5359 49.5784 45.4209 49.5463 45.3154 49.493C45.2099 49.4396 45.1159 49.3659 45.0389 49.2762L42.6592 46.5019L66.9501 25.6709C69.261 23.6875 72.7169 24.0516 74.482 26.2627Z"
              fill="#D1E7FF"/>
        <path d="M45.4449 50.6387L44.2433 55.1459C44.1739 55.4061 44.0273 55.6392 43.8228 55.8145C43.6184 55.9898 43.3656 56.0991 43.0978 56.128L41.9359 56.2533C41.0059 56.3533 40.2646 55.4878 40.5046 54.5845L42.6592 46.502L45.1684 49.4272C45.3095 49.5915 45.4084 49.7876 45.4566 49.9987C45.5048 50.2098 45.5008 50.4295 45.4449 50.6387Z"
              fill="#B9DCFF"/>
        <path d="M63.4398 58.0574C63.0862 58.0574 62.7471 58.1978 62.497 58.4479C62.247 58.6979 62.1065 59.037 62.1065 59.3906V74.6643C62.1065 76.1346 60.9102 77.3309 59.4399 77.3309H20.2745V66.5594C20.2745 64.0443 18.2284 61.9981 15.7133 61.9981H4.94163V5.33317C4.94163 3.86288 6.13793 2.66658 7.60821 2.66658H59.4399C60.9102 2.66658 62.1065 3.86288 62.1065 5.33317V20.424C62.1065 20.7776 62.247 21.1168 62.497 21.3668C62.7471 21.6168 63.0862 21.7573 63.4398 21.7573C63.7934 21.7573 64.1325 21.6168 64.3826 21.3668C64.6326 21.1168 64.7731 20.7776 64.7731 20.424V5.33317C64.7731 2.39243 62.3807 0 59.4399 0H7.60821C4.66747 0 2.27505 2.39243 2.27505 5.33317C2.27505 67.4507 2.19505 63.504 2.42704 63.9485C2.49004 64.0683 2.58204 64.1907 2.66553 64.2742C19.0619 80.6745 18.0412 79.6668 18.2027 79.7743C18.3484 79.8704 18.5112 79.9375 18.6822 79.9722C18.882 80.0118 16.0036 79.9977 59.4399 79.9977C62.3807 79.9977 64.7731 77.6052 64.7731 74.6645V59.3908C64.7731 59.2157 64.7386 59.0423 64.6716 58.8805C64.6047 58.7187 64.5065 58.5717 64.3826 58.4479C64.2588 58.3241 64.1118 58.2259 63.9501 58.1589C63.7883 58.0918 63.6149 58.0574 63.4398 58.0574ZM6.82707 64.6646H15.7133C16.7581 64.6646 17.6079 65.5146 17.6079 66.5594V75.4455L6.82707 64.6646Z"
              fill="#2E58FF"/>
        <path d="M76.1321 26.1379L75.4811 25.3787C73.0883 22.5885 68.8713 22.2652 66.0809 24.6581L55.7727 33.4981V26.0152C55.7727 23.617 53.8216 21.6657 51.4232 21.6657H15.457C13.0585 21.6657 11.1074 23.617 11.1074 26.0152V56.4981C11.1074 56.8517 11.2479 57.1908 11.4979 57.4409C11.748 57.6909 12.0871 57.8314 12.4407 57.8314H21.7738V59.9711C21.7738 60.3248 21.9142 60.6639 22.1643 60.9139C22.4143 61.164 22.7534 61.3044 23.107 61.3044C23.4607 61.3044 23.7998 61.164 24.0498 60.9139C24.2999 60.6639 24.4403 60.3248 24.4403 59.9711V57.8314H31.7896C32.1432 57.8314 32.4823 57.6909 32.7324 57.4409C32.9824 57.1908 33.1229 56.8517 33.1229 56.4981C33.1229 56.1445 32.9824 55.8054 32.7324 55.5553C32.4823 55.3053 32.1432 55.1648 31.7896 55.1648H24.4403V46.1651H35.2733C35.6269 46.1651 35.9661 46.0246 36.2161 45.7746C36.4662 45.5245 36.6066 45.1854 36.6066 44.8318C36.6066 44.4782 36.4662 44.139 36.2161 43.889C35.9661 43.639 35.6269 43.4985 35.2733 43.4985H24.4403V34.4988H46.456C46.8096 34.4988 47.1487 34.3583 47.3988 34.1083C47.6488 33.8582 47.7893 33.5191 47.7893 33.1655C47.7893 32.8119 47.6488 32.4727 47.3988 32.2227C47.1487 31.9727 46.8096 31.8322 46.456 31.8322H24.4403V28.9989C24.4403 28.6453 24.2999 28.3062 24.0498 28.0562C23.7998 27.8061 23.4607 27.6657 23.107 27.6657C22.7534 27.6657 22.4143 27.8061 22.1643 28.0562C21.9142 28.3062 21.7738 28.6453 21.7738 28.9989V31.8322H13.774V26.0154C13.774 25.0874 14.529 24.3324 15.457 24.3324H51.4232C52.351 24.3324 53.1061 25.0874 53.1061 26.0154V35.7851C40.864 46.2837 41.627 45.5479 41.4445 45.9533C41.3753 46.1069 41.5623 45.4388 38.8221 55.7193L37.7444 56.6434C36.8016 57.4521 37.3853 58.9888 38.6131 58.9888C38.9313 58.9892 39.2391 58.8752 39.4804 58.6677L40.558 57.7435L50.3964 56.6826C50.6642 56.6537 50.917 56.5444 51.1215 56.3691L69.5146 40.5954C70.4717 41.7115 70.3424 43.3983 69.2263 44.3555L60.3214 51.9921C60.1885 52.106 60.0793 52.2451 60.0001 52.4013C59.921 52.5574 59.8733 52.7277 59.8599 52.9023C59.8465 53.0768 59.8677 53.2524 59.9221 53.4188C59.9766 53.5852 60.0632 53.7393 60.1772 53.8722C60.2912 54.0051 60.4303 54.1143 60.5864 54.1934C60.7426 54.2726 60.9128 54.3203 61.0874 54.3336C61.262 54.347 61.4375 54.3259 61.6039 54.2715C61.7703 54.217 61.9244 54.1303 62.0573 54.0163L70.9622 46.3797C73.1945 44.4655 73.453 41.0919 71.5387 38.8596L75.4116 35.5382C78.2017 33.1452 78.525 28.9283 76.1321 26.1379ZM21.7738 55.1648H13.774V46.1651H21.7738V55.1648ZM21.7738 34.4988V43.4985H13.774V34.4988H21.7738ZM73.6755 33.514L69.8026 36.8354L67.3517 33.9775C67.2383 33.8424 67.0994 33.7311 66.9427 33.6502C66.7861 33.5692 66.615 33.52 66.4393 33.5056C66.2636 33.4912 66.0868 33.5118 65.919 33.5661C65.7513 33.6205 65.5961 33.7076 65.4622 33.8224C65.3284 33.9372 65.2187 34.0774 65.1394 34.2349C65.0601 34.3923 65.0128 34.564 65.0003 34.7398C64.9878 34.9157 65.0103 35.0923 65.0665 35.2594C65.1227 35.4265 65.2115 35.5808 65.3277 35.7134L67.7787 38.5711L49.6995 54.0755L41.7928 54.9283L43.2951 49.2911L45.444 51.7969C45.5691 51.9431 45.7245 52.0604 45.8993 52.1407C46.0742 52.2211 46.2644 52.2625 46.4568 52.2622C47.5869 52.2622 48.2098 50.9256 47.4683 50.061L44.5389 46.6451L67.8168 26.6824C69.4908 25.2467 72.0212 25.4404 73.457 27.1147L74.108 27.8738C75.5436 29.5479 75.3496 32.0782 73.6755 33.514ZM51.4232 67.8311C53.8216 67.8311 55.7727 65.8798 55.7727 63.4815V60.3796C55.7727 60.026 55.6322 59.6869 55.3822 59.4369C55.1321 59.1868 54.793 59.0463 54.4394 59.0463C54.0858 59.0463 53.7467 59.1868 53.4966 59.4369C53.2466 59.6869 53.1061 60.026 53.1061 60.3796V63.4815C53.1061 64.4095 52.3511 65.1645 51.4232 65.1645H26.8436C26.49 65.1645 26.1509 65.305 25.9008 65.555C25.6508 65.805 25.5103 66.1442 25.5103 66.4978C25.5103 66.8514 25.6508 67.1905 25.9008 67.4406C26.1509 67.6906 26.49 67.8311 26.8436 67.8311H51.4232ZM28.1284 10.9995C27.7748 10.9995 27.4356 11.14 27.1856 11.39C26.9356 11.6401 26.7951 11.9792 26.7951 12.3328C26.7951 12.6864 26.9356 13.0255 27.1856 13.2756C27.4356 13.5256 27.7748 13.6661 28.1284 13.6661H48.2729C48.6265 13.6661 48.9657 13.5256 49.2157 13.2756C49.4657 13.0255 49.6062 12.6864 49.6062 12.3328C49.6062 11.9792 49.4657 11.6401 49.2157 11.39C48.9657 11.14 48.6265 10.9995 48.2729 10.9995H28.1284ZM18.9405 10.9995C18.5869 10.9995 18.2478 11.14 17.9977 11.39C17.7477 11.6401 17.6072 11.9792 17.6072 12.3328C17.6072 12.6864 17.7477 13.0255 17.9977 13.2756C18.2478 13.5256 18.5869 13.6661 18.9405 13.6661H21.8543C22.2079 13.6661 22.547 13.5256 22.797 13.2756C23.0471 13.0255 23.1875 12.6864 23.1875 12.3328C23.1875 11.9792 23.0471 11.6401 22.797 11.39C22.547 11.14 22.2079 10.9995 21.8543 10.9995H18.9405Z"
              fill="#2E58FF"/>
    </g>
    <defs>
        <clipPath id="clip0_67_240">
            <rect width="80" height="80" fill="white"/>
        </clipPath>
    </defs>
</svg>
