<svg width="80" height="80" viewBox="0 0 80 80" fill="none" xmlns="http://www.w3.org/2000/svg">
    <g clip-path="url(#clip0_67_244)">
        <path d="M39.9998 63.8317C53.1618 63.8317 63.8317 53.1618 63.8317 39.9998C63.8317 26.8378 53.1618 16.168 39.9998 16.168C26.8378 16.168 16.168 26.8378 16.168 39.9998C16.168 53.1618 26.8378 63.8317 39.9998 63.8317Z"
              fill="#D1E7FF"/>
        <path d="M41.2905 21.6072C30.2365 24.2872 22.1559 35.2827 22.7887 46.6475C22.9658 49.828 18.4496 50.6776 17.4262 47.6611C12.0827 31.9116 24.2016 15.7013 40.7017 16.1782C43.9112 16.2711 44.411 20.8506 41.2905 21.6072Z"
              fill="#E8F3FF"/>
        <path d="M75.7447 27.3857L71.2283 31.9021C68.5773 34.5533 64.3693 34.354 61.9772 31.9021L54.8727 39.005C53.6194 40.2599 51.5762 40.3516 50.278 39.1433C48.9254 37.8786 48.8761 35.7519 50.1913 34.4353L47.9881 36.6368C46.6832 37.9434 44.5483 37.9151 43.2801 36.5518C42.1118 35.2957 42.1628 33.3574 43.2817 32.0988C43.5167 31.8666 42.4318 32.9421 45.5649 29.8089C44.26 31.1138 42.1252 31.0855 40.8569 29.7223C39.6983 28.4772 39.73 26.531 40.8652 25.2642C40.9524 25.1665 42.1726 23.9501 44.905 21.2178C43.6001 22.5227 41.4652 22.4944 40.1953 21.1311C38.987 19.8329 39.0803 17.7897 40.3336 16.5364L52.6145 4.25551C56.5076 0.362421 62.8205 0.362421 66.7136 4.25551L75.7447 13.2866C79.6378 17.1797 79.6378 23.4926 75.7447 27.3857ZM39.667 63.4635L27.3861 75.7444C23.493 79.6375 17.18 79.6375 13.287 75.7444L4.25586 66.7133C0.364267 62.8217 0.3636 56.5066 4.25586 52.6142L8.77224 48.0978C11.3206 45.5494 15.4622 45.5366 18.0217 48.0961L25.1279 40.9949C26.2628 39.8583 28.0477 39.6766 29.3376 40.5516C30.9527 41.6078 31.2978 44.0182 29.8476 45.5246C29.5176 45.8672 31.2632 44.1127 32.0125 43.3631C33.314 42.0611 35.4424 42.0825 36.7205 43.4481C37.9406 44.7586 37.8223 46.8044 36.5822 48.0444L34.4356 50.191C35.5656 49.061 37.3188 48.931 38.592 49.8027C40.2828 50.9491 40.4544 53.3269 39.0853 54.789C39.0417 54.8383 39.3193 54.5584 35.0956 58.7821C36.4205 57.4572 38.5622 57.5283 39.8053 58.8688C41.0136 60.167 40.9202 62.2102 39.667 63.4635Z"
              fill="#D1E7FF"/>
        <path d="M25.2717 40.858C26.5411 39.7279 28.2709 41.6175 27.0693 42.8192L13.629 56.2624C13.3786 56.5121 13.0393 56.6524 12.6857 56.6524C12.332 56.6524 11.9928 56.5121 11.7424 56.2624C11.2224 55.7407 11.2219 54.897 11.7424 54.3758C21.2508 44.8531 25.1576 40.9597 25.2717 40.858ZM10.8626 49.7469L5.75361 54.8636C4.56085 56.0612 2.70113 54.3463 3.8189 53.0784C4.21787 52.6256 9.04107 47.8426 9.05824 47.8272C10.3328 46.6955 12.0684 48.5422 10.8626 49.7469ZM32.1573 43.2255C33.428 42.0983 35.1548 43.988 33.9537 45.1891L20.4585 58.6856C20.2081 58.9353 19.8689 59.0755 19.5152 59.0755C19.1616 59.0755 18.8224 58.9353 18.572 58.6856C18.052 58.1639 18.0515 57.3201 18.572 56.799C18.5888 56.7822 32.107 43.2702 32.1573 43.2255ZM34.5788 50.0551C35.8492 48.9283 37.5751 50.8185 36.3744 52.0193L25.0834 63.3103C24.833 63.56 24.4938 63.7002 24.1401 63.7002C23.7865 63.7002 23.4473 63.56 23.1969 63.3103C22.6769 62.7886 22.6764 61.9448 23.1969 61.4237C35.2139 49.3898 34.4638 50.1571 34.5788 50.0551ZM35.2404 58.6447C36.5115 57.5186 38.2369 59.408 37.0362 60.6088L27.5064 70.1398C27.3825 70.2636 27.2354 70.3618 27.0736 70.4287C26.9117 70.4956 26.7383 70.53 26.5631 70.5298C25.3789 70.5298 24.7829 69.0912 25.6199 68.2533C35.6776 58.1828 35.0988 58.77 35.2404 58.6447Z"
              fill="#E8F3FF"/>
        <path d="M70.1448 27.5124L65.7521 31.9053C64.754 32.9034 63.0797 33.0049 61.9805 31.9054L68.2584 25.6258C68.5088 25.3761 68.848 25.2358 69.2017 25.2358C69.5553 25.2358 69.8946 25.3761 70.145 25.6258C70.3946 25.8763 70.5348 26.2155 70.5348 26.5691C70.5348 26.9228 70.3945 27.262 70.1448 27.5124Z"
              fill="#B9DCFF"/>
        <path d="M63.3155 25.0891L51.9981 36.4079C50.7916 37.6145 48.9139 35.8893 50.0345 34.6027C50.0445 34.5912 61.3958 23.2358 61.429 23.2026C61.9489 22.6826 62.7939 22.6826 63.3155 23.2026C63.5653 23.453 63.7055 23.7922 63.7055 24.1459C63.7055 24.4995 63.5653 24.8387 63.3155 25.0891ZM58.6908 20.4644L45.2131 33.9408C44.0084 35.1454 42.135 33.4288 43.2471 32.1382C43.2586 32.1249 56.0143 19.3665 56.8043 18.5779C57.0546 18.3281 57.3938 18.1878 57.7475 18.1878C58.1012 18.1878 58.4404 18.3281 58.6908 18.5779C58.9405 18.8283 59.0808 19.1675 59.0808 19.5212C59.0808 19.8748 58.9405 20.214 58.6908 20.4644ZM56.2676 13.6349L42.7966 27.106C41.5897 28.3129 39.7127 26.5867 40.8339 25.2998C40.8442 25.288 54.3811 11.7485 54.3811 11.7485C54.6315 11.4987 54.9707 11.3585 55.3243 11.3585C55.678 11.3585 56.0172 11.4987 56.2676 11.7485C56.5173 11.9989 56.6576 12.338 56.6576 12.6917C56.6576 13.0453 56.5173 13.3845 56.2676 13.6349ZM53.4895 5.27039C53.6133 5.39425 53.7116 5.54131 53.7787 5.70316C53.8457 5.86501 53.8802 6.03848 53.8802 6.21366C53.8802 6.38885 53.8457 6.56232 53.7787 6.72416C53.7116 6.88601 53.6133 7.03307 53.4895 7.15694L42.1487 18.4962C40.9569 19.6897 39.0469 18.0199 40.2171 16.6547L51.6031 5.27022C51.8533 5.0201 52.1925 4.87961 52.5463 4.87964C52.9001 4.87967 53.2393 5.02023 53.4895 5.27039Z"
              fill="#E8F3FF"/>
        <path d="M76.6873 12.3445L67.6557 3.31273C63.2486 -1.09399 56.0785 -1.09366 51.6718 3.31273L40.1475 14.837C26.6476 14.759 15.5616 25.2904 14.869 38.6802C14.8507 39.0333 14.9735 39.3792 15.2103 39.6418C15.4471 39.9044 15.7784 40.0622 16.1316 40.0804C16.4847 40.0987 16.8306 39.9759 17.0931 39.7391C17.3557 39.5023 17.5135 39.1709 17.5318 38.8178C18.1188 27.4697 27.0444 18.4569 38.1983 17.5737C37.4629 19.9904 38.7906 22.421 41.006 23.2305L39.9966 24.2399C37.6089 26.6276 38.5388 30.7858 41.7951 31.8663C40.6985 33.6183 40.8568 35.9064 42.3039 37.4604C43.8798 39.1523 46.3533 39.3528 48.1381 38.2175C49.225 41.4628 53.3441 42.4196 55.8156 39.9479L69.1976 26.5659C69.3226 26.4424 69.422 26.2954 69.49 26.1333C69.558 25.9712 69.5932 25.7973 69.5938 25.6215C69.5943 25.4457 69.5601 25.2716 69.493 25.1091C69.426 24.9466 69.3275 24.799 69.2032 24.6747C69.0789 24.5505 68.9313 24.452 68.7688 24.385C68.6063 24.318 68.4322 24.2837 68.2564 24.2843C68.0806 24.2848 67.9067 24.3201 67.7446 24.3881C67.5826 24.4561 67.4355 24.5555 67.312 24.6806L53.93 38.0624C53.1702 38.8222 51.9395 38.8695 51.1859 38.1677C50.3727 37.4104 50.3639 36.1475 51.134 35.3774L62.3688 24.1426C62.4939 24.0191 62.5932 23.872 62.6612 23.7099C62.7292 23.5479 62.7645 23.3739 62.765 23.1982C62.7655 23.0224 62.7313 22.8483 62.6643 22.6858C62.5973 22.5233 62.4988 22.3757 62.3745 22.2514C62.2502 22.1271 62.1026 22.0286 61.9401 21.9616C61.7776 21.8946 61.6034 21.8604 61.4277 21.8609C61.2519 21.8615 61.078 21.8968 60.9159 21.9648C60.7538 22.0328 60.6068 22.1322 60.4833 22.2572L47.0458 35.6945C46.2817 36.4585 45.0172 36.461 44.2555 35.6427C43.5538 34.8893 43.6012 33.6582 44.361 32.8985L57.743 19.5166C57.868 19.393 57.9674 19.246 58.0353 19.0839C58.1033 18.9218 58.1386 18.7479 58.1391 18.5721C58.1397 18.3964 58.1054 18.2222 58.0384 18.0597C57.9714 17.8973 57.8729 17.7496 57.7486 17.6253C57.6243 17.5011 57.4767 17.4026 57.3142 17.3356C57.1517 17.2686 56.9776 17.2343 56.8018 17.2349C56.626 17.2354 56.4521 17.2707 56.29 17.3387C56.128 17.4067 55.9809 17.5061 55.8574 17.6312L44.6223 28.8663C44.4381 29.0505 44.2187 29.1957 43.9771 29.2932C43.7355 29.3906 43.4768 29.4383 43.2163 29.4334C42.9559 29.4286 42.6991 29.3712 42.4613 29.2647C42.2236 29.1583 42.0097 29.005 41.8326 28.814C41.1312 28.0608 41.1782 26.8304 41.9371 26.0706L55.3199 12.6878C55.445 12.5643 55.5443 12.4172 55.6123 12.2552C55.6803 12.0931 55.7156 11.9191 55.7161 11.7434C55.7166 11.5676 55.6824 11.3935 55.6154 11.231C55.5484 11.0685 55.4499 10.9209 55.3256 10.7966C55.2013 10.6723 55.0537 10.5738 54.8912 10.5068C54.7287 10.4398 54.5545 10.4056 54.3788 10.4062C54.203 10.4067 54.0291 10.442 53.867 10.51C53.7049 10.578 53.5579 10.6774 53.4344 10.8024L43.962 20.275C43.1972 21.0393 41.9334 21.0408 41.1718 20.223C40.4702 19.4696 40.5175 18.2385 41.2773 17.4788L53.5579 5.19828C56.9247 1.83149 62.4033 1.83132 65.7704 5.19828L74.802 14.23C78.1772 17.6052 78.1773 23.0675 74.802 26.4428L70.2862 30.9587C69.7948 31.4521 69.209 31.8413 68.5638 32.1031C68.2393 32.2382 67.9813 32.496 67.8459 32.8203C67.7105 33.1447 67.7086 33.5094 67.8408 33.8351C67.9729 34.1608 68.2283 34.4211 68.5514 34.5595C68.8745 34.6979 69.2391 34.7031 69.566 34.5739C70.5422 34.1785 71.4285 33.5902 72.1719 32.8442L76.6878 28.3283C81.1042 23.9111 81.1047 16.7619 76.6873 12.3445Z"
              fill="#2E58FF"/>
        <path d="M63.8514 39.0918C63.1168 39.0756 62.5078 39.6651 62.495 40.4015C62.2927 51.98 53.1699 61.5062 41.8019 62.4251C42.5377 60.005 41.2045 57.5774 38.9938 56.7697C40.1636 55.5999 39.9846 55.7811 40.0494 55.7091C42.4457 53.1647 41.331 49.1713 38.2047 48.1339C40.1432 45.0366 37.946 41.1348 34.4064 41.072C33.4891 41.0563 32.6144 41.304 31.8617 41.7826C30.7923 38.5895 26.6887 37.5477 24.1842 40.0522L10.8022 53.4342C9.95961 54.2768 10.5681 55.7102 11.745 55.7102C11.9201 55.7104 12.0936 55.6761 12.2553 55.6091C12.4171 55.542 12.5641 55.4437 12.6878 55.3197L26.0698 41.9378C27.31 40.6975 29.4022 41.4858 29.4331 43.2178C29.4386 43.4782 29.3912 43.7371 29.2937 43.9786C29.1962 44.2201 29.0506 44.4392 28.8658 44.6227L17.631 55.8575C16.7883 56.7002 17.3968 58.1336 18.5737 58.1336C18.7489 58.1338 18.9223 58.0994 19.0841 58.0324C19.2459 57.9654 19.3928 57.8671 19.5165 57.7431L32.954 44.3058C33.1381 44.1214 33.3576 43.9761 33.5992 43.8785C33.8408 43.781 34.0997 43.7332 34.3602 43.738C34.6207 43.7429 34.8776 43.8002 35.1154 43.9067C35.3533 44.0131 35.5672 44.1665 35.7443 44.3576C36.4459 45.1111 36.3986 46.3421 35.6388 47.1018L22.2568 60.4838C21.4142 61.3264 22.0227 62.7598 23.1996 62.7598C23.3747 62.76 23.5482 62.7256 23.71 62.6586C23.8718 62.5916 24.0187 62.4933 24.1424 62.3693L35.3775 51.1342C36.1605 50.3527 37.4206 50.3849 38.1672 51.1865C38.8686 51.9396 38.8216 53.17 38.0627 53.9298L24.6799 67.3127C23.8372 68.1553 24.4457 69.5887 25.6226 69.5887C25.7977 69.5889 25.9712 69.5546 26.133 69.4875C26.2948 69.4205 26.4417 69.3222 26.5654 69.1982L36.0378 59.7256C36.8181 58.9457 38.0798 58.9745 38.828 59.7776C39.5296 60.5311 39.4823 61.7622 38.7225 62.5218L26.4419 74.8024C23.0753 78.169 17.5968 78.1697 14.2293 74.8024L5.19774 65.7706C1.82262 62.3955 1.82245 56.9331 5.19774 53.5579L9.71362 49.042C10.2049 48.5485 10.7908 48.1593 11.436 47.8975C11.5983 47.8317 11.746 47.7346 11.8707 47.6117C11.9954 47.4889 12.0947 47.3426 12.1629 47.1814C12.231 47.0201 12.2668 46.847 12.2681 46.6719C12.2693 46.4968 12.2361 46.3232 12.1703 46.161C11.8937 45.4787 11.1157 45.1495 10.4337 45.4267C9.45763 45.8221 8.57134 46.4105 7.82791 47.1564L3.31286 51.6718C-1.10404 56.0889 -1.10453 63.2381 3.31286 67.6555L12.3445 76.6872C16.7513 81.0938 23.9212 81.094 28.3283 76.6872L39.8524 65.1631C53.5089 65.242 64.918 54.357 65.1611 40.448C65.1642 40.2729 65.1328 40.099 65.0687 39.9361C65.0045 39.7732 64.9089 39.6245 64.7872 39.4985C64.6656 39.3726 64.5204 39.2718 64.3598 39.2021C64.1992 39.1323 64.0265 39.0948 63.8514 39.0918Z"
              fill="#2E58FF"/>
    </g>
    <defs>
        <clipPath id="clip0_67_244">
            <rect width="80" height="80" fill="white"/>
        </clipPath>
    </defs>
</svg>
