<svg width="80" height="80" viewBox="0 0 80 80" fill="none" xmlns="http://www.w3.org/2000/svg">
    <g clip-path="url(#clip0_67_241)">
        <path d="M39.9994 78.6575C61.3483 78.6575 78.655 61.3507 78.655 40.0018C78.655 18.6529 61.3483 1.34619 39.9994 1.34619C18.6505 1.34619 1.34375 18.6529 1.34375 40.0018C1.34375 61.3507 18.6505 78.6575 39.9994 78.6575Z"
              fill="#E8F3FF"/>
        <path d="M62.1603 40.0017H78.6556C78.6556 61.3506 61.3489 78.6573 40 78.6573C40.9181 78.1192 62.1603 65.1429 62.1603 40.0017Z"
              fill="#8BC4FF"/>
        <path d="M78.6556 40.0016H62.1603V39.835C62.067 14.8004 41.003 1.93411 40 1.34595C61.3489 1.34595 78.6556 18.6527 78.6556 40.0016ZM40 78.6572V40.0016H62.1603C62.1603 65.1427 40.9181 78.119 40 78.6572Z"
              fill="#A2D0FF"/>
        <path d="M40.0002 1.34619C41.0032 1.93436 62.0672 14.8007 62.1605 39.8352V40.0018H40.0002V1.34619ZM40.0002 40.0018V78.6575C39.0821 78.1193 17.8398 65.143 17.8398 40.0018H40.0002Z"
              fill="#B9DCFF"/>
        <path d="M39.9994 1.34619V40.0018H17.839V39.8352C17.9323 14.8007 38.9963 1.93436 39.9994 1.34619ZM17.839 40.0018C17.839 65.143 39.0813 78.1193 39.9994 78.6575C18.6505 78.6575 1.34375 61.3507 1.34375 40.0018H17.839Z"
              fill="#D1E7FF"/>
        <path d="M68.2759 11.7256C52.7 -3.85065 27.4152 -3.96629 11.7237 11.7256C-3.9047 27.3539 -3.90587 52.6484 11.7237 68.2779C27.337 83.8916 52.6313 83.9228 68.2759 68.2779C83.9044 52.6494 83.9056 27.3551 68.2759 11.7256ZM41.3327 38.6687V13.3426C41.3327 12.9891 41.1923 12.65 40.9423 12.4001C40.6923 12.1501 40.3533 12.0097 39.9998 12.0097C39.6462 12.0097 39.3072 12.1501 39.0572 12.4001C38.8073 12.65 38.6668 12.9891 38.6668 13.3426V38.6687H19.1942C19.4888 29.0118 22.9845 20.1395 29.5984 12.2814C33.9643 7.09422 38.3524 3.99111 39.9998 2.91825C41.647 3.99094 46.0352 7.09406 50.4011 12.2814C57.0152 20.1393 60.5107 29.0116 60.8053 38.6687H41.3327ZM60.8048 41.3346C60.3668 55.6795 52.4495 68.1228 41.3329 76.1577V41.3346H60.8048ZM35.4034 2.96224C24.3684 11.6711 16.95 24.217 16.5263 38.6687H2.70358C3.35373 20.2471 17.4165 5.1811 35.4034 2.96224ZM2.70358 41.3346H16.5291C16.8415 51.9246 20.8346 61.3562 27.4234 69.2561C27.6514 69.5222 27.9751 69.6877 28.3243 69.7169C28.6735 69.7461 29.0202 69.6367 29.2893 69.4122C29.5584 69.1878 29.7283 68.8664 29.7623 68.5177C29.7962 68.1689 29.6915 67.8208 29.4708 67.5486C22.9386 59.7164 19.4875 50.9039 19.1952 41.3346H38.6671V77.298C19.1451 76.6089 3.39255 60.8565 2.70358 41.3346ZM44.5896 77.0419C55.636 68.3073 63.0453 55.753 63.4707 41.3346H68.6584C69.0119 41.3346 69.351 41.1942 69.601 40.9442C69.8509 40.6942 69.9914 40.3552 69.9914 40.0017C69.9914 39.6481 69.8509 39.3091 69.601 39.0591C69.351 38.8091 69.0119 38.6687 68.6584 38.6687H63.4734C63.0482 24.1667 55.5537 11.6096 44.5961 2.96207C63.0152 5.23442 77.3224 20.9779 77.3224 40.0017C77.3224 59.0277 63.0119 74.7726 44.5896 77.0419Z"
              fill="#2E58FF"/>
    </g>
    <defs>
        <clipPath id="clip0_67_241">
            <rect width="80" height="80" fill="white"/>
        </clipPath>
    </defs>
</svg>
