<svg width="80" height="80" viewBox="0 0 80 80" fill="none" xmlns="http://www.w3.org/2000/svg">
    <g clip-path="url(#clip0_67_506)">
        <path d="M59.5973 61.2699C59.5407 61.2501 52.4828 58.8166 52.4145 58.7933C48.761 57.5319 46.3329 54.0961 46.3329 50.2616C52.3028 47.7783 56.4995 41.89 56.4995 35.0217V34.5C58.8928 34.5 60.8328 32.56 60.8328 30.1667V14.5901C60.8328 7.26864 54.8977 1.3335 47.5762 1.3335H36.1413C30.9866 1.3335 26.325 4.31815 24.149 8.94013C23.958 9.34596 23.5911 9.65096 23.1476 9.71863C20.9878 10.0488 19.333 11.9148 19.333 14.1668V30.41C19.333 32.6174 21.119 34.5 23.4996 34.5V35.0217C23.4996 41.89 27.6963 47.7783 33.6663 50.2616C33.6663 54.0959 31.2393 57.5349 27.5846 58.7933C27.5678 58.7991 20.4146 61.2551 20.398 61.2716C16.768 62.5299 14.333 65.9516 14.333 69.7949V77.3332C14.333 77.6868 14.4735 78.0259 14.7235 78.276C14.9736 78.526 15.3127 78.6665 15.6663 78.6665H64.3328C64.6864 78.6665 65.0256 78.526 65.2756 78.276C65.5257 78.0259 65.6661 77.6868 65.6661 77.3332V69.7949C65.6661 65.9499 63.2251 62.5391 59.5973 61.2699Z"
              fill="#D1E7FF"/>
        <path d="M60.8328 14.5901V30.1667C60.8328 32.56 58.8928 34.5 56.4995 34.5V25.8717C56.4995 21.4534 52.9179 17.8718 48.4995 17.8718H31.4996C27.0813 17.8718 23.4997 21.4536 23.4997 25.8717C23.4997 35.1295 23.5177 34.5 23.4663 34.5C21.183 34.5 19.333 32.6684 19.333 30.41V14.1668C19.333 11.9148 20.9878 10.0488 23.1478 9.71863C23.5913 9.65079 23.958 9.34596 24.1492 8.94013C26.325 4.31815 30.9866 1.3335 36.1413 1.3335H47.5762C54.8977 1.3335 60.8328 7.26864 60.8328 14.5901Z"
              fill="#B9DCFF"/>
        <path d="M26.8613 59.0415C21.9433 60.738 20.4146 61.255 20.398 61.2715C16.768 62.5298 14.333 65.9515 14.333 69.7948V77.3331C14.333 77.6867 14.4735 78.0259 14.7235 78.2759C14.9736 78.5259 15.3127 78.6664 15.6663 78.6664H36.6679L26.8613 59.0415ZM59.5973 61.2698C59.5407 61.25 54.3312 59.4532 53.1378 59.0415L43.3312 78.6664H64.3328C64.6864 78.6664 65.0256 78.5259 65.2756 78.2759C65.5257 78.0259 65.6661 77.6867 65.6661 77.3331V69.7948C65.6661 65.9498 63.2251 62.539 59.5973 61.2698Z"
              fill="#A2D0FF"/>
        <path d="M52.4146 58.7929C50.5013 58.134 48.8657 56.85 47.7712 55.1479L42.3446 61.2113H37.6546L32.228 55.1479C31.1335 56.85 29.4979 58.134 27.5847 58.7929C27.5163 58.8163 27.2513 58.9079 26.8613 59.0413L36.668 78.6662H43.3313L53.1379 59.0413C52.7479 58.9079 52.4829 58.8163 52.4146 58.7929Z"
              fill="#D1E7FF"/>
        <path d="M45.5942 53.21C41.8605 54.5469 37.9651 54.4832 34.4027 53.2084C33.8009 52.993 33.4401 52.3739 33.5449 51.7434C33.6256 51.2585 33.6671 50.7632 33.6671 50.2617C37.6001 51.8989 42.1927 51.9854 46.3337 50.2617C46.3337 50.7632 46.3754 51.2584 46.4559 51.7432C46.5065 52.0499 46.448 52.3646 46.2906 52.6326C46.1332 52.9006 45.8867 53.105 45.5942 53.21ZM21.7871 60.7915L21.742 64.5377C21.738 64.8685 21.5911 65.1793 21.3445 65.3998C20.3972 66.2461 19.6393 67.2829 19.1205 68.4424C18.6017 69.6019 18.3337 70.8579 18.334 72.1281V77.4998C18.334 77.8092 18.2111 78.1059 17.9923 78.3247C17.7735 78.5435 17.4767 78.6664 17.1673 78.6664H15.6673C15.3137 78.6664 14.9746 78.526 14.7245 78.2759C14.4745 78.0259 14.334 77.6867 14.334 77.3331V69.7948C14.334 65.9515 16.769 62.5298 20.399 61.2715C20.399 61.2715 20.4006 61.2698 20.404 61.2698C20.4605 61.2498 21.0121 61.0598 21.7871 60.7915Z"
              fill="#B9DCFF"/>
        <path d="M33.1396 58.5681C32.4305 59.2419 30.7826 60.1684 29.2635 60.9016C28.606 61.2189 27.816 60.9506 27.4895 60.2976L26.8613 59.0413C27.2513 58.9079 27.5163 58.8163 27.5847 58.7929C29.4979 58.134 31.1335 56.85 32.228 55.1479L33.2213 56.2579C33.818 56.9248 33.788 57.9514 33.1396 58.5681ZM42.3446 61.2114L47.7712 55.1481C48.0119 55.5208 48.2792 55.8755 48.5712 56.2094C49.1619 56.8846 49.1719 57.8881 48.5736 58.5564L45.7286 61.7349C45.436 62.0619 45.0317 62.2676 44.5951 62.3117C44.1586 62.3558 43.7214 62.2351 43.3693 61.9733L42.3446 61.2114Z"
              fill="#E8F3FF"/>
        <path d="M42.3446 61.2115L45.7229 73.8798L43.3313 78.6664H36.668L34.2763 73.8798L37.6546 61.2115H42.3446ZM58.2129 60.7915L58.3167 69.4838C58.3188 69.6602 58.2859 69.8353 58.2199 69.9989C58.1538 70.1625 58.056 70.3114 57.932 70.4369C57.808 70.5624 57.6603 70.6621 57.4975 70.7301C57.3347 70.7981 57.16 70.8331 56.9836 70.8331H55.5569C55.2561 70.8331 54.9642 70.9348 54.7285 71.1217C54.4928 71.3086 54.3273 71.5697 54.2587 71.8626L52.6663 78.6664H43.3313L53.1379 59.0415L58.2129 60.7915ZM36.668 78.6664H27.333L25.7407 71.8626C25.6721 71.5697 25.5066 71.3086 25.2709 71.1217C25.0352 70.9348 24.7432 70.8331 24.4424 70.8331H23.016C22.8396 70.8331 22.6649 70.798 22.5021 70.73C22.3392 70.662 22.1915 70.5623 22.0675 70.4367C21.9435 70.3112 21.8456 70.1623 21.7796 69.9987C21.7135 69.835 21.6806 69.6599 21.6827 69.4835L21.7864 60.7915L26.8614 59.0415L36.668 78.6664Z"
              fill="#B9DCFF"/>
        <path d="M41.5226 63.0047H40.3976C40.1772 63.0046 39.9631 63.0774 39.7883 63.2117C39.6136 63.3459 39.4881 63.5341 39.4314 63.747L36.5562 74.5261C36.3189 75.4156 35.1074 75.5391 34.6956 74.7156L34.2776 73.8798L37.6559 61.2115H42.3459L42.4887 61.7472C42.6581 62.3818 42.1796 63.0047 41.5226 63.0047ZM26.6251 61.9397L26.0081 62.1527C25.7484 62.2422 25.5226 62.4098 25.3618 62.6326C25.201 62.8554 25.113 63.1224 25.1098 63.3972L25.044 68.9103C25.031 69.993 24.1381 70.8595 23.0556 70.834C22.1956 70.8136 21.6748 70.1701 21.6841 69.4835L21.7878 60.7915L26.8628 59.0415L27.3833 60.0833C27.7431 60.8037 27.3865 61.6767 26.6251 61.9397ZM28.4521 78.6663H27.3343L26.3075 74.2763C26.1038 73.4058 26.7278 72.4901 27.7774 72.4996C28.3958 72.5051 28.9341 72.9263 29.0758 73.5296L29.8616 76.8888C30.0743 77.7971 29.3849 78.6663 28.4521 78.6663ZM55.5873 61.4808L47.3677 77.9291C47.257 78.1506 47.0868 78.337 46.8761 78.4672C46.6655 78.5974 46.4227 78.6664 46.175 78.6664H43.3326L53.1392 59.0415L54.829 59.6243C55.5908 59.8867 55.9475 60.76 55.5873 61.4808ZM47.9839 1.33942C50.1549 1.40475 50.1009 4.66474 47.929 4.69057C46.1464 4.71174 43.9499 4.69507 41.1424 4.66674C35.9881 4.61457 31.3261 7.65139 29.1501 12.2734C28.9591 12.6792 28.5923 12.9842 28.1488 13.0519C25.989 13.3819 24.334 15.248 24.334 17.5V22.3133C23.8006 23.385 23.5006 24.5933 23.5006 25.8717V34.4998C21.1238 34.4998 19.334 32.6215 19.334 30.4098V14.1665C19.334 11.9145 20.9888 10.0485 23.1488 9.71838C23.5923 9.65055 23.959 9.34572 24.1501 8.93989C26.3263 4.31791 30.9879 1.33325 36.1426 1.33325C36.1426 1.33325 47.849 1.33525 47.9839 1.33942Z"
              fill="#D1E7FF"/>
        <path d="M35.6323 46.9364C37.5213 48.2415 35.9264 51.1793 33.7991 50.3158C27.7018 47.8405 23.5 41.8812 23.5 35.0214V25.8714C23.5 24.9898 23.6427 24.1415 23.906 23.3483C24.7577 20.7835 28.5235 21.425 28.5003 24.1275L28.5 33.3546C28.5 39.0456 31.3546 43.981 35.6323 46.9364Z"
              fill="#E8F3FF"/>
        <path d="M37.1667 33.1664V30.8331C37.1667 30.4795 37.0262 30.1403 36.7761 29.8903C36.5261 29.6402 36.1869 29.4998 35.8333 29.4998C35.4797 29.4998 35.1406 29.6402 34.8905 29.8903C34.6405 30.1403 34.5 30.4795 34.5 30.8331V33.1664C34.5 33.52 34.6405 33.8592 34.8905 34.1092C35.1406 34.3593 35.4797 34.4997 35.8333 34.4997C36.1869 34.4997 36.5261 34.3593 36.7761 34.1092C37.0262 33.8592 37.1667 33.52 37.1667 33.1664ZM45.5 33.1664V30.8331C45.5 30.4795 45.3595 30.1403 45.1094 29.8903C44.8594 29.6402 44.5202 29.4998 44.1666 29.4998C43.813 29.4998 43.4739 29.6402 43.2238 29.8903C42.9738 30.1403 42.8333 30.4795 42.8333 30.8331V33.1664C42.8333 33.52 42.9738 33.8592 43.2238 34.1092C43.4739 34.3593 43.813 34.4997 44.1666 34.4997C44.5202 34.4997 44.8594 34.3593 45.1094 34.1092C45.3595 33.8592 45.5 33.52 45.5 33.1664Z"
              fill="#2E58FF"/>
        <path d="M60.0338 60.0089L52.8503 57.5323C51.221 56.9677 49.8274 55.8742 48.8915 54.4259C48.4567 53.7551 47.5555 53.6279 46.9564 54.0933C46.8124 54.2036 47.1197 53.8761 41.749 59.8784H38.2506L36.8797 58.3466C36.6427 58.0877 36.3131 57.9327 35.9625 57.9152C35.6119 57.8978 35.2686 58.0193 35.007 58.2534C34.7454 58.4874 34.5867 58.8152 34.5652 59.1656C34.5438 59.516 34.6613 59.8607 34.8924 60.1249L36.1804 61.5644L33.8949 70.1345L28.7209 59.7811C31.9398 58.4028 34.2232 55.4948 34.8346 52.0941C46.2307 55.5443 57.7405 47.0133 57.8323 35.1605C57.8326 35.1479 57.8328 25.8719 57.8328 25.8719C57.8328 20.7257 53.646 16.5391 48.4995 16.5391H31.4996C26.3531 16.5391 22.1663 20.7259 22.1663 25.8724V32.8495C21.2756 32.3877 20.6663 31.4682 20.6663 30.41V14.1666C20.6663 12.4204 22.0868 11 23.833 11C24.0994 11 24.3598 10.9201 24.5805 10.7707C24.8011 10.6213 24.972 10.4092 25.0709 10.1618C26.8926 5.60864 31.2379 2.66666 36.1419 2.66666H47.5764C54.151 2.66666 59.4998 8.01547 59.4998 14.5901V30.1665C59.4998 30.5202 59.6403 30.8593 59.8903 31.1093C60.1404 31.3594 60.4795 31.4999 60.8331 31.4999C61.1867 31.4999 61.5259 31.3594 61.7759 31.1093C62.026 30.8593 62.1665 30.5202 62.1665 30.1665V14.5901C62.1665 6.54514 55.6215 0 47.5764 0H36.1419C30.4219 0 25.3224 3.27165 22.9278 8.40347C20.1398 8.83996 18 11.2581 18 14.1666V30.4099C18 32.9619 19.7865 35.1065 22.1835 35.6809C22.338 39.8858 23.9605 43.8878 26.7998 47.0116C26.9175 47.1413 27.0597 47.2464 27.2181 47.3211C27.3764 47.3957 27.548 47.4384 27.7229 47.4468C27.8978 47.4551 28.0727 47.4289 28.2374 47.3697C28.4022 47.3104 28.5537 47.2193 28.6833 47.1015C28.8128 46.9837 28.9179 46.8416 28.9926 46.6832C29.0672 46.5248 29.1099 46.3532 29.1183 46.1783C29.1266 46.0034 29.1004 45.8286 29.0412 45.6638C28.982 45.499 28.8909 45.3475 28.7731 45.218C26.2326 42.4228 24.8333 38.8012 24.8333 35.0205V25.8719C24.8333 22.1959 27.8239 19.2053 31.4999 19.2053H48.4998C52.1758 19.2053 55.1665 22.1956 55.1665 25.8714V35.0205C55.1665 45.8575 44.061 53.2104 34.0967 48.9958C33.0236 48.5415 31.9396 49.5848 32.3213 50.6663C32.1576 53.7794 30.1216 56.5071 27.1493 57.5319L19.9661 60.0086C15.7988 61.4527 13 65.3836 13 69.795V78.6663C13 79.02 13.1405 79.3591 13.3905 79.6091C13.6406 79.8592 13.9797 79.9997 14.3333 79.9997C14.6869 79.9997 15.0261 79.8592 15.2761 79.6091C15.5262 79.3591 15.6667 79.02 15.6667 78.6663V69.7952C15.6667 66.6661 17.5636 63.8639 20.4306 62.6847L20.3335 70.817C20.3243 71.5592 20.9245 72.1664 21.6666 72.1664H24.4426L26.0351 78.9702C26.1036 79.2629 26.269 79.5238 26.5044 79.7108C26.7398 79.8977 27.0315 79.9996 27.3321 80C28.1893 80 28.8278 79.2013 28.6314 78.3625L26.7981 70.5292C26.7296 70.2363 26.564 69.9752 26.3283 69.7884C26.0927 69.6015 25.8007 69.4997 25.4999 69.4997H23.016L23.1086 61.7461L26.1913 60.6833L35.4757 79.2625C35.6355 79.576 35.9126 79.8136 36.2468 79.9237C36.5809 80.0337 36.9451 80.0072 37.2598 79.8499C37.5745 79.6926 37.8143 79.4174 37.9269 79.0841C38.0395 78.7507 38.0159 78.3864 37.8611 78.0705L35.6947 73.7354L38.6791 62.5451H41.321L42.0434 65.2532C42.2332 65.9646 42.9632 66.3886 43.6752 66.1979C43.8444 66.1528 44.003 66.0748 44.1421 65.9684C44.2811 65.862 44.3979 65.7292 44.4856 65.5777C44.5733 65.4261 44.6303 65.2588 44.6534 65.0852C44.6764 64.9117 44.665 64.7352 44.6199 64.5661L43.8194 61.5641L47.6972 57.2301C48.6963 58.325 49.9175 59.1942 51.2792 59.7798L42.1389 78.0703C42.059 78.2271 42.0109 78.3982 41.9975 78.5736C41.984 78.7491 42.0054 78.9255 42.0604 79.0926C42.1155 79.2598 42.2031 79.4144 42.3181 79.5475C42.4332 79.6806 42.5735 79.7897 42.7309 79.8683C42.8883 79.947 43.0597 79.9937 43.2353 80.0058C43.4108 80.0179 43.587 79.9951 43.7537 79.9388C43.9204 79.8825 44.0744 79.7937 44.2066 79.6776C44.3388 79.5615 44.4468 79.4203 44.5242 79.2623L53.8087 60.6831L56.8913 61.7459L56.9838 69.4997H54.4998C54.199 69.4997 53.9071 69.6015 53.6714 69.7884C53.4358 69.9752 53.2702 70.2363 53.2017 70.5292L51.3683 78.3625C51.1723 79.2002 51.8095 80 52.6677 80C52.9683 79.9996 53.26 79.8977 53.4954 79.7108C53.7308 79.5239 53.8962 79.2629 53.9647 78.9702L55.5572 72.1664H58.3331C59.0753 72.1664 59.6755 71.5592 59.6663 70.817L59.5691 62.6847C62.4361 63.8639 64.3331 66.6661 64.3331 69.7952V78.6663C64.3331 79.02 64.4736 79.3591 64.7236 79.6091C64.9737 79.8592 65.3128 79.9997 65.6664 79.9997C66.0201 79.9997 66.3592 79.8592 66.6092 79.6091C66.8593 79.3591 66.9998 79.02 66.9998 78.6663V69.7952C66.9998 65.3837 64.2011 61.4531 60.0338 60.0089Z"
              fill="#2E58FF"/>
    </g>
    <defs>
        <clipPath id="clip0_67_506">
            <rect width="80" height="80" fill="white"/>
        </clipPath>
    </defs>
</svg>
