<svg width="80" height="80" viewBox="0 0 80 80" fill="none" xmlns="http://www.w3.org/2000/svg">
    <g clip-path="url(#clip0_67_239)">
        <path d="M76.2287 66.5034L58.3304 51.3335C62.1054 46.1401 64.3339 39.747 64.3339 32.8337C64.3339 15.437 50.2306 1.33374 32.8339 1.33374C15.4373 1.33374 1.33398 15.437 1.33398 32.8337C1.33398 50.2303 15.4373 64.3336 32.8339 64.3336C39.7472 64.3336 46.1404 62.1059 51.3337 58.331L66.5037 76.2284C69.112 79.3051 73.7937 79.4984 76.6453 76.6451C79.4987 73.7934 79.3053 69.1118 76.2287 66.5034Z"
              fill="#B9DCFF"/>
        <path d="M76.2281 66.5032C79.3048 69.1115 79.4981 73.7932 76.6448 76.6449C73.7931 79.4982 69.1115 79.3049 66.5031 76.2282L51.333 58.3307C54.0175 56.3793 56.3785 54.018 58.3297 51.3333L76.2281 66.5032Z"
              fill="#B9DCFF"/>
        <path d="M70.1213 73.8795C72.0598 75.7706 69.3941 78.8001 67.3261 77.0514C66.6835 76.5079 67.867 77.8374 51.333 58.3308C52.4813 57.4975 53.5697 56.5865 54.593 55.6082C70.9236 74.8743 69.7788 73.5453 70.1213 73.8795Z"
              fill="#D1E7FF"/>
        <path d="M59.5908 54.0787C57.9697 56.1212 56.1198 57.9712 54.0773 59.5924C53.5172 60.0371 52.7025 59.9482 52.2402 59.4024L51.333 58.3307C54.0175 56.3793 56.3785 54.018 58.3297 51.3333L59.4015 52.2421C59.9467 52.7044 60.0353 53.5187 59.5908 54.0787Z"
              fill="#A2D0FF"/>
        <path d="M32.8333 57.1668C46.2722 57.1668 57.1666 46.2724 57.1666 32.8335C57.1666 19.3946 46.2722 8.50024 32.8333 8.50024C19.3944 8.50024 8.5 19.3946 8.5 32.8335C8.5 46.2724 19.3944 57.1668 32.8333 57.1668Z"
              fill="#D1E7FF"/>
        <path d="M6.33294 36.167C6.33294 39.0088 6.70927 41.7626 7.41477 44.3816C7.99577 46.5381 4.91194 47.6016 4.00894 45.5589C2.17395 41.4085 1.20911 36.7873 1.34578 31.9266C1.82811 14.7537 16.1879 0.991877 33.4795 1.34021C35.7074 1.38504 35.9069 4.63404 33.6992 4.93704C18.9882 6.95653 6.33294 19.3232 6.33294 36.167Z"
              fill="#D1E7FF"/>
        <path d="M14.0727 41.4392C14.5569 43.6307 11.4374 44.6489 10.5364 42.5934C9.17274 39.4824 8.4409 36.0316 8.50374 32.4029C8.73374 19.0983 19.7817 8.28929 33.2287 8.50362C35.4993 8.53979 35.7633 11.8043 33.5302 12.2161C20.1055 14.6914 11.0286 27.6591 14.0727 41.4392Z"
              fill="#E8F3FF"/>
        <path d="M54.5566 25.2559C54.6142 25.4212 54.7039 25.5736 54.8204 25.7043C54.9369 25.8349 55.0781 25.9414 55.2357 26.0175C55.3934 26.0936 55.5646 26.138 55.7394 26.1479C55.9142 26.1579 56.0892 26.1334 56.2546 26.0757C56.5884 25.9592 56.8624 25.7149 57.0161 25.3965C57.1699 25.0781 57.1908 24.7116 57.0744 24.3777C53.4839 14.0832 43.7423 7.16675 32.8336 7.16675C18.681 7.16675 7.16699 18.6807 7.16699 32.8334C7.16699 46.986 18.681 58.5 32.8336 58.5C46.9862 58.5 58.5002 46.986 58.5002 32.8334C58.5002 32.4797 58.3597 32.1406 58.1097 31.8906C57.8596 31.6405 57.5205 31.5 57.1669 31.5C56.8133 31.5 56.4741 31.6405 56.2241 31.8906C55.974 32.1406 55.8336 32.4797 55.8336 32.8334C55.8336 45.5155 45.5157 55.8333 32.8336 55.8333C20.1515 55.8333 9.83365 45.5157 9.83365 32.8334C9.83365 20.1511 20.1515 9.83341 32.8336 9.83341C42.6094 9.83341 51.3391 16.0312 54.5566 25.2559Z"
              fill="#2E58FF"/>
        <path d="M79.9928 71.4284C79.8985 69.1359 78.8405 66.9703 77.0902 65.4868L65.1952 55.4045C64.9254 55.1758 64.5759 55.0637 64.2235 55.0928C63.871 55.1219 63.5446 55.2898 63.316 55.5595C63.0873 55.8293 62.9752 56.1789 63.0043 56.5313C63.0334 56.8837 63.2013 57.2101 63.471 57.4388L75.366 67.5211C76.5668 68.5388 77.2637 69.9654 77.3283 71.5383C77.4625 74.7946 74.7945 77.4627 71.538 77.3286C69.9652 77.2639 68.5387 76.5669 67.5209 75.3662L53.2569 58.538C61.1212 52.2741 65.6665 42.8628 65.6665 32.8335C65.6665 14.7292 50.9376 0.000244141 32.8333 0.000244141C14.729 0.000244141 0 14.729 0 32.8335C0 50.938 14.729 65.6668 32.8333 65.6668C37.3774 65.6668 41.7777 64.7554 45.9121 62.9581C46.5874 62.6646 46.8969 61.8791 46.6032 61.2038C46.4622 60.8795 46.1982 60.6245 45.8692 60.4949C45.5402 60.3653 45.1732 60.3716 44.8489 60.5126C41.0521 62.1633 37.0094 63.0001 32.8333 63.0001C16.1993 63.0001 2.66666 49.4675 2.66666 32.8335C2.66666 16.1995 16.1993 2.6669 32.8333 2.6669C49.4672 2.6669 62.9999 16.1995 62.9999 32.8335C62.9999 42.4577 58.3456 51.5861 50.5497 57.2525C50.3223 57.4184 50.153 57.652 50.0662 57.9198C49.9793 58.1877 49.9794 58.4761 50.0662 58.7439C50.2074 59.1774 49.4644 58.1881 65.4867 77.0906C67.045 78.9291 69.352 80.0001 71.7642 80.0001C76.4602 79.9999 80.1845 76.0843 79.9928 71.4284Z"
              fill="#2E58FF"/>
        <path d="M46.3332 46.0003C46.6868 46.0003 47.026 45.8598 47.276 45.6097C47.5261 45.3597 47.6665 45.0206 47.6665 44.6669V20.0003C47.6665 19.6467 47.5261 19.3076 47.276 19.0575C47.026 18.8075 46.6868 18.667 46.3332 18.667C45.9796 18.667 45.6404 18.8075 45.3904 19.0575C45.1403 19.3076 44.9999 19.6467 44.9999 20.0003V21.4227L30.3282 35.1773C21.4246 26.9211 22.0009 27.417 21.7211 27.2888C21.4864 27.1814 21.2255 27.1445 20.9702 27.1827C20.7149 27.2208 20.4762 27.3323 20.2831 27.5036C20.2079 27.5703 20.3321 27.4543 13.9163 33.5325C13.6679 33.7776 13.5256 34.1103 13.5197 34.4592C13.5139 34.8081 13.645 35.1454 13.885 35.3988C14.125 35.6521 14.4547 35.8013 14.8034 35.8143C15.1521 35.8273 15.492 35.7032 15.7503 35.4685L19.8333 31.6V44.6668C19.8333 45.0204 19.9737 45.3595 20.2238 45.6096C20.4738 45.8596 20.813 46.0001 21.1666 46.0001C21.5202 46.0001 21.8593 45.8596 22.1094 45.6096C22.3594 45.3595 22.4999 45.0204 22.4999 44.6668V31.5548L28.9999 37.5821V44.6668C28.9999 45.0204 29.1404 45.3595 29.3904 45.6096C29.6405 45.8596 29.9796 46.0001 30.3332 46.0001C30.6869 46.0001 31.026 45.8596 31.276 45.6096C31.5261 45.3595 31.6666 45.0204 31.6666 44.6668V37.5778L44.9999 25.0778V44.6668C44.9998 44.8419 45.0343 45.0153 45.1013 45.1771C45.1683 45.3389 45.2665 45.4859 45.3903 45.6097C45.5142 45.7335 45.6611 45.8317 45.8229 45.8988C45.9847 45.9658 46.1581 46.0003 46.3332 46.0003Z"
              fill="#2E58FF"/>
    </g>
    <defs>
        <clipPath id="clip0_67_239">
            <rect width="80" height="80" fill="white"/>
        </clipPath>
    </defs>
</svg>
