<svg width="80" height="80" viewBox="0 0 80 80" fill="none" xmlns="http://www.w3.org/2000/svg">
    <g clip-path="url(#clip0_67_243)">
        <path d="M68.2492 41.4176C68.2492 23.6046 53.8121 9.16846 36.0001 9.16846C18.1889 9.16846 3.75098 23.6064 3.75098 41.4176C3.75098 51.7706 8.62918 60.9837 16.2123 66.8836L14.519 74.0234C13.9557 76.3933 15.754 78.6666 18.1889 78.6666C19.4739 78.6666 20.6705 78.0133 21.3638 76.9316L24.7521 71.6501C31.9194 74.3212 40.0385 74.377 47.3948 71.5951C47.4246 71.6773 47.1508 71.2361 50.803 76.9316C51.1444 77.4638 51.614 77.9016 52.1688 78.2047C52.7236 78.5079 53.3457 78.6667 53.978 78.6666C56.4129 78.6666 58.2105 76.3935 57.6479 74.0234C55.8221 66.3326 55.9851 66.9214 55.8929 66.8019C63.416 60.8987 68.2492 51.7223 68.2492 41.4176Z"
              fill="#B9DCFF"/>
        <path d="M57.6478 74.0235C58.2104 76.3936 56.4128 78.6667 53.9779 78.6667C53.3457 78.6668 52.7236 78.508 52.1688 78.2048C51.614 77.9017 51.1443 77.4639 50.803 76.9317C47.1554 71.2437 47.4246 71.6774 47.3947 71.5952C50.4548 70.4392 53.3206 68.8229 55.8928 66.802C55.985 66.9215 55.8222 66.3337 57.6478 74.0235ZM24.752 71.6502L21.3638 76.9317C21.0225 77.4639 20.5528 77.9017 19.998 78.2049C19.4432 78.5081 18.8211 78.6669 18.1889 78.6667C15.7539 78.6667 13.9556 76.3934 14.519 74.0235L16.2122 66.8837C18.7992 68.8986 21.6791 70.506 24.752 71.6502Z"
              fill="#D1E7FF"/>
        <path d="M36 65.3337C49.2085 65.3337 59.916 54.6262 59.916 41.4177C59.916 28.2093 49.2085 17.5017 36 17.5017C22.7915 17.5017 12.084 28.2093 12.084 41.4177C12.084 54.6262 22.7915 65.3337 36 65.3337Z"
              fill="#D1E7FF"/>
        <path d="M35.9999 57.0005C44.6061 57.0005 51.5828 50.0238 51.5828 41.4176C51.5828 32.8114 44.6061 25.8347 35.9999 25.8347C27.3937 25.8347 20.417 32.8114 20.417 41.4176C20.417 50.0238 27.3937 57.0005 35.9999 57.0005Z"
              fill="#B9DCFF"/>
        <path d="M60.566 24.5113C57.5877 23.4045 54.4015 22.7252 51.0809 22.5475C50.8125 22.533 50.5545 22.4389 50.3398 22.2772C46.3172 19.2566 41.3117 17.4772 35.8893 17.5018C22.8213 17.561 12.1398 28.2457 12.0843 41.3137C12.0613 46.7335 13.8404 51.7366 16.8612 55.759C17.023 55.9738 17.1171 56.2319 17.1317 56.5005C17.3083 59.8189 17.9868 63.0038 19.0929 65.9812C19.5528 67.2188 18.1208 68.2925 17.053 67.516C8.94788 61.6223 3.84269 52.1794 3.75219 41.7022C3.5992 23.9957 17.9061 9.37889 35.612 9.17073C46.33 9.04473 56.0699 14.1708 62.1054 22.4774C62.8791 23.5423 61.7999 24.9698 60.566 24.5113Z"
              fill="#D1E7FF"/>
        <path d="M48.5601 22.5089C40.3681 22.7009 35.3619 25.8403 34.8419 25.8783C27.1583 26.4406 21.023 32.576 20.4606 40.2596C20.4545 40.3429 20.4326 40.4243 20.3958 40.4993C18.2894 44.7691 17.1926 49.4115 17.0887 53.9726C17.0737 54.6317 16.2174 54.8754 15.8611 54.3207C13.4518 50.5705 12.0637 46.1049 12.0842 41.3136C12.1397 28.2456 22.8212 17.5609 35.8892 17.5017C40.6854 17.48 45.1555 18.8697 48.9075 21.2811C49.4619 21.6376 49.2189 22.4936 48.5601 22.5089Z"
              fill="#E8F3FF"/>
        <path d="M32.5089 27.232C28.1503 29.9032 24.4857 33.5678 21.8145 37.9264C21.516 38.4137 20.7599 38.1045 20.9012 37.5509C22.304 32.051 26.6336 27.7215 32.1334 26.3187C32.6871 26.1774 32.9962 26.9335 32.5089 27.232Z"
              fill="#D1E7FF"/>
        <path d="M35.9995 49.3339C40.3716 49.3339 43.9159 45.7896 43.9159 41.4174C43.9159 37.0453 40.3716 33.501 35.9995 33.501C31.6273 33.501 28.083 37.0453 28.083 41.4174C28.083 45.7896 31.6273 49.3339 35.9995 49.3339Z"
              fill="#D1E7FF"/>
        <path d="M74.2918 8.32245L68.832 8.75194L69.2616 3.29209C69.3256 2.47761 68.4385 1.93379 67.742 2.36078L62.1955 5.76036C60.3189 6.91033 59.3422 9.09527 59.7356 11.2619L60.7489 16.8351L66.322 17.8484C68.4887 18.2417 70.6736 17.265 71.8236 15.3884L75.223 9.84191C75.6498 9.14527 75.1065 8.25846 74.2918 8.32245Z"
              fill="#D1E7FF"/>
        <path d="M69.2616 3.29202L69.1391 4.84464C69.1318 4.9383 69.1023 5.02888 69.0532 5.10897C69.0041 5.18907 68.9368 5.2564 68.8566 5.30546L63.3805 8.66187C62.3026 9.32235 61.4188 10.3012 60.8507 11.4265C60.594 11.9348 59.8374 11.8221 59.7356 11.2618C59.3422 9.09519 60.3189 6.91025 62.1955 5.76028L67.742 2.36071C68.4387 1.93405 69.325 2.47704 69.2616 3.29202Z"
              fill="#E8F3FF"/>
        <path d="M53.458 76.3833C54.1533 77.4514 52.9089 78.7299 51.8544 78.0139C51.434 77.7282 51.0761 77.3599 50.8024 76.9316C47.155 71.2434 47.424 71.6773 47.3942 71.5951C47.8796 71.412 48.3605 71.2172 48.8365 71.0106C49.3641 70.7816 49.9794 70.9628 50.2901 71.4468L53.458 76.3833ZM17.084 75.0425C17.148 76.7558 14.6131 77.0063 14.4332 75.3013C14.3889 74.8736 14.4178 74.4414 14.5186 74.0234L16.2119 66.8835C16.7083 67.2708 17.2162 67.6431 17.735 67.9998C17.9571 68.1519 18.1281 68.3676 18.2253 68.6186C18.3226 68.8696 18.3416 69.1441 18.2798 69.4061C17.1048 74.3625 17.0585 74.3615 17.084 75.0425Z"
              fill="#EEF7FF"/>
        <path d="M65.3101 27.8829C65.1483 27.9497 65.0012 28.0478 64.8772 28.1715C64.7533 28.2951 64.6549 28.442 64.5877 28.6037C64.5206 28.7654 64.4859 28.9388 64.4857 29.1139C64.4855 29.2889 64.5198 29.4624 64.5866 29.6242C66.1318 33.3653 66.9152 37.3332 66.9152 41.4174C66.9152 58.4644 53.0465 72.3332 35.9994 72.3332C18.9524 72.3332 5.08359 58.4644 5.08359 41.4174C5.08359 24.3703 18.9524 10.5016 35.9994 10.5016C42.0192 10.5016 47.8536 12.2325 52.8715 15.5069C53.018 15.6027 53.1821 15.6686 53.3542 15.701C53.5262 15.7333 53.703 15.7314 53.8744 15.6954C54.0457 15.6594 54.2083 15.5899 54.3528 15.491C54.4973 15.3922 54.6209 15.2658 54.7166 15.1191C54.8123 14.9725 54.8781 14.8085 54.9104 14.6364C54.9427 14.4643 54.9408 14.2875 54.9048 14.1162C54.8688 13.9449 54.7994 13.7823 54.7006 13.6378C54.6017 13.4933 54.4754 13.3697 54.3287 13.274C48.8762 9.71574 42.5381 7.83496 35.9994 7.83496C17.4821 7.83496 2.41699 22.9001 2.41699 41.4174C2.41699 51.8668 7.21486 61.216 14.7225 67.3798L13.22 73.7162C12.4601 76.9213 14.8888 79.9997 18.1879 79.9997C19.9352 79.9997 21.5418 79.1215 22.4853 77.6507C22.5798 77.5034 22.6444 77.3388 22.6753 77.1665C22.7062 76.9941 22.7029 76.8174 22.6656 76.6463C22.6282 76.4753 22.5575 76.3132 22.4575 76.1695C22.3575 76.0258 22.2302 75.9031 22.0828 75.8086C21.9354 75.714 21.7709 75.6493 21.5985 75.6184C21.4262 75.5874 21.2494 75.5906 21.0784 75.628C20.9073 75.6654 20.7452 75.7361 20.6015 75.8361C20.4578 75.9361 20.3352 76.0635 20.2407 76.2109C20.0207 76.5557 19.7172 76.8393 19.3583 77.0354C18.9994 77.2316 18.5969 77.3339 18.1879 77.3329C16.6118 77.3329 15.4516 75.8621 15.8146 74.3312L17.0488 69.1265C28.5146 76.9926 43.6527 76.9629 55.0929 69.0273L56.3505 74.3312C56.7135 75.8621 55.5536 77.3329 53.9774 77.3329C53.5685 77.3339 53.1659 77.2315 52.8071 77.0354C52.4483 76.8393 52.1448 76.5557 51.9248 76.2109C51.7309 75.9201 51.4305 75.7171 51.0883 75.6455C50.7461 75.5739 50.3895 75.6396 50.0953 75.8283C49.801 76.0171 49.5926 76.3138 49.515 76.6546C49.4373 76.9955 49.4966 77.3532 49.68 77.6507C50.6235 79.1215 52.23 79.9997 53.9774 79.9997C57.2715 79.9997 59.7064 76.9263 58.9453 73.7162L57.4157 67.265C69.0358 57.6204 72.5294 41.8704 67.0516 28.6064C66.9165 28.2796 66.6572 28.0198 66.3306 27.8841C66.0041 27.7485 65.637 27.748 65.3101 27.8829Z"
              fill="#2E58FF"/>
        <path d="M76.945 7.0315C76.6435 6.84682 76.2809 6.78945 75.9371 6.87198C75.5933 6.95452 75.2963 7.17022 75.1114 7.47165L70.6867 14.6911C69.8304 16.0878 68.1721 16.8287 66.5607 16.5362L63.4909 15.9781C70.3009 9.16811 69.9321 9.61193 70.0697 9.24677C70.1862 8.93778 70.1007 9.63043 70.7444 1.43948C70.8294 0.356513 69.6474 -0.3708 68.7184 0.198184L61.499 4.62323C59.96 5.56654 58.8559 7.11933 58.4697 8.88328C58.2872 9.71709 58.9239 10.5019 59.7735 10.5019C60.0774 10.5014 60.372 10.3972 60.6086 10.2065C60.8453 10.0158 61.0097 9.75011 61.0748 9.45327C61.191 8.9271 61.4118 8.42966 61.724 7.9905C62.0363 7.55134 62.4336 7.17942 62.8924 6.89684L67.8808 3.83942L67.5411 8.15664L52.9732 22.7246C48.3183 18.487 42.342 16.1681 35.9993 16.1681C22.0767 16.1681 10.75 27.4949 10.75 41.4174C10.75 55.3399 22.0767 66.6667 35.9993 66.6667C53.3218 66.6667 65.5935 49.4859 59.832 33.0593C59.7741 32.894 59.6843 32.7418 59.5675 32.6113C59.4508 32.4808 59.3095 32.3745 59.1517 32.2987C58.9938 32.2228 58.8226 32.1788 58.6478 32.1692C58.4729 32.1595 58.2979 32.1844 58.1327 32.2425C57.9675 32.3004 57.8153 32.3903 57.6848 32.5071C57.5543 32.6238 57.4481 32.7651 57.3723 32.9229C57.2964 33.0807 57.2524 33.2519 57.2428 33.4267C57.2331 33.6016 57.2579 33.7766 57.3159 33.9418C62.4574 48.6042 51.5191 64.0001 35.9995 64.0001C23.5473 64.0001 13.4168 53.8696 13.4168 41.4174C13.4168 28.9652 23.5473 18.8347 35.9995 18.8347C41.629 18.8347 46.9354 20.878 51.0849 24.613L47.0712 28.6269C43.9981 25.9573 40.1154 24.5012 35.9996 24.5012C26.6721 24.5012 19.0834 32.0898 19.0834 41.4174C19.0834 50.745 26.6721 58.3336 35.9996 58.3336C47.2105 58.3336 55.3923 47.5399 52.2487 36.6992C52.0437 35.9921 51.3037 35.5846 50.5969 35.7899C50.4287 35.8386 50.2718 35.92 50.1351 36.0294C49.9984 36.1388 49.8846 36.274 49.8001 36.4274C49.7157 36.5808 49.6623 36.7493 49.643 36.9234C49.6237 37.0974 49.6388 37.2735 49.6876 37.4417C52.3332 46.5661 45.4509 55.6668 35.9996 55.6668C28.1424 55.6668 21.75 49.2745 21.75 41.4172C21.75 33.5599 28.1424 27.1676 35.9996 27.1676C39.4017 27.1676 42.6136 28.3501 45.1787 30.519L41.6248 34.0729C40.0195 32.8368 38.0654 32.1673 35.9996 32.1673C30.8993 32.1673 26.7499 36.3167 26.7499 41.4171C26.7499 46.5174 30.8993 50.6668 35.9996 50.6668C40.8399 50.6668 44.8929 46.8881 45.2269 42.0644C45.239 41.8897 45.2166 41.7144 45.161 41.5484C45.1053 41.3823 45.0175 41.2289 44.9025 41.0969C44.7876 40.9648 44.6477 40.8567 44.491 40.7787C44.3342 40.7007 44.1636 40.6543 43.9889 40.6423C43.2515 40.5888 42.6175 41.1457 42.5668 41.8802C42.329 45.3121 39.4446 48.0004 35.9996 48.0004C32.3697 48.0004 29.4165 45.0471 29.4165 41.4172C29.4165 37.7873 32.3697 34.8341 35.9996 34.8341C37.3489 34.8341 38.6317 35.2351 39.7167 35.981L35.1402 40.5576C34.2979 41.4001 34.9057 42.8337 36.083 42.8337C36.2581 42.8339 36.4316 42.7995 36.5933 42.7325C36.7551 42.6655 36.9021 42.5672 37.0258 42.4432L61.198 18.2712C66.5432 19.243 66.4763 19.2652 67.2573 19.2652C69.5461 19.2652 71.7412 18.0734 72.9606 16.0843L77.3855 8.86478C77.5701 8.56322 77.6273 8.20073 77.5447 7.85697C77.4621 7.51321 77.2464 7.2163 76.945 7.0315Z"
              fill="#2E58FF"/>
    </g>
    <defs>
        <clipPath id="clip0_67_243">
            <rect width="80" height="80" fill="white"/>
        </clipPath>
    </defs>
</svg>
