<svg width="20" height="21" viewBox="0 0 20 21" fill="none" xmlns="http://www.w3.org/2000/svg">
<g clip-path="url(#clip0_251_9733)">
<path d="M6.73901 17.6668C6.72331 17.6668 6.70755 17.6614 6.69243 17.6571C2.50896 16.4702 0.334976 11.4308 2.72192 7.24124C2.93817 6.86124 3.41485 6.83041 3.66902 7.17833C3.73934 7.27437 3.82027 7.36218 3.91027 7.44008C4.01231 7.52871 4.17298 7.46346 4.18473 7.32883C4.36957 5.20768 5.37258 3.30511 6.9641 2.17451C7.31494 1.92493 7.77953 2.15535 7.85703 2.62202C7.88033 2.7629 7.91076 2.90251 7.94819 3.04032C7.98174 3.16373 8.1377 3.20407 8.22753 3.11307C8.65979 2.67531 8.99254 2.14906 9.19825 1.55367C9.35242 1.10783 9.90743 0.949082 10.2724 1.24784C10.8653 1.73272 11.3688 2.31972 11.7747 2.9729C11.8523 3.09786 12.0431 3.06915 12.0777 2.92619C12.102 2.82561 12.1226 2.72416 12.1395 2.62206C12.217 2.15539 12.6816 1.92497 13.0325 2.17456C14.6239 3.30511 15.627 5.20772 15.8118 7.32887C15.8236 7.4635 15.9843 7.52875 16.0863 7.44012C16.1763 7.36222 16.2572 7.27441 16.3275 7.17837C16.5817 6.83045 17.0584 6.86128 17.2746 7.24129C19.6662 11.4388 17.4791 16.4895 13.2797 17.6639C13.2615 17.669 13.7348 17.6704 6.73901 17.6668Z" fill="#D1E7FF"/>
<path d="M13.28 17.6638C13.2449 17.6736 13.7076 17.6703 6.73942 17.6668C6.72358 17.6668 6.70783 17.6613 6.69283 17.6571C4.89839 17.1482 3.47379 15.9302 2.62007 14.3747C2.47136 14.1038 2.74391 13.7935 3.0322 13.9049C7.81939 15.7557 12.8109 14.6114 15.2671 11.4701C16.1945 10.2838 16.6504 8.95307 16.8476 7.70968C16.8983 7.38997 17.3281 7.32068 17.4743 7.60951C19.5135 11.6408 17.4235 16.505 13.28 17.6638Z" fill="#B9DCFF"/>
<path d="M13.0671 16.3332H6.90951C4.02839 15.4256 2.32833 12.1472 3.38351 9.00824C3.43551 8.85357 3.59326 8.76148 3.75381 8.79061C4.58886 8.94207 5.43295 8.36202 5.51325 7.44438C5.61358 6.28933 6.01754 5.13973 6.72768 4.23022C6.83947 4.08705 7.04606 4.06905 7.18948 4.18055C7.77361 4.63451 8.62924 4.60401 9.17621 4.04976C9.41432 3.80901 9.62984 3.54693 9.82005 3.26679C9.94605 3.08083 10.218 3.07116 10.3523 3.25121C10.4549 3.38877 10.5516 3.53065 10.6421 3.67646C11.1136 4.43505 12.1029 4.59189 12.782 4.11217C12.923 4.01259 13.1192 4.04276 13.2272 4.17734C13.9643 5.09581 14.3814 6.27003 14.4834 7.44438C14.5635 8.35981 15.4063 8.94323 16.2428 8.79082C16.4034 8.76157 16.5612 8.85373 16.6133 9.00836C17.6647 12.1325 15.985 15.4259 13.0671 16.3332Z" fill="#E8F3FF"/>
<path d="M13.0668 16.3332H6.90925C6.12169 16.085 5.41285 15.6561 4.82351 15.0906C4.5828 14.8596 4.79364 14.4555 5.12035 14.5232C9.63116 15.4581 14.4128 13.9292 16.2159 9.88064C16.3499 9.5798 16.7955 9.63426 16.8487 9.95926C17.3137 12.8023 15.6688 15.524 13.0668 16.3332Z" fill="#D1E7FF"/>
<path d="M13.465 7.42832C12.9583 7.42832 12.5483 7.83828 12.5483 8.34499V7.79957C12.5483 7.25915 12.1099 6.82039 11.5691 6.82039C11.0288 6.82039 10.5899 7.25869 10.5899 7.79957V7.48207C10.5899 6.94331 10.1649 6.46997 9.5899 6.46997C9.02723 6.46997 8.58989 6.92268 8.58989 7.46623V7.8004C8.58989 7.21956 8.08072 6.76914 7.48738 6.82539C6.97404 6.87414 6.58987 7.31956 6.58987 7.83332V9.59501H5.69819C5.22414 9.59501 4.83984 9.97931 4.83984 10.4534V12.998C4.83984 14.9855 6.71487 15.1238 6.71487 17.1109V20.0951C6.71487 20.1835 6.74999 20.2683 6.8125 20.3308C6.87501 20.3934 6.9598 20.4285 7.0482 20.4285H12.9233C13.0117 20.4285 13.0965 20.3934 13.159 20.3308C13.2215 20.2683 13.2566 20.1835 13.2566 20.0951V16.6763C13.2566 15.1413 14.3816 14.6376 14.3816 13.103V8.34541C14.3816 7.83915 13.9712 7.42832 13.465 7.42832Z" fill="#D1E7FF"/>
<path d="M7.60305 18.3023V20.0948C7.60305 20.1832 7.56793 20.268 7.50542 20.3305C7.4429 20.393 7.35812 20.4282 7.26971 20.4282H7.04929C6.96089 20.4282 6.8761 20.393 6.81359 20.3305C6.75107 20.268 6.71596 20.1832 6.71596 20.0948L6.71591 17.0978C6.71479 16.8221 7.07329 16.715 7.22046 16.9482C7.44492 17.304 7.60305 17.7252 7.60305 18.3023ZM8.70661 10.7864H8.04735C6.78254 10.7864 5.75269 11.8032 5.73653 13.0679C5.72911 13.6493 4.8576 13.6608 4.84202 13.0803C4.84031 13.0163 4.84093 10.4484 4.84093 10.4531C4.84093 9.97902 5.22523 9.59473 5.69928 9.59473H8.77765C9.55395 9.59468 9.51487 10.7864 8.70661 10.7864Z" fill="#E8F3FF"/>
<path d="M7.67421 6.82394C7.97763 6.84903 8.09209 7.24395 7.84509 7.42195C7.58458 7.60962 7.42416 7.919 7.42416 8.24979V9.59481H6.59082V7.83312C6.59082 7.26149 7.06474 6.77357 7.67421 6.82394ZM9.61365 6.46998C10.0261 6.47898 10.1539 7.02165 9.79703 7.22853C9.50286 7.39903 9.29915 7.71624 9.29915 8.091V9.94477C9.2568 9.84121 9.18456 9.75261 9.09165 9.69027C8.99873 9.62794 8.88936 9.59469 8.77747 9.59477H8.5908V7.46599C8.59085 6.91994 9.0361 6.45735 9.61365 6.46998ZM11.7069 6.82977C11.9813 6.86836 12.0481 7.23511 11.8115 7.37912C11.5278 7.55178 11.3409 7.86383 11.3409 8.216V9.70519C11.3427 9.98998 10.9911 10.1216 10.8111 9.90098C10.6683 9.72642 10.5905 9.50776 10.5909 9.28226V7.79933C10.5909 7.20495 11.1169 6.74686 11.7069 6.82977ZM13.7645 7.47783C13.9685 7.54766 13.9717 7.83279 13.7736 7.91754C13.4509 8.05558 13.2159 8.37567 13.2159 8.76142C13.2159 8.76142 13.2163 10.3329 13.217 10.3479C13.2274 10.5635 12.9716 10.6878 12.8188 10.5354C12.7332 10.4503 12.6654 10.3491 12.6191 10.2377C12.5728 10.1262 12.5491 10.0067 12.5492 9.88602V8.34475C12.5492 7.71858 13.1652 7.27257 13.7645 7.47783Z" fill="#E8F3FF"/>
<path d="M13.2674 10.7816C12.8527 10.691 12.5483 10.3207 12.5483 9.88619V9.28244C12.5483 9.82548 12.1077 10.2616 11.5691 10.2616C11.0318 10.2616 10.5899 9.82653 10.5899 9.28244V9.32369C10.5899 9.78619 10.2832 10.18 9.87768 10.3023C9.95772 10.2768 10.009 10.199 10.0054 10.1148C9.97609 9.42348 9.40913 8.92822 8.77654 8.92822C8.72703 8.92822 8.67955 8.94789 8.64454 8.9829C8.60954 9.0179 8.58987 9.06538 8.58987 9.11489C8.58987 9.06538 8.5702 9.0179 8.53519 8.9829C8.50019 8.94789 8.45271 8.92822 8.4032 8.92822H6.77651C6.72701 8.92822 6.67953 8.94789 6.64452 8.9829C6.60951 9.0179 6.58984 9.06538 6.58984 9.11489V9.5949H8.58987C8.77891 9.5949 8.92933 9.57852 9.09154 9.69115C9.16308 9.73886 9.22592 9.80619 9.27196 9.88948C9.34654 10.0262 9.34763 10.1573 9.33238 10.3124C9.25663 11.1153 8.57754 11.7616 7.73652 11.7616H7.42719C7.33402 11.7616 7.31064 11.8924 7.39856 11.9232C8.38299 12.2681 9.13642 13.1192 9.16613 14.1654C9.17071 14.3341 9.29738 14.4741 9.4653 14.4912H9.46571C9.66363 14.5112 9.8378 14.3545 9.8328 14.1554C9.81572 13.447 9.54238 12.7754 9.06029 12.2291C8.99487 12.1549 9.00612 12.0416 9.08571 11.9828C9.42693 11.7299 9.69059 11.3865 9.84688 10.9916C10.0883 10.9556 10.364 10.8588 10.6341 10.6362C11.1044 10.9621 11.6888 11.0078 12.1803 10.8107C12.6556 11.4719 13.5326 11.6474 14.2105 11.2842C14.3171 11.2271 14.3816 11.1137 14.3816 10.9928V9.88657C14.3816 10.496 13.8009 10.915 13.2674 10.7816Z" fill="#B9DCFF"/>
<path d="M17.5643 7.07616C17.2431 6.5124 16.5151 6.43936 16.1024 6.92562C15.8149 4.76746 14.736 2.97577 13.2257 1.90264C12.713 1.53838 12.0112 1.80968 11.8346 2.45727C11.4465 1.89893 10.9941 1.4073 10.4835 0.989708C9.94082 0.545786 9.11361 0.778039 8.88319 1.44471C8.72952 1.88934 8.5006 2.29277 8.20022 2.64935C8.19509 2.62209 8.19026 2.59477 8.18572 2.56739C8.06718 1.85259 7.31942 1.51276 6.7707 1.90264C5.26043 2.97577 4.18159 4.76705 3.89396 6.92562C3.47987 6.43765 2.75228 6.51411 2.43211 7.0762C0.472082 10.5168 1.41622 14.7138 4.38546 16.8936C4.42075 16.9195 4.4608 16.9382 4.50331 16.9486C4.54582 16.959 4.58998 16.961 4.63325 16.9543C4.67651 16.9477 4.71805 16.9326 4.75549 16.9099C4.79292 16.8872 4.82552 16.8574 4.85143 16.8221C4.90375 16.7509 4.92562 16.6617 4.91222 16.5743C4.89883 16.487 4.85127 16.4085 4.78001 16.3561C2.01952 14.3296 1.25918 10.482 3.01136 7.40616C3.10528 7.24133 3.28503 7.21799 3.3997 7.37479C3.55658 7.58946 3.75691 7.76946 3.99513 7.90975C4.2105 8.03667 4.48442 7.88934 4.49722 7.63954C4.60692 5.49297 5.60123 3.55145 7.15691 2.44602C7.31842 2.33135 7.49488 2.47618 7.52809 2.6764C7.56941 2.92587 7.63147 3.17146 7.71363 3.41061C7.79092 3.63499 8.07276 3.70962 8.25072 3.55078C8.83589 3.02865 9.26069 2.39335 9.51332 1.66242C9.59186 1.43517 9.87545 1.3535 10.0615 1.50567C10.7054 2.0323 11.2485 2.69102 11.6759 3.46341C11.8154 3.71562 12.1889 3.68299 12.2827 3.41061C12.3649 3.17147 12.427 2.92587 12.4683 2.6764C12.5021 2.47277 12.6802 2.33281 12.8395 2.44598C14.3952 3.55141 15.3894 5.49289 15.4992 7.6395C15.5119 7.88913 15.7856 8.03663 16.0013 7.90971C16.2394 7.76942 16.4397 7.58942 16.5967 7.37479C16.711 7.2182 16.891 7.24099 16.985 7.40612C19.1767 11.2535 17.3471 15.8906 13.5903 17.2156C13.5903 16.2944 13.5445 16.0778 14.1113 15.0505C14.3944 14.5375 14.7153 13.956 14.7153 13.1027V8.76022C14.7153 8.67182 14.6802 8.58703 14.6177 8.52452C14.5552 8.462 14.4704 8.42688 14.382 8.42688C14.2936 8.42688 14.2088 8.462 14.1463 8.52452C14.0837 8.58703 14.0486 8.67182 14.0486 8.76022V9.88657C14.0486 10.2082 13.787 10.4699 13.4653 10.4699C13.1436 10.4699 12.8819 10.2081 12.8819 9.88628V8.34492C12.8819 8.02325 13.1436 7.76154 13.4653 7.76154C13.5537 7.76154 13.6385 7.72642 13.701 7.66391C13.7635 7.6014 13.7986 7.51661 13.7986 7.42821C13.7986 7.3398 13.7635 7.25501 13.701 7.1925C13.6385 7.12999 13.5537 7.09487 13.4653 7.09487C13.2226 7.09466 12.9852 7.16552 12.7824 7.2987C12.444 6.48244 11.4126 6.22523 10.7327 6.7892C10.206 5.90794 8.95381 5.93027 8.44256 6.79036C8.16926 6.56724 7.81401 6.4594 7.45634 6.49336C6.78374 6.55715 6.25686 7.14574 6.25686 7.83325C6.25686 7.92166 6.29198 8.00644 6.35449 8.06896C6.41701 8.13147 6.50179 8.16659 6.5902 8.16659C6.67861 8.16659 6.76339 8.13147 6.8259 8.06896C6.88842 8.00644 6.92354 7.92166 6.92354 7.83325C6.92354 7.48575 7.18525 7.18874 7.51934 7.15703C7.91072 7.11999 8.25689 7.41016 8.25689 7.80025V9.26152H5.69869C5.04151 9.26152 4.50684 9.79619 4.50684 10.4534V12.9976C4.50684 14.1176 5.04926 14.7326 5.52781 15.2751C5.98607 15.7947 6.38186 16.2434 6.38186 17.1107V20.4283C6.38186 20.5167 6.41698 20.6015 6.4795 20.664C6.54201 20.7265 6.62679 20.7617 6.7152 20.7617C6.80361 20.7617 6.88839 20.7265 6.95091 20.664C7.01342 20.6015 7.04854 20.5167 7.04854 20.4283V17.1107C7.04854 15.9913 6.50624 15.3765 6.02778 14.8341C5.5694 14.3145 5.17352 13.8656 5.17352 12.9976V10.4534C5.17352 10.1638 5.4091 9.92819 5.69869 9.92819H8.77685C8.83784 9.92827 8.89631 9.95253 8.93943 9.99566C8.98256 10.0388 9.00682 10.0973 9.0069 10.1582C9.0069 10.8585 8.43718 11.4282 7.73692 11.4282H6.58107C6.49328 11.4288 6.40926 11.464 6.34726 11.5262C6.28527 11.5884 6.25031 11.6725 6.24997 11.7603C6.24964 11.8481 6.28396 11.9325 6.34547 11.9951C6.40699 12.0577 6.49074 12.0936 6.57853 12.0948C7.8443 12.1046 8.95115 13.1774 8.82389 14.4259C8.81946 14.4694 8.82364 14.5134 8.83621 14.5554C8.84877 14.5973 8.86947 14.6363 8.89713 14.6703C8.92479 14.7042 8.95886 14.7324 8.99739 14.7531C9.03593 14.7739 9.07818 14.7869 9.12173 14.7913C9.16528 14.7957 9.20928 14.7916 9.25121 14.779C9.29315 14.7664 9.33219 14.7457 9.36613 14.7181C9.40006 14.6904 9.42821 14.6563 9.44898 14.6178C9.46974 14.5793 9.48271 14.537 9.48715 14.4935C9.58845 13.4996 9.11415 12.581 8.32222 12.0045C9.10486 11.7558 9.67357 11.0221 9.67357 10.1582C9.67357 9.71382 9.34832 9.3449 8.92356 9.27456V7.46604C8.92356 7.10049 9.22265 6.80311 9.59024 6.80311C9.95782 6.80311 10.2569 7.1077 10.2569 7.48208V9.28231C10.2569 9.86144 10.6284 10.3654 11.1813 10.5364C11.3579 10.591 11.5441 10.4917 11.5983 10.3164C11.6244 10.232 11.6159 10.1406 11.5746 10.0624C11.5334 9.98421 11.4628 9.92561 11.3783 9.89949C11.1064 9.8154 10.9236 9.56736 10.9236 9.28231V7.79954C10.9236 7.44341 11.2133 7.1537 11.5695 7.1537C11.9256 7.1537 12.2153 7.44341 12.2153 7.79954V9.88619C12.2153 10.8269 13.2206 11.4304 14.0487 10.9915V13.1026C14.0487 14.5074 12.9237 15.0473 12.9237 16.6761V20.4282C12.9237 20.5166 12.9588 20.6014 13.0213 20.6639C13.0838 20.7265 13.1686 20.7616 13.257 20.7616C13.3454 20.7616 13.4302 20.7265 13.4927 20.6639C13.5552 20.6014 13.5903 20.5166 13.5903 20.4282V17.9184C17.8885 16.5629 20.0042 11.3592 17.5643 7.07616Z" fill="#2E58FF"/>
</g>
<defs>
<clipPath id="clip0_251_9733">
<rect width="20" height="20" fill="white" transform="translate(0 0.761719)"/>
</clipPath>
</defs>
</svg>
