<svg width="20" height="21" viewBox="0 0 20 21" fill="none" xmlns="http://www.w3.org/2000/svg">
<path d="M15.3005 8.35789C15.4422 8.6033 15.413 8.91164 15.228 9.12664L14.6518 9.79455C14.7835 10.4326 14.7835 11.0907 14.6518 11.7287L15.228 12.3966C15.3183 12.5015 15.3738 12.6317 15.3868 12.7695C15.3998 12.9072 15.3696 13.0455 15.3005 13.1654L14.7322 14.1496C14.663 14.2694 14.5582 14.3647 14.4324 14.4223C14.3067 14.4799 14.1661 14.497 14.0301 14.4712L13.1622 14.3062C12.6767 14.7403 12.1069 15.0696 11.4885 15.2737L11.198 16.1062C11.1526 16.2368 11.0675 16.3501 10.9548 16.4302C10.8421 16.5103 10.7072 16.5533 10.5689 16.5533H9.4322C9.14887 16.5533 8.89637 16.3741 8.80304 16.1062L8.51262 15.2737C7.89416 15.0696 7.3244 14.7403 6.83887 14.3062L5.97095 14.4712C5.83502 14.497 5.69442 14.4799 5.56863 14.4223C5.44284 14.3647 5.33809 14.2694 5.26887 14.1496L4.70054 13.1654C4.55887 12.92 4.58804 12.6116 4.77304 12.3966L5.34929 11.7287C5.2176 11.0907 5.2176 10.4326 5.34929 9.79455L4.77304 9.12664C4.68276 9.02182 4.62729 8.89154 4.6143 8.75381C4.60131 8.61609 4.63145 8.47773 4.70054 8.35789L5.26887 7.37372C5.33809 7.25391 5.44284 7.15859 5.56863 7.10096C5.69442 7.04333 5.83502 7.02624 5.97095 7.05205L6.83887 7.21705C7.3244 6.78299 7.89416 6.45365 8.51262 6.24955L8.80304 5.41705C8.89637 5.14914 9.14887 4.96997 9.4322 4.96997H10.5689C10.8522 4.96997 11.1047 5.1491 11.198 5.41701L11.4885 6.24955C12.1069 6.45365 12.6767 6.78299 13.1622 7.21705L14.0301 7.05205C14.1661 7.02624 14.3067 7.04333 14.4324 7.10096C14.5582 7.15859 14.663 7.25391 14.7322 7.37372L15.3005 8.35789ZM12.6672 10.7616C12.6672 9.28872 11.4735 8.09497 10.0005 8.09497C8.52762 8.09497 7.33387 9.28872 7.33387 10.7616C7.33387 12.2346 8.52762 13.4283 10.0005 13.4283C11.4735 13.4283 12.6672 12.2346 12.6672 10.7616Z" fill="#D1E7FF"/>
<path d="M11.198 5.41701C11.2639 5.60593 11.1236 5.8033 10.9235 5.8033H10.6822C10.3989 5.8033 10.1464 5.98247 10.053 6.25039L9.92708 6.61143C9.8297 6.89051 9.61475 7.11422 9.33779 7.21755C7.35991 7.95568 6.1612 9.8828 6.50925 12.1282C6.53142 12.2713 6.52224 12.4175 6.48235 12.5566C6.44246 12.6958 6.3728 12.8246 6.2782 12.9342L6.02304 13.23C5.93275 13.3348 5.87727 13.4651 5.86428 13.6028C5.85129 13.7405 5.88144 13.8789 5.95054 13.9987C6.09345 14.2462 5.843 14.5379 5.57833 14.4301C5.4645 14.3837 5.35479 14.2983 5.26887 14.1496L4.70054 13.1654C4.55887 12.92 4.58804 12.6116 4.77304 12.3966L5.34929 11.7287C5.2176 11.0907 5.2176 10.4326 5.34929 9.79455L4.77304 9.12664C4.68276 9.02182 4.62729 8.89154 4.6143 8.75381C4.60131 8.61609 4.63145 8.47773 4.70054 8.35789L5.26887 7.37372C5.33809 7.25391 5.44284 7.15859 5.56863 7.10096C5.69442 7.04333 5.83502 7.02624 5.97095 7.05205L6.83887 7.21705C7.3244 6.78299 7.89416 6.45365 8.51262 6.24955L8.80304 5.41705C8.89637 5.14914 9.14887 4.96997 9.4322 4.96997H10.5689C10.7072 4.97001 10.842 5.01306 10.9547 5.09316C11.0675 5.17326 11.1525 5.28644 11.198 5.41701ZM14.5976 8.01518L14.5687 8.02064C14.5209 8.02983 14.4715 8.0282 14.4244 8.01587C14.3772 8.00353 14.3334 7.9808 14.2962 7.94935C14.1699 7.84212 14.039 7.74055 13.9038 7.64493C13.6657 7.47689 13.7439 7.10639 14.0302 7.05201C14.1661 7.0262 14.3067 7.04329 14.4325 7.10092C14.5583 7.15855 14.663 7.25387 14.7322 7.37368L14.8211 7.52755C14.9342 7.72372 14.82 7.97293 14.5976 8.01518Z" fill="#E8F3FF"/>
<path d="M15.1999 17.7672C15.4761 18.2455 15.3124 18.8572 14.8341 19.1334C14.3557 19.4097 13.7441 19.2455 13.4682 18.7672C13.192 18.2888 13.3557 17.6776 13.8341 17.4013C14.3124 17.1251 14.9241 17.2888 15.1999 17.7672Z" fill="#B9DCFF"/>
<path d="M14.5077 17.9273C14.3129 18.1001 14.1893 18.3458 14.1681 18.6061C14.1386 18.9689 13.6582 19.0866 13.4728 18.7734C13.1014 18.146 13.5049 17.3536 14.2155 17.27C14.5837 17.2266 14.7851 17.6813 14.5077 17.9273Z" fill="#D1E7FF"/>
<path d="M18.666 11.7617C19.2183 11.7617 19.666 11.314 19.666 10.7617C19.666 10.2094 19.2183 9.76172 18.666 9.76172C18.1137 9.76172 17.666 10.2094 17.666 10.7617C17.666 11.314 18.1137 11.7617 18.666 11.7617Z" fill="#B9DCFF"/>
<path d="M18.8318 10.4218C18.637 10.5946 18.5134 10.8403 18.4922 11.1007C18.4627 11.4635 17.9823 11.5812 17.7969 11.2679C17.4255 10.6405 17.829 9.84821 18.5396 9.76454C18.9078 9.72121 19.1091 10.1758 18.8318 10.4218ZM14.8341 2.39C15.3124 2.66625 15.4761 3.27792 15.1999 3.75625C14.9241 4.23458 14.3124 4.39833 13.8341 4.12208C13.3557 3.84583 13.192 3.23458 13.4682 2.75625C13.7441 2.27792 14.3557 2.11375 14.8341 2.39Z" fill="#D1E7FF"/>
<path d="M14.5077 2.91995C14.3129 3.09274 14.1893 3.33845 14.1681 3.59879C14.1386 3.96158 13.6582 4.07929 13.4728 3.76604C13.1014 3.13866 13.5049 2.34633 14.2155 2.26266C14.5837 2.21929 14.7851 2.67391 14.5077 2.91995Z" fill="#E8F3FF"/>
<path d="M6.53193 2.75625C6.80818 3.23458 6.64443 3.84583 6.1661 4.12208C5.68776 4.39833 5.0761 4.23458 4.80026 3.75625C4.52401 3.27792 4.68776 2.66625 5.1661 2.39C5.64443 2.11375 6.2561 2.27792 6.53193 2.75625Z" fill="#B9DCFF"/>
<path d="M5.84166 2.91995C5.64686 3.09274 5.5232 3.33845 5.50203 3.59879C5.47257 3.96158 4.99212 4.07929 4.8067 3.76604C4.4357 3.13933 4.8382 2.34641 5.54945 2.26266C5.91766 2.21929 6.11899 2.67391 5.84166 2.91995Z" fill="#D1E7FF"/>
<path d="M1.33398 11.7617C1.88627 11.7617 2.33398 11.314 2.33398 10.7617C2.33398 10.2094 1.88627 9.76172 1.33398 9.76172C0.7817 9.76172 0.333984 10.2094 0.333984 10.7617C0.333984 11.314 0.7817 11.7617 1.33398 11.7617Z" fill="#B9DCFF"/>
<path d="M1.50773 10.4219C1.31294 10.5947 1.18927 10.8404 1.16811 11.1007C1.13865 11.4635 0.658191 11.5812 0.472774 11.268C0.101399 10.6406 0.504941 9.84827 1.21552 9.76461C1.58373 9.72127 1.78507 10.1759 1.50773 10.4219ZM6.16615 17.4013C6.64448 17.6776 6.80823 18.2888 6.53198 18.7671C6.25615 19.2455 5.64448 19.4096 5.16615 19.1334C4.68782 18.8572 4.52407 18.2455 4.80032 17.7671C5.07615 17.2888 5.68782 17.1251 6.16615 17.4013Z" fill="#D1E7FF"/>
<path d="M5.84172 17.927C5.64692 18.0998 5.52326 18.3455 5.50209 18.6059C5.47263 18.9687 4.99218 19.0864 4.80676 18.7731C4.43538 18.1457 4.83892 17.3534 5.54951 17.2697C5.91772 17.2264 6.11905 17.681 5.84172 17.927Z" fill="#E8F3FF"/>
<path d="M15.0084 11.6328C15.1071 11.0563 15.1071 10.4672 15.0084 9.89059L15.4794 9.3443C15.6148 9.18708 15.698 8.99167 15.7175 8.7851C15.737 8.57852 15.6918 8.37101 15.5881 8.19126L15.0199 7.20722C14.8075 6.8393 14.3843 6.64551 13.9671 6.7248L13.2574 6.85976C12.806 6.48201 12.3 6.18947 11.7494 5.98797L11.5119 5.30739C11.4435 5.11152 11.3159 4.94177 11.1467 4.82162C10.9776 4.70147 10.7753 4.63685 10.5678 4.63672H9.43153C9.00669 4.63672 8.62728 4.90622 8.48732 5.30739L8.2499 5.98797C7.69928 6.18947 7.19328 6.48197 6.74182 6.85976L6.03219 6.7248C5.61486 6.64555 5.19178 6.8393 4.97932 7.20722L4.41115 8.19126C4.19873 8.55918 4.2424 9.02255 4.51982 9.34426L4.99086 9.89059C4.89215 10.4672 4.89215 11.0563 4.99086 11.6328L4.51982 12.1791C4.38442 12.3364 4.30123 12.5318 4.28176 12.7383C4.26229 12.9449 4.30751 13.1524 4.41115 13.3322L4.97932 14.3162C5.19173 14.6841 5.61482 14.878 6.03219 14.7986L6.74182 14.6637C7.19328 15.0414 7.69928 15.334 8.2499 15.5355L8.48732 16.2161C8.62728 16.6172 9.00669 16.8867 9.43153 16.8867H10.5678C10.9927 16.8867 11.3721 16.6172 11.512 16.2161L11.8025 15.3834C11.8316 15.2999 11.8264 15.2083 11.7879 15.1287C11.7495 15.0491 11.681 14.988 11.5975 14.9589C11.5141 14.9298 11.4224 14.935 11.3428 14.9735C11.2632 15.0119 11.2021 15.0804 11.173 15.1638L10.8826 15.9965C10.8597 16.0618 10.8172 16.1184 10.7608 16.1584C10.7044 16.1985 10.637 16.22 10.5678 16.2201H9.43153C9.36237 16.22 9.29493 16.1985 9.23855 16.1584C9.18217 16.1184 9.13961 16.0618 9.11678 15.9965L8.82632 15.1638C8.80947 15.1155 8.78174 15.0718 8.74526 15.0359C8.70878 15 8.66453 14.9731 8.61594 14.9571C8.03903 14.7669 7.51544 14.4642 7.05982 14.0575C7.02166 14.0234 6.97617 13.9986 6.92688 13.9849C6.87759 13.9712 6.82582 13.9691 6.77557 13.9786L5.90765 14.1437C5.8397 14.1566 5.76944 14.148 5.70658 14.1192C5.64371 14.0904 5.59134 14.0428 5.55669 13.9829L4.98853 12.9989C4.95398 12.939 4.93891 12.8698 4.9454 12.8009C4.9519 12.7321 4.97963 12.6669 5.02477 12.6145L5.60078 11.9465C5.63413 11.9078 5.65814 11.8619 5.67097 11.8125C5.68379 11.7631 5.68508 11.7113 5.67473 11.6613C5.55303 11.0728 5.55303 10.4506 5.67473 9.86214C5.68508 9.81211 5.68379 9.76038 5.67097 9.71094C5.65814 9.66149 5.63413 9.61566 5.60078 9.57697L5.02477 8.90889C4.97965 8.85648 4.95192 8.79134 4.94544 8.72249C4.93895 8.65363 4.95402 8.58447 4.98857 8.52455L5.55673 7.54051C5.59136 7.48064 5.64373 7.43301 5.7066 7.40421C5.76947 7.3754 5.83974 7.36684 5.90769 7.37972L6.77561 7.5448C6.82586 7.55439 6.87765 7.55227 6.92695 7.5386C6.97624 7.52493 7.02173 7.50007 7.05986 7.46597C7.51548 7.05922 8.03903 6.75659 8.61598 6.56639C8.66457 6.55037 8.70881 6.52339 8.74529 6.48753C8.78177 6.45167 8.80951 6.40789 8.82636 6.35959L9.11682 5.52693C9.13964 5.46164 9.18219 5.40506 9.23858 5.36501C9.29497 5.32497 9.36241 5.30343 9.43157 5.30339H10.5679C10.637 5.30344 10.7045 5.32498 10.7608 5.36503C10.8172 5.40508 10.8598 5.46165 10.8826 5.52693L11.1731 6.35959C11.1899 6.40789 11.2177 6.45167 11.2541 6.48753C11.2906 6.52339 11.3349 6.55037 11.3834 6.56639C11.9604 6.75655 12.4839 7.05922 12.9396 7.46597C12.9777 7.50005 13.0232 7.52488 13.0725 7.53855C13.1218 7.55222 13.1736 7.55436 13.2238 7.5448L14.0917 7.37972C14.1597 7.36688 14.2299 7.37545 14.2928 7.40425C14.3557 7.43305 14.408 7.48066 14.4427 7.54051L15.0109 8.52455C15.0454 8.58447 15.0605 8.65365 15.054 8.72252C15.0475 8.79138 15.0198 8.85652 14.9746 8.90893L14.3986 9.57697C14.3653 9.61566 14.3412 9.66149 14.3284 9.71094C14.3156 9.76038 14.3143 9.81211 14.3247 9.86214C14.4464 10.4506 14.4464 11.0728 14.3247 11.6613C14.3143 11.7113 14.3156 11.7631 14.3284 11.8125C14.3412 11.8619 14.3653 11.9078 14.3986 11.9465L14.9746 12.6146C15.0197 12.667 15.0475 12.7321 15.0539 12.801C15.0604 12.8698 15.0454 12.939 15.0108 12.9989L14.4427 13.9829C14.4081 14.0428 14.3557 14.0905 14.2928 14.1193C14.2299 14.1481 14.1596 14.1566 14.0917 14.1437L13.2238 13.9786C13.1369 13.9622 13.0471 13.9808 12.974 14.0305C12.9009 14.0803 12.8506 14.157 12.834 14.2438C12.8175 14.3307 12.8362 14.4205 12.8859 14.4936C12.9356 14.5667 13.0123 14.617 13.0992 14.6336L13.9671 14.7986C14.3843 14.8777 14.8076 14.6841 15.02 14.3162L15.5882 13.3322C15.8006 12.9643 15.7569 12.5009 15.4795 12.1792L15.0084 11.6328Z" fill="#2E58FF"/>
<path d="M7.65225 9.45265C7.57031 9.41948 7.47855 9.42021 7.39715 9.4547C7.31575 9.48918 7.25139 9.55458 7.21821 9.63652C6.42317 11.6006 7.87258 13.7616 10 13.7616C11.6542 13.7616 13 12.4159 13 10.7616C13 8.53073 10.6534 7.09565 8.67683 8.06852C8.59752 8.10756 8.53696 8.17651 8.50848 8.26019C8.48 8.34388 8.48593 8.43545 8.52496 8.51477C8.60625 8.67998 8.80608 8.7481 8.97121 8.66669C10.5052 7.91173 12.3333 9.0249 12.3333 10.7616C12.3333 12.0483 11.2866 13.095 10 13.095C8.309 13.095 7.23117 11.3812 7.83617 9.88669C7.86933 9.80474 7.86859 9.71298 7.8341 9.63158C7.79961 9.55018 7.7342 9.48582 7.65225 9.45265ZM7.98867 2.66294C8.13717 2.66294 9.77229 2.14019 11.934 2.65381C12.02 2.67425 12.1106 2.65968 12.1859 2.61332C12.2612 2.56695 12.3149 2.49258 12.3354 2.40656C12.3558 2.32055 12.3412 2.22994 12.2949 2.15467C12.2485 2.0794 12.1741 2.02563 12.0881 2.00519C10.722 1.68056 9.27796 1.68056 7.91192 2.00519C7.86933 2.01531 7.82915 2.03372 7.79367 2.05936C7.7582 2.08501 7.72812 2.11739 7.70516 2.15467C7.6822 2.19194 7.66681 2.23337 7.65986 2.27659C7.65291 2.31981 7.65455 2.36397 7.66467 2.40656C7.68198 2.4795 7.72337 2.54448 7.78216 2.59099C7.84095 2.63751 7.9137 2.66286 7.98867 2.66294ZM17.9888 8.38219C18.001 8.42443 18.0214 8.46384 18.049 8.49814C18.0765 8.53244 18.1105 8.56095 18.1491 8.58203C18.1877 8.60312 18.2301 8.61636 18.2738 8.62099C18.3176 8.62562 18.3618 8.62155 18.4039 8.60902C18.4461 8.59648 18.4854 8.57573 18.5195 8.54796C18.5535 8.52018 18.5818 8.48594 18.6026 8.44719C18.6234 8.40845 18.6364 8.36597 18.6407 8.3222C18.645 8.27844 18.6406 8.23425 18.6278 8.19219C18.2285 6.84956 17.5058 5.59931 16.5378 4.57644C16.4766 4.51425 16.3934 4.47855 16.3061 4.47701C16.2188 4.47547 16.1344 4.50821 16.0711 4.5682C16.0077 4.62819 15.9703 4.71065 15.967 4.79787C15.9638 4.88509 15.9948 4.97011 16.0535 5.03469C16.95 5.98181 17.6192 7.13944 17.9888 8.38219ZM18.4033 12.9166C18.3613 12.9042 18.3173 12.9001 18.2738 12.9046C18.2302 12.9091 18.188 12.9222 18.1495 12.943C18.111 12.9639 18.077 12.9921 18.0495 13.0261C18.0219 13.0601 18.0013 13.0992 17.9888 13.1411C17.6192 14.3839 16.95 15.5415 16.0536 16.4887C15.852 16.7018 16.0059 17.0511 16.2957 17.0511C16.341 17.0512 16.3859 17.042 16.4275 17.0241C16.4692 17.0062 16.5067 16.9799 16.5378 16.9469C17.5058 15.9241 18.2285 14.6738 18.6278 13.3312C18.6403 13.2892 18.6444 13.2452 18.6398 13.2017C18.6353 13.1581 18.6222 13.1159 18.6014 13.0774C18.5806 13.0389 18.5523 13.0049 18.5183 12.9773C18.4843 12.9497 18.4453 12.9291 18.4033 12.9166ZM11.934 18.8695C10.6688 19.1701 9.33129 19.1701 8.06604 18.8695C8.02345 18.8594 7.97929 18.8577 7.93607 18.8647C7.89285 18.8716 7.85142 18.887 7.81415 18.91C7.77688 18.9329 7.74449 18.963 7.71884 18.9985C7.6932 19.034 7.67479 19.0741 7.66467 19.1167C7.65455 19.1593 7.65292 19.2035 7.65986 19.2467C7.66681 19.2899 7.6822 19.3314 7.70516 19.3686C7.72812 19.4059 7.7582 19.4383 7.79367 19.4639C7.82915 19.4896 7.86933 19.508 7.91192 19.5181C9.27779 19.8427 10.7221 19.8427 12.0881 19.5181C12.1307 19.508 12.1709 19.4896 12.2064 19.4639C12.2418 19.4383 12.2719 19.4059 12.2949 19.3686C12.3178 19.3314 12.3332 19.2899 12.3402 19.2467C12.3471 19.2035 12.3455 19.1593 12.3354 19.1167C12.3253 19.0741 12.3068 19.034 12.2812 18.9985C12.2556 18.963 12.2232 18.9329 12.1859 18.91C12.1486 18.887 12.1072 18.8716 12.064 18.8647C12.0208 18.8577 11.9766 18.8594 11.934 18.8695ZM2.01125 13.1411C1.98556 13.057 1.92764 12.9864 1.85012 12.9448C1.77261 12.9032 1.68177 12.8939 1.59744 12.919C1.5131 12.944 1.4421 13.0014 1.39991 13.0787C1.35773 13.1559 1.34779 13.2466 1.37225 13.3311C1.77154 14.6738 2.49421 15.924 3.46221 16.9469C3.49333 16.9799 3.53087 17.0061 3.57252 17.024C3.61417 17.042 3.65904 17.0512 3.70438 17.0511C3.99425 17.0511 4.148 16.7016 3.94642 16.4886C3.05 15.5415 2.38083 14.3839 2.01125 13.1411ZM3.46217 4.5764C2.49417 5.59927 1.7715 6.84956 1.37221 8.19215C1.35973 8.2341 1.35564 8.27811 1.36016 8.32165C1.36469 8.36519 1.37775 8.40741 1.3986 8.4459C1.41945 8.48439 1.44767 8.5184 1.48167 8.54598C1.51566 8.57356 1.55475 8.59417 1.59671 8.60665C1.63867 8.61913 1.68267 8.62322 1.72621 8.61869C1.76975 8.61416 1.81197 8.6011 1.85046 8.58025C1.88895 8.55941 1.92296 8.53118 1.95054 8.49719C1.97812 8.4632 1.99874 8.42411 2.01121 8.38215C2.38079 7.1394 3.04996 5.98181 3.94637 5.0346C4.00626 4.97024 4.03829 4.88482 4.0355 4.79695C4.0327 4.70907 3.9953 4.62587 3.93144 4.56544C3.86759 4.50501 3.78244 4.47225 3.69455 4.47431C3.60666 4.47636 3.52313 4.51305 3.46217 4.5764ZM6.33333 4.41081C6.40908 4.36619 6.46413 4.29346 6.48651 4.20845C6.5089 4.12344 6.4968 4.03303 6.45284 3.9569C6.40889 3.88077 6.33665 3.82507 6.25184 3.80194C6.16703 3.77881 6.07652 3.79012 6 3.8334C5.68167 4.01719 5.27313 3.90773 5.08933 3.58944C4.90554 3.27106 5.015 2.86256 5.33333 2.67877C5.65163 2.4949 6.06021 2.6044 6.244 2.92277C6.28852 2.99871 6.36126 3.05395 6.44636 3.07645C6.53146 3.09895 6.622 3.08687 6.69823 3.04286C6.77446 2.99885 6.83019 2.92647 6.85325 2.84153C6.87631 2.75658 6.86484 2.66596 6.82133 2.58944C6.45375 1.95273 5.63671 1.73373 5 2.10144C4.36329 2.46902 4.14438 3.2861 4.51196 3.92281C4.87779 4.55635 5.69367 4.78006 6.33333 4.41081ZM13.6667 17.1125C13.5909 17.1571 13.5359 17.2298 13.5135 17.3148C13.4911 17.3999 13.5032 17.4903 13.5472 17.5664C13.5911 17.6425 13.6633 17.6982 13.7482 17.7213C13.833 17.7445 13.9235 17.7332 14 17.6899C14.3183 17.5061 14.7269 17.6155 14.9107 17.9339C15.0945 18.2522 14.985 18.6607 14.6667 18.8445C14.3483 19.0282 13.9398 18.9189 13.756 18.6005C13.664 18.4411 13.4601 18.3866 13.3007 18.4785C13.2241 18.5227 13.1683 18.5955 13.1454 18.6809C13.1225 18.7663 13.1345 18.8573 13.1787 18.9339C13.4253 19.3611 13.8744 19.6003 14.3356 19.6003C15.3555 19.6003 16.0007 18.4884 15.4881 17.6005C15.1205 16.9639 14.3034 16.7449 13.6667 17.1125ZM13.6667 4.41081C14.3087 4.78135 15.1235 4.55406 15.488 3.92277C15.8556 3.28606 15.6367 2.46898 15 2.1014C14.9235 2.05789 14.8329 2.04642 14.7479 2.06948C14.663 2.09254 14.5906 2.14827 14.5466 2.2245C14.5026 2.30073 14.4905 2.39127 14.513 2.47637C14.5355 2.56147 14.5907 2.63421 14.6667 2.67873C14.985 2.86256 15.0945 3.2711 14.9107 3.58944C14.7269 3.90777 14.3184 4.01719 14 3.83344C13.6817 3.6496 13.5722 3.24106 13.756 2.92277C13.8002 2.84621 13.8122 2.75523 13.7893 2.66984C13.7664 2.58445 13.7106 2.51164 13.634 2.46744C13.5961 2.44554 13.5542 2.43133 13.5108 2.42561C13.4674 2.41989 13.4233 2.42278 13.3811 2.4341C13.3388 2.44543 13.2991 2.46498 13.2644 2.49164C13.2297 2.51829 13.2005 2.55152 13.1787 2.58944C12.811 3.22615 13.03 4.04319 13.6667 4.41081ZM6.69938 18.4785C6.53988 18.3865 6.33604 18.4411 6.24404 18.6005C6.06025 18.9189 5.65171 19.0283 5.33338 18.8446C5.01504 18.6607 4.90554 18.2522 5.08938 17.9339C5.27317 17.6155 5.68171 17.5061 6.00004 17.6899C6.07656 17.7332 6.16707 17.7445 6.25188 17.7213C6.33669 17.6982 6.40894 17.6425 6.45289 17.5664C6.49684 17.4903 6.50894 17.3999 6.48656 17.3148C6.46417 17.2298 6.40912 17.1571 6.33338 17.1125C5.69667 16.7451 4.87963 16.9639 4.512 17.6005C4.14442 18.2372 4.36333 19.0543 5.00004 19.4219C5.64071 19.7918 6.45617 19.5665 6.82142 18.9339C6.86559 18.8573 6.87755 18.7663 6.85467 18.6809C6.83178 18.5955 6.77593 18.5227 6.69938 18.4785ZM18.6667 9.42831C17.9315 9.42831 17.3333 10.0264 17.3333 10.7616C17.3333 11.4969 17.9315 12.095 18.6667 12.095C18.7551 12.095 18.8399 12.0599 18.9024 11.9973C18.9649 11.9348 19 11.8501 19 11.7616C19 11.6732 18.9649 11.5885 18.9024 11.5259C18.8399 11.4634 18.7551 11.4283 18.6667 11.4283C18.2991 11.4283 18 11.1292 18 10.7616C18 10.3941 18.2991 10.095 18.6667 10.095C19.0343 10.095 19.3333 10.3941 19.3333 10.7616C19.3333 10.8501 19.3685 10.9348 19.431 10.9973C19.4935 11.0599 19.5783 11.095 19.6667 11.095C19.7551 11.095 19.8399 11.0599 19.9024 10.9973C19.9649 10.9348 20 10.8501 20 10.7616C20 10.0265 19.4019 9.42831 18.6667 9.42831ZM2.66667 10.7616C2.66667 10.0264 2.06854 9.42831 1.33333 9.42831C0.598125 9.42831 0 10.0265 0 10.7616C0 10.8501 0.035119 10.9348 0.0976311 10.9973C0.160143 11.0599 0.244928 11.095 0.333333 11.095C0.421739 11.095 0.506523 11.0599 0.569036 10.9973C0.631548 10.9348 0.666667 10.8501 0.666667 10.7616C0.666667 10.3941 0.96575 10.095 1.33333 10.095C1.70092 10.095 2 10.3941 2 10.7616C2 11.1292 1.70092 11.4283 1.33333 11.4283C1.24493 11.4283 1.16014 11.4634 1.09763 11.5259C1.03512 11.5885 1 11.6732 1 11.7616C1 11.8501 1.03512 11.9348 1.09763 11.9973C1.16014 12.0599 1.24493 12.095 1.33333 12.095C2.06854 12.095 2.66667 11.4969 2.66667 10.7616Z" fill="#2E58FF"/>
</svg>
