<svg width="20" height="21" viewBox="0 0 20 21" fill="none" xmlns="http://www.w3.org/2000/svg">
<g clip-path="url(#clip0_251_9734)">
<path d="M19.459 15.7932L19.344 15.6782C19.167 15.5011 18.9086 15.4249 18.6669 15.4911C17.8678 15.7103 17.0848 14.929 17.3048 14.1286C17.3711 13.8874 17.2944 13.6286 17.1173 13.4515L17.0027 13.3369C16.7244 13.0586 16.2731 13.0586 15.9948 13.3369L14.7218 14.6103L11.8647 11.7531C12.6822 10.676 13.1676 9.33307 13.1676 7.87679C13.1676 4.33295 10.2947 1.45996 6.75081 1.45996C3.20697 1.45996 0.333984 4.33295 0.333984 7.87679C0.333984 11.4206 3.20697 14.2936 6.75081 14.2936C8.2071 14.2936 9.55005 13.8082 10.6272 12.9907L17.5048 19.8683C17.7653 20.1288 18.1873 20.1288 18.4478 19.8683L18.7424 19.5737C19.0028 19.3133 19.0028 18.8912 18.7424 18.6308L18.1857 18.0741L19.459 16.8008C19.7374 16.5224 19.7374 16.0716 19.459 15.7932Z" fill="#D1E7FF"/>
<path d="M18.0103 19.4572C18.2798 19.7266 17.9343 20.1642 17.6145 19.9571C17.5281 19.9012 17.9322 20.2957 11.2783 13.6419C11.136 13.4996 11.1595 13.2646 11.3248 13.1498C11.4636 13.0534 11.6332 13.08 11.7378 13.1846L18.0103 19.4572ZM1.16734 8.29347C1.16734 9.46037 1.47885 10.5546 2.02332 11.4974C2.16878 11.7493 1.81102 11.9828 1.63523 11.7511C0.831083 10.691 0.348904 9.37328 0.334321 7.94354C0.298153 4.39545 3.1846 1.46104 6.74886 1.45996C7.04032 1.45988 7.06732 1.88535 6.77827 1.92281C3.73628 2.31673 1.16734 4.89513 1.16734 8.29347Z" fill="#E8F3FF"/>
<path d="M19.4589 15.7932C19.7372 16.0716 19.7372 16.5224 19.4589 16.8008L18.1855 18.0741L14.7217 14.6103L15.9946 13.3369C16.273 13.0586 16.7242 13.0586 17.0026 13.3369L17.1172 13.4515C17.2942 13.6286 17.3709 13.8874 17.3047 14.1286C17.0847 14.9291 17.8676 15.7103 18.6668 15.4911C18.9085 15.4249 19.1668 15.5011 19.3439 15.6782L19.4589 15.7932Z" fill="#D1E7FF"/>
<path d="M19.3754 15.7112C19.5783 15.9031 19.4985 16.2451 19.2085 16.3245C18.8937 16.4108 18.5815 16.3419 18.3321 16.1778C18.0511 15.993 18.1669 15.5586 18.5012 15.5226C18.5571 15.5166 18.6125 15.506 18.6668 15.4912C18.895 15.4286 19.1381 15.4931 19.3136 15.6497C19.3136 15.6497 19.3685 15.7047 19.3754 15.7112ZM17.1217 13.4561C17.295 13.6324 17.1879 13.9347 16.9429 13.9682C16.7889 13.9892 16.646 14.0602 16.5363 14.1703L15.6256 15.0813C15.5972 15.1097 15.5635 15.1323 15.5263 15.1477C15.4892 15.1631 15.4494 15.171 15.4092 15.171C15.369 15.171 15.3292 15.1631 15.292 15.1477C15.2549 15.1323 15.2212 15.1098 15.1927 15.0813L14.7217 14.6103L15.9946 13.3369C16.273 13.0586 16.7242 13.0586 17.0026 13.3369L17.1217 13.4561Z" fill="#E8F3FF"/>
<path d="M6.75142 3.04346C4.08177 3.04346 1.91797 5.20726 1.91797 7.87691C1.91797 8.83402 2.19589 9.72612 2.6759 10.4766C4.57841 13.454 8.92506 13.4531 10.8269 10.4766C11.307 9.72612 11.5849 8.83402 11.5849 7.87691C11.5849 5.20726 9.42107 3.04346 6.75142 3.04346Z" fill="#D1E7FF"/>
<path d="M7.04407 3.05218C7.33416 3.06947 7.36208 3.49073 7.07686 3.5464C4.40492 4.06771 2.64246 6.73023 3.30585 9.44351C3.31532 9.48211 3.31532 9.52244 3.30585 9.56104C3.29637 9.59965 3.2777 9.63539 3.25143 9.66522C3.0313 9.91445 2.83837 10.1864 2.67592 10.4766C2.18882 9.7151 1.90986 8.80774 1.91815 7.83463C1.94157 5.10027 4.26712 2.88659 7.04407 3.05218Z" fill="#E8F3FF"/>
<path d="M10.8249 10.4767C8.9224 13.4541 4.57571 13.4532 2.67383 10.4767C3.24134 9.46205 4.1772 8.6812 5.29973 8.31494C6.09812 9.11963 7.39974 9.1205 8.19897 8.31494C9.32149 8.6812 10.2574 9.46205 10.8249 10.4767Z" fill="#B9DCFF"/>
<path d="M4.09711 11.9186C3.52655 11.5434 3.04157 11.052 2.67383 10.4766C2.78162 10.2841 2.90288 10.0995 3.03671 9.92408C3.1568 9.7667 3.40172 9.80183 3.47097 9.98725C3.68456 10.5589 4.00736 11.0874 4.42041 11.5422C4.61858 11.7604 4.34337 12.0805 4.09711 11.9186ZM6.74935 4.83521C7.87687 4.83521 8.79106 5.74939 8.79106 6.87692C8.79106 7.43777 8.56522 7.9457 8.19897 8.31488C7.40057 9.11956 6.09895 9.12044 5.29973 8.31488C4.93347 7.9457 4.70763 7.43777 4.70763 6.87692C4.70763 5.74939 5.62182 4.83521 6.74935 4.83521Z" fill="#D1E7FF"/>
<path d="M5.67073 8.00758C5.76606 8.26329 5.43997 8.46597 5.25426 8.26596C4.89087 7.87462 4.67891 7.34015 4.71245 6.75622C4.77779 5.61923 5.78769 4.72616 6.9603 4.84571C7.23347 4.87354 7.26893 5.25601 7.00576 5.3343C5.85744 5.6759 5.2623 6.91234 5.67073 8.00758Z" fill="#E8F3FF"/>
<path d="M19.6942 15.5576L19.5793 15.4427C19.3142 15.1776 18.9308 15.0729 18.5784 15.1696C18.0271 15.3209 17.4739 14.7689 17.6255 14.2172C17.7224 13.8649 17.6178 13.4813 17.3525 13.2159L17.2378 13.1012C16.8291 12.6925 16.1675 12.6924 15.7587 13.1012L15.6126 13.2473C15.5816 13.2782 15.5571 13.3149 15.5403 13.3554C15.5236 13.3958 15.5149 13.4392 15.5149 13.4829C15.5149 13.5267 15.5236 13.5701 15.5403 13.6105C15.5571 13.6509 15.5816 13.6877 15.6126 13.7186C15.6435 13.7496 15.6802 13.7742 15.7207 13.7909C15.7611 13.8077 15.8045 13.8163 15.8482 13.8163C15.892 13.8163 15.9354 13.8077 15.9758 13.791C16.0162 13.7742 16.053 13.7496 16.0839 13.7187L16.2301 13.5726C16.2653 13.5374 16.3071 13.5094 16.3531 13.4903C16.3991 13.4713 16.4484 13.4614 16.4982 13.4614C16.5481 13.4614 16.5974 13.4713 16.6434 13.4903C16.6894 13.5094 16.7312 13.5374 16.7664 13.5726L16.8811 13.6873C16.9773 13.7834 17.0162 13.9187 16.9827 14.0404C16.6941 15.09 17.7037 16.1008 18.7547 15.8125C18.8764 15.7791 19.0119 15.818 19.1079 15.9141L19.2228 16.0289C19.3706 16.1768 19.3706 16.4174 19.2228 16.5653L17.9494 17.8386C17.9185 17.8695 17.8939 17.9063 17.8771 17.9467C17.8604 17.9872 17.8518 18.0305 17.8518 18.0743C17.8518 18.118 17.8604 18.1614 17.8771 18.2018C17.8939 18.2423 17.9185 18.279 17.9494 18.31L18.5061 18.8667C18.5371 18.8977 18.5617 18.9344 18.5784 18.9749C18.5952 19.0153 18.6038 19.0586 18.6038 19.1024C18.6038 19.1462 18.5952 19.1896 18.5784 19.23C18.5617 19.2704 18.5371 19.3072 18.5061 19.3381L18.2115 19.6328C18.0815 19.7627 17.87 19.7627 17.7401 19.6328L10.8621 12.7549C10.8051 12.6979 10.7295 12.6635 10.6491 12.658C10.5687 12.6525 10.489 12.6763 10.4248 12.7251C9.3604 13.5332 8.0897 13.9604 6.75017 13.9604C3.39571 13.9604 0.666683 11.2313 0.666683 7.87688C0.666683 4.52242 3.39571 1.79339 6.75017 1.79339C10.1046 1.79339 12.8337 4.52242 12.8337 7.87688C12.8337 9.21641 12.4065 10.4871 11.5984 11.5516C11.5497 11.6157 11.5258 11.6954 11.5313 11.7758C11.5368 11.8562 11.5712 11.9318 11.6282 11.9888L16.5824 16.943C16.6449 17.0055 16.7297 17.0406 16.8181 17.0406C16.9065 17.0406 16.9912 17.0055 17.0538 16.943C17.0847 16.912 17.1093 16.8753 17.126 16.8348C17.1428 16.7944 17.1514 16.7511 17.1514 16.7073C17.1514 16.6635 17.1428 16.6202 17.126 16.5797C17.1093 16.5393 17.0847 16.5025 17.0538 16.4716L12.3008 11.7187C13.0865 10.5875 13.5003 9.26541 13.5003 7.87688C13.5003 4.15483 10.4722 1.12671 6.75017 1.12671C3.02812 1.12671 0 4.15483 0 7.87688C0 11.5989 3.02812 14.627 6.75017 14.627C8.1387 14.627 9.46078 14.2132 10.5919 13.4276L17.2686 20.1042C17.6585 20.4941 18.293 20.4942 18.6829 20.1042L18.9775 19.8096C19.3683 19.4188 19.3684 18.7862 18.9775 18.3953L18.6565 18.0743L19.6942 17.0367C20.102 16.6289 20.102 15.9654 19.6942 15.5576Z" fill="#2E58FF"/>
<path d="M2.39448 10.656C3.34896 12.1517 4.97866 13.0436 6.75083 13.0436C9.59982 13.0436 11.9176 10.7257 11.9176 7.87676C11.9176 5.02777 9.59982 2.70996 6.75083 2.70996C3.80305 2.70996 1.45787 5.1624 1.58925 8.11047C1.59355 8.19852 1.63256 8.28129 1.69774 8.34065C1.76292 8.40001 1.84895 8.43113 1.93702 8.42721C2.0251 8.42328 2.10803 8.38463 2.16767 8.31971C2.22731 8.25479 2.25881 8.16889 2.25526 8.0808C2.14093 5.51561 4.18031 3.37664 6.75083 3.37664C9.23219 3.37664 11.2509 5.3954 11.2509 7.87676C11.2509 10.3581 9.23219 12.3769 6.75083 12.3769C5.27488 12.3769 3.91364 11.6656 3.06937 10.4647C3.57521 9.65088 4.32952 9.03149 5.22371 8.69532C6.10365 9.43675 7.39218 9.43867 8.27696 8.69469C8.69239 8.85096 9.08121 9.07044 9.42965 9.34538C9.49923 9.39863 9.58697 9.42235 9.67391 9.41141C9.76084 9.40047 9.83997 9.35575 9.89419 9.28691C9.9484 9.21808 9.97333 9.13067 9.9636 9.04359C9.95386 8.95652 9.91024 8.87677 9.84216 8.82161C9.5059 8.55667 9.13689 8.33617 8.74426 8.16556C8.98526 7.79405 9.12593 7.35166 9.12593 6.87677C9.12593 5.56716 8.06049 4.50171 6.75088 4.50171C5.54797 4.50171 4.53407 5.40132 4.39244 6.59431C4.38202 6.6821 4.4069 6.77043 4.46161 6.83987C4.51632 6.90932 4.59637 6.95419 4.68416 6.96461C4.86737 6.98653 5.03275 6.85569 5.05446 6.67289C5.15625 5.81521 5.88556 5.16844 6.75083 5.16844C7.69282 5.16844 8.45921 5.93483 8.45921 6.87681C8.45921 8.36189 6.66496 9.17575 5.53864 8.08101C5.49519 8.03682 5.44028 8.00562 5.38008 7.99091C5.31988 7.97621 5.25677 7.97858 5.19784 7.99776C4.00056 8.3886 3.00066 9.21079 2.38443 10.3139C2.35522 10.3665 2.34074 10.4261 2.34251 10.4863C2.34428 10.5465 2.36223 10.6051 2.39448 10.656Z" fill="#2E58FF"/>
</g>
<defs>
<clipPath id="clip0_251_9734">
<rect width="20" height="20" fill="white" transform="translate(0 0.761719)"/>
</clipPath>
</defs>
</svg>
