<svg width="20" height="21" viewBox="0 0 20 21" fill="none" xmlns="http://www.w3.org/2000/svg">
<g clip-path="url(#clip0_251_9731)">
<path d="M16.9656 16.78C17.3954 15.8175 17.3834 15.2436 16.8669 14.3148C17.4279 13.3053 17.3721 12.571 16.4725 11.751C16.8086 10.6923 16.5562 10.1663 16.4288 9.96556C16.1359 9.50214 15.5579 9.273 15.0144 9.18383C14.0073 9.01186 12.8055 9.24759 11.8313 9.57907C11.8948 8.26 11.6855 6.82323 11.1712 5.4047C10.4836 3.5064 7.63861 4.27771 8.08091 6.30097C8.48948 8.17095 7.75023 10.0439 6.20259 11.155C6.14803 10.6544 5.72364 10.265 5.20887 10.265H3.66166C3.10982 10.265 2.66211 10.7123 2.66211 11.2646V19.4292C2.66211 19.981 3.10982 20.4287 3.66166 20.4287H5.20887C5.74488 20.4287 6.1826 20.0064 6.20717 19.4767C11.7705 20.1797 19.1609 21.4046 16.9656 16.78Z" fill="#D1E7FF"/>
<path d="M9.81135 4.32277C10.4413 4.37949 10.553 5.24752 9.96286 5.47496C9.29521 5.7323 8.79119 6.40212 8.99672 7.34207C9.47109 9.5123 8.6627 10.8393 7.12402 11.8284C6.72824 12.0828 6.20702 11.8007 6.20436 11.3302C6.20377 11.2242 6.20302 11.1629 6.20215 11.1549C7.74978 10.0438 8.48903 8.17086 8.08047 6.30088C7.80272 5.03045 8.83525 4.23489 9.81135 4.32277ZM15.2627 10.167C14.6753 10.1615 14.0598 10.258 13.4935 10.3999C13.1234 10.4927 12.7654 10.2189 12.7528 9.83757C12.7419 9.50813 12.9718 9.26391 13.2545 9.21951C13.9678 9.10756 14.7561 9.08986 15.3922 9.26699C15.9116 9.41164 15.8019 10.1721 15.2627 10.167Z" fill="#E8F3FF"/>
<path d="M6.20842 11.2644C6.20842 11.2644 6.20796 19.4607 6.20717 19.4766C6.18093 20.0062 5.74488 20.4286 5.20887 20.4286H3.66166C3.10982 20.4286 2.66211 19.9809 2.66211 19.4291V11.2644C2.66211 10.7122 3.10982 10.2649 3.66166 10.2649H5.20887C5.75588 10.2649 6.20842 10.7059 6.20842 11.2644Z" fill="#B9DCFF"/>
<path d="M5.23196 10.973H4.66134C4.1093 10.973 3.66179 11.4205 3.66179 11.9725V19.4427C3.66179 20.0843 2.69602 20.1214 2.66353 19.4806C2.66149 19.4406 2.66224 17.4336 2.66224 11.2645C2.66224 10.7125 3.10975 10.265 3.66179 10.265C3.66179 10.265 5.24112 10.2653 5.25703 10.2661C5.71191 10.2876 5.68738 10.973 5.23196 10.973ZM17.4304 3.16196C17.6432 3.4664 17.4254 3.88455 17.0539 3.88455H16.4966C16.4825 4.63088 16.4859 6.3915 16.5109 7.40683C16.5154 7.59395 16.365 7.7478 16.1778 7.7478H15.3143C15.2699 7.74782 15.2259 7.73896 15.185 7.72172C15.144 7.70449 15.107 7.67924 15.0759 7.64745C15.0449 7.61567 15.0206 7.578 15.0043 7.53666C14.9881 7.49532 14.9803 7.45114 14.9814 7.40675C15.0064 6.39141 15.0097 4.63088 14.9956 3.88455H14.4388C14.0673 3.88455 13.8491 3.46599 14.0623 3.16154L15.37 1.29155C15.5529 1.03042 15.9398 1.03042 16.1226 1.29155L17.4304 3.16196Z" fill="#D1E7FF"/>
<path d="M15.4128 7.74784H15.3143C15.2699 7.74795 15.2259 7.73914 15.1849 7.72193C15.1439 7.70472 15.1068 7.67947 15.0758 7.64767C15.0448 7.61587 15.0204 7.57817 15.0042 7.53679C14.988 7.49541 14.9803 7.45121 14.9815 7.40679C14.9993 6.67653 15.0062 5.56062 15.0031 4.71384C15.0023 4.49002 15.1806 4.30673 15.4044 4.30173C15.6548 4.29615 15.832 4.48861 15.8339 4.70876C15.84 5.4226 15.837 6.50457 15.8238 7.34348C15.8203 7.56796 15.6373 7.74784 15.4128 7.74784ZM16.2095 1.41579C16.2709 1.50366 16.2656 1.61874 16.2041 1.70653C14.8004 3.71258 14.884 3.5911 14.8637 3.62975C14.7808 3.78713 14.6167 3.88455 14.4388 3.88455C14.0673 3.88455 13.8491 3.46599 14.0624 3.16154L15.3701 1.29155C15.5529 1.03042 15.9398 1.03042 16.1227 1.29155L16.2095 1.41579Z" fill="#E8F3FF"/>
<path d="M5.93432 4.95322C6.14714 5.25766 5.92932 5.67581 5.55782 5.67581H5.00057C4.98691 6.40123 4.9897 7.25651 5.01278 7.94516C5.01907 8.1334 4.86818 8.28962 4.6798 8.28962H3.82032C3.63194 8.28962 3.48114 8.13353 3.48742 7.94528C3.5105 7.25667 3.51325 6.40123 3.49959 5.67581H2.94275C2.57126 5.67581 2.35302 5.25725 2.56626 4.9528L3.874 3.08281C4.05683 2.82168 4.44374 2.82168 4.62658 3.08281L5.93432 4.95322Z" fill="#D1E7FF"/>
<path d="M3.92377 8.28962H3.82032C3.63211 8.28962 3.48122 8.1334 3.48742 7.94528C3.50034 7.55525 3.50708 6.82908 3.50787 6.50189C3.50841 6.27895 3.68683 6.09778 3.90973 6.09274C4.1595 6.08712 4.33637 6.27845 4.33875 6.49773C4.34258 6.84703 4.34104 7.55791 4.33383 7.88814C4.32896 8.11116 4.14683 8.28962 3.92377 8.28962ZM4.71337 3.20701C4.7708 3.28922 4.77426 3.40271 4.70696 3.49929C3.30438 5.51213 3.38793 5.38244 3.3676 5.421C3.28597 5.57606 3.1233 5.67581 2.94275 5.67581C2.57126 5.67581 2.35302 5.25725 2.56626 4.9528L3.874 3.08281C4.05683 2.82168 4.44374 2.82168 4.62658 3.08281L4.71337 3.20701Z" fill="#E8F3FF"/>
<path d="M17.2438 14.3138C17.7707 13.2701 17.6505 12.4564 16.8484 11.6502C17.103 10.7021 16.9186 10.117 16.7095 9.78714C16.2252 9.0232 15.1959 8.79455 14.2873 8.79455C13.1305 8.79455 11.7991 9.13877 10.4369 9.78998C10.3589 9.82912 10.2993 9.89731 10.2711 9.97989C10.2428 10.0625 10.248 10.1529 10.2857 10.2316C10.3233 10.3104 10.3904 10.3712 10.4724 10.401C10.5545 10.4309 10.6449 10.4274 10.7244 10.3912C11.9793 9.79118 13.2444 9.46092 14.2876 9.46092C14.9333 9.46092 15.8023 9.60064 16.1468 10.1439C16.3555 10.4731 16.3581 11.008 16.1542 11.65C16.1349 11.7107 16.1335 11.7757 16.15 11.8372C16.1665 11.8987 16.2002 11.9542 16.2473 11.9971C16.995 12.6787 17.0807 13.2428 16.5749 14.1529C16.5474 14.2024 16.5329 14.2581 16.533 14.3148C16.533 14.3714 16.5474 14.4271 16.5749 14.4766C17.0336 15.3015 17.0521 15.7674 16.6606 16.644C16.641 16.6879 16.6312 16.7356 16.6317 16.7837C16.6323 16.8318 16.6432 16.8792 16.6639 16.9227C17.0882 17.8165 17.1401 18.4942 16.8183 18.9374C16.374 19.5491 15.1694 19.8492 13.2362 19.8329C10.5606 19.8085 6.48429 19.1343 6.19492 19.1441C6.01808 19.1503 5.88177 19.2913 5.87373 19.4611C5.85703 19.8168 5.56462 20.0954 5.20811 20.0954H3.6609C3.29348 20.0954 2.99453 19.7965 2.99453 19.429V11.2644C2.99453 10.897 3.29348 10.598 3.6609 10.598H5.20811C5.57553 10.598 5.87448 10.897 5.87448 11.2644V17.5052C5.87448 17.5936 5.90958 17.6783 5.97207 17.7408C6.03455 17.8033 6.1193 17.8384 6.20766 17.8384C6.29603 17.8384 6.38077 17.8033 6.44326 17.7408C6.50574 17.6783 6.54085 17.5936 6.54085 17.5052V11.318C8.10772 10.1099 8.82685 8.15825 8.40563 6.22967C8.22513 5.40404 8.71549 4.86941 9.28152 4.70577C9.85889 4.53897 10.57 4.72535 10.8572 5.51816C11.1277 6.26407 11.3166 7.02956 11.4188 7.79338C11.4305 7.88096 11.4765 7.96031 11.5468 8.01396C11.617 8.06761 11.7056 8.09117 11.7932 8.07946C11.8808 8.06774 11.9602 8.02171 12.0138 7.9515C12.0675 7.88128 12.091 7.79263 12.0793 7.70504C11.9708 6.89391 11.7704 6.08169 11.4836 5.29109C10.6516 2.99409 7.22645 3.95628 7.75459 6.37194C8.10151 7.96047 7.5708 9.542 6.3633 10.6012C6.13295 10.2015 5.70156 9.9317 5.20807 9.9317H3.66086C2.92598 9.9317 2.32812 10.5296 2.32812 11.2644V19.4291C2.32812 20.164 2.92598 20.7618 3.66086 20.7618H5.20807C5.79739 20.7618 6.29875 20.3808 6.474 19.8468C10.9583 20.424 16.0138 21.1792 17.3575 19.329C17.8138 18.7006 17.8043 17.842 17.3297 16.7757C17.7225 15.8362 17.7013 15.1987 17.2438 14.3138Z" fill="#2E58FF"/>
<path d="M17.7021 2.97055L16.394 1.09969C16.0789 0.649061 15.4103 0.649061 15.0952 1.09969L13.7874 2.9703C13.4203 3.49523 13.7964 4.21761 14.4373 4.21761H14.6653C14.6746 5.1681 14.6672 6.9276 14.6366 7.73657C14.635 7.78029 14.6419 7.82391 14.6571 7.86494C14.6723 7.90596 14.6955 7.94359 14.7252 7.97568C14.755 8.00776 14.7908 8.03367 14.8305 8.05193C14.8703 8.07018 14.9133 8.08043 14.957 8.08208C15.1397 8.08966 15.2956 7.94564 15.3025 7.76172C15.3374 6.83714 15.3425 4.68724 15.3271 3.8781C15.3255 3.79085 15.2897 3.70772 15.2274 3.6466C15.1651 3.58548 15.0813 3.55124 14.994 3.55125H14.4373C14.3347 3.55125 14.2744 3.43663 14.3336 3.35213L15.6414 1.48152C15.653 1.46488 15.6684 1.45128 15.6864 1.4419C15.7044 1.43251 15.7244 1.42761 15.7446 1.42761C15.7649 1.42761 15.7849 1.43251 15.8029 1.4419C15.8208 1.45128 15.8363 1.46488 15.8479 1.48152L17.1559 3.35238C17.2146 3.43634 17.1553 3.55125 17.0523 3.55125H16.4953C16.408 3.55124 16.3242 3.58548 16.2619 3.6466C16.1996 3.70772 16.1638 3.79085 16.1621 3.8781C16.1468 4.6879 16.1519 6.8381 16.1868 7.76172C16.1938 7.9468 16.3497 8.08903 16.5323 8.08208C16.576 8.08043 16.619 8.07018 16.6588 8.05193C16.6985 8.03367 16.7343 8.00776 16.7641 7.97568C16.7938 7.94359 16.8169 7.90596 16.8321 7.86494C16.8473 7.82391 16.8543 7.78029 16.8527 7.73657C16.8222 6.92843 16.8147 5.1686 16.824 4.21761H17.0523C17.6928 4.21761 18.0692 3.49565 17.7021 2.97055ZM2.94241 6.00901H3.17097C3.17989 6.76417 3.1701 7.52554 3.14169 8.27711C3.13913 8.36494 3.17137 8.45023 3.23139 8.5144C3.29141 8.57858 3.37435 8.61645 3.46216 8.61976C3.54996 8.62308 3.63552 8.59158 3.70021 8.53212C3.7649 8.47265 3.80349 8.39004 3.80756 8.30227C3.8405 7.42962 3.84879 6.54381 3.83222 5.6695C3.83055 5.58225 3.79472 5.49913 3.73242 5.43801C3.67013 5.37689 3.58634 5.34265 3.49907 5.34265H2.94241C2.83996 5.34265 2.77969 5.22812 2.83879 5.1437L4.14641 3.27387C4.15799 3.25724 4.17343 3.24366 4.1914 3.23427C4.20937 3.22489 4.22934 3.21999 4.24961 3.21999C4.26988 3.21999 4.28985 3.22489 4.30782 3.23427C4.32579 3.24366 4.34123 3.25724 4.35281 3.27387L5.66068 5.14403C5.71911 5.22762 5.66031 5.34265 5.55723 5.34265H5.00015C4.91287 5.34263 4.82908 5.37687 4.76679 5.43799C4.7045 5.49911 4.66868 5.58224 4.66705 5.6695C4.65039 6.54286 4.65867 7.42862 4.69162 8.30227C4.69853 8.48619 4.85517 8.62891 5.03713 8.62262C5.08085 8.62098 5.12382 8.61073 5.16358 8.59247C5.20335 8.57422 5.23912 8.54831 5.26887 8.51622C5.29862 8.48414 5.32176 8.44651 5.33696 8.40548C5.35217 8.36446 5.35914 8.32084 5.35748 8.27711C5.32909 7.52144 5.31934 6.76517 5.32825 6.00901H5.55723C6.1976 6.00901 6.57389 5.28717 6.20677 4.76216L4.8989 2.89196C4.58392 2.44154 3.91543 2.44142 3.60036 2.89196L2.2927 4.76179C1.92558 5.28663 2.30157 6.00901 2.94241 6.00901ZM4.08298 12.0063V12.4228C4.08298 12.5111 4.11808 12.5959 4.18056 12.6584C4.24305 12.7209 4.32779 12.756 4.41616 12.756C4.50453 12.756 4.58927 12.7209 4.65176 12.6584C4.71424 12.5959 4.74934 12.5111 4.74934 12.4228V12.0063C4.74934 11.9179 4.71424 11.8332 4.65176 11.7707C4.58927 11.7082 4.50453 11.6731 4.41616 11.6731C4.32779 11.6731 4.24305 11.7082 4.18056 11.7707C4.11808 11.8332 4.08298 11.9179 4.08298 12.0063Z" fill="#2E58FF"/>
</g>
<defs>
<clipPath id="clip0_251_9731">
<rect width="20" height="20" fill="white" transform="translate(0 0.761719)"/>
</clipPath>
</defs>
</svg>
