<svg width="20" height="21" viewBox="0 0 20 21" fill="none" xmlns="http://www.w3.org/2000/svg">
<g clip-path="url(#clip0_251_9729)">
<path d="M17.9757 10.8167C18.0998 9.51172 17.1811 9.04255 16.3498 9.26172C15.196 9.56589 15.326 11.4234 13.111 13.1451C11.9766 13.2781 10.8454 13.0599 9.80638 12.6326C12.6247 10.4484 9.38388 8.83963 5.933 11.0951C4.50798 11.1155 3.20047 11.8959 2.51629 13.1368C1.81087 14.4159 1.87462 15.991 2.67879 17.2202H2.01628C1.64795 17.2202 1.34961 17.5185 1.34961 17.8868V19.7618C1.34961 20.1302 1.64795 20.4285 2.01628 20.4285H11.5164C11.8847 20.4285 12.1831 20.1302 12.1831 19.7618V17.8868C12.1831 17.5185 11.8847 17.2202 11.5164 17.2202H10.9418C12.3593 15.7393 16.6398 17.2556 18.5448 12.3705C18.8344 11.6276 18.494 11.0134 17.9757 10.8167Z" fill="#D1E7FF"/>
<path d="M18.3422 11.0565C18.4687 11.1852 18.3998 11.4033 18.2234 11.4418C17.9618 11.4989 17.696 11.659 17.4661 11.9475C15.8892 13.9294 13.38 14.185 10.9586 13.5069C10.7814 13.4573 10.7318 13.2301 10.8706 13.1092C10.9292 13.0582 10.9984 13.0415 11.0661 13.0532C13.2238 13.428 15.2747 12.9877 16.6328 11.2808C17.1769 10.5973 17.9271 10.6342 18.3422 11.0565ZM10.1718 10.6678C9.08279 10.6112 7.77327 11.1162 6.81922 11.7269C6.78388 11.7494 6.74307 11.7619 6.70118 11.7631C4.05798 11.8417 2.2555 14.4162 3.04305 16.8975C3.09271 17.054 2.97917 17.2137 2.81517 17.2217C2.77249 17.2235 2.72998 17.2282 2.68792 17.2357C1.87416 16.004 1.80707 14.4213 2.51541 13.1367C3.19959 11.8958 4.50711 11.1154 5.93212 11.095C7.11047 10.325 8.26424 10.0054 9.16091 10.0054C9.52821 10.0054 9.95038 10.0659 10.2852 10.2297C10.5098 10.3397 10.4216 10.6808 10.1718 10.6678Z" fill="#E8F3FF"/>
<path d="M16.3491 9.26172C17.1804 9.04255 18.0992 9.51172 17.975 10.8167C17.5642 10.6609 17.0408 10.7667 16.6329 11.2809C16.4046 11.5684 16.0375 11.9701 15.4975 12.3288C14.5166 12.9801 13.5704 13.0913 13.1104 13.1451C15.3254 11.4234 15.1954 9.56589 16.3491 9.26172Z" fill="#B9DCFF"/>
<path d="M16.3633 9.25792C16.7578 9.15754 17.0277 9.64951 16.7368 9.9343C16.1183 10.5399 15.8827 11.5188 14.9626 12.5944C14.9233 12.6404 14.8743 12.677 14.819 12.7017C14.292 12.9363 13.7386 13.0838 13.1104 13.145C15.3327 11.4176 15.1921 9.55588 16.3633 9.25792Z" fill="#D1E7FF"/>
<path d="M11.5164 17.2202C11.8847 17.2202 12.1831 17.5186 12.1831 17.8869V19.7619C12.1831 20.1303 11.8847 20.4286 11.5164 20.4286H2.01628C1.64795 20.4286 1.34961 20.1303 1.34961 19.7619V17.8869C1.34961 17.5186 1.64795 17.2202 2.01628 17.2202H11.5164Z" fill="#B9DCFF"/>
<path d="M11.5199 18.0534H3.2663C2.89809 18.0534 2.59962 18.3519 2.59962 18.7201V19.8451C2.59962 20.1673 2.33846 20.4284 2.01628 20.4284C1.64807 20.4284 1.34961 20.13 1.34961 19.7618V17.8867C1.34961 17.5185 1.64807 17.2201 2.01628 17.2201H11.5164C12.0965 17.2201 12.0584 18.0534 11.5199 18.0534ZM13.9027 3.12656C14.4735 3.20948 14.7014 3.91074 14.2885 4.31366L13.1573 5.41617L13.4243 6.97286C13.5218 7.54161 12.9252 7.97495 12.4143 7.70662L11.0164 6.97161L9.61846 7.70662C9.10762 7.97495 8.51095 7.54161 8.60845 6.97286L8.87554 5.41617L7.74427 4.31366C7.33135 3.91074 7.55927 3.20948 8.13011 3.12656L9.69305 2.89906L10.3922 1.48279C10.6476 0.965698 11.3852 0.965698 11.6406 1.48279L12.3397 2.89906L13.9027 3.12656Z" fill="#D1E7FF"/>
<path d="M11.6532 1.50881C11.7921 1.79015 11.729 2.12215 11.5131 2.34982C11.416 2.4522 11.4482 2.41086 10.8627 3.59683C10.8103 3.70291 10.733 3.79467 10.6373 3.86421C10.5415 3.93375 10.4304 3.97898 10.3133 3.99601L9.12996 4.16826C8.98021 4.19001 8.85408 4.25426 8.75691 4.34451C8.48116 4.60064 8.03611 4.59835 7.74411 4.31368C7.33102 3.91092 7.55911 3.2095 8.12995 3.12658L9.69288 2.89908L10.3921 1.48281C10.6388 0.983302 11.3712 0.937552 11.6532 1.50881ZM9.81243 6.76321L9.72643 7.17859C9.58126 7.87768 8.52229 7.7248 8.60225 7.01525C8.6057 6.98471 8.604 6.99767 8.68246 6.54033C8.75775 6.10128 9.29838 5.89561 9.6523 6.24049C9.72071 6.30719 9.77123 6.39002 9.79921 6.48137C9.8272 6.57272 9.83174 6.66964 9.81243 6.76321Z" fill="#E8F3FF"/>
<path d="M7.511 4.55239L8.51659 5.53256L8.27922 6.91662C8.13513 7.75643 9.01856 8.39818 9.77273 8.00172L11.1708 7.26671C11.2096 7.24634 11.2439 7.21854 11.2719 7.1849C11.3 7.15125 11.3211 7.11241 11.334 7.07061C11.347 7.0288 11.3517 6.98485 11.3477 6.94126C11.3437 6.89766 11.3311 6.85528 11.3108 6.81654C11.2904 6.77779 11.2626 6.74343 11.2289 6.71543C11.1953 6.68742 11.1565 6.66632 11.1147 6.65333C11.0728 6.64034 11.0289 6.6357 10.9853 6.6397C10.9417 6.6437 10.8993 6.65624 10.8606 6.67662L9.46248 7.41163C9.19764 7.55092 8.8851 7.32771 8.93627 7.02933L9.20327 5.47252C9.2124 5.41925 9.20845 5.36456 9.19175 5.31317C9.17504 5.26177 9.14609 5.2152 9.10739 5.17748L7.97629 4.07496C7.76083 3.86492 7.87896 3.49966 8.1773 3.45637L9.7404 3.22924C9.79388 3.22147 9.84466 3.20081 9.88838 3.16905C9.9321 3.13728 9.96744 3.09537 9.99136 3.04691L10.6904 1.63047C10.8239 1.36014 11.2077 1.36068 11.3408 1.63047L12.0399 3.04691C12.0638 3.09537 12.0991 3.13729 12.1429 3.16906C12.1866 3.20082 12.2374 3.22148 12.2908 3.22924L13.854 3.45637C14.1518 3.49962 14.2708 3.86454 14.055 4.07496L12.9239 5.17748C12.8852 5.2152 12.8562 5.26177 12.8395 5.31317C12.8228 5.36456 12.8188 5.41925 12.828 5.47252L13.095 7.02933C13.1301 7.23413 12.9975 7.38209 12.8594 7.43288C12.7776 7.46427 12.7114 7.52659 12.6752 7.60637C12.639 7.68615 12.6357 7.77698 12.6659 7.8592C12.6962 7.94143 12.7575 8.00844 12.8368 8.04576C12.9161 8.08307 13.0068 8.08768 13.0895 8.0586C13.5574 7.88651 13.836 7.40625 13.752 6.91662L13.5147 5.53256L14.5203 4.55239C15.131 3.95696 14.7935 2.91928 13.9497 2.79666L12.5601 2.59474L11.9386 1.33547C11.561 0.570627 10.4698 0.570961 10.0924 1.33547L9.47094 2.59474L8.08125 2.79666C7.23737 2.91932 6.90049 3.95729 7.511 4.55239ZM18.3187 10.616C18.3243 10.0329 18.1313 9.54841 17.7634 9.23611C17.374 8.90552 16.8136 8.79461 16.2641 8.93944C15.3761 9.17357 15.1204 10.0849 14.5114 11.08C14.3751 11.3027 14.5372 11.5874 14.7954 11.5874C14.8526 11.5875 14.9087 11.5728 14.9586 11.5449C15.0084 11.517 15.0503 11.4768 15.0801 11.428C15.6747 10.4564 15.8796 9.73028 16.4341 9.58416C16.7729 9.49482 17.1086 9.5547 17.332 9.74437C17.511 9.89637 17.6165 10.1263 17.6448 10.4188C17.2207 10.408 16.7542 10.5917 16.3719 11.0737C16.066 11.4588 15.7098 11.7877 15.3131 12.0513C14.3974 12.6592 13.502 12.7639 13.0716 12.8142C12.6085 12.8684 12.1271 12.8619 11.6405 12.795C11.553 12.783 11.4642 12.8062 11.3937 12.8596C11.3233 12.913 11.2769 12.9922 11.2649 13.0798C11.2528 13.1674 11.2761 13.2562 11.3295 13.3266C11.3829 13.3971 11.4621 13.4434 11.5497 13.4555C12.0921 13.5301 12.6301 13.5371 13.149 13.4763C13.6308 13.42 14.6333 13.3029 15.6819 12.6066C16.1368 12.3044 16.5446 11.9281 16.894 11.4882C17.5719 10.6338 18.6177 11.2641 18.2335 12.2495C16.4223 16.8941 12.4507 15.414 10.8067 16.887H2.86381C2.21339 15.7807 2.18781 14.4215 2.80748 13.2979C3.43299 12.1637 4.63217 11.4474 5.9371 11.4285C6.00022 11.4276 6.06179 11.4088 6.11465 11.3743C8.44651 9.85028 10.5894 10.2241 10.5447 11.0988C10.5168 11.6429 9.72698 12.5631 7.59375 13.514C7.55377 13.5318 7.51769 13.5573 7.48757 13.5891C7.45745 13.6209 7.43388 13.6583 7.41821 13.6991C7.40254 13.74 7.39507 13.7836 7.39624 13.8273C7.3974 13.8711 7.40717 13.9142 7.425 13.9542C7.44282 13.9942 7.46834 14.0302 7.50011 14.0604C7.53187 14.0905 7.56926 14.114 7.61013 14.1297C7.65101 14.1454 7.69457 14.1528 7.73833 14.1517C7.78208 14.1505 7.82519 14.1407 7.86517 14.1229C9.97186 13.1839 11.1599 12.122 11.2105 11.1328C11.2915 9.54866 8.57351 9.01482 5.83014 10.7644C2.74648 10.8786 0.782247 14.0948 2.10939 16.887H2.01564C1.46426 16.887 1.01562 17.3356 1.01562 17.887V19.762C1.01562 20.3134 1.46426 20.762 2.01564 20.762H11.5158C12.0671 20.762 12.5158 20.3134 12.5158 19.762V18.9542C12.5158 18.8658 12.4806 18.781 12.4181 18.7185C12.3556 18.656 12.2708 18.6209 12.1824 18.6209C12.094 18.6209 12.0092 18.656 11.9467 18.7185C11.8842 18.781 11.8491 18.8658 11.8491 18.9542V19.762C11.8491 19.9458 11.6995 20.0953 11.5158 20.0953H2.01564C1.83184 20.0953 1.6823 19.9458 1.6823 19.762V17.887C1.6823 17.7032 1.83184 17.5536 2.01564 17.5536C11.5618 17.5536 10.9647 17.5617 11.0391 17.539C11.0933 17.5219 11.1424 17.4916 11.182 17.4508C12.439 16.1376 16.8981 17.5092 18.8547 12.4917C19.1909 11.629 18.8171 10.922 18.3187 10.616Z" fill="#2E58FF"/>
<path d="M3.26498 18.4702C3.17657 18.4702 3.09179 18.5053 3.02927 18.5678C2.96676 18.6303 2.93164 18.7151 2.93164 18.8035C2.93164 18.8919 2.96676 18.9767 3.02927 19.0392C3.09179 19.1018 3.17657 19.1369 3.26498 19.1369H4.05665C4.14506 19.1369 4.22985 19.1018 4.29236 19.0392C4.35487 18.9767 4.38999 18.8919 4.38999 18.8035C4.38999 18.7151 4.35487 18.6303 4.29236 18.5678C4.22985 18.5053 4.14506 18.4702 4.05665 18.4702H3.26498ZM6.73656 1.86808C6.79626 1.93272 6.8791 1.97114 6.96702 1.97495C7.05493 1.97876 7.14078 1.94765 7.20585 1.88841C7.27092 1.82917 7.30992 1.74661 7.31436 1.65872C7.3188 1.57084 7.2883 1.48477 7.22953 1.41928L6.85452 1.00736C6.79482 0.942712 6.71198 0.904296 6.62407 0.900487C6.53616 0.896678 6.4503 0.927785 6.38523 0.987024C6.32017 1.04626 6.28116 1.12883 6.27673 1.21671C6.27229 1.30459 6.30278 1.39067 6.36156 1.45615L6.73656 1.86808ZM5.265 5.1367H5.84834C5.93675 5.1367 6.02154 5.10158 6.08405 5.03907C6.14656 4.97655 6.18168 4.89177 6.18168 4.80336C6.18168 4.71496 6.14656 4.63017 6.08405 4.56766C6.02154 4.50514 5.93675 4.47003 5.84834 4.47003H5.265C5.1766 4.47003 5.09181 4.50514 5.0293 4.56766C4.96678 4.63017 4.93167 4.71496 4.93167 4.80336C4.93167 4.89177 4.96678 4.97655 5.0293 5.03907C5.09181 5.10158 5.1766 5.1367 5.265 5.1367ZM6.77736 7.55302L6.42935 7.90103C6.39839 7.93197 6.37383 7.96872 6.35708 8.00916C6.34032 8.0496 6.3317 8.09294 6.3317 8.13672C6.3317 8.18049 6.34032 8.22384 6.35708 8.26428C6.37383 8.30472 6.39839 8.34146 6.42935 8.37241C6.4603 8.40336 6.49704 8.42791 6.53748 8.44467C6.57792 8.46142 6.62127 8.47004 6.66504 8.47004C6.70881 8.47004 6.75216 8.46142 6.7926 8.44467C6.83304 8.42791 6.86978 8.40336 6.90073 8.37241L7.24874 8.0244C7.2797 7.99346 7.30425 7.95671 7.32101 7.91627C7.33776 7.87583 7.34639 7.83249 7.34639 7.78871C7.34639 7.74494 7.33776 7.70159 7.32101 7.66115C7.30425 7.62071 7.2797 7.58397 7.24874 7.55302C7.18622 7.49052 7.10144 7.4554 7.01305 7.4554C6.92465 7.4554 6.83987 7.49052 6.77736 7.55302ZM15.047 1.97704C15.1375 1.97704 15.2278 1.94037 15.2935 1.86812L15.6685 1.4562C15.7281 1.39082 15.7592 1.30449 15.755 1.21618C15.7509 1.12788 15.7118 1.04483 15.6465 0.985315C15.6141 0.955838 15.5762 0.933025 15.5351 0.918181C15.4939 0.903337 15.4502 0.896753 15.4065 0.898803C15.3627 0.900854 15.3198 0.9115 15.2802 0.930133C15.2406 0.948767 15.205 0.975022 15.1756 1.0074L14.8006 1.41932C14.6052 1.63382 14.7602 1.97704 15.047 1.97704ZM16.1818 5.1367H16.7651C16.8536 5.1367 16.9383 5.10158 17.0009 5.03907C17.0634 4.97655 17.0985 4.89177 17.0985 4.80336C17.0985 4.71496 17.0634 4.63017 17.0009 4.56766C16.9383 4.50514 16.8536 4.47003 16.7651 4.47003H16.1818C16.0934 4.47003 16.0086 4.50514 15.9461 4.56766C15.8836 4.63017 15.8485 4.71496 15.8485 4.80336C15.8485 4.89177 15.8836 4.97655 15.9461 5.03907C16.0086 5.10158 16.0934 5.1367 16.1818 5.1367ZM15.2528 7.55302C15.1902 7.49052 15.1055 7.4554 15.0171 7.4554C14.9287 7.4554 14.8439 7.49052 14.7814 7.55302C14.7504 7.58397 14.7259 7.62071 14.7091 7.66115C14.6923 7.70159 14.6837 7.74494 14.6837 7.78871C14.6837 7.83249 14.6923 7.87583 14.7091 7.91627C14.7259 7.95671 14.7504 7.99346 14.7814 8.0244L15.1294 8.37241C15.1603 8.40341 15.197 8.42799 15.2375 8.44475C15.2779 8.4615 15.3213 8.47009 15.3651 8.47003C15.6593 8.47003 15.8114 8.11161 15.6008 7.90098L15.2528 7.55302Z" fill="#2E58FF"/>
</g>
<defs>
<clipPath id="clip0_251_9729">
<rect width="20" height="20" fill="white" transform="translate(0 0.761719)"/>
</clipPath>
</defs>
</svg>
