<svg width="20" height="21" viewBox="0 0 20 21" fill="none" xmlns="http://www.w3.org/2000/svg">
<g clip-path="url(#clip0_251_9726)">
<path d="M16.9915 1.76164C16.9915 1.3933 16.6932 1.09497 16.3249 1.09497H4.11654L0.908203 4.3033V19.7616C0.908203 20.13 1.20654 20.4283 1.57487 20.4283H16.3249C16.6932 20.4283 16.9915 20.13 16.9915 19.7616V1.76164Z" fill="#E8F3FF"/>
<path d="M16.3014 6.97893C16.5717 6.74493 16.9915 6.93543 16.9915 7.29293V19.7617C16.9915 20.1299 16.6931 20.4283 16.3249 20.4283H1.57487C1.20666 20.4283 0.908203 20.1299 0.908203 19.7617V12.5819C0.908203 12.3441 1.10679 12.1556 1.34433 12.1659C6.83704 12.4063 12.1515 10.5718 16.3014 6.97893Z" fill="#D1E7FF"/>
<path d="M4.11654 1.09497V3.63664C4.11654 4.00497 3.8182 4.3033 3.44987 4.3033H0.908203L4.11654 1.09497Z" fill="#B9DCFF"/>
<path d="M4.19922 8.38672C4.7515 8.38672 5.19922 7.939 5.19922 7.38672C5.19922 6.83443 4.7515 6.38672 4.19922 6.38672C3.64693 6.38672 3.19922 6.83443 3.19922 7.38672C3.19922 7.939 3.64693 8.38672 4.19922 8.38672Z" fill="#D1E7FF"/>
<path d="M4.19922 12.97C4.7515 12.97 5.19922 12.5223 5.19922 11.97C5.19922 11.4177 4.7515 10.97 4.19922 10.97C3.64693 10.97 3.19922 11.4177 3.19922 11.97C3.19922 12.5223 3.64693 12.97 4.19922 12.97Z" fill="#D1E7FF"/>
<path d="M4.98323 12.02C5.09978 12.0054 5.19649 12.112 5.16657 12.2256C5.05374 12.654 4.66319 12.9702 4.19961 12.9702C3.79807 12.9702 3.45174 12.7332 3.29265 12.3915C3.24311 12.2851 3.31978 12.1631 3.43698 12.157C3.95389 12.13 4.46965 12.0844 4.98323 12.02ZM19.0784 3.86224C19.155 3.50224 18.925 3.14808 18.565 3.07141L17.5867 2.86349C17.2267 2.78724 16.8729 3.01683 16.7963 3.37724L14.1646 15.7568C14.1346 15.8985 14.1279 16.0443 14.1446 16.1881L14.3413 17.8785C14.4059 18.4331 15.1379 18.5889 15.4229 18.1085L16.29 16.6443C16.3642 16.5193 16.4171 16.3835 16.4471 16.2418L19.0784 3.86224Z" fill="#B9DCFF"/>
<path d="M18.608 3.08212C18.9997 3.19312 18.842 3.78649 18.4437 3.70191C18.0343 3.61495 17.7022 3.86754 17.6293 4.21058L15.2676 15.3208C15.2294 15.5009 15.0524 15.6156 14.8723 15.5772C14.2235 15.4391 14.2351 15.441 14.2314 15.441L16.7959 3.37724C16.8726 3.01683 17.2264 2.78724 17.5864 2.86349C17.5864 2.86345 18.5938 3.07808 18.608 3.08212Z" fill="#D1E7FF"/>
<path d="M16.5135 15.9259C16.4431 16.2574 16.4236 16.418 16.2894 16.6443L15.4223 18.1084C15.1373 18.5888 14.4052 18.433 14.3406 17.8784L14.144 16.188C14.1125 15.9164 14.167 15.7426 14.2312 15.4409L16.5135 15.9259Z" fill="#D1E7FF"/>
<path d="M15.078 17.808C15.1149 18.2816 14.4062 18.3611 14.3421 17.8904C14.3416 17.8865 14.1439 16.188 14.1439 16.188C14.1124 15.9164 14.167 15.7426 14.2312 15.4409C14.2348 15.4409 14.222 15.4388 14.8836 15.5796C15.0578 15.6167 15.1711 15.784 15.1432 15.9599C15.0374 16.6264 15.0309 17.2015 15.078 17.808Z" fill="#E8F3FF"/>
<path d="M16.9909 17.8894C16.9025 17.8894 16.8177 17.9245 16.7552 17.987C16.6927 18.0495 16.6576 18.1343 16.6576 18.2227V19.7617C16.6576 19.9455 16.508 20.0951 16.3242 20.0951H1.57422C1.39043 20.0951 1.24089 19.9455 1.24089 19.7617V6.34505C1.24089 6.25665 1.20577 6.17186 1.14325 6.10935C1.08074 6.04684 0.995958 6.01172 0.907552 6.01172C0.819147 6.01172 0.734362 6.04684 0.67185 6.10935C0.609338 6.17186 0.574219 6.25665 0.574219 6.34505V19.7617C0.574219 20.3131 1.02284 20.7617 1.57422 20.7617H16.3242C16.8756 20.7617 17.3242 20.3131 17.3242 19.7617V18.2227C17.3242 18.1343 17.2891 18.0495 17.2266 17.987C17.1641 17.9245 17.0793 17.8894 16.9909 17.8894Z" fill="#2E58FF"/>
<path d="M18.6339 2.74539C17.5898 2.52347 17.5444 2.49572 17.3241 2.52297V1.76172C17.3241 1.2103 16.8755 0.761719 16.3241 0.761719H4.11579C4.02738 0.761725 3.9426 0.79684 3.88008 0.859344C0.376494 4.36239 0.636494 4.08689 0.599577 4.17572C0.521827 4.36384 0.630077 4.57701 0.825827 4.62622C0.885577 4.6413 0.665328 4.63672 3.44912 4.63672C4.00049 4.63672 4.44912 4.18809 4.44912 3.63672V3.14747C4.44912 3.05906 4.414 2.97428 4.35149 2.91177C4.28898 2.84925 4.20419 2.81414 4.11579 2.81414C4.02738 2.81414 3.9426 2.84925 3.88008 2.91177C3.81757 2.97428 3.78245 3.05906 3.78245 3.14747V3.63672C3.78245 3.82051 3.63291 3.97005 3.44912 3.97005H1.7122L4.25387 1.42839H16.3242C16.508 1.42839 16.6575 1.57793 16.6575 1.76172V2.90405C16.5652 3.0227 16.501 3.16071 16.4697 3.30772L13.8383 15.6873C13.8006 15.8645 13.7921 16.0466 13.8131 16.2266L14.01 17.917C14.1115 18.7886 15.2618 19.0333 15.7091 18.2781L16.5765 16.814C16.7406 16.537 16.77 16.3267 16.8399 15.9953C16.878 15.8148 16.763 15.6381 16.5831 15.5999L15.797 15.4328C15.7105 15.4144 15.6203 15.4311 15.5461 15.4793C15.472 15.5274 15.42 15.6031 15.4016 15.6895C15.3833 15.776 15.4 15.8662 15.4481 15.9404C15.4963 16.0145 15.5719 16.0665 15.6584 16.0849L16.1181 16.1826C16.0642 16.4032 16.112 16.2896 15.1355 17.9383C15.014 18.1436 14.7 18.0786 14.6721 17.8398L14.4753 16.1495C14.4626 16.0415 14.4678 15.9322 14.4904 15.8259L17.1218 3.4463C17.1309 3.40347 17.1483 3.36285 17.1731 3.32676C17.1979 3.29068 17.2295 3.25983 17.2662 3.23598C17.3029 3.21214 17.344 3.19576 17.3871 3.1878C17.4301 3.17983 17.4743 3.18043 17.5171 3.18955L18.4953 3.39747C18.5381 3.40655 18.5787 3.42398 18.6148 3.44877C18.6509 3.47356 18.6818 3.50522 18.7056 3.54194C18.7294 3.57866 18.7458 3.61972 18.7538 3.66278C18.7617 3.70583 18.7611 3.75003 18.752 3.79284L16.6427 13.7166C16.6243 13.803 16.641 13.8933 16.6892 13.9674C16.7373 14.0415 16.8129 14.0935 16.8994 14.1119C16.9422 14.121 16.9864 14.1216 17.0295 14.1136C17.0725 14.1056 17.1136 14.0893 17.1503 14.0654C17.187 14.0416 17.2186 14.0107 17.2434 13.9746C17.2682 13.9386 17.2857 13.898 17.2947 13.8551L19.4041 3.93151C19.519 3.39084 19.1746 2.86034 18.6339 2.74539Z" fill="#2E58FF"/>
<path d="M4.19857 6.05339C3.46336 6.05339 2.86523 6.65151 2.86523 7.38672C2.86523 8.12193 3.46336 8.72005 4.19857 8.72005C4.93378 8.72005 5.5319 8.12193 5.5319 7.38672C5.5319 6.65151 4.93378 6.05339 4.19857 6.05339ZM4.19857 8.05339C3.83098 8.05339 3.5319 7.7543 3.5319 7.38672C3.5319 7.01914 3.83098 6.72005 4.19857 6.72005C4.56615 6.72005 4.86523 7.01914 4.86523 7.38672C4.86523 7.7543 4.56615 8.05339 4.19857 8.05339ZM4.19857 13.3034C4.93378 13.3034 5.5319 12.7053 5.5319 11.9701C5.5319 11.2348 4.93378 10.6367 4.19857 10.6367C3.46336 10.6367 2.86523 11.2348 2.86523 11.9701C2.86523 12.7053 3.4634 13.3034 4.19857 13.3034ZM4.19857 11.3034C4.56615 11.3034 4.86523 11.6025 4.86523 11.9701C4.86523 12.3376 4.56615 12.6367 4.19857 12.6367C3.83098 12.6367 3.5319 12.3376 3.5319 11.9701C3.5319 11.6025 3.83098 11.3034 4.19857 11.3034ZM5.34123 15.5751L3.99561 16.9207L3.60094 16.5261C3.5383 16.4642 3.45372 16.4296 3.36567 16.4298C3.27761 16.4301 3.19324 16.4652 3.13097 16.5275C3.06871 16.5897 3.0336 16.6741 3.03333 16.7621C3.03306 16.8502 3.06764 16.9348 3.12953 16.9974L3.7599 17.6278C3.79085 17.6588 3.8276 17.6833 3.86804 17.7001C3.90849 17.7168 3.95183 17.7254 3.99561 17.7254C4.03938 17.7254 4.08273 17.7168 4.12317 17.7001C4.16362 17.6833 4.20036 17.6588 4.23132 17.6278L5.81265 16.0465C5.84391 16.0156 5.86876 15.9788 5.88576 15.9383C5.90276 15.8978 5.91157 15.8543 5.91171 15.8103C5.91184 15.7664 5.90328 15.7229 5.88652 15.6822C5.86976 15.6416 5.84514 15.6047 5.81407 15.5736C5.78299 15.5426 5.74608 15.5179 5.70545 15.5012C5.66483 15.4844 5.62129 15.4759 5.57735 15.476C5.5334 15.4762 5.48992 15.485 5.4494 15.502C5.40888 15.519 5.37212 15.5438 5.34123 15.5751ZM13.8652 6.01172H7.0319C6.9435 6.01172 6.85871 6.04684 6.7962 6.10935C6.73369 6.17186 6.69857 6.25665 6.69857 6.34505C6.69857 6.43346 6.73369 6.51824 6.7962 6.58075C6.85871 6.64327 6.9435 6.67839 7.0319 6.67839H13.8652C13.9536 6.67839 14.0384 6.64327 14.1009 6.58075C14.1634 6.51824 14.1986 6.43346 14.1986 6.34505C14.1986 6.25665 14.1634 6.17186 14.1009 6.10935C14.0384 6.04684 13.9536 6.01172 13.8652 6.01172ZM14.1986 8.42839C14.1986 8.33998 14.1634 8.2552 14.1009 8.19268C14.0384 8.13017 13.9536 8.09505 13.8652 8.09505H7.0319C6.9435 8.09505 6.85871 8.13017 6.7962 8.19268C6.73369 8.2552 6.69857 8.33998 6.69857 8.42839C6.69857 8.51679 6.73369 8.60158 6.7962 8.66409C6.85871 8.7266 6.9435 8.76172 7.0319 8.76172H13.8652C13.9536 8.76172 14.0384 8.7266 14.1009 8.66409C14.1634 8.60158 14.1986 8.51679 14.1986 8.42839ZM14.0319 10.9284C14.0319 10.84 13.9968 10.7552 13.9343 10.6927C13.8718 10.6302 13.787 10.5951 13.6986 10.5951H7.0319C6.9435 10.5951 6.85871 10.6302 6.7962 10.6927C6.73369 10.7552 6.69857 10.84 6.69857 10.9284C6.69857 11.0168 6.73369 11.1016 6.7962 11.1641C6.85871 11.2266 6.9435 11.2617 7.0319 11.2617H13.6986C13.787 11.2617 13.8718 11.2266 13.9343 11.1641C13.9968 11.1016 14.0319 11.0168 14.0319 10.9284ZM13.3652 13.0117C13.3652 12.9233 13.3301 12.8385 13.2676 12.776C13.2051 12.7135 13.1203 12.6784 13.0319 12.6784H7.0319C6.9435 12.6784 6.85871 12.7135 6.7962 12.776C6.73369 12.8385 6.69857 12.9233 6.69857 13.0117C6.69857 13.1001 6.73369 13.1849 6.7962 13.2474C6.85871 13.3099 6.9435 13.3451 7.0319 13.3451H13.0319C13.1203 13.3451 13.2051 13.3099 13.2676 13.2474C13.3301 13.1849 13.3652 13.1001 13.3652 13.0117ZM13.6986 3.51172H5.7819C5.6935 3.51172 5.60871 3.54684 5.5462 3.60935C5.48369 3.67186 5.44857 3.75665 5.44857 3.84505C5.44857 3.93346 5.48369 4.01824 5.5462 4.08075C5.60871 4.14327 5.6935 4.17839 5.7819 4.17839H13.6986C13.787 4.17839 13.8718 4.14327 13.9343 4.08075C13.9968 4.01824 14.0319 3.93346 14.0319 3.84505C14.0319 3.75665 13.9968 3.67186 13.9343 3.60935C13.8718 3.54684 13.787 3.51172 13.6986 3.51172ZM7.0319 17.2617C6.9435 17.2617 6.85871 17.2968 6.7962 17.3594C6.73369 17.4219 6.69857 17.5066 6.69857 17.5951C6.69857 17.6835 6.73369 17.7682 6.7962 17.8308C6.85871 17.8933 6.9435 17.9284 7.0319 17.9284H11.5736C11.662 17.9284 11.7468 17.8933 11.8093 17.8308C11.8718 17.7682 11.9069 17.6835 11.9069 17.5951C11.9069 17.5066 11.8718 17.4219 11.8093 17.3594C11.7468 17.2968 11.662 17.2617 11.5736 17.2617H7.0319ZM12.7402 15.5117C12.7402 15.4233 12.7051 15.3385 12.6426 15.276C12.5801 15.2135 12.4953 15.1784 12.4069 15.1784H7.0319C6.9435 15.1784 6.85871 15.2135 6.7962 15.276C6.73369 15.3385 6.69857 15.4233 6.69857 15.5117C6.69857 15.6001 6.73369 15.6849 6.7962 15.7474C6.85871 15.8099 6.9435 15.8451 7.0319 15.8451H12.4069C12.4953 15.8451 12.5801 15.8099 12.6426 15.7474C12.7051 15.6849 12.7402 15.6001 12.7402 15.5117Z" fill="#2E58FF"/>
</g>
<defs>
<clipPath id="clip0_251_9726">
<rect width="20" height="20" fill="white" transform="translate(0 0.761719)"/>
</clipPath>
</defs>
</svg>
