<svg width="20" height="21" viewBox="0 0 20 21" fill="none" xmlns="http://www.w3.org/2000/svg">
<g clip-path="url(#clip0_251_9732)">
<path d="M16.4041 20.0596C16.3145 19.1981 15.7355 18.4552 14.9054 18.1649L13.1035 17.5436C12.192 17.2284 11.5831 16.3718 11.5831 15.4108C11.8859 15.2849 12.1725 15.1232 12.4368 14.9291C13.0801 14.8775 13.7214 14.805 14.3576 14.7121C14.8467 14.6404 15.208 14.2175 15.208 13.7233V7.32528C15.208 5.03546 13.3523 3.1792 11.0623 3.1792H8.9374C6.64791 3.1792 4.79174 5.03537 4.79174 7.32528V13.7233C4.79174 14.2175 5.15297 14.6404 5.64212 14.7121C6.27986 14.8051 6.92044 14.8774 7.56287 14.9289C7.827 15.1233 8.11365 15.2851 8.41659 15.4108C8.41659 16.3711 7.80836 17.2282 6.89623 17.5436C6.418 17.71 5.10381 18.159 5.09964 18.1632C4.25797 18.4549 3.6847 19.2049 3.59558 20.0601C3.57508 20.257 3.72957 20.4285 3.92748 20.4285H16.0723C16.2704 20.4285 16.4246 20.2567 16.4041 20.0596Z" fill="#D1E7FF"/>
<path d="M9.69872 14.5908C10.3231 14.8442 10.0733 15.7798 9.4064 15.6833C7.39577 15.3926 5.875 13.6656 5.875 11.601V9.21819C5.875 9.02278 6.04241 8.86862 6.23699 8.88612C6.34511 8.89591 6.4606 8.90437 6.58264 8.91062C6.88612 8.9262 7.12495 9.17557 7.12495 9.47947C7.12495 9.47947 7.12495 10.801 7.12537 10.8177C7.14557 12.5296 8.20749 13.9854 9.69872 14.5908Z" fill="#E8F3FF"/>
<path d="M11.4022 16.1491C10.5149 16.4705 9.50069 16.4756 8.60027 16.1493C8.45048 16.095 8.36069 15.9405 8.38694 15.7834C8.40732 15.6616 8.41782 15.5371 8.41782 15.4108C9.40103 15.82 10.5491 15.8417 11.5844 15.4108C11.5844 15.537 11.5949 15.6616 11.6152 15.7833C11.6415 15.9404 11.5519 16.0949 11.4022 16.1491ZM15.2092 7.32528V13.7233C15.2092 14.2175 14.848 14.6404 14.3588 14.7121C13.7211 14.8052 13.0805 14.8775 12.4381 14.9291C13.4614 14.1783 14.1259 12.9675 14.1259 11.6009V9.08658C14.1258 9.01853 14.1049 8.95214 14.0661 8.8963C14.0272 8.84046 13.9722 8.79783 13.9084 8.77413C13.3049 8.54793 12.7873 8.11412 12.452 7.48781C12.3581 7.3124 12.1313 7.26086 11.968 7.37452C10.2889 8.54268 8.27566 9.071 6.23824 8.88604C6.04367 8.86838 5.87626 9.02275 5.87626 9.21811V11.6009C5.87626 12.9671 6.54081 14.1785 7.5641 14.9289C6.92168 14.8774 6.28109 14.805 5.64335 14.712C5.1542 14.6403 4.79297 14.2174 4.79297 13.7233V7.32528C4.79297 5.03537 6.64914 3.1792 8.93863 3.1792H11.0635C13.3534 3.1792 15.2092 5.03529 15.2092 7.32528Z" fill="#B9DCFF"/>
<path d="M11.2459 3.1832C11.7895 3.20686 11.7808 4.01337 11.2367 4.02116C10.9232 4.02566 10.5784 4.01966 10.1874 4.0125C7.89824 3.97067 6.04169 5.86867 6.04169 8.15858V8.92938C5.99096 8.95858 5.94883 9.00066 5.91957 9.05135C5.89031 9.10205 5.87494 9.15958 5.87503 9.21812V11.6009C5.87503 12.9474 6.52359 14.1671 7.56288 14.9289C7.56288 14.933 6.65317 14.8586 5.64213 14.712C5.15298 14.6403 4.79174 14.2174 4.79174 13.7233V7.32528C4.79174 5.03537 6.64792 3.1792 8.9374 3.1792C8.9374 3.1792 11.185 3.18053 11.2459 3.1832ZM16.4041 20.0596C16.4246 20.2567 16.2705 20.4285 16.0724 20.4285H3.92749C3.72954 20.4285 3.57504 20.257 3.59559 20.0601C3.68471 19.2049 4.25797 18.4549 5.09965 18.1632C5.10381 18.159 6.41801 17.7099 6.89624 17.5436C7.00707 17.5053 7.11373 17.459 7.21498 17.4053C7.69662 18.4948 8.78658 19.2202 9.99986 19.2202C11.2131 19.2202 12.3031 18.4948 12.7847 17.4053C13.0504 17.5463 13.1203 17.5406 14.9054 18.1649C15.7355 18.4552 16.3145 19.1981 16.4041 20.0596Z" fill="#D1E7FF"/>
<path d="M13.6712 18.1774C13.1852 18.9191 12.4091 19.3948 11.568 19.5203C11.1928 19.5763 11.0333 19.063 11.3717 18.8918C11.9919 18.5782 12.4967 18.057 12.7847 17.4053C12.995 17.5169 13.2608 17.598 13.4999 17.6805C13.7046 17.7512 13.7899 17.9962 13.6712 18.1774ZM7.35741 17.6868C7.46153 17.8685 7.37503 18.0999 7.17696 18.1679C6.69698 18.3328 6.22716 18.4939 6.22458 18.4965C5.41403 18.7773 4.86968 19.513 4.74573 20.1579C4.7312 20.234 4.6906 20.3026 4.6309 20.352C4.5712 20.4014 4.49614 20.4285 4.41866 20.4285H3.92747C3.72956 20.4285 3.57515 20.2568 3.59557 20.0601C3.68473 19.2047 4.258 18.4548 5.09963 18.1632C5.10379 18.159 6.41791 17.7098 6.89622 17.5436C7.00705 17.5053 7.11371 17.459 7.21496 17.4053C7.25753 17.5015 7.30507 17.5955 7.35741 17.6868Z" fill="#E8F3FF"/>
<path d="M18.666 12.0121C19.2182 12.0121 19.6659 11.5644 19.6659 11.0122C19.6659 10.4599 19.2182 10.0122 18.666 10.0122C18.1137 10.0122 17.666 10.4599 17.666 11.0122C17.666 11.5644 18.1137 12.0121 18.666 12.0121Z" fill="#B9DCFF"/>
<path d="M18.6627 10.0122C18.9578 10.011 19.0671 10.3901 18.8218 10.5541C18.5571 10.7311 18.375 11.0332 18.375 11.3872C18.375 11.6994 17.997 11.8068 17.8378 11.5714C17.3927 10.9134 17.8638 10.0154 18.6627 10.0122Z" fill="#D1E7FF"/>
<path d="M15.416 3.92912C15.9682 3.92912 16.4159 3.48142 16.4159 2.92916C16.4159 2.3769 15.9682 1.9292 15.416 1.9292C14.8637 1.9292 14.416 2.3769 14.416 2.92916C14.416 3.48142 14.8637 3.92912 15.416 3.92912Z" fill="#B9DCFF"/>
<path d="M15.4127 1.9292C15.7078 1.92804 15.8171 2.3071 15.5718 2.47114C15.3071 2.64809 15.125 2.9502 15.125 3.30414C15.125 3.61642 14.747 3.72384 14.5878 3.48839C14.1427 2.83037 14.6138 1.93237 15.4127 1.9292Z" fill="#D1E7FF"/>
<path d="M4.58394 3.92912C5.1362 3.92912 5.5839 3.48142 5.5839 2.92916C5.5839 2.3769 5.1362 1.9292 4.58394 1.9292C4.03168 1.9292 3.58398 2.3769 3.58398 2.92916C3.58398 3.48142 4.03168 3.92912 4.58394 3.92912Z" fill="#B9DCFF"/>
<path d="M4.57968 1.9292C4.87479 1.92804 4.98412 2.3071 4.73875 2.47114C4.4741 2.64809 4.29202 2.9502 4.29202 3.30414C4.29202 3.61642 3.914 3.72384 3.75475 3.48839C3.30973 2.83037 3.78079 1.93237 4.57968 1.9292Z" fill="#D1E7FF"/>
<path d="M1.33394 12.0121C1.8862 12.0121 2.3339 11.5644 2.3339 11.0122C2.3339 10.4599 1.8862 10.0122 1.33394 10.0122C0.781681 10.0122 0.333984 10.4599 0.333984 11.0122C0.333984 11.5644 0.781681 12.0121 1.33394 12.0121Z" fill="#B9DCFF"/>
<path d="M1.32968 10.0122C1.62479 10.011 1.73412 10.3901 1.48875 10.5541C1.2241 10.7311 1.04202 11.0332 1.04202 11.3872C1.04202 11.6994 0.663996 11.8068 0.504753 11.5714C0.0597295 10.9134 0.530793 10.0154 1.32968 10.0122Z" fill="#D1E7FF"/>
<path d="M15.0059 17.8464L13.2132 17.2283C12.8947 17.1185 12.6107 16.9269 12.3895 16.6729C12.3315 16.6062 12.2494 16.5652 12.1612 16.5591C12.073 16.5529 11.986 16.582 11.9193 16.64C11.8525 16.698 11.8116 16.7802 11.8054 16.8684C11.7993 16.9565 11.8284 17.0436 11.8864 17.1103C12.0235 17.2677 12.1792 17.408 12.3501 17.528C11.5929 18.8413 9.89528 19.2856 8.59096 18.4896C8.43376 18.3936 8.22869 18.4434 8.13277 18.6005C8.08672 18.6759 8.07253 18.7666 8.09333 18.8525C8.11412 18.9384 8.16819 19.0126 8.24364 19.0586C9.87133 20.0521 12.0006 19.4968 12.9399 17.8382C13.027 17.8705 14.6999 18.4454 14.7878 18.4763C15.5613 18.7481 16.0837 19.474 16.0837 20.2939V20.4284C16.0837 20.5168 16.1189 20.6016 16.1814 20.6641C16.2439 20.7266 16.3287 20.7617 16.4171 20.7617C16.5055 20.7617 16.5902 20.7266 16.6527 20.6641C16.7153 20.6016 16.7504 20.5168 16.7504 20.4284V20.2939C16.7505 19.1901 16.0494 18.2066 15.0059 17.8464ZM14.4589 11.6007V8.84559C14.4589 8.77307 14.4352 8.70253 14.3915 8.64467C14.3478 8.58681 14.2864 8.54479 14.2166 8.52498C13.4739 8.31403 12.8862 7.7653 12.6041 7.01942C12.5251 6.81072 12.2669 6.73693 12.0895 6.87276C10.3245 8.22557 8.1334 8.80897 5.9197 8.51515C5.721 8.48852 5.54255 8.64352 5.54255 8.84559V11.6007C5.54255 12.6673 5.92516 13.6993 6.61988 14.5069C6.64843 14.5401 6.68323 14.5673 6.7223 14.587C6.76137 14.6068 6.80395 14.6186 6.8476 14.6219C6.89125 14.6252 6.93512 14.6198 6.9767 14.6061C7.01828 14.5925 7.05676 14.5707 7.08994 14.5422C7.12312 14.5136 7.15036 14.4788 7.17009 14.4398C7.18982 14.4007 7.20166 14.3581 7.20494 14.3145C7.20822 14.2708 7.20286 14.2269 7.18919 14.1854C7.17551 14.1438 7.15378 14.1053 7.12523 14.0721C6.53451 13.3855 6.20919 12.5078 6.20919 11.6007V9.21824C8.3266 9.41157 10.4137 8.86355 12.1587 7.64776C12.5173 8.31686 13.0909 8.82355 13.7922 9.08662V11.6007C13.7922 14.3583 10.9873 16.1171 8.54767 15.1039C8.32006 15.0093 8.08227 15.1801 8.08407 15.4132C8.08302 16.2321 7.56259 16.9614 6.78825 17.2284L4.9962 17.8462C3.9457 18.1864 3.25098 19.1899 3.25098 20.2941V20.4285C3.25098 20.5169 3.28609 20.6017 3.3486 20.6642C3.41111 20.7267 3.49589 20.7618 3.5843 20.7618C3.6727 20.7618 3.75748 20.7267 3.81999 20.6642C3.8825 20.6017 3.91762 20.5169 3.91762 20.4285V20.2941C3.91762 19.4741 4.43843 18.7437 5.21356 18.4764L5.21314 18.4752C5.2146 18.4794 5.14419 18.5004 7.00557 17.8586C7.90224 17.5494 8.54571 16.7798 8.70946 15.8691C11.5449 16.7283 14.4589 14.6052 14.4589 11.6007Z" fill="#2E58FF"/>
<path d="M14.3099 14.3822C14.2666 14.3885 14.2249 14.4033 14.1873 14.4258C14.1497 14.4482 14.1169 14.4778 14.0908 14.5129C14.0646 14.548 14.0457 14.5879 14.035 14.6304C14.0242 14.6728 14.022 14.717 14.0283 14.7603C14.0347 14.8036 14.0495 14.8452 14.0719 14.8828C14.0943 14.9204 14.1239 14.9532 14.159 14.9793C14.1942 15.0055 14.2341 15.0245 14.2765 15.0352C14.319 15.0459 14.3631 15.0482 14.4064 15.0418C15.0538 14.9471 15.5419 14.3802 15.5419 13.7232V7.32518C15.5419 4.85532 13.5326 2.84595 11.0629 2.84595H8.93796C6.46823 2.84595 4.45898 4.85532 4.45898 7.32518V13.7232C4.45898 14.3802 4.94709 14.9471 5.59444 15.0418C5.63775 15.0482 5.68189 15.0459 5.72433 15.0352C5.76678 15.0245 5.80669 15.0055 5.8418 14.9793C5.87691 14.9532 5.90652 14.9204 5.92895 14.8828C5.95137 14.8452 5.96618 14.8036 5.9725 14.7602C5.9853 14.6728 5.96283 14.5838 5.91004 14.5129C5.85724 14.442 5.77844 14.395 5.69097 14.3822C5.36865 14.335 5.12558 14.0517 5.12562 13.7232V7.32518C5.12562 5.22293 6.83584 3.51259 8.93796 3.51259H11.0629C13.165 3.51259 14.8753 5.22293 14.8753 7.32518V13.7232C14.8753 14.0517 14.6322 14.335 14.3099 14.3822Z" fill="#2E58FF"/>
<path d="M8.95894 10.0955C8.87053 10.0955 8.78575 10.1306 8.72324 10.1931C8.66074 10.2557 8.62562 10.3404 8.62562 10.4288V11.0122C8.62562 11.1006 8.66074 11.1853 8.72324 11.2478C8.78575 11.3104 8.87053 11.3455 8.95894 11.3455C9.04734 11.3455 9.13212 11.3104 9.19463 11.2478C9.25714 11.1853 9.29226 11.1006 9.29226 11.0122V10.4288C9.29226 10.3404 9.25714 10.2557 9.19463 10.1931C9.13212 10.1306 9.04734 10.0955 8.95894 10.0955ZM11.0422 11.3455C11.1306 11.3455 11.2154 11.3104 11.2779 11.2478C11.3404 11.1853 11.3755 11.1006 11.3755 11.0122V10.4288C11.3755 10.3404 11.3404 10.2557 11.2779 10.1931C11.2154 10.1306 11.1306 10.0955 11.0422 10.0955C10.9538 10.0955 10.869 10.1306 10.8065 10.1931C10.744 10.2557 10.7089 10.3404 10.7089 10.4288V11.0122C10.7089 11.1006 10.744 11.1853 10.8065 11.2478C10.869 11.3104 10.9538 11.3455 11.0422 11.3455ZM9.44079 12.9469C9.37828 12.8844 9.29351 12.8493 9.20511 12.8493C9.11672 12.8493 9.03195 12.8844 8.96944 12.9469C8.93848 12.9778 8.91392 13.0146 8.89717 13.055C8.88041 13.0954 8.87179 13.1388 8.87179 13.1826C8.87179 13.2263 8.88041 13.2697 8.89717 13.3101C8.91392 13.3506 8.93848 13.3873 8.96944 13.4183C9.53795 13.9868 10.4631 13.9869 11.0317 13.4183C11.0627 13.3873 11.0872 13.3506 11.104 13.3101C11.1208 13.2697 11.1294 13.2263 11.1294 13.1826C11.1294 13.1388 11.1208 13.0954 11.104 13.055C11.0872 13.0146 11.0627 12.9778 11.0317 12.9469C10.9692 12.8844 10.8844 12.8493 10.796 12.8493C10.7077 12.8493 10.6229 12.8844 10.5604 12.9469C10.2517 13.2555 9.74945 13.2555 9.44079 12.9469ZM18.6489 8.84566C18.8538 8.84566 19.0096 8.66333 18.9788 8.46192C18.7652 7.06482 18.2163 5.71721 17.3915 4.56484C17.3661 4.52917 17.3339 4.49887 17.2967 4.47568C17.2595 4.45248 17.2182 4.43683 17.1749 4.42964C17.1317 4.42245 17.0875 4.42384 17.0448 4.43375C17.0022 4.44366 16.9618 4.46189 16.9262 4.48739C16.8906 4.51288 16.8603 4.54516 16.8372 4.58236C16.8141 4.61956 16.7985 4.66096 16.7913 4.70419C16.7842 4.74741 16.7857 4.79162 16.7956 4.83429C16.8056 4.87695 16.8239 4.91723 16.8494 4.95282C17.6135 6.0204 18.1219 7.26864 18.3198 8.56267C18.3318 8.64136 18.3716 8.71316 18.432 8.76506C18.4923 8.81697 18.5693 8.84556 18.6489 8.84566ZM3.07464 4.48776C3.03904 4.46228 2.99878 4.44406 2.95614 4.43415C2.9135 4.42423 2.86933 4.42281 2.82614 4.42997C2.78296 4.43713 2.7416 4.45272 2.70445 4.47586C2.66729 4.499 2.63505 4.52924 2.60958 4.56484C1.78482 5.71721 1.23597 7.06482 1.02235 8.46192C0.991519 8.66371 1.14764 8.84566 1.35225 8.84566C1.43186 8.84554 1.50879 8.81694 1.56914 8.76504C1.62949 8.71314 1.66929 8.64136 1.68132 8.56267C1.87919 7.26864 2.38759 6.0204 3.15168 4.95282C3.17716 4.91723 3.19538 4.87696 3.2053 4.83433C3.21521 4.79169 3.21664 4.74752 3.20948 4.70433C3.20233 4.66115 3.18674 4.61979 3.1636 4.58263C3.14047 4.54547 3.11024 4.51323 3.07464 4.48776ZM6.89157 2.02203C8.86736 1.2361 11.1337 1.2361 13.1096 2.02203C13.1914 2.05336 13.2823 2.05119 13.3626 2.01598C13.4429 1.98076 13.5061 1.91534 13.5385 1.83388C13.5709 1.75243 13.5699 1.66148 13.5357 1.58075C13.5015 1.50002 13.437 1.436 13.3559 1.40255C11.2092 0.548629 8.79461 0.547587 6.64516 1.40255C6.56396 1.43589 6.49919 1.49991 6.4649 1.58071C6.43062 1.66152 6.42958 1.75258 6.46202 1.83414C6.49447 1.9157 6.55777 1.98117 6.63819 2.01635C6.7186 2.05153 6.80965 2.05357 6.89157 2.02203ZM4.58412 4.26243C5.3193 4.26243 5.9174 3.66433 5.9174 2.92915C5.9174 2.19398 5.3193 1.59588 4.58412 1.59588C4.49572 1.59588 4.41094 1.63099 4.34843 1.6935C4.28592 1.75601 4.2508 1.84079 4.2508 1.9292C4.2508 2.0176 4.28592 2.10238 4.34843 2.16489C4.41094 2.2274 4.49572 2.26252 4.58412 2.26252C4.95169 2.26252 5.25076 2.56159 5.25076 2.92915C5.25076 3.29672 4.95169 3.59579 4.58412 3.59579C4.21655 3.59579 3.91748 3.29672 3.91748 2.92915C3.91748 2.84075 3.88236 2.75597 3.81985 2.69346C3.75734 2.63095 3.67256 2.59584 3.58416 2.59584C3.49576 2.59584 3.41098 2.63095 3.34847 2.69346C3.28596 2.75597 3.25084 2.84075 3.25084 2.92915C3.25084 3.66433 3.84894 4.26243 4.58412 4.26243ZM15.417 1.59588C14.6818 1.59588 14.0837 2.19398 14.0837 2.92915C14.0837 3.66433 14.6818 4.26243 15.417 4.26243C15.5054 4.26243 15.5902 4.22731 15.6527 4.16481C15.7152 4.1023 15.7503 4.01751 15.7503 3.92911C15.7503 3.84071 15.7152 3.75593 15.6527 3.69342C15.5902 3.63091 15.5054 3.59579 15.417 3.59579C15.0494 3.59579 14.7504 3.29672 14.7504 2.92915C14.7504 2.56159 15.0494 2.26252 15.417 2.26252C15.7846 2.26252 16.0836 2.56159 16.0836 2.92915C16.0836 3.01756 16.1188 3.10234 16.1813 3.16485C16.2438 3.22736 16.3286 3.26247 16.417 3.26247C16.5054 3.26247 16.5901 3.22736 16.6527 3.16485C16.7152 3.10234 16.7503 3.01756 16.7503 2.92915C16.7503 2.19402 16.1522 1.59588 15.417 1.59588ZM18.6669 9.67887C18.5785 9.67887 18.4937 9.71399 18.4312 9.7765C18.3687 9.83901 18.3335 9.92379 18.3335 10.0122C18.3335 10.1006 18.3687 10.1854 18.4312 10.2479C18.4937 10.3104 18.5785 10.3455 18.6669 10.3455C19.0344 10.3455 19.3335 10.6446 19.3335 11.0122C19.3335 11.3797 19.0344 11.6788 18.6669 11.6788C18.2993 11.6788 18.0002 11.3797 18.0002 11.0122C18.0002 10.9237 17.9651 10.839 17.9026 10.7765C17.8401 10.7139 17.7553 10.6788 17.6669 10.6788C17.5785 10.6788 17.4937 10.7139 17.4312 10.7765C17.3687 10.839 17.3336 10.9237 17.3336 11.0122C17.3336 11.7473 17.9317 12.3454 18.6669 12.3454C19.402 12.3454 20.0001 11.7473 20.0001 11.0122C20.0001 10.277 19.402 9.67887 18.6669 9.67887ZM2.33421 10.6788C2.24581 10.6788 2.16103 10.7139 2.09852 10.7765C2.03601 10.839 2.00089 10.9237 2.00089 11.0122C2.00089 11.3797 1.70182 11.6788 1.33425 11.6788C0.966686 11.6788 0.667615 11.3797 0.667615 11.0122C0.667615 10.6446 0.966686 10.3455 1.33425 10.3455C1.42266 10.3455 1.50744 10.3104 1.56995 10.2479C1.63246 10.1854 1.66757 10.1006 1.66757 10.0122C1.66757 9.92379 1.63246 9.83901 1.56995 9.7765C1.50744 9.71399 1.42266 9.67887 1.33425 9.67887C0.599077 9.67887 0.000976562 10.277 0.000976562 11.0122C0.000976562 11.7473 0.599077 12.3454 1.33425 12.3454C2.06943 12.3454 2.66753 11.7473 2.66753 11.0122C2.66753 10.9237 2.63241 10.839 2.56991 10.7765C2.5074 10.7139 2.42261 10.6788 2.33421 10.6788Z" fill="#2E58FF"/>
</g>
<defs>
<clipPath id="clip0_251_9732">
<rect width="20" height="20" fill="white" transform="translate(0 0.761719)"/>
</clipPath>
</defs>
</svg>
