<svg display="none" xmlns="http://www.w3.org/2000/svg">
    <defs>
        <symbol id="certificate" viewBox="0 0 80 80">
            <title>certificate</title>
            <g>
                <path d="M61.5669 1.33325H9.73523C7.52696 1.33325 5.73535 3.12486 5.73535 5.33313V63.3313L21.0682 78.6642H61.5669C63.7752 78.6642 65.5668 76.8726 65.5668 74.6643V5.33313C65.5668 3.12486 63.7752 1.33325 61.5669 1.33325Z"/>
                <path d="M65.5668 25.7529V74.6643C65.5668 76.8734 63.776 78.6642 61.5669 78.6642H21.0682L5.73535 63.3314V47.0474C5.73535 46.1991 6.51583 45.5666 7.34547 45.7436C30.0068 50.5798 50.6709 41.8722 63.1584 24.9647C63.924 23.9279 65.5668 24.4641 65.5668 25.7529Z"/>
                <path d="M21.0682 66.5595V78.6642L5.73535 63.3313H17.84C19.6233 63.3313 21.0682 64.7763 21.0682 66.5595Z"/>
                <path d="M53.5676 11.9996V18.666C53.5676 20.1393 52.3743 21.3326 50.901 21.3326H19.9019C18.4286 21.3326 17.2354 20.1393 17.2354 18.666V11.9996C17.2354 10.5263 18.4286 9.33301 19.9019 9.33301H50.901C52.3743 9.33301 53.5676 10.5263 53.5676 11.9996Z"/>
                <path d="M74.2681 61.0348C74.2681 68.4262 69.8571 75.0622 63.1568 77.7476C61.9007 78.2511 62.0417 78.2009 61.9869 78.2009C60.4455 78.8193 58.725 78.8193 57.1837 78.2009L56.052 77.7476C49.3522 75.061 44.9424 68.4262 44.9424 61.0348V50.7068C44.9424 49.3735 46.0357 48.3202 47.3323 48.3969C50.991 48.6114 54.7162 47.9311 58.1853 46.3103C58.6235 46.1053 59.1015 45.999 59.5853 45.999C60.0691 45.999 60.547 46.1053 60.9852 46.3103C64.4226 47.9144 68.1393 48.6137 71.8382 48.3969C73.1348 48.3202 74.2281 49.3735 74.2281 50.7068C74.2281 61.8151 74.2061 61.0348 74.2681 61.0348Z"/>
                <path d="M71.996 51.4881C70.9615 51.3236 69.9398 51.0871 68.9383 50.7801C66.0592 49.8972 62.9837 49.954 60.1001 50.822C57.5846 51.5803 54.9548 51.8878 52.3322 51.7301C51.0355 51.6534 49.9422 52.7067 49.9422 54.04C49.9422 54.04 49.9424 64.4699 49.9429 64.5209C49.9656 67.2823 45.9944 67.7669 45.3892 65.0724C45.0919 63.7471 44.942 62.393 44.9424 61.0348V50.7068C44.9424 49.3735 46.0357 48.3207 47.3323 48.3969C51.0027 48.6125 54.7399 47.9271 58.2198 46.2941C59.0963 45.883 60.1079 45.901 60.9854 46.3103C64.4219 47.9136 68.1403 48.6155 71.8384 48.3969C74.7443 48.2251 74.1366 51.8294 71.996 51.4881Z"/>
                <path fill="#0F0F00" d="M75.5627 60.7128V50.7072C75.5627 48.6413 73.8561 46.9424 71.7607 47.0655C71.4077 47.0862 71.0773 47.2462 70.8423 47.5104C70.6073 47.7746 70.4868 48.1213 70.5074 48.4743C70.5505 49.2093 71.183 49.7713 71.9162 49.7276C72.4421 49.6974 72.896 50.1334 72.896 50.7072C72.896 61.8894 72.8795 61.1234 72.9325 61.3461C72.8131 68.1144 68.8091 74.0459 62.6623 76.5099C61.3208 77.0478 61.6768 76.8893 61.4917 76.9633C60.2689 77.4556 58.9031 77.4556 57.6804 76.9633L56.5495 76.5103C50.3085 74.0069 46.2758 67.9324 46.2758 61.0351V50.7072C46.2758 50.1566 46.7091 49.6963 47.2554 49.7276C51.1438 49.9564 55.0933 49.2273 58.7506 47.5177C59.012 47.3951 59.2973 47.3316 59.5861 47.3316C59.8748 47.3317 60.1601 47.3952 60.4215 47.5178C62.3261 48.4077 64.4916 49.0501 65.3452 49.1936C65.9653 49.3001 66.5508 48.9573 66.7873 48.4173C66.9573 48.032 66.9008 50.8891 66.9008 5.33317C66.9008 2.39243 64.5084 0 61.5676 0H9.73593C6.79519 0 4.40276 2.39243 4.40276 5.33317C4.40276 65.9163 4.3786 63.4487 4.46009 63.718C4.51071 63.8849 4.59355 64.0403 4.70392 64.1753C4.75909 64.2428 20.1259 79.6232 20.2778 79.7353C20.5011 79.9005 20.7705 79.9918 21.0482 79.9963C21.1176 79.998 19.5886 79.9973 47.2724 79.9973C47.626 79.9973 47.9652 79.8569 48.2152 79.6068C48.4652 79.3568 48.6057 79.0176 48.6057 78.664C48.6057 78.3104 48.4652 77.9713 48.2152 77.7213C47.9652 77.4712 47.626 77.3307 47.2724 77.3307H22.402V66.5591C22.402 64.044 20.3559 61.9979 17.8408 61.9979H14.3161C13.9625 61.9979 13.6234 62.1384 13.3733 62.3884C13.1233 62.6384 12.9828 62.9776 12.9828 63.3312C12.9828 63.6848 13.1233 64.0239 13.3733 64.274C13.6234 64.524 13.9625 64.6645 14.3161 64.6645H17.8407C18.8855 64.6645 19.7353 65.5145 19.7353 66.5591V75.4451L7.06901 62.7787V5.33317C7.06901 3.86288 8.26531 2.66658 9.7356 2.66658H61.5673C63.0376 2.66658 64.2339 3.86288 64.2339 5.33317V46.1421C63.3171 45.856 62.4205 45.5085 61.5503 45.1021C60.9355 44.8138 60.2648 44.6643 59.5857 44.6643C58.9067 44.6643 58.2359 44.8138 57.6211 45.1021C54.4909 46.5649 51 47.276 47.4109 47.0655C45.311 46.9427 43.6089 48.6445 43.6089 50.7072V61.0351C43.6089 68.806 48.2014 76.0371 55.5568 78.9855C56.903 79.525 57.9018 80 59.5855 80C61.2148 79.9997 62.272 79.5393 63.6541 78.9852C70.9965 76.042 75.6015 68.8213 75.6015 61.0351C75.6019 60.9265 75.5888 60.8182 75.5627 60.7128Z"/>
                <path fill="#0F0F00" d="M63.9582 58.3889L58.8315 63.5158L56.2689 61.3193C56 61.0926 55.6524 60.9812 55.3018 61.0096C54.9512 61.038 54.626 61.2038 54.3971 61.4709C54.1681 61.738 54.054 62.0847 54.0796 62.4356C54.1052 62.7864 54.2684 63.1129 54.5337 63.3439L58.0336 66.3438C58.2886 66.5624 58.6167 66.6767 58.9524 66.6638C59.288 66.651 59.6065 66.5119 59.844 66.2743L65.8438 60.2745C66.0939 60.0245 66.2343 59.6853 66.2343 59.3317C66.2343 58.9781 66.0939 58.639 65.8438 58.3889C65.5938 58.1389 65.2546 57.9984 64.901 57.9984C64.5474 57.9984 64.2082 58.1389 63.9582 58.3889ZM59.2345 29.3327C59.2345 28.9791 59.094 28.6399 58.844 28.3899C58.594 28.1398 58.2548 27.9994 57.9012 27.9994H12.9026C12.549 27.9994 12.2099 28.1398 11.9598 28.3899C11.7098 28.6399 11.5693 28.9791 11.5693 29.3327C11.5693 29.6863 11.7098 30.0254 11.9598 30.2754C12.2099 30.5255 12.549 30.666 12.9026 30.666H57.9012C58.2548 30.666 58.594 30.5255 58.844 30.2754C59.094 30.0254 59.2345 29.6863 59.2345 29.3327ZM53.568 16.6664C53.9216 16.6664 54.2608 16.5259 54.5108 16.2759C54.7608 16.0258 54.9013 15.6867 54.9013 15.3331V11.9999C54.9013 9.79444 53.1069 8 50.9014 8H19.9024C17.697 8 15.9025 9.79444 15.9025 11.9999V18.6663C15.9025 20.8718 17.697 22.6662 19.9024 22.6662H49.6703C50.0239 22.6662 50.3631 22.5257 50.6131 22.2757C50.8631 22.0257 51.0036 21.6865 51.0036 21.3329C51.0036 20.9793 50.8631 20.6402 50.6131 20.3901C50.3631 20.1401 50.0239 19.9996 49.6703 19.9996H19.9024C19.1673 19.9996 18.5691 19.4015 18.5691 18.6663V11.9999C18.5691 11.2647 19.1673 10.6666 19.9024 10.6666H50.9014C51.6366 10.6666 52.2347 11.2647 52.2347 11.9999V15.3331C52.2347 15.6867 52.3752 16.0258 52.6252 16.2759C52.8753 16.5259 53.2144 16.6664 53.568 16.6664ZM21.9023 37.9991H17.9025C17.5489 37.9991 17.2097 38.1395 16.9597 38.3896C16.7097 38.6396 16.5692 38.9787 16.5692 39.3324C16.5692 39.686 16.7097 40.0251 16.9597 40.2751C17.2097 40.5252 17.5489 40.6656 17.9025 40.6656H21.9023C22.256 40.6656 22.5951 40.5252 22.8451 40.2751C23.0952 40.0251 23.2356 39.686 23.2356 39.3324C23.2356 38.9787 23.0952 38.6396 22.8451 38.3896C22.5951 38.1395 22.256 37.9991 21.9023 37.9991ZM21.9023 50.6653H17.9025C17.5489 50.6653 17.2097 50.8058 16.9597 51.0558C16.7097 51.3059 16.5692 51.645 16.5692 51.9986C16.5692 52.3522 16.7097 52.6914 16.9597 52.9414C17.2097 53.1914 17.5489 53.3319 17.9025 53.3319H21.9023C22.256 53.3319 22.5951 53.1914 22.8451 52.9414C23.0952 52.6914 23.2356 52.3522 23.2356 51.9986C23.2356 51.645 23.0952 51.3059 22.8451 51.0558C22.5951 50.8058 22.256 50.6653 21.9023 50.6653ZM54.9013 39.3324C54.9013 38.9787 54.7608 38.6396 54.5108 38.3896C54.2608 38.1395 53.9216 37.9991 53.568 37.9991H29.5688C29.2152 37.9991 28.876 38.1395 28.626 38.3896C28.376 38.6396 28.2355 38.9787 28.2355 39.3324C28.2355 39.686 28.376 40.0251 28.626 40.2751C28.876 40.5252 29.2152 40.6656 29.5688 40.6656H53.568C53.9216 40.6656 54.2608 40.5252 54.5108 40.2751C54.7608 40.0251 54.9013 39.686 54.9013 39.3324ZM40.2351 50.6653H29.5688C29.2152 50.6653 28.876 50.8058 28.626 51.0558C28.376 51.3059 28.2355 51.645 28.2355 51.9986C28.2355 52.3522 28.376 52.6914 28.626 52.9414C28.876 53.1914 29.2152 53.3319 29.5688 53.3319H40.2351C40.5887 53.3319 40.9278 53.1914 41.1779 52.9414C41.4279 52.6914 41.5684 52.3522 41.5684 51.9986C41.5684 51.645 41.4279 51.3059 41.1779 51.0558C40.9278 50.8058 40.5887 50.6653 40.2351 50.6653ZM40.2351 63.3316H29.5688C29.2152 63.3316 28.876 63.4721 28.626 63.7221C28.376 63.9722 28.2355 64.3113 28.2355 64.6649C28.2355 65.0185 28.376 65.3576 28.626 65.6077C28.876 65.8577 29.2152 65.9982 29.5688 65.9982H40.2351C40.5887 65.9982 40.9278 65.8577 41.1779 65.6077C41.4279 65.3576 41.5684 65.0185 41.5684 64.6649C41.5684 64.3113 41.4279 63.9722 41.1779 63.7221C40.9278 63.4721 40.5887 63.3316 40.2351 63.3316Z"/>
            </g>
        </symbol>
        <symbol id="documentManagementIcon" viewBox="0 0 80 80">
            <title>documentManagementIcon</title>
            <g>
                <path d="M65.6668 1.33325H39.3336C37.8603 1.33325 36.667 2.52658 36.667 3.9999V51.4995C36.667 52.9728 37.8603 54.1661 39.3336 54.1661H76C77.4733 54.1661 78.6666 52.9728 78.6666 51.4995V14.3331L65.6668 1.33325Z"/>
                <path d="M78.6669 14.3331H68.3336C66.8603 14.3331 65.667 13.1398 65.667 11.6665V1.33325L78.6669 14.3331Z"/>
                <path d="M78.6666 28.0765V51.4997C78.6666 52.9725 77.4728 54.1663 76 54.1663H39.3336C37.8608 54.1663 36.667 52.9725 36.667 51.4997V37.5413C36.667 36.6573 37.5122 36.0168 38.3623 36.2593C52.3475 40.2503 66.6439 37.7216 76.346 27.1809C77.1718 26.2839 78.6666 26.8572 78.6666 28.0765Z"/>
                <path d="M40.667 25.833H4.00063C2.52731 25.833 1.33398 27.0263 1.33398 28.4997V65.666L14.3339 78.6659H40.667C42.1403 78.6659 43.3336 77.4726 43.3336 75.9993V28.4997C43.3336 27.0263 42.1403 25.833 40.667 25.833Z"/>
                <path d="M46.0003 28.4998V52.8329C46.0003 53.1865 45.8598 53.5257 45.6097 53.7757C45.3597 54.0258 45.0205 54.1662 44.6669 54.1662H43.3336V28.4998C43.3336 27.027 42.1398 25.8331 40.667 25.8331H36.667V24.4998C36.667 24.1462 36.8075 23.8071 37.0575 23.557C37.3076 23.307 37.6467 23.1665 38.0003 23.1665H40.667C43.6124 23.1665 46.0003 25.5543 46.0003 28.4998Z"/>
                <path d="M43.3336 45.0686V75.9994C43.3336 77.4722 42.1398 78.666 40.667 78.666H14.3339L1.33398 65.6661V60.3105C1.33398 59.4495 2.13831 58.815 2.9758 59.0149C18.5123 62.7225 32.9229 56.7325 40.8733 44.357C41.5955 43.2327 43.3336 43.7325 43.3336 45.0686Z"/>
                <path d="M14.3339 68.3327V78.6659L1.33398 65.666H11.6672C13.1406 65.666 14.3339 66.8593 14.3339 68.3327Z"/>
                <path fill="#0F0F00" d="M79.6098 13.3904C65.4668 -0.754994 66.5421 0.285164 66.2759 0.147999C66.0875 0.0513235 65.8789 0.000608734 65.6671 0L39.334 0C37.1283 0 35.334 1.79432 35.334 3.99997V18.0832C35.334 18.4368 35.4745 18.7759 35.7245 19.026C35.9746 19.276 36.3137 19.4165 36.6673 19.4165C37.021 19.4165 37.3601 19.276 37.6101 19.026C37.8602 18.7759 38.0007 18.4368 38.0007 18.0832V3.99997C38.0007 3.26481 38.5988 2.66664 39.334 2.66664H64.3338V11.6666C64.3338 13.8722 66.1283 15.6665 68.3337 15.6665H71.0272C71.3808 15.6665 71.72 15.5261 71.97 15.276C72.2201 15.026 72.3605 14.6868 72.3605 14.3332C72.3605 13.9796 72.2201 13.6405 71.97 13.3904C71.72 13.1404 71.3808 12.9999 71.0272 12.9999H68.3337C67.5986 12.9999 67.0004 12.4017 67.0004 11.6666V4.55213L77.3337 14.8854V51.4996C77.3337 52.2347 76.7355 52.8329 76.0003 52.8329H44.6673V28.4998C44.6673 26.2941 42.8728 24.4998 40.6673 24.4998H4.00094C1.79529 24.4998 0.000976562 26.2941 0.000976562 28.4998V65.6661C0.000976562 66.0198 0.141475 66.3588 0.391473 66.6089C14.2839 80.5013 13.4654 79.749 13.824 79.8978C14.6082 80.2227 15.4813 79.7398 15.6417 78.9268C15.6795 78.7365 15.6675 79.3057 15.6675 68.3329C15.6675 66.1273 13.8732 64.333 11.6675 64.333H9.1569C8.80328 64.333 8.46415 64.4734 8.2141 64.7235C7.96405 64.9735 7.82358 65.3127 7.82358 65.6663C7.82358 66.0199 7.96405 66.359 8.2141 66.6091C8.46415 66.8591 8.80328 66.9996 9.1569 66.9996H11.6675C12.4027 66.9996 13.0009 67.5978 13.0009 68.3329V75.4472L2.66762 65.114V28.4998C2.66762 27.7646 3.26578 27.1664 4.00094 27.1664H40.6673C41.4025 27.1664 42.0006 27.7646 42.0006 28.4998V75.9994C42.0006 76.7345 41.4025 77.3327 40.6673 77.3327H22.4578C22.1042 77.3327 21.765 77.4732 21.515 77.7232C21.2649 77.9733 21.1245 78.3124 21.1245 78.666C21.1245 79.0196 21.2649 79.3588 21.515 79.6088C21.765 79.8589 22.1042 79.9993 22.4578 79.9993H40.6673C42.8728 79.9993 44.6673 78.205 44.6673 75.9994V55.4995H76.0003C78.2058 55.4995 80.0003 53.7052 80.0003 51.4996V14.3332C80.0003 14.1581 79.9658 13.9847 79.8988 13.823C79.8318 13.6612 79.7336 13.5142 79.6098 13.3904Z"/>
                <path fill="#0F0F00" d="M53.5003 27.6664C53.5003 28.0201 53.6408 28.3592 53.8908 28.6092C54.1409 28.8593 54.48 28.9998 54.8336 28.9998H68.3335C68.6871 28.9998 69.0263 28.8593 69.2763 28.6092C69.5264 28.3592 69.6668 28.0201 69.6668 27.6664C69.6668 27.3128 69.5264 26.9737 69.2763 26.7236C69.0263 26.4736 68.6871 26.3331 68.3335 26.3331H54.8336C54.48 26.3331 54.1409 26.4736 53.8908 26.7236C53.6408 26.9737 53.5003 27.3128 53.5003 27.6664ZM47.0004 28.9998H48.8337C49.1873 28.9998 49.5264 28.8593 49.7765 28.6092C50.0265 28.3592 50.167 28.0201 50.167 27.6664C50.167 27.3128 50.0265 26.9737 49.7765 26.7236C49.5264 26.4736 49.1873 26.3331 48.8337 26.3331H47.0004C46.6467 26.3331 46.3076 26.4736 46.0576 26.7236C45.8075 26.9737 45.667 27.3128 45.667 27.6664C45.667 28.0201 45.8075 28.3592 46.0576 28.6092C46.3076 28.8593 46.6467 28.9998 47.0004 28.9998ZM57.6669 14.8332H47.0004C46.6467 14.8332 46.3076 14.9737 46.0576 15.2237C45.8075 15.4738 45.667 15.8129 45.667 16.1665C45.667 16.5202 45.8075 16.8593 46.0576 17.1093C46.3076 17.3594 46.6467 17.4999 47.0004 17.4999H57.6669C58.0206 17.4999 58.3597 17.3594 58.6097 17.1093C58.8598 16.8593 59.0003 16.5202 59.0003 16.1665C59.0003 15.8129 58.8598 15.4738 58.6097 15.2237C58.3597 14.9737 58.0206 14.8332 57.6669 14.8332ZM47.0004 40.833H64.6185C64.9722 40.833 65.3113 40.6925 65.5613 40.4425C65.8114 40.1924 65.9519 39.8533 65.9519 39.4997C65.9519 39.1461 65.8114 38.8069 65.5613 38.5569C65.3113 38.3068 64.9722 38.1664 64.6185 38.1664H47.0004C46.6467 38.1664 46.3076 38.3068 46.0576 38.5569C45.8075 38.8069 45.667 39.1461 45.667 39.4997C45.667 39.8533 45.8075 40.1924 46.0576 40.4425C46.3076 40.6925 46.6467 40.833 47.0004 40.833ZM12.6673 40.833H24.1242C24.4778 40.833 24.817 40.6925 25.067 40.4425C25.3171 40.1924 25.4575 39.8533 25.4575 39.4997C25.4575 39.1461 25.3171 38.8069 25.067 38.5569C24.817 38.3068 24.4778 38.1664 24.1242 38.1664H12.6673C12.3137 38.1664 11.9746 38.3068 11.7245 38.5569C11.4745 38.8069 11.334 39.1461 11.334 39.4997C11.334 39.8533 11.4745 40.1924 11.7245 40.4425C11.9746 40.6925 12.3137 40.833 12.6673 40.833ZM12.6673 54.1662H32.0005C32.3541 54.1662 32.6932 54.0257 32.9433 53.7757C33.1933 53.5257 33.3338 53.1865 33.3338 52.8329C33.3338 52.4793 33.1933 52.1401 32.9433 51.8901C32.6932 51.64 32.3541 51.4996 32.0005 51.4996H12.6673C12.3137 51.4996 11.9746 51.64 11.7245 51.8901C11.4745 52.1401 11.334 52.4793 11.334 52.8329C11.334 53.1865 11.4745 53.5257 11.7245 53.7757C11.9746 54.0257 12.3137 54.1662 12.6673 54.1662ZM32.0005 67.4994C32.3541 67.4994 32.6932 67.359 32.9433 67.1089C33.1933 66.8589 33.3338 66.5197 33.3338 66.1661C33.3338 65.8125 33.1933 65.4734 32.9433 65.2233C32.6932 64.9733 32.3541 64.8328 32.0005 64.8328H21.1566C20.803 64.8328 20.4638 64.9733 20.2138 65.2233C19.9637 65.4734 19.8232 65.8125 19.8232 66.1661C19.8232 66.5197 19.9637 66.8589 20.2138 67.1089C20.4638 67.359 20.803 67.4994 21.1566 67.4994H32.0005ZM64.6097 59.39C64.4859 59.2662 64.3389 59.1679 64.1772 59.1009C64.0154 59.0339 63.842 58.9994 63.6669 58.9994C63.4918 58.9994 63.3184 59.0339 63.1566 59.1009C62.9948 59.1679 62.8479 59.2662 62.7241 59.39L59.5574 62.5566C59.3074 62.8067 59.167 63.1458 59.167 63.4994C59.167 63.853 59.3074 64.1921 59.5574 64.4421C59.6812 64.566 59.8282 64.6642 59.99 64.7312C60.1517 64.7983 60.3251 64.8327 60.5002 64.8327C60.6754 64.8327 60.8487 64.7983 61.0105 64.7312C61.1723 64.6642 61.3193 64.566 61.4431 64.4421L62.4444 63.4408C62.3134 68.3049 58.1261 71.9517 53.0751 71.0214C52.9029 70.9895 52.7261 70.9919 52.5548 71.0285C52.3835 71.065 52.2211 71.1349 52.0769 71.2343C51.9326 71.3337 51.8094 71.4605 51.7143 71.6076C51.6191 71.7546 51.5539 71.919 51.5223 72.0912C51.4583 72.439 51.5351 72.7979 51.7357 73.0891C51.9363 73.3803 52.2444 73.5798 52.5921 73.6439C59.2121 74.8627 64.8582 70.0736 65.107 63.6585L65.8907 64.4421C66.0144 64.5661 66.1613 64.6644 66.3231 64.7315C66.4849 64.7985 66.6584 64.8329 66.8335 64.8326C68.0102 64.8326 68.6193 63.3995 67.7763 62.5565L64.6097 59.39ZM15.3911 20.6093C15.5149 20.7331 15.6619 20.8314 15.8236 20.8984C15.9854 20.9654 16.1588 20.9999 16.3339 20.9999C16.5089 20.9999 16.6823 20.9654 16.8441 20.8984C17.0058 20.8314 17.1528 20.7331 17.2766 20.6093L20.4432 17.4427C20.5671 17.3189 20.6653 17.1719 20.7323 17.0102C20.7993 16.8484 20.8338 16.675 20.8338 16.4999C20.8338 16.3249 20.7993 16.1515 20.7323 15.9897C20.6653 15.828 20.5671 15.681 20.4432 15.5572C20.3195 15.4334 20.1725 15.3351 20.0107 15.2681C19.849 15.2011 19.6756 15.1666 19.5005 15.1666C19.3254 15.1666 19.152 15.2011 18.9903 15.2681C18.8285 15.3351 18.6815 15.4334 18.5578 15.5572L17.5563 16.5587C17.6874 11.6936 21.8752 8.0481 26.9257 8.97809C27.0979 9.00983 27.2747 9.00734 27.4459 8.97075C27.6171 8.93416 27.7795 8.86419 27.9237 8.76484C28.0678 8.6655 28.191 8.53871 28.2862 8.39174C28.3814 8.24476 28.4467 8.08048 28.4783 7.90827C28.5424 7.56051 28.4656 7.20156 28.265 6.91038C28.0644 6.61921 27.7563 6.41965 27.4085 6.35561C20.7432 5.12829 15.1406 9.97225 14.8936 16.341L14.11 15.5574C13.9862 15.4335 13.8392 15.3353 13.6774 15.2683C13.5157 15.2013 13.3423 15.1668 13.1672 15.1668C12.9921 15.1668 12.8187 15.2013 12.657 15.2683C12.4952 15.3353 12.3483 15.4335 12.2245 15.5574C12.1006 15.6812 12.0024 15.8281 11.9354 15.9899C11.8684 16.1516 11.8339 16.325 11.8339 16.5001C11.8339 16.6752 11.8684 16.8486 11.9354 17.0103C12.0024 17.1721 12.1006 17.3191 12.2245 17.4429L15.3911 20.6093Z"/>
            </g>
        </symbol>
        <symbol id="form" viewBox="0 0 80 80">
            <title>form</title>
            <g>
                <path d="M59.441 1.33325H7.60925C5.40099 1.33325 3.60938 3.12486 3.60938 5.33313V63.3313L18.9422 78.6642H59.441C61.6492 78.6642 63.4408 76.8726 63.4408 74.6643V5.33313C63.4408 3.12486 61.6492 1.33325 59.441 1.33325Z"/>
                <path d="M63.4408 25.7529V74.6643C63.4408 76.8734 61.6501 78.6642 59.441 78.6642H18.9422L3.60938 63.3314V47.0474C3.60938 46.1991 4.38985 45.5666 5.21949 45.7436C27.8808 50.5798 48.545 41.8722 61.0324 24.9647C61.7981 23.9279 63.4408 24.4641 63.4408 25.7529Z"/>
                <path d="M54.4411 26.0156V63.4811C54.4411 65.1477 53.0911 66.4977 51.4245 66.4977H15.459C13.7923 66.4977 12.4424 65.1477 12.4424 63.4811V26.0156C12.4424 24.349 13.7923 22.999 15.459 22.999H51.4245C53.0911 22.999 54.4411 24.349 54.4411 26.0156Z"/>
                <path d="M54.4411 35.4092V63.4813C54.4411 65.1472 53.0905 66.4979 51.4245 66.4979H15.459C13.793 66.4979 12.4424 65.1472 12.4424 63.4813V48.2744C12.4424 47.5063 13.0894 46.8943 13.856 46.944C28.5599 47.8975 41.9291 43.1649 52.2458 34.3935C53.1114 33.6574 54.4411 34.2727 54.4411 35.4092Z"/>
                <path d="M18.9422 66.5595V78.6642L3.60938 63.3313H15.714C17.4973 63.3313 18.9422 64.7763 18.9422 66.5595Z"/>
                <path d="M75.1219 27.0057L74.4702 26.2474C72.5536 24.0108 69.1854 23.7524 66.9505 25.6707L42.6595 46.5017L40.5049 54.5843C40.2638 55.4888 41.0056 56.3534 41.9362 56.2531L50.2543 55.3564L74.5452 34.5254C76.7801 32.6088 77.0385 29.2423 75.1219 27.0057Z"/>
                <path d="M42.6595 46.502L50.2543 55.3567L41.9362 56.2533C41.0056 56.3536 40.2638 55.489 40.5049 54.5845L42.6595 46.502Z"/>
                <path d="M74.482 26.2627C74.9748 26.88 74.5072 27.7712 73.7185 27.727C72.3922 27.6525 71.0368 28.0705 69.95 29.0041L46.3082 49.3715C46.2187 49.4487 46.1148 49.5076 46.0025 49.5446C45.8902 49.5816 45.7717 49.5961 45.6538 49.5872C45.5359 49.5784 45.4209 49.5463 45.3154 49.493C45.2099 49.4396 45.1159 49.3659 45.0389 49.2762L42.6592 46.5019L66.9501 25.6709C69.261 23.6875 72.7169 24.0516 74.482 26.2627Z"/>
                <path d="M45.4449 50.6387L44.2433 55.1459C44.1739 55.4061 44.0273 55.6392 43.8228 55.8145C43.6184 55.9898 43.3656 56.0991 43.0978 56.128L41.9359 56.2533C41.0059 56.3533 40.2646 55.4878 40.5046 54.5845L42.6592 46.502L45.1684 49.4272C45.3095 49.5915 45.4084 49.7876 45.4566 49.9987C45.5048 50.2098 45.5008 50.4295 45.4449 50.6387Z"/>
                <path fill="#0F0F00" d="M63.4398 58.0574C63.0862 58.0574 62.7471 58.1978 62.497 58.4479C62.247 58.6979 62.1065 59.037 62.1065 59.3906V74.6643C62.1065 76.1346 60.9102 77.3309 59.4399 77.3309H20.2745V66.5594C20.2745 64.0443 18.2284 61.9981 15.7133 61.9981H4.94163V5.33317C4.94163 3.86288 6.13793 2.66658 7.60821 2.66658H59.4399C60.9102 2.66658 62.1065 3.86288 62.1065 5.33317V20.424C62.1065 20.7776 62.247 21.1168 62.497 21.3668C62.7471 21.6168 63.0862 21.7573 63.4398 21.7573C63.7934 21.7573 64.1325 21.6168 64.3826 21.3668C64.6326 21.1168 64.7731 20.7776 64.7731 20.424V5.33317C64.7731 2.39243 62.3807 0 59.4399 0H7.60821C4.66747 0 2.27505 2.39243 2.27505 5.33317C2.27505 67.4507 2.19505 63.504 2.42704 63.9485C2.49004 64.0683 2.58204 64.1907 2.66553 64.2742C19.0619 80.6745 18.0412 79.6668 18.2027 79.7743C18.3484 79.8704 18.5112 79.9375 18.6822 79.9722C18.882 80.0118 16.0036 79.9977 59.4399 79.9977C62.3807 79.9977 64.7731 77.6052 64.7731 74.6645V59.3908C64.7731 59.2157 64.7386 59.0423 64.6716 58.8805C64.6047 58.7187 64.5065 58.5717 64.3826 58.4479C64.2588 58.3241 64.1118 58.2259 63.9501 58.1589C63.7883 58.0918 63.6149 58.0574 63.4398 58.0574ZM6.82707 64.6646H15.7133C16.7581 64.6646 17.6079 65.5146 17.6079 66.5594V75.4455L6.82707 64.6646Z"/>
                <path fill="#0F0F00" d="M76.1321 26.1379L75.4811 25.3787C73.0883 22.5885 68.8713 22.2652 66.0809 24.6581L55.7727 33.4981V26.0152C55.7727 23.617 53.8216 21.6657 51.4232 21.6657H15.457C13.0585 21.6657 11.1074 23.617 11.1074 26.0152V56.4981C11.1074 56.8517 11.2479 57.1908 11.4979 57.4409C11.748 57.6909 12.0871 57.8314 12.4407 57.8314H21.7738V59.9711C21.7738 60.3248 21.9142 60.6639 22.1643 60.9139C22.4143 61.164 22.7534 61.3044 23.107 61.3044C23.4607 61.3044 23.7998 61.164 24.0498 60.9139C24.2999 60.6639 24.4403 60.3248 24.4403 59.9711V57.8314H31.7896C32.1432 57.8314 32.4823 57.6909 32.7324 57.4409C32.9824 57.1908 33.1229 56.8517 33.1229 56.4981C33.1229 56.1445 32.9824 55.8054 32.7324 55.5553C32.4823 55.3053 32.1432 55.1648 31.7896 55.1648H24.4403V46.1651H35.2733C35.6269 46.1651 35.9661 46.0246 36.2161 45.7746C36.4662 45.5245 36.6066 45.1854 36.6066 44.8318C36.6066 44.4782 36.4662 44.139 36.2161 43.889C35.9661 43.639 35.6269 43.4985 35.2733 43.4985H24.4403V34.4988H46.456C46.8096 34.4988 47.1487 34.3583 47.3988 34.1083C47.6488 33.8582 47.7893 33.5191 47.7893 33.1655C47.7893 32.8119 47.6488 32.4727 47.3988 32.2227C47.1487 31.9727 46.8096 31.8322 46.456 31.8322H24.4403V28.9989C24.4403 28.6453 24.2999 28.3062 24.0498 28.0562C23.7998 27.8061 23.4607 27.6657 23.107 27.6657C22.7534 27.6657 22.4143 27.8061 22.1643 28.0562C21.9142 28.3062 21.7738 28.6453 21.7738 28.9989V31.8322H13.774V26.0154C13.774 25.0874 14.529 24.3324 15.457 24.3324H51.4232C52.351 24.3324 53.1061 25.0874 53.1061 26.0154V35.7851C40.864 46.2837 41.627 45.5479 41.4445 45.9533C41.3753 46.1069 41.5623 45.4388 38.8221 55.7193L37.7444 56.6434C36.8016 57.4521 37.3853 58.9888 38.6131 58.9888C38.9313 58.9892 39.2391 58.8752 39.4804 58.6677L40.558 57.7435L50.3964 56.6826C50.6642 56.6537 50.917 56.5444 51.1215 56.3691L69.5146 40.5954C70.4717 41.7115 70.3424 43.3983 69.2263 44.3555L60.3214 51.9921C60.1885 52.106 60.0793 52.2451 60.0001 52.4013C59.921 52.5574 59.8733 52.7277 59.8599 52.9023C59.8465 53.0768 59.8677 53.2524 59.9221 53.4188C59.9766 53.5852 60.0632 53.7393 60.1772 53.8722C60.2912 54.0051 60.4303 54.1143 60.5864 54.1934C60.7426 54.2726 60.9128 54.3203 61.0874 54.3336C61.262 54.347 61.4375 54.3259 61.6039 54.2715C61.7703 54.217 61.9244 54.1303 62.0573 54.0163L70.9622 46.3797C73.1945 44.4655 73.453 41.0919 71.5387 38.8596L75.4116 35.5382C78.2017 33.1452 78.525 28.9283 76.1321 26.1379ZM21.7738 55.1648H13.774V46.1651H21.7738V55.1648ZM21.7738 34.4988V43.4985H13.774V34.4988H21.7738ZM73.6755 33.514L69.8026 36.8354L67.3517 33.9775C67.2383 33.8424 67.0994 33.7311 66.9427 33.6502C66.7861 33.5692 66.615 33.52 66.4393 33.5056C66.2636 33.4912 66.0868 33.5118 65.919 33.5661C65.7513 33.6205 65.5961 33.7076 65.4622 33.8224C65.3284 33.9372 65.2187 34.0774 65.1394 34.2349C65.0601 34.3923 65.0128 34.564 65.0003 34.7398C64.9878 34.9157 65.0103 35.0923 65.0665 35.2594C65.1227 35.4265 65.2115 35.5808 65.3277 35.7134L67.7787 38.5711L49.6995 54.0755L41.7928 54.9283L43.2951 49.2911L45.444 51.7969C45.5691 51.9431 45.7245 52.0604 45.8993 52.1407C46.0742 52.2211 46.2644 52.2625 46.4568 52.2622C47.5869 52.2622 48.2098 50.9256 47.4683 50.061L44.5389 46.6451L67.8168 26.6824C69.4908 25.2467 72.0212 25.4404 73.457 27.1147L74.108 27.8738C75.5436 29.5479 75.3496 32.0782 73.6755 33.514ZM51.4232 67.8311C53.8216 67.8311 55.7727 65.8798 55.7727 63.4815V60.3796C55.7727 60.026 55.6322 59.6869 55.3822 59.4369C55.1321 59.1868 54.793 59.0463 54.4394 59.0463C54.0858 59.0463 53.7467 59.1868 53.4966 59.4369C53.2466 59.6869 53.1061 60.026 53.1061 60.3796V63.4815C53.1061 64.4095 52.3511 65.1645 51.4232 65.1645H26.8436C26.49 65.1645 26.1509 65.305 25.9008 65.555C25.6508 65.805 25.5103 66.1442 25.5103 66.4978C25.5103 66.8514 25.6508 67.1905 25.9008 67.4406C26.1509 67.6906 26.49 67.8311 26.8436 67.8311H51.4232ZM28.1284 10.9995C27.7748 10.9995 27.4356 11.14 27.1856 11.39C26.9356 11.6401 26.7951 11.9792 26.7951 12.3328C26.7951 12.6864 26.9356 13.0255 27.1856 13.2756C27.4356 13.5256 27.7748 13.6661 28.1284 13.6661H48.2729C48.6265 13.6661 48.9657 13.5256 49.2157 13.2756C49.4657 13.0255 49.6062 12.6864 49.6062 12.3328C49.6062 11.9792 49.4657 11.6401 49.2157 11.39C48.9657 11.14 48.6265 10.9995 48.2729 10.9995H28.1284ZM18.9405 10.9995C18.5869 10.9995 18.2478 11.14 17.9977 11.39C17.7477 11.6401 17.6072 11.9792 17.6072 12.3328C17.6072 12.6864 17.7477 13.0255 17.9977 13.2756C18.2478 13.5256 18.5869 13.6661 18.9405 13.6661H21.8543C22.2079 13.6661 22.547 13.5256 22.797 13.2756C23.0471 13.0255 23.1875 12.6864 23.1875 12.3328C23.1875 11.9792 23.0471 11.6401 22.797 11.39C22.547 11.14 22.2079 10.9995 21.8543 10.9995H18.9405Z"/>
            </g>
        </symbol>
        <symbol id="handsIcon" viewBox="0 0 80 80">
            <title>handsIcon</title>
            <g>
                <path d="M39.9998 63.8317C53.1618 63.8317 63.8317 53.1618 63.8317 39.9998C63.8317 26.8378 53.1618 16.168 39.9998 16.168C26.8378 16.168 16.168 26.8378 16.168 39.9998C16.168 53.1618 26.8378 63.8317 39.9998 63.8317Z"/>
                <path d="M41.2905 21.6072C30.2365 24.2872 22.1559 35.2827 22.7887 46.6475C22.9658 49.828 18.4496 50.6776 17.4262 47.6611C12.0827 31.9116 24.2016 15.7013 40.7017 16.1782C43.9112 16.2711 44.411 20.8506 41.2905 21.6072Z"/>
                <path d="M75.7447 27.3857L71.2283 31.9021C68.5773 34.5533 64.3693 34.354 61.9772 31.9021L54.8727 39.005C53.6194 40.2599 51.5762 40.3516 50.278 39.1433C48.9254 37.8786 48.8761 35.7519 50.1913 34.4353L47.9881 36.6368C46.6832 37.9434 44.5483 37.9151 43.2801 36.5518C42.1118 35.2957 42.1628 33.3574 43.2817 32.0988C43.5167 31.8666 42.4318 32.9421 45.5649 29.8089C44.26 31.1138 42.1252 31.0855 40.8569 29.7223C39.6983 28.4772 39.73 26.531 40.8652 25.2642C40.9524 25.1665 42.1726 23.9501 44.905 21.2178C43.6001 22.5227 41.4652 22.4944 40.1953 21.1311C38.987 19.8329 39.0803 17.7897 40.3336 16.5364L52.6145 4.25551C56.5076 0.362421 62.8205 0.362421 66.7136 4.25551L75.7447 13.2866C79.6378 17.1797 79.6378 23.4926 75.7447 27.3857ZM39.667 63.4635L27.3861 75.7444C23.493 79.6375 17.18 79.6375 13.287 75.7444L4.25586 66.7133C0.364267 62.8217 0.3636 56.5066 4.25586 52.6142L8.77224 48.0978C11.3206 45.5494 15.4622 45.5366 18.0217 48.0961L25.1279 40.9949C26.2628 39.8583 28.0477 39.6766 29.3376 40.5516C30.9527 41.6078 31.2978 44.0182 29.8476 45.5246C29.5176 45.8672 31.2632 44.1127 32.0125 43.3631C33.314 42.0611 35.4424 42.0825 36.7205 43.4481C37.9406 44.7586 37.8223 46.8044 36.5822 48.0444L34.4356 50.191C35.5656 49.061 37.3188 48.931 38.592 49.8027C40.2828 50.9491 40.4544 53.3269 39.0853 54.789C39.0417 54.8383 39.3193 54.5584 35.0956 58.7821C36.4205 57.4572 38.5622 57.5283 39.8053 58.8688C41.0136 60.167 40.9202 62.2102 39.667 63.4635Z"/>
                <path d="M25.2717 40.858C26.5411 39.7279 28.2709 41.6175 27.0693 42.8192L13.629 56.2624C13.3786 56.5121 13.0393 56.6524 12.6857 56.6524C12.332 56.6524 11.9928 56.5121 11.7424 56.2624C11.2224 55.7407 11.2219 54.897 11.7424 54.3758C21.2508 44.8531 25.1576 40.9597 25.2717 40.858ZM10.8626 49.7469L5.75361 54.8636C4.56085 56.0612 2.70113 54.3463 3.8189 53.0784C4.21787 52.6256 9.04107 47.8426 9.05824 47.8272C10.3328 46.6955 12.0684 48.5422 10.8626 49.7469ZM32.1573 43.2255C33.428 42.0983 35.1548 43.988 33.9537 45.1891L20.4585 58.6856C20.2081 58.9353 19.8689 59.0755 19.5152 59.0755C19.1616 59.0755 18.8224 58.9353 18.572 58.6856C18.052 58.1639 18.0515 57.3201 18.572 56.799C18.5888 56.7822 32.107 43.2702 32.1573 43.2255ZM34.5788 50.0551C35.8492 48.9283 37.5751 50.8185 36.3744 52.0193L25.0834 63.3103C24.833 63.56 24.4938 63.7002 24.1401 63.7002C23.7865 63.7002 23.4473 63.56 23.1969 63.3103C22.6769 62.7886 22.6764 61.9448 23.1969 61.4237C35.2139 49.3898 34.4638 50.1571 34.5788 50.0551ZM35.2404 58.6447C36.5115 57.5186 38.2369 59.408 37.0362 60.6088L27.5064 70.1398C27.3825 70.2636 27.2354 70.3618 27.0736 70.4287C26.9117 70.4956 26.7383 70.53 26.5631 70.5298C25.3789 70.5298 24.7829 69.0912 25.6199 68.2533C35.6776 58.1828 35.0988 58.77 35.2404 58.6447Z"/>
                <path d="M70.1448 27.5124L65.7521 31.9053C64.754 32.9034 63.0797 33.0049 61.9805 31.9054L68.2584 25.6258C68.5088 25.3761 68.848 25.2358 69.2017 25.2358C69.5553 25.2358 69.8946 25.3761 70.145 25.6258C70.3946 25.8763 70.5348 26.2155 70.5348 26.5691C70.5348 26.9228 70.3945 27.262 70.1448 27.5124Z"/>
                <path d="M63.3155 25.0891L51.9981 36.4079C50.7916 37.6145 48.9139 35.8893 50.0345 34.6027C50.0445 34.5912 61.3958 23.2358 61.429 23.2026C61.9489 22.6826 62.7939 22.6826 63.3155 23.2026C63.5653 23.453 63.7055 23.7922 63.7055 24.1459C63.7055 24.4995 63.5653 24.8387 63.3155 25.0891ZM58.6908 20.4644L45.2131 33.9408C44.0084 35.1454 42.135 33.4288 43.2471 32.1382C43.2586 32.1249 56.0143 19.3665 56.8043 18.5779C57.0546 18.3281 57.3938 18.1878 57.7475 18.1878C58.1012 18.1878 58.4404 18.3281 58.6908 18.5779C58.9405 18.8283 59.0808 19.1675 59.0808 19.5212C59.0808 19.8748 58.9405 20.214 58.6908 20.4644ZM56.2676 13.6349L42.7966 27.106C41.5897 28.3129 39.7127 26.5867 40.8339 25.2998C40.8442 25.288 54.3811 11.7485 54.3811 11.7485C54.6315 11.4987 54.9707 11.3585 55.3243 11.3585C55.678 11.3585 56.0172 11.4987 56.2676 11.7485C56.5173 11.9989 56.6576 12.338 56.6576 12.6917C56.6576 13.0453 56.5173 13.3845 56.2676 13.6349ZM53.4895 5.27039C53.6133 5.39425 53.7116 5.54131 53.7787 5.70316C53.8457 5.86501 53.8802 6.03848 53.8802 6.21366C53.8802 6.38885 53.8457 6.56232 53.7787 6.72416C53.7116 6.88601 53.6133 7.03307 53.4895 7.15694L42.1487 18.4962C40.9569 19.6897 39.0469 18.0199 40.2171 16.6547L51.6031 5.27022C51.8533 5.0201 52.1925 4.87961 52.5463 4.87964C52.9001 4.87967 53.2393 5.02023 53.4895 5.27039Z"/>
                <path fill="#0F0F00" d="M76.6873 12.3445L67.6557 3.31273C63.2486 -1.09399 56.0785 -1.09366 51.6718 3.31273L40.1475 14.837C26.6476 14.759 15.5616 25.2904 14.869 38.6802C14.8507 39.0333 14.9735 39.3792 15.2103 39.6418C15.4471 39.9044 15.7784 40.0622 16.1316 40.0804C16.4847 40.0987 16.8306 39.9759 17.0931 39.7391C17.3557 39.5023 17.5135 39.1709 17.5318 38.8178C18.1188 27.4697 27.0444 18.4569 38.1983 17.5737C37.4629 19.9904 38.7906 22.421 41.006 23.2305L39.9966 24.2399C37.6089 26.6276 38.5388 30.7858 41.7951 31.8663C40.6985 33.6183 40.8568 35.9064 42.3039 37.4604C43.8798 39.1523 46.3533 39.3528 48.1381 38.2175C49.225 41.4628 53.3441 42.4196 55.8156 39.9479L69.1976 26.5659C69.3226 26.4424 69.422 26.2954 69.49 26.1333C69.558 25.9712 69.5932 25.7973 69.5938 25.6215C69.5943 25.4457 69.5601 25.2716 69.493 25.1091C69.426 24.9466 69.3275 24.799 69.2032 24.6747C69.0789 24.5505 68.9313 24.452 68.7688 24.385C68.6063 24.318 68.4322 24.2837 68.2564 24.2843C68.0806 24.2848 67.9067 24.3201 67.7446 24.3881C67.5826 24.4561 67.4355 24.5555 67.312 24.6806L53.93 38.0624C53.1702 38.8222 51.9395 38.8695 51.1859 38.1677C50.3727 37.4104 50.3639 36.1475 51.134 35.3774L62.3688 24.1426C62.4939 24.0191 62.5932 23.872 62.6612 23.7099C62.7292 23.5479 62.7645 23.3739 62.765 23.1982C62.7655 23.0224 62.7313 22.8483 62.6643 22.6858C62.5973 22.5233 62.4988 22.3757 62.3745 22.2514C62.2502 22.1271 62.1026 22.0286 61.9401 21.9616C61.7776 21.8946 61.6034 21.8604 61.4277 21.8609C61.2519 21.8615 61.078 21.8968 60.9159 21.9648C60.7538 22.0328 60.6068 22.1322 60.4833 22.2572L47.0458 35.6945C46.2817 36.4585 45.0172 36.461 44.2555 35.6427C43.5538 34.8893 43.6012 33.6582 44.361 32.8985L57.743 19.5166C57.868 19.393 57.9674 19.246 58.0353 19.0839C58.1033 18.9218 58.1386 18.7479 58.1391 18.5721C58.1397 18.3964 58.1054 18.2222 58.0384 18.0597C57.9714 17.8973 57.8729 17.7496 57.7486 17.6253C57.6243 17.5011 57.4767 17.4026 57.3142 17.3356C57.1517 17.2686 56.9776 17.2343 56.8018 17.2349C56.626 17.2354 56.4521 17.2707 56.29 17.3387C56.128 17.4067 55.9809 17.5061 55.8574 17.6312L44.6223 28.8663C44.4381 29.0505 44.2187 29.1957 43.9771 29.2932C43.7355 29.3906 43.4768 29.4383 43.2163 29.4334C42.9559 29.4286 42.6991 29.3712 42.4613 29.2647C42.2236 29.1583 42.0097 29.005 41.8326 28.814C41.1312 28.0608 41.1782 26.8304 41.9371 26.0706L55.3199 12.6878C55.445 12.5643 55.5443 12.4172 55.6123 12.2552C55.6803 12.0931 55.7156 11.9191 55.7161 11.7434C55.7166 11.5676 55.6824 11.3935 55.6154 11.231C55.5484 11.0685 55.4499 10.9209 55.3256 10.7966C55.2013 10.6723 55.0537 10.5738 54.8912 10.5068C54.7287 10.4398 54.5545 10.4056 54.3788 10.4062C54.203 10.4067 54.0291 10.442 53.867 10.51C53.7049 10.578 53.5579 10.6774 53.4344 10.8024L43.962 20.275C43.1972 21.0393 41.9334 21.0408 41.1718 20.223C40.4702 19.4696 40.5175 18.2385 41.2773 17.4788L53.5579 5.19828C56.9247 1.83149 62.4033 1.83132 65.7704 5.19828L74.802 14.23C78.1772 17.6052 78.1773 23.0675 74.802 26.4428L70.2862 30.9587C69.7948 31.4521 69.209 31.8413 68.5638 32.1031C68.2393 32.2382 67.9813 32.496 67.8459 32.8203C67.7105 33.1447 67.7086 33.5094 67.8408 33.8351C67.9729 34.1608 68.2283 34.4211 68.5514 34.5595C68.8745 34.6979 69.2391 34.7031 69.566 34.5739C70.5422 34.1785 71.4285 33.5902 72.1719 32.8442L76.6878 28.3283C81.1042 23.9111 81.1047 16.7619 76.6873 12.3445Z"/>
                <path fill="#0F0F00" d="M63.8514 39.0918C63.1168 39.0756 62.5078 39.6651 62.495 40.4015C62.2927 51.98 53.1699 61.5062 41.8019 62.4251C42.5377 60.005 41.2045 57.5774 38.9938 56.7697C40.1636 55.5999 39.9846 55.7811 40.0494 55.7091C42.4457 53.1647 41.331 49.1713 38.2047 48.1339C40.1432 45.0366 37.946 41.1348 34.4064 41.072C33.4891 41.0563 32.6144 41.304 31.8617 41.7826C30.7923 38.5895 26.6887 37.5477 24.1842 40.0522L10.8022 53.4342C9.95961 54.2768 10.5681 55.7102 11.745 55.7102C11.9201 55.7104 12.0936 55.6761 12.2553 55.6091C12.4171 55.542 12.5641 55.4437 12.6878 55.3197L26.0698 41.9378C27.31 40.6975 29.4022 41.4858 29.4331 43.2178C29.4386 43.4782 29.3912 43.7371 29.2937 43.9786C29.1962 44.2201 29.0506 44.4392 28.8658 44.6227L17.631 55.8575C16.7883 56.7002 17.3968 58.1336 18.5737 58.1336C18.7489 58.1338 18.9223 58.0994 19.0841 58.0324C19.2459 57.9654 19.3928 57.8671 19.5165 57.7431L32.954 44.3058C33.1381 44.1214 33.3576 43.9761 33.5992 43.8785C33.8408 43.781 34.0997 43.7332 34.3602 43.738C34.6207 43.7429 34.8776 43.8002 35.1154 43.9067C35.3533 44.0131 35.5672 44.1665 35.7443 44.3576C36.4459 45.1111 36.3986 46.3421 35.6388 47.1018L22.2568 60.4838C21.4142 61.3264 22.0227 62.7598 23.1996 62.7598C23.3747 62.76 23.5482 62.7256 23.71 62.6586C23.8718 62.5916 24.0187 62.4933 24.1424 62.3693L35.3775 51.1342C36.1605 50.3527 37.4206 50.3849 38.1672 51.1865C38.8686 51.9396 38.8216 53.17 38.0627 53.9298L24.6799 67.3127C23.8372 68.1553 24.4457 69.5887 25.6226 69.5887C25.7977 69.5889 25.9712 69.5546 26.133 69.4875C26.2948 69.4205 26.4417 69.3222 26.5654 69.1982L36.0378 59.7256C36.8181 58.9457 38.0798 58.9745 38.828 59.7776C39.5296 60.5311 39.4823 61.7622 38.7225 62.5218L26.4419 74.8024C23.0753 78.169 17.5968 78.1697 14.2293 74.8024L5.19774 65.7706C1.82262 62.3955 1.82245 56.9331 5.19774 53.5579L9.71362 49.042C10.2049 48.5485 10.7908 48.1593 11.436 47.8975C11.5983 47.8317 11.746 47.7346 11.8707 47.6117C11.9954 47.4889 12.0947 47.3426 12.1629 47.1814C12.231 47.0201 12.2668 46.847 12.2681 46.6719C12.2693 46.4968 12.2361 46.3232 12.1703 46.161C11.8937 45.4787 11.1157 45.1495 10.4337 45.4267C9.45763 45.8221 8.57134 46.4105 7.82791 47.1564L3.31286 51.6718C-1.10404 56.0889 -1.10453 63.2381 3.31286 67.6555L12.3445 76.6872C16.7513 81.0938 23.9212 81.094 28.3283 76.6872L39.8524 65.1631C53.5089 65.242 64.918 54.357 65.1611 40.448C65.1642 40.2729 65.1328 40.099 65.0687 39.9361C65.0045 39.7732 64.9089 39.6245 64.7872 39.4985C64.6656 39.3726 64.5204 39.2718 64.3598 39.2021C64.1992 39.1323 64.0265 39.0948 63.8514 39.0918Z"/>
            </g>
        </symbol>
        <symbol id="internet" viewBox="0 0 80 80">
            <title>internet</title>
            <g>
                <path d="M39.9994 78.6575C61.3483 78.6575 78.655 61.3507 78.655 40.0018C78.655 18.6529 61.3483 1.34619 39.9994 1.34619C18.6505 1.34619 1.34375 18.6529 1.34375 40.0018C1.34375 61.3507 18.6505 78.6575 39.9994 78.6575Z"/>
                <path d="M62.1603 40.0017H78.6556C78.6556 61.3506 61.3489 78.6573 40 78.6573C40.9181 78.1192 62.1603 65.1429 62.1603 40.0017Z"/>
                <path d="M78.6556 40.0016H62.1603V39.835C62.067 14.8004 41.003 1.93411 40 1.34595C61.3489 1.34595 78.6556 18.6527 78.6556 40.0016ZM40 78.6572V40.0016H62.1603C62.1603 65.1427 40.9181 78.119 40 78.6572Z"/>
                <path d="M40.0002 1.34619C41.0032 1.93436 62.0672 14.8007 62.1605 39.8352V40.0018H40.0002V1.34619ZM40.0002 40.0018V78.6575C39.0821 78.1193 17.8398 65.143 17.8398 40.0018H40.0002Z"/>
                <path d="M39.9994 1.34619V40.0018H17.839V39.8352C17.9323 14.8007 38.9963 1.93436 39.9994 1.34619ZM17.839 40.0018C17.839 65.143 39.0813 78.1193 39.9994 78.6575C18.6505 78.6575 1.34375 61.3507 1.34375 40.0018H17.839Z"/>
                <path fill="#0F0F00" d="M68.2759 11.7256C52.7 -3.85065 27.4152 -3.96629 11.7237 11.7256C-3.9047 27.3539 -3.90587 52.6484 11.7237 68.2779C27.337 83.8916 52.6313 83.9228 68.2759 68.2779C83.9044 52.6494 83.9056 27.3551 68.2759 11.7256ZM41.3327 38.6687V13.3426C41.3327 12.9891 41.1923 12.65 40.9423 12.4001C40.6923 12.1501 40.3533 12.0097 39.9998 12.0097C39.6462 12.0097 39.3072 12.1501 39.0572 12.4001C38.8073 12.65 38.6668 12.9891 38.6668 13.3426V38.6687H19.1942C19.4888 29.0118 22.9845 20.1395 29.5984 12.2814C33.9643 7.09422 38.3524 3.99111 39.9998 2.91825C41.647 3.99094 46.0352 7.09406 50.4011 12.2814C57.0152 20.1393 60.5107 29.0116 60.8053 38.6687H41.3327ZM60.8048 41.3346C60.3668 55.6795 52.4495 68.1228 41.3329 76.1577V41.3346H60.8048ZM35.4034 2.96224C24.3684 11.6711 16.95 24.217 16.5263 38.6687H2.70358C3.35373 20.2471 17.4165 5.1811 35.4034 2.96224ZM2.70358 41.3346H16.5291C16.8415 51.9246 20.8346 61.3562 27.4234 69.2561C27.6514 69.5222 27.9751 69.6877 28.3243 69.7169C28.6735 69.7461 29.0202 69.6367 29.2893 69.4122C29.5584 69.1878 29.7283 68.8664 29.7623 68.5177C29.7962 68.1689 29.6915 67.8208 29.4708 67.5486C22.9386 59.7164 19.4875 50.9039 19.1952 41.3346H38.6671V77.298C19.1451 76.6089 3.39255 60.8565 2.70358 41.3346ZM44.5896 77.0419C55.636 68.3073 63.0453 55.753 63.4707 41.3346H68.6584C69.0119 41.3346 69.351 41.1942 69.601 40.9442C69.8509 40.6942 69.9914 40.3552 69.9914 40.0017C69.9914 39.6481 69.8509 39.3091 69.601 39.0591C69.351 38.8091 69.0119 38.6687 68.6584 38.6687H63.4734C63.0482 24.1667 55.5537 11.6096 44.5961 2.96207C63.0152 5.23442 77.3224 20.9779 77.3224 40.0017C77.3224 59.0277 63.0119 74.7726 44.5896 77.0419Z"/>
            </g>
        </symbol>
        <symbol id="man" viewBox="0 0 80 80">
            <title>man</title>
            <g>
                <path d="M59.5973 61.2699C59.5407 61.2501 52.4828 58.8166 52.4145 58.7933C48.761 57.5319 46.3329 54.0961 46.3329 50.2616C52.3028 47.7783 56.4995 41.89 56.4995 35.0217V34.5C58.8928 34.5 60.8328 32.56 60.8328 30.1667V14.5901C60.8328 7.26864 54.8977 1.3335 47.5762 1.3335H36.1413C30.9866 1.3335 26.325 4.31815 24.149 8.94013C23.958 9.34596 23.5911 9.65096 23.1476 9.71863C20.9878 10.0488 19.333 11.9148 19.333 14.1668V30.41C19.333 32.6174 21.119 34.5 23.4996 34.5V35.0217C23.4996 41.89 27.6963 47.7783 33.6663 50.2616C33.6663 54.0959 31.2393 57.5349 27.5846 58.7933C27.5678 58.7991 20.4146 61.2551 20.398 61.2716C16.768 62.5299 14.333 65.9516 14.333 69.7949V77.3332C14.333 77.6868 14.4735 78.0259 14.7235 78.276C14.9736 78.526 15.3127 78.6665 15.6663 78.6665H64.3328C64.6864 78.6665 65.0256 78.526 65.2756 78.276C65.5257 78.0259 65.6661 77.6868 65.6661 77.3332V69.7949C65.6661 65.9499 63.2251 62.5391 59.5973 61.2699Z"/>
                <path d="M60.8328 14.5901V30.1667C60.8328 32.56 58.8928 34.5 56.4995 34.5V25.8717C56.4995 21.4534 52.9179 17.8718 48.4995 17.8718H31.4996C27.0813 17.8718 23.4997 21.4536 23.4997 25.8717C23.4997 35.1295 23.5177 34.5 23.4663 34.5C21.183 34.5 19.333 32.6684 19.333 30.41V14.1668C19.333 11.9148 20.9878 10.0488 23.1478 9.71863C23.5913 9.65079 23.958 9.34596 24.1492 8.94013C26.325 4.31815 30.9866 1.3335 36.1413 1.3335H47.5762C54.8977 1.3335 60.8328 7.26864 60.8328 14.5901Z"/>
                <path d="M26.8613 59.0415C21.9433 60.738 20.4146 61.255 20.398 61.2715C16.768 62.5298 14.333 65.9515 14.333 69.7948V77.3331C14.333 77.6867 14.4735 78.0259 14.7235 78.2759C14.9736 78.5259 15.3127 78.6664 15.6663 78.6664H36.6679L26.8613 59.0415ZM59.5973 61.2698C59.5407 61.25 54.3312 59.4532 53.1378 59.0415L43.3312 78.6664H64.3328C64.6864 78.6664 65.0256 78.5259 65.2756 78.2759C65.5257 78.0259 65.6661 77.6867 65.6661 77.3331V69.7948C65.6661 65.9498 63.2251 62.539 59.5973 61.2698Z"/>
                <path d="M52.4146 58.7929C50.5013 58.134 48.8657 56.85 47.7712 55.1479L42.3446 61.2113H37.6546L32.228 55.1479C31.1335 56.85 29.4979 58.134 27.5847 58.7929C27.5163 58.8163 27.2513 58.9079 26.8613 59.0413L36.668 78.6662H43.3313L53.1379 59.0413C52.7479 58.9079 52.4829 58.8163 52.4146 58.7929Z"/>
                <path d="M45.5942 53.21C41.8605 54.5469 37.9651 54.4832 34.4027 53.2084C33.8009 52.993 33.4401 52.3739 33.5449 51.7434C33.6256 51.2585 33.6671 50.7632 33.6671 50.2617C37.6001 51.8989 42.1927 51.9854 46.3337 50.2617C46.3337 50.7632 46.3754 51.2584 46.4559 51.7432C46.5065 52.0499 46.448 52.3646 46.2906 52.6326C46.1332 52.9006 45.8867 53.105 45.5942 53.21ZM21.7871 60.7915L21.742 64.5377C21.738 64.8685 21.5911 65.1793 21.3445 65.3998C20.3972 66.2461 19.6393 67.2829 19.1205 68.4424C18.6017 69.6019 18.3337 70.8579 18.334 72.1281V77.4998C18.334 77.8092 18.2111 78.1059 17.9923 78.3247C17.7735 78.5435 17.4767 78.6664 17.1673 78.6664H15.6673C15.3137 78.6664 14.9746 78.526 14.7245 78.2759C14.4745 78.0259 14.334 77.6867 14.334 77.3331V69.7948C14.334 65.9515 16.769 62.5298 20.399 61.2715C20.399 61.2715 20.4006 61.2698 20.404 61.2698C20.4605 61.2498 21.0121 61.0598 21.7871 60.7915Z"/>
                <path d="M33.1396 58.5681C32.4305 59.2419 30.7826 60.1684 29.2635 60.9016C28.606 61.2189 27.816 60.9506 27.4895 60.2976L26.8613 59.0413C27.2513 58.9079 27.5163 58.8163 27.5847 58.7929C29.4979 58.134 31.1335 56.85 32.228 55.1479L33.2213 56.2579C33.818 56.9248 33.788 57.9514 33.1396 58.5681ZM42.3446 61.2114L47.7712 55.1481C48.0119 55.5208 48.2792 55.8755 48.5712 56.2094C49.1619 56.8846 49.1719 57.8881 48.5736 58.5564L45.7286 61.7349C45.436 62.0619 45.0317 62.2676 44.5951 62.3117C44.1586 62.3558 43.7214 62.2351 43.3693 61.9733L42.3446 61.2114Z"/>
                <path d="M42.3446 61.2115L45.7229 73.8798L43.3313 78.6664H36.668L34.2763 73.8798L37.6546 61.2115H42.3446ZM58.2129 60.7915L58.3167 69.4838C58.3188 69.6602 58.2859 69.8353 58.2199 69.9989C58.1538 70.1625 58.056 70.3114 57.932 70.4369C57.808 70.5624 57.6603 70.6621 57.4975 70.7301C57.3347 70.7981 57.16 70.8331 56.9836 70.8331H55.5569C55.2561 70.8331 54.9642 70.9348 54.7285 71.1217C54.4928 71.3086 54.3273 71.5697 54.2587 71.8626L52.6663 78.6664H43.3313L53.1379 59.0415L58.2129 60.7915ZM36.668 78.6664H27.333L25.7407 71.8626C25.6721 71.5697 25.5066 71.3086 25.2709 71.1217C25.0352 70.9348 24.7432 70.8331 24.4424 70.8331H23.016C22.8396 70.8331 22.6649 70.798 22.5021 70.73C22.3392 70.662 22.1915 70.5623 22.0675 70.4367C21.9435 70.3112 21.8456 70.1623 21.7796 69.9987C21.7135 69.835 21.6806 69.6599 21.6827 69.4835L21.7864 60.7915L26.8614 59.0415L36.668 78.6664Z"/>
                <path d="M41.5226 63.0047H40.3976C40.1772 63.0046 39.9631 63.0774 39.7883 63.2117C39.6136 63.3459 39.4881 63.5341 39.4314 63.747L36.5562 74.5261C36.3189 75.4156 35.1074 75.5391 34.6956 74.7156L34.2776 73.8798L37.6559 61.2115H42.3459L42.4887 61.7472C42.6581 62.3818 42.1796 63.0047 41.5226 63.0047ZM26.6251 61.9397L26.0081 62.1527C25.7484 62.2422 25.5226 62.4098 25.3618 62.6326C25.201 62.8554 25.113 63.1224 25.1098 63.3972L25.044 68.9103C25.031 69.993 24.1381 70.8595 23.0556 70.834C22.1956 70.8136 21.6748 70.1701 21.6841 69.4835L21.7878 60.7915L26.8628 59.0415L27.3833 60.0833C27.7431 60.8037 27.3865 61.6767 26.6251 61.9397ZM28.4521 78.6663H27.3343L26.3075 74.2763C26.1038 73.4058 26.7278 72.4901 27.7774 72.4996C28.3958 72.5051 28.9341 72.9263 29.0758 73.5296L29.8616 76.8888C30.0743 77.7971 29.3849 78.6663 28.4521 78.6663ZM55.5873 61.4808L47.3677 77.9291C47.257 78.1506 47.0868 78.337 46.8761 78.4672C46.6655 78.5974 46.4227 78.6664 46.175 78.6664H43.3326L53.1392 59.0415L54.829 59.6243C55.5908 59.8867 55.9475 60.76 55.5873 61.4808ZM47.9839 1.33942C50.1549 1.40475 50.1009 4.66474 47.929 4.69057C46.1464 4.71174 43.9499 4.69507 41.1424 4.66674C35.9881 4.61457 31.3261 7.65139 29.1501 12.2734C28.9591 12.6792 28.5923 12.9842 28.1488 13.0519C25.989 13.3819 24.334 15.248 24.334 17.5V22.3133C23.8006 23.385 23.5006 24.5933 23.5006 25.8717V34.4998C21.1238 34.4998 19.334 32.6215 19.334 30.4098V14.1665C19.334 11.9145 20.9888 10.0485 23.1488 9.71838C23.5923 9.65055 23.959 9.34572 24.1501 8.93989C26.3263 4.31791 30.9879 1.33325 36.1426 1.33325C36.1426 1.33325 47.849 1.33525 47.9839 1.33942Z"/>
                <path d="M35.6323 46.9364C37.5213 48.2415 35.9264 51.1793 33.7991 50.3158C27.7018 47.8405 23.5 41.8812 23.5 35.0214V25.8714C23.5 24.9898 23.6427 24.1415 23.906 23.3483C24.7577 20.7835 28.5235 21.425 28.5003 24.1275L28.5 33.3546C28.5 39.0456 31.3546 43.981 35.6323 46.9364Z"/>
                <path fill="#0F0F00" d="M37.1667 33.1664V30.8331C37.1667 30.4795 37.0262 30.1403 36.7761 29.8903C36.5261 29.6402 36.1869 29.4998 35.8333 29.4998C35.4797 29.4998 35.1406 29.6402 34.8905 29.8903C34.6405 30.1403 34.5 30.4795 34.5 30.8331V33.1664C34.5 33.52 34.6405 33.8592 34.8905 34.1092C35.1406 34.3593 35.4797 34.4997 35.8333 34.4997C36.1869 34.4997 36.5261 34.3593 36.7761 34.1092C37.0262 33.8592 37.1667 33.52 37.1667 33.1664ZM45.5 33.1664V30.8331C45.5 30.4795 45.3595 30.1403 45.1094 29.8903C44.8594 29.6402 44.5202 29.4998 44.1666 29.4998C43.813 29.4998 43.4739 29.6402 43.2238 29.8903C42.9738 30.1403 42.8333 30.4795 42.8333 30.8331V33.1664C42.8333 33.52 42.9738 33.8592 43.2238 34.1092C43.4739 34.3593 43.813 34.4997 44.1666 34.4997C44.5202 34.4997 44.8594 34.3593 45.1094 34.1092C45.3595 33.8592 45.5 33.52 45.5 33.1664Z"/>
                <path fill="#0F0F00" d="M60.0338 60.0089L52.8503 57.5323C51.221 56.9677 49.8274 55.8742 48.8915 54.4259C48.4567 53.7551 47.5555 53.6279 46.9564 54.0933C46.8124 54.2036 47.1197 53.8761 41.749 59.8784H38.2506L36.8797 58.3466C36.6427 58.0877 36.3131 57.9327 35.9625 57.9152C35.6119 57.8978 35.2686 58.0193 35.007 58.2534C34.7454 58.4874 34.5867 58.8152 34.5652 59.1656C34.5438 59.516 34.6613 59.8607 34.8924 60.1249L36.1804 61.5644L33.8949 70.1345L28.7209 59.7811C31.9398 58.4028 34.2232 55.4948 34.8346 52.0941C46.2307 55.5443 57.7405 47.0133 57.8323 35.1605C57.8326 35.1479 57.8328 25.8719 57.8328 25.8719C57.8328 20.7257 53.646 16.5391 48.4995 16.5391H31.4996C26.3531 16.5391 22.1663 20.7259 22.1663 25.8724V32.8495C21.2756 32.3877 20.6663 31.4682 20.6663 30.41V14.1666C20.6663 12.4204 22.0868 11 23.833 11C24.0994 11 24.3598 10.9201 24.5805 10.7707C24.8011 10.6213 24.972 10.4092 25.0709 10.1618C26.8926 5.60864 31.2379 2.66666 36.1419 2.66666H47.5764C54.151 2.66666 59.4998 8.01547 59.4998 14.5901V30.1665C59.4998 30.5202 59.6403 30.8593 59.8903 31.1093C60.1404 31.3594 60.4795 31.4999 60.8331 31.4999C61.1867 31.4999 61.5259 31.3594 61.7759 31.1093C62.026 30.8593 62.1665 30.5202 62.1665 30.1665V14.5901C62.1665 6.54514 55.6215 0 47.5764 0H36.1419C30.4219 0 25.3224 3.27165 22.9278 8.40347C20.1398 8.83996 18 11.2581 18 14.1666V30.4099C18 32.9619 19.7865 35.1065 22.1835 35.6809C22.338 39.8858 23.9605 43.8878 26.7998 47.0116C26.9175 47.1413 27.0597 47.2464 27.2181 47.3211C27.3764 47.3957 27.548 47.4384 27.7229 47.4468C27.8978 47.4551 28.0727 47.4289 28.2374 47.3697C28.4022 47.3104 28.5537 47.2193 28.6833 47.1015C28.8128 46.9837 28.9179 46.8416 28.9926 46.6832C29.0672 46.5248 29.1099 46.3532 29.1183 46.1783C29.1266 46.0034 29.1004 45.8286 29.0412 45.6638C28.982 45.499 28.8909 45.3475 28.7731 45.218C26.2326 42.4228 24.8333 38.8012 24.8333 35.0205V25.8719C24.8333 22.1959 27.8239 19.2053 31.4999 19.2053H48.4998C52.1758 19.2053 55.1665 22.1956 55.1665 25.8714V35.0205C55.1665 45.8575 44.061 53.2104 34.0967 48.9958C33.0236 48.5415 31.9396 49.5848 32.3213 50.6663C32.1576 53.7794 30.1216 56.5071 27.1493 57.5319L19.9661 60.0086C15.7988 61.4527 13 65.3836 13 69.795V78.6663C13 79.02 13.1405 79.3591 13.3905 79.6091C13.6406 79.8592 13.9797 79.9997 14.3333 79.9997C14.6869 79.9997 15.0261 79.8592 15.2761 79.6091C15.5262 79.3591 15.6667 79.02 15.6667 78.6663V69.7952C15.6667 66.6661 17.5636 63.8639 20.4306 62.6847L20.3335 70.817C20.3243 71.5592 20.9245 72.1664 21.6666 72.1664H24.4426L26.0351 78.9702C26.1036 79.2629 26.269 79.5238 26.5044 79.7108C26.7398 79.8977 27.0315 79.9996 27.3321 80C28.1893 80 28.8278 79.2013 28.6314 78.3625L26.7981 70.5292C26.7296 70.2363 26.564 69.9752 26.3283 69.7884C26.0927 69.6015 25.8007 69.4997 25.4999 69.4997H23.016L23.1086 61.7461L26.1913 60.6833L35.4757 79.2625C35.6355 79.576 35.9126 79.8136 36.2468 79.9237C36.5809 80.0337 36.9451 80.0072 37.2598 79.8499C37.5745 79.6926 37.8143 79.4174 37.9269 79.0841C38.0395 78.7507 38.0159 78.3864 37.8611 78.0705L35.6947 73.7354L38.6791 62.5451H41.321L42.0434 65.2532C42.2332 65.9646 42.9632 66.3886 43.6752 66.1979C43.8444 66.1528 44.003 66.0748 44.1421 65.9684C44.2811 65.862 44.3979 65.7292 44.4856 65.5777C44.5733 65.4261 44.6303 65.2588 44.6534 65.0852C44.6764 64.9117 44.665 64.7352 44.6199 64.5661L43.8194 61.5641L47.6972 57.2301C48.6963 58.325 49.9175 59.1942 51.2792 59.7798L42.1389 78.0703C42.059 78.2271 42.0109 78.3982 41.9975 78.5736C41.984 78.7491 42.0054 78.9255 42.0604 79.0926C42.1155 79.2598 42.2031 79.4144 42.3181 79.5475C42.4332 79.6806 42.5735 79.7897 42.7309 79.8683C42.8883 79.947 43.0597 79.9937 43.2353 80.0058C43.4108 80.0179 43.587 79.9951 43.7537 79.9388C43.9204 79.8825 44.0744 79.7937 44.2066 79.6776C44.3388 79.5615 44.4468 79.4203 44.5242 79.2623L53.8087 60.6831L56.8913 61.7459L56.9838 69.4997H54.4998C54.199 69.4997 53.9071 69.6015 53.6714 69.7884C53.4358 69.9752 53.2702 70.2363 53.2017 70.5292L51.3683 78.3625C51.1723 79.2002 51.8095 80 52.6677 80C52.9683 79.9996 53.26 79.8977 53.4954 79.7108C53.7308 79.5239 53.8962 79.2629 53.9647 78.9702L55.5572 72.1664H58.3331C59.0753 72.1664 59.6755 71.5592 59.6663 70.817L59.5691 62.6847C62.4361 63.8639 64.3331 66.6661 64.3331 69.7952V78.6663C64.3331 79.02 64.4736 79.3591 64.7236 79.6091C64.9737 79.8592 65.3128 79.9997 65.6664 79.9997C66.0201 79.9997 66.3592 79.8592 66.6092 79.6091C66.8593 79.3591 66.9998 79.02 66.9998 78.6663V69.7952C66.9998 65.3837 64.2011 61.4531 60.0338 60.0089Z"/>
            </g>
        </symbol>
        <symbol id="search" viewBox="0 0 80 80">
            <title>search</title>
            <g>
                <path d="M76.2287 66.5034L58.3304 51.3335C62.1054 46.1401 64.3339 39.747 64.3339 32.8337C64.3339 15.437 50.2306 1.33374 32.8339 1.33374C15.4373 1.33374 1.33398 15.437 1.33398 32.8337C1.33398 50.2303 15.4373 64.3336 32.8339 64.3336C39.7472 64.3336 46.1404 62.1059 51.3337 58.331L66.5037 76.2284C69.112 79.3051 73.7937 79.4984 76.6453 76.6451C79.4987 73.7934 79.3053 69.1118 76.2287 66.5034Z"/>
                <path d="M76.2281 66.5032C79.3048 69.1115 79.4981 73.7932 76.6448 76.6449C73.7931 79.4982 69.1115 79.3049 66.5031 76.2282L51.333 58.3307C54.0175 56.3793 56.3785 54.018 58.3297 51.3333L76.2281 66.5032Z"/>
                <path d="M70.1213 73.8795C72.0598 75.7706 69.3941 78.8001 67.3261 77.0514C66.6835 76.5079 67.867 77.8374 51.333 58.3308C52.4813 57.4975 53.5697 56.5865 54.593 55.6082C70.9236 74.8743 69.7788 73.5453 70.1213 73.8795Z"/>
                <path d="M59.5908 54.0787C57.9697 56.1212 56.1198 57.9712 54.0773 59.5924C53.5172 60.0371 52.7025 59.9482 52.2402 59.4024L51.333 58.3307C54.0175 56.3793 56.3785 54.018 58.3297 51.3333L59.4015 52.2421C59.9467 52.7044 60.0353 53.5187 59.5908 54.0787Z"/>
                <path d="M32.8333 57.1668C46.2722 57.1668 57.1666 46.2724 57.1666 32.8335C57.1666 19.3946 46.2722 8.50024 32.8333 8.50024C19.3944 8.50024 8.5 19.3946 8.5 32.8335C8.5 46.2724 19.3944 57.1668 32.8333 57.1668Z"/>
                <path d="M6.33294 36.167C6.33294 39.0088 6.70927 41.7626 7.41477 44.3816C7.99577 46.5381 4.91194 47.6016 4.00894 45.5589C2.17395 41.4085 1.20911 36.7873 1.34578 31.9266C1.82811 14.7537 16.1879 0.991877 33.4795 1.34021C35.7074 1.38504 35.9069 4.63404 33.6992 4.93704C18.9882 6.95653 6.33294 19.3232 6.33294 36.167Z"/>
                <path d="M14.0727 41.4392C14.5569 43.6307 11.4374 44.6489 10.5364 42.5934C9.17274 39.4824 8.4409 36.0316 8.50374 32.4029C8.73374 19.0983 19.7817 8.28929 33.2287 8.50362C35.4993 8.53979 35.7633 11.8043 33.5302 12.2161C20.1055 14.6914 11.0286 27.6591 14.0727 41.4392Z"/>
                <path fill="#0F0F00" d="M54.5566 25.2559C54.6142 25.4212 54.7039 25.5736 54.8204 25.7043C54.9369 25.8349 55.0781 25.9414 55.2357 26.0175C55.3934 26.0936 55.5646 26.138 55.7394 26.1479C55.9142 26.1579 56.0892 26.1334 56.2546 26.0757C56.5884 25.9592 56.8624 25.7149 57.0161 25.3965C57.1699 25.0781 57.1908 24.7116 57.0744 24.3777C53.4839 14.0832 43.7423 7.16675 32.8336 7.16675C18.681 7.16675 7.16699 18.6807 7.16699 32.8334C7.16699 46.986 18.681 58.5 32.8336 58.5C46.9862 58.5 58.5002 46.986 58.5002 32.8334C58.5002 32.4797 58.3597 32.1406 58.1097 31.8906C57.8596 31.6405 57.5205 31.5 57.1669 31.5C56.8133 31.5 56.4741 31.6405 56.2241 31.8906C55.974 32.1406 55.8336 32.4797 55.8336 32.8334C55.8336 45.5155 45.5157 55.8333 32.8336 55.8333C20.1515 55.8333 9.83365 45.5157 9.83365 32.8334C9.83365 20.1511 20.1515 9.83341 32.8336 9.83341C42.6094 9.83341 51.3391 16.0312 54.5566 25.2559Z"/>
                <path fill="#0F0F00" d="M79.9928 71.4284C79.8985 69.1359 78.8405 66.9703 77.0902 65.4868L65.1952 55.4045C64.9254 55.1758 64.5759 55.0637 64.2235 55.0928C63.871 55.1219 63.5446 55.2898 63.316 55.5595C63.0873 55.8293 62.9752 56.1789 63.0043 56.5313C63.0334 56.8837 63.2013 57.2101 63.471 57.4388L75.366 67.5211C76.5668 68.5388 77.2637 69.9654 77.3283 71.5383C77.4625 74.7946 74.7945 77.4627 71.538 77.3286C69.9652 77.2639 68.5387 76.5669 67.5209 75.3662L53.2569 58.538C61.1212 52.2741 65.6665 42.8628 65.6665 32.8335C65.6665 14.7292 50.9376 0.000244141 32.8333 0.000244141C14.729 0.000244141 0 14.729 0 32.8335C0 50.938 14.729 65.6668 32.8333 65.6668C37.3774 65.6668 41.7777 64.7554 45.9121 62.9581C46.5874 62.6646 46.8969 61.8791 46.6032 61.2038C46.4622 60.8795 46.1982 60.6245 45.8692 60.4949C45.5402 60.3653 45.1732 60.3716 44.8489 60.5126C41.0521 62.1633 37.0094 63.0001 32.8333 63.0001C16.1993 63.0001 2.66666 49.4675 2.66666 32.8335C2.66666 16.1995 16.1993 2.6669 32.8333 2.6669C49.4672 2.6669 62.9999 16.1995 62.9999 32.8335C62.9999 42.4577 58.3456 51.5861 50.5497 57.2525C50.3223 57.4184 50.153 57.652 50.0662 57.9198C49.9793 58.1877 49.9794 58.4761 50.0662 58.7439C50.2074 59.1774 49.4644 58.1881 65.4867 77.0906C67.045 78.9291 69.352 80.0001 71.7642 80.0001C76.4602 79.9999 80.1845 76.0843 79.9928 71.4284Z"/>
                <path fill="#0F0F00" d="M46.3332 46.0003C46.6868 46.0003 47.026 45.8598 47.276 45.6097C47.5261 45.3597 47.6665 45.0206 47.6665 44.6669V20.0003C47.6665 19.6467 47.5261 19.3076 47.276 19.0575C47.026 18.8075 46.6868 18.667 46.3332 18.667C45.9796 18.667 45.6404 18.8075 45.3904 19.0575C45.1403 19.3076 44.9999 19.6467 44.9999 20.0003V21.4227L30.3282 35.1773C21.4246 26.9211 22.0009 27.417 21.7211 27.2888C21.4864 27.1814 21.2255 27.1445 20.9702 27.1827C20.7149 27.2208 20.4762 27.3323 20.2831 27.5036C20.2079 27.5703 20.3321 27.4543 13.9163 33.5325C13.6679 33.7776 13.5256 34.1103 13.5197 34.4592C13.5139 34.8081 13.645 35.1454 13.885 35.3988C14.125 35.6521 14.4547 35.8013 14.8034 35.8143C15.1521 35.8273 15.492 35.7032 15.7503 35.4685L19.8333 31.6V44.6668C19.8333 45.0204 19.9737 45.3595 20.2238 45.6096C20.4738 45.8596 20.813 46.0001 21.1666 46.0001C21.5202 46.0001 21.8593 45.8596 22.1094 45.6096C22.3594 45.3595 22.4999 45.0204 22.4999 44.6668V31.5548L28.9999 37.5821V44.6668C28.9999 45.0204 29.1404 45.3595 29.3904 45.6096C29.6405 45.8596 29.9796 46.0001 30.3332 46.0001C30.6869 46.0001 31.026 45.8596 31.276 45.6096C31.5261 45.3595 31.6666 45.0204 31.6666 44.6668V37.5778L44.9999 25.0778V44.6668C44.9998 44.8419 45.0343 45.0153 45.1013 45.1771C45.1683 45.3389 45.2665 45.4859 45.3903 45.6097C45.5142 45.7335 45.6611 45.8317 45.8229 45.8988C45.9847 45.9658 46.1581 46.0003 46.3332 46.0003Z"/>
            </g>
        </symbol>
        <symbol id="target" viewBox="0 0 80 80">
            <title>target</title>
            <g>
                <path d="M68.2492 41.4176C68.2492 23.6046 53.8121 9.16846 36.0001 9.16846C18.1889 9.16846 3.75098 23.6064 3.75098 41.4176C3.75098 51.7706 8.62918 60.9837 16.2123 66.8836L14.519 74.0234C13.9557 76.3933 15.754 78.6666 18.1889 78.6666C19.4739 78.6666 20.6705 78.0133 21.3638 76.9316L24.7521 71.6501C31.9194 74.3212 40.0385 74.377 47.3948 71.5951C47.4246 71.6773 47.1508 71.2361 50.803 76.9316C51.1444 77.4638 51.614 77.9016 52.1688 78.2047C52.7236 78.5079 53.3457 78.6667 53.978 78.6666C56.4129 78.6666 58.2105 76.3935 57.6479 74.0234C55.8221 66.3326 55.9851 66.9214 55.8929 66.8019C63.416 60.8987 68.2492 51.7223 68.2492 41.4176Z"/>
                <path d="M57.6478 74.0235C58.2104 76.3936 56.4128 78.6667 53.9779 78.6667C53.3457 78.6668 52.7236 78.508 52.1688 78.2048C51.614 77.9017 51.1443 77.4639 50.803 76.9317C47.1554 71.2437 47.4246 71.6774 47.3947 71.5952C50.4548 70.4392 53.3206 68.8229 55.8928 66.802C55.985 66.9215 55.8222 66.3337 57.6478 74.0235ZM24.752 71.6502L21.3638 76.9317C21.0225 77.4639 20.5528 77.9017 19.998 78.2049C19.4432 78.5081 18.8211 78.6669 18.1889 78.6667C15.7539 78.6667 13.9556 76.3934 14.519 74.0235L16.2122 66.8837C18.7992 68.8986 21.6791 70.506 24.752 71.6502Z"/>
                <path d="M36 65.3337C49.2085 65.3337 59.916 54.6262 59.916 41.4177C59.916 28.2093 49.2085 17.5017 36 17.5017C22.7915 17.5017 12.084 28.2093 12.084 41.4177C12.084 54.6262 22.7915 65.3337 36 65.3337Z"/>
                <path d="M35.9999 57.0005C44.6061 57.0005 51.5828 50.0238 51.5828 41.4176C51.5828 32.8114 44.6061 25.8347 35.9999 25.8347C27.3937 25.8347 20.417 32.8114 20.417 41.4176C20.417 50.0238 27.3937 57.0005 35.9999 57.0005Z"/>
                <path d="M60.566 24.5113C57.5877 23.4045 54.4015 22.7252 51.0809 22.5475C50.8125 22.533 50.5545 22.4389 50.3398 22.2772C46.3172 19.2566 41.3117 17.4772 35.8893 17.5018C22.8213 17.561 12.1398 28.2457 12.0843 41.3137C12.0613 46.7335 13.8404 51.7366 16.8612 55.759C17.023 55.9738 17.1171 56.2319 17.1317 56.5005C17.3083 59.8189 17.9868 63.0038 19.0929 65.9812C19.5528 67.2188 18.1208 68.2925 17.053 67.516C8.94788 61.6223 3.84269 52.1794 3.75219 41.7022C3.5992 23.9957 17.9061 9.37889 35.612 9.17073C46.33 9.04473 56.0699 14.1708 62.1054 22.4774C62.8791 23.5423 61.7999 24.9698 60.566 24.5113Z"/>
                <path d="M48.5601 22.5089C40.3681 22.7009 35.3619 25.8403 34.8419 25.8783C27.1583 26.4406 21.023 32.576 20.4606 40.2596C20.4545 40.3429 20.4326 40.4243 20.3958 40.4993C18.2894 44.7691 17.1926 49.4115 17.0887 53.9726C17.0737 54.6317 16.2174 54.8754 15.8611 54.3207C13.4518 50.5705 12.0637 46.1049 12.0842 41.3136C12.1397 28.2456 22.8212 17.5609 35.8892 17.5017C40.6854 17.48 45.1555 18.8697 48.9075 21.2811C49.4619 21.6376 49.2189 22.4936 48.5601 22.5089Z"/>
                <path d="M32.5089 27.232C28.1503 29.9032 24.4857 33.5678 21.8145 37.9264C21.516 38.4137 20.7599 38.1045 20.9012 37.5509C22.304 32.051 26.6336 27.7215 32.1334 26.3187C32.6871 26.1774 32.9962 26.9335 32.5089 27.232Z"/>
                <path d="M35.9995 49.3339C40.3716 49.3339 43.9159 45.7896 43.9159 41.4174C43.9159 37.0453 40.3716 33.501 35.9995 33.501C31.6273 33.501 28.083 37.0453 28.083 41.4174C28.083 45.7896 31.6273 49.3339 35.9995 49.3339Z"/>
                <path d="M74.2918 8.32245L68.832 8.75194L69.2616 3.29209C69.3256 2.47761 68.4385 1.93379 67.742 2.36078L62.1955 5.76036C60.3189 6.91033 59.3422 9.09527 59.7356 11.2619L60.7489 16.8351L66.322 17.8484C68.4887 18.2417 70.6736 17.265 71.8236 15.3884L75.223 9.84191C75.6498 9.14527 75.1065 8.25846 74.2918 8.32245Z"/>
                <path d="M69.2616 3.29202L69.1391 4.84464C69.1318 4.9383 69.1023 5.02888 69.0532 5.10897C69.0041 5.18907 68.9368 5.2564 68.8566 5.30546L63.3805 8.66187C62.3026 9.32235 61.4188 10.3012 60.8507 11.4265C60.594 11.9348 59.8374 11.8221 59.7356 11.2618C59.3422 9.09519 60.3189 6.91025 62.1955 5.76028L67.742 2.36071C68.4387 1.93405 69.325 2.47704 69.2616 3.29202Z"/>
                <path d="M53.458 76.3833C54.1533 77.4514 52.9089 78.7299 51.8544 78.0139C51.434 77.7282 51.0761 77.3599 50.8024 76.9316C47.155 71.2434 47.424 71.6773 47.3942 71.5951C47.8796 71.412 48.3605 71.2172 48.8365 71.0106C49.3641 70.7816 49.9794 70.9628 50.2901 71.4468L53.458 76.3833ZM17.084 75.0425C17.148 76.7558 14.6131 77.0063 14.4332 75.3013C14.3889 74.8736 14.4178 74.4414 14.5186 74.0234L16.2119 66.8835C16.7083 67.2708 17.2162 67.6431 17.735 67.9998C17.9571 68.1519 18.1281 68.3676 18.2253 68.6186C18.3226 68.8696 18.3416 69.1441 18.2798 69.4061C17.1048 74.3625 17.0585 74.3615 17.084 75.0425Z"/>
                <path fill="#0F0F00" d="M65.3101 27.8829C65.1483 27.9497 65.0012 28.0478 64.8772 28.1715C64.7533 28.2951 64.6549 28.442 64.5877 28.6037C64.5206 28.7654 64.4859 28.9388 64.4857 29.1139C64.4855 29.2889 64.5198 29.4624 64.5866 29.6242C66.1318 33.3653 66.9152 37.3332 66.9152 41.4174C66.9152 58.4644 53.0465 72.3332 35.9994 72.3332C18.9524 72.3332 5.08359 58.4644 5.08359 41.4174C5.08359 24.3703 18.9524 10.5016 35.9994 10.5016C42.0192 10.5016 47.8536 12.2325 52.8715 15.5069C53.018 15.6027 53.1821 15.6686 53.3542 15.701C53.5262 15.7333 53.703 15.7314 53.8744 15.6954C54.0457 15.6594 54.2083 15.5899 54.3528 15.491C54.4973 15.3922 54.6209 15.2658 54.7166 15.1191C54.8123 14.9725 54.8781 14.8085 54.9104 14.6364C54.9427 14.4643 54.9408 14.2875 54.9048 14.1162C54.8688 13.9449 54.7994 13.7823 54.7006 13.6378C54.6017 13.4933 54.4754 13.3697 54.3287 13.274C48.8762 9.71574 42.5381 7.83496 35.9994 7.83496C17.4821 7.83496 2.41699 22.9001 2.41699 41.4174C2.41699 51.8668 7.21486 61.216 14.7225 67.3798L13.22 73.7162C12.4601 76.9213 14.8888 79.9997 18.1879 79.9997C19.9352 79.9997 21.5418 79.1215 22.4853 77.6507C22.5798 77.5034 22.6444 77.3388 22.6753 77.1665C22.7062 76.9941 22.7029 76.8174 22.6656 76.6463C22.6282 76.4753 22.5575 76.3132 22.4575 76.1695C22.3575 76.0258 22.2302 75.9031 22.0828 75.8086C21.9354 75.714 21.7709 75.6493 21.5985 75.6184C21.4262 75.5874 21.2494 75.5906 21.0784 75.628C20.9073 75.6654 20.7452 75.7361 20.6015 75.8361C20.4578 75.9361 20.3352 76.0635 20.2407 76.2109C20.0207 76.5557 19.7172 76.8393 19.3583 77.0354C18.9994 77.2316 18.5969 77.3339 18.1879 77.3329C16.6118 77.3329 15.4516 75.8621 15.8146 74.3312L17.0488 69.1265C28.5146 76.9926 43.6527 76.9629 55.0929 69.0273L56.3505 74.3312C56.7135 75.8621 55.5536 77.3329 53.9774 77.3329C53.5685 77.3339 53.1659 77.2315 52.8071 77.0354C52.4483 76.8393 52.1448 76.5557 51.9248 76.2109C51.7309 75.9201 51.4305 75.7171 51.0883 75.6455C50.7461 75.5739 50.3895 75.6396 50.0953 75.8283C49.801 76.0171 49.5926 76.3138 49.515 76.6546C49.4373 76.9955 49.4966 77.3532 49.68 77.6507C50.6235 79.1215 52.23 79.9997 53.9774 79.9997C57.2715 79.9997 59.7064 76.9263 58.9453 73.7162L57.4157 67.265C69.0358 57.6204 72.5294 41.8704 67.0516 28.6064C66.9165 28.2796 66.6572 28.0198 66.3306 27.8841C66.0041 27.7485 65.637 27.748 65.3101 27.8829Z"/>
                <path fill="#0F0F00" d="M76.945 7.0315C76.6435 6.84682 76.2809 6.78945 75.9371 6.87198C75.5933 6.95452 75.2963 7.17022 75.1114 7.47165L70.6867 14.6911C69.8304 16.0878 68.1721 16.8287 66.5607 16.5362L63.4909 15.9781C70.3009 9.16811 69.9321 9.61193 70.0697 9.24677C70.1862 8.93778 70.1007 9.63043 70.7444 1.43948C70.8294 0.356513 69.6474 -0.3708 68.7184 0.198184L61.499 4.62323C59.96 5.56654 58.8559 7.11933 58.4697 8.88328C58.2872 9.71709 58.9239 10.5019 59.7735 10.5019C60.0774 10.5014 60.372 10.3972 60.6086 10.2065C60.8453 10.0158 61.0097 9.75011 61.0748 9.45327C61.191 8.9271 61.4118 8.42966 61.724 7.9905C62.0363 7.55134 62.4336 7.17942 62.8924 6.89684L67.8808 3.83942L67.5411 8.15664L52.9732 22.7246C48.3183 18.487 42.342 16.1681 35.9993 16.1681C22.0767 16.1681 10.75 27.4949 10.75 41.4174C10.75 55.3399 22.0767 66.6667 35.9993 66.6667C53.3218 66.6667 65.5935 49.4859 59.832 33.0593C59.7741 32.894 59.6843 32.7418 59.5675 32.6113C59.4508 32.4808 59.3095 32.3745 59.1517 32.2987C58.9938 32.2228 58.8226 32.1788 58.6478 32.1692C58.4729 32.1595 58.2979 32.1844 58.1327 32.2425C57.9675 32.3004 57.8153 32.3903 57.6848 32.5071C57.5543 32.6238 57.4481 32.7651 57.3723 32.9229C57.2964 33.0807 57.2524 33.2519 57.2428 33.4267C57.2331 33.6016 57.2579 33.7766 57.3159 33.9418C62.4574 48.6042 51.5191 64.0001 35.9995 64.0001C23.5473 64.0001 13.4168 53.8696 13.4168 41.4174C13.4168 28.9652 23.5473 18.8347 35.9995 18.8347C41.629 18.8347 46.9354 20.878 51.0849 24.613L47.0712 28.6269C43.9981 25.9573 40.1154 24.5012 35.9996 24.5012C26.6721 24.5012 19.0834 32.0898 19.0834 41.4174C19.0834 50.745 26.6721 58.3336 35.9996 58.3336C47.2105 58.3336 55.3923 47.5399 52.2487 36.6992C52.0437 35.9921 51.3037 35.5846 50.5969 35.7899C50.4287 35.8386 50.2718 35.92 50.1351 36.0294C49.9984 36.1388 49.8846 36.274 49.8001 36.4274C49.7157 36.5808 49.6623 36.7493 49.643 36.9234C49.6237 37.0974 49.6388 37.2735 49.6876 37.4417C52.3332 46.5661 45.4509 55.6668 35.9996 55.6668C28.1424 55.6668 21.75 49.2745 21.75 41.4172C21.75 33.5599 28.1424 27.1676 35.9996 27.1676C39.4017 27.1676 42.6136 28.3501 45.1787 30.519L41.6248 34.0729C40.0195 32.8368 38.0654 32.1673 35.9996 32.1673C30.8993 32.1673 26.7499 36.3167 26.7499 41.4171C26.7499 46.5174 30.8993 50.6668 35.9996 50.6668C40.8399 50.6668 44.8929 46.8881 45.2269 42.0644C45.239 41.8897 45.2166 41.7144 45.161 41.5484C45.1053 41.3823 45.0175 41.2289 44.9025 41.0969C44.7876 40.9648 44.6477 40.8567 44.491 40.7787C44.3342 40.7007 44.1636 40.6543 43.9889 40.6423C43.2515 40.5888 42.6175 41.1457 42.5668 41.8802C42.329 45.3121 39.4446 48.0004 35.9996 48.0004C32.3697 48.0004 29.4165 45.0471 29.4165 41.4172C29.4165 37.7873 32.3697 34.8341 35.9996 34.8341C37.3489 34.8341 38.6317 35.2351 39.7167 35.981L35.1402 40.5576C34.2979 41.4001 34.9057 42.8337 36.083 42.8337C36.2581 42.8339 36.4316 42.7995 36.5933 42.7325C36.7551 42.6655 36.9021 42.5672 37.0258 42.4432L61.198 18.2712C66.5432 19.243 66.4763 19.2652 67.2573 19.2652C69.5461 19.2652 71.7412 18.0734 72.9606 16.0843L77.3855 8.86478C77.5701 8.56322 77.6273 8.20073 77.5447 7.85697C77.4621 7.51321 77.2464 7.2163 76.945 7.0315Z"/>
            </g>
        </symbol>
    </defs>
</svg>