<svg display="none" xmlns="http://www.w3.org/2000/svg">
    <defs>
        <symbol id="key" viewBox="0 0 40 40">
            <title>key</title>
            <g>
                <path d="M39.3883 29.5917L39.1586 29.3619C38.6285 28.8318 37.8615 28.6224 37.1568 28.8158C36.0541 29.1184 34.9477 28.0144 35.251 26.911C35.4449 26.2064 35.2356 25.4391 34.705 24.9084L34.4756 24.679C33.6583 23.8616 32.335 23.8613 31.5174 24.679L31.2252 24.9711C31.1633 25.033 31.1142 25.1065 31.0807 25.1873C31.0471 25.2682 31.0299 25.3549 31.0299 25.4425C31.0299 25.53 31.0471 25.6167 31.0806 25.6976C31.1141 25.7785 31.1632 25.852 31.2251 25.9139C31.287 25.9758 31.3605 26.0249 31.4414 26.0584C31.5222 26.0919 31.6089 26.1092 31.6965 26.1092C31.784 26.1092 31.8707 26.092 31.9516 26.0585C32.0325 26.025 32.106 25.9759 32.1679 25.9139L32.4601 25.6218C32.5306 25.5513 32.6142 25.4954 32.7062 25.4572C32.7982 25.4191 32.8969 25.3994 32.9965 25.3994C33.0961 25.3994 33.1948 25.4191 33.2868 25.4572C33.3788 25.4954 33.4624 25.5513 33.5328 25.6218L33.7623 25.8512C33.9545 26.0434 34.0324 26.314 33.9654 26.5574C33.3883 28.6566 35.4075 30.6782 37.5094 30.1016C37.7529 30.0348 38.0237 30.1126 38.2159 30.3047L38.4455 30.5344C38.7413 30.8301 38.7413 31.3113 38.4455 31.6071L35.8988 34.1537C35.8369 34.2156 35.7878 34.2891 35.7543 34.37C35.7208 34.4509 35.7035 34.5376 35.7035 34.6251C35.7035 34.7127 35.7208 34.7994 35.7543 34.8802C35.7878 34.9611 35.8369 35.0346 35.8988 35.0965L37.0123 36.21C37.0742 36.2719 37.1234 36.3454 37.1569 36.4263C37.1904 36.5072 37.2077 36.5939 37.2077 36.6814C37.2077 36.769 37.1904 36.8557 37.1569 36.9366C37.1234 37.0174 37.0742 37.0909 37.0123 37.1528L36.423 37.7421C36.1631 38.002 35.7401 38.002 35.4801 37.7421L21.7242 23.9863C21.6103 23.8723 21.4589 23.8035 21.2981 23.7925C21.1373 23.7816 20.978 23.8293 20.8497 23.9267C18.7208 25.5429 16.1794 26.3973 13.5003 26.3973C6.79142 26.3973 1.33337 20.9392 1.33337 14.2303C1.33337 7.5214 6.79142 2.06335 13.5003 2.06335C20.2093 2.06335 25.6673 7.5214 25.6673 14.2303C25.6673 16.9094 24.813 19.4508 23.1967 21.5797C23.0993 21.708 23.0517 21.8673 23.0626 22.0281C23.0736 22.1889 23.1424 22.3402 23.2563 22.4542L33.1647 32.3625C33.2898 32.4875 33.4593 32.5578 33.6361 32.5578C33.8129 32.5578 33.9825 32.4875 34.1075 32.3625C34.1694 32.3006 34.2186 32.2271 34.2521 32.1463C34.2856 32.0654 34.3028 31.9787 34.3028 31.8911C34.3028 31.8036 34.2856 31.7169 34.2521 31.636C34.2186 31.5551 34.1694 31.4816 34.1075 31.4197L24.6016 21.9139C26.1731 19.6516 27.0007 17.0074 27.0007 14.2303C27.0007 6.78621 20.9444 0.72998 13.5003 0.72998C6.05623 0.72998 0 6.78621 0 14.2303C0 21.6744 6.05623 27.7307 13.5003 27.7307C16.2774 27.7307 18.9216 26.903 21.1839 25.3317L34.5373 38.685C35.3171 39.4648 36.586 39.4649 37.3658 38.685L37.955 38.0957C38.7366 37.3141 38.7368 36.0489 37.955 35.2673L37.313 34.6252L39.3883 32.5499C40.2039 31.7344 40.2039 30.4073 39.3883 29.5917Z"/>
                <path d="M4.78797 19.7888C6.69694 22.7802 9.95635 24.5639 13.5007 24.5639C19.1987 24.5639 23.8343 19.9283 23.8343 14.2303C23.8343 8.53234 19.1987 3.89673 13.5007 3.89673C7.60513 3.89673 2.91476 8.8016 3.17752 14.6977C3.18613 14.8739 3.26414 15.0394 3.3945 15.1581C3.52486 15.2768 3.69693 15.3391 3.87307 15.3312C4.04921 15.3234 4.21507 15.2461 4.33436 15.1162C4.45364 14.9864 4.51663 14.8146 4.50955 14.6384C4.28088 9.50804 8.35965 5.2301 13.5007 5.2301C18.4634 5.2301 22.5009 9.26761 22.5009 14.2303C22.5009 19.193 18.4634 23.2305 13.5007 23.2305C10.5488 23.2305 7.8263 21.8079 6.13776 19.4062C7.14945 17.7786 8.65807 16.5398 10.4464 15.8674C12.2063 17.3503 14.7834 17.3541 16.5529 15.8662C17.3838 16.1787 18.1614 16.6177 18.8583 17.1676C18.9975 17.2741 19.173 17.3215 19.3468 17.2996C19.5207 17.2778 19.679 17.1883 19.7874 17.0506C19.8958 16.913 19.9457 16.7381 19.9262 16.564C19.9067 16.3898 19.8195 16.2304 19.6833 16.12C19.0108 15.5902 18.2728 15.1491 17.4875 14.8079C17.9696 14.0649 18.2509 13.1801 18.2509 12.2304C18.2509 9.61112 16.12 7.48023 13.5008 7.48023C11.095 7.48023 9.06716 9.27945 8.78391 11.6654C8.76307 11.841 8.81283 12.0177 8.92224 12.1566C9.03166 12.2954 9.19176 12.3852 9.36734 12.406C9.73376 12.4499 10.0645 12.1882 10.1079 11.8226C10.3115 10.1072 11.7701 8.81368 13.5007 8.81368C15.3847 8.81368 16.9174 10.3465 16.9174 12.2304C16.9174 15.2006 13.3289 16.8283 11.0763 14.6388C10.9894 14.5504 10.8796 14.488 10.7592 14.4586C10.6388 14.4292 10.5126 14.434 10.3947 14.4723C8.00014 15.254 6.00034 16.8984 4.76789 19.1045C4.70947 19.2099 4.68051 19.329 4.68404 19.4494C4.68758 19.5698 4.72348 19.6871 4.78797 19.7888Z"/>
            </g>
        </symbol>
        <symbol id="woman" viewBox="0 0 40 40">
            <title>woman</title>
            <g>
                <path d="M30.0119 34.1693L26.4264 32.9332C25.7895 32.7135 25.2215 32.3304 24.779 31.8223C24.663 31.6889 24.4988 31.607 24.3224 31.5947C24.146 31.5824 23.972 31.6406 23.8385 31.7566C23.7051 31.8726 23.6232 32.0369 23.6109 32.2133C23.5986 32.3897 23.6568 32.5637 23.7728 32.6971C24.0471 33.012 24.3585 33.2925 24.7002 33.5325C23.1858 36.1591 19.7906 37.0478 17.1819 35.4559C16.8675 35.2638 16.4574 35.3633 16.2655 35.6775C16.1734 35.8284 16.1451 36.0097 16.1867 36.1816C16.2282 36.3534 16.3364 36.5017 16.4873 36.5938C19.7427 38.5807 24.0011 37.4701 25.8798 34.153C26.054 34.2175 29.3997 35.3674 29.5757 35.4292C31.1227 35.9728 32.1675 37.4246 32.1675 39.0645V39.3334C32.1675 39.5102 32.2377 39.6797 32.3627 39.8047C32.4877 39.9298 32.6573 40 32.8341 40C33.0109 40 33.1805 39.9298 33.3055 39.8047C33.4305 39.6797 33.5007 39.5102 33.5007 39.3334V39.0645C33.5009 36.8567 32.0988 34.8897 30.0119 34.1693ZM28.9178 21.6779V16.1677C28.9178 16.0227 28.8705 15.8816 28.783 15.7659C28.6956 15.6502 28.5728 15.5661 28.4333 15.5265C26.9478 15.1046 25.7723 14.0072 25.2082 12.5154C25.0503 12.098 24.5337 11.9504 24.1791 12.2221C20.649 14.9277 16.2668 16.0945 11.8394 15.5069C11.442 15.4536 11.0851 15.7636 11.0851 16.1677V21.6779C11.0851 23.8111 11.8503 25.8753 13.2398 27.4904C13.2969 27.5567 13.3665 27.6112 13.4446 27.6506C13.5227 27.6901 13.6079 27.7138 13.6952 27.7203C13.7825 27.7269 13.8702 27.7162 13.9534 27.6888C14.0366 27.6615 14.1135 27.618 14.1799 27.5609C14.2462 27.5038 14.3007 27.4342 14.3402 27.3561C14.3796 27.2779 14.4033 27.1928 14.4099 27.1055C14.4164 27.0182 14.4057 26.9305 14.3784 26.8473C14.351 26.7641 14.3076 26.6872 14.2505 26.6208C13.069 25.2476 12.4184 23.4921 12.4184 21.678V16.913C16.6532 17.2997 20.8274 16.2037 24.3175 13.7721C25.0345 15.1103 26.1819 16.1237 27.5844 16.6498V21.678C27.5844 27.1932 21.9746 30.7107 17.0953 28.6843C16.6401 28.4952 16.1645 28.8368 16.1681 29.3029C16.166 30.9408 15.1252 32.3993 13.5765 32.9333L9.99239 34.169C7.8914 34.8493 6.50195 36.8563 6.50195 39.0647V39.3336C6.50195 39.5104 6.57219 39.68 6.69721 39.805C6.82223 39.93 6.99179 40.0002 7.16859 40.0002C7.3454 40.0002 7.51496 39.93 7.63998 39.805C7.765 39.68 7.83523 39.5104 7.83523 39.3336V39.0647C7.83523 37.4249 8.87685 35.964 10.4271 35.4294L10.4263 35.4269C10.4292 35.4353 10.2884 35.4774 14.0111 34.1938C15.8045 33.5754 17.0914 32.0362 17.4189 30.2148C23.0898 31.9332 28.9178 27.6869 28.9178 21.6779Z"/>
                <path d="M28.6197 27.2409C28.5331 27.2536 28.4498 27.2832 28.3746 27.3281C28.2995 27.3729 28.2339 27.4322 28.1816 27.5024C28.1293 27.5726 28.0913 27.6524 28.0699 27.7373C28.0485 27.8222 28.044 27.9105 28.0566 27.9971C28.0693 28.0837 28.0989 28.167 28.1438 28.2422C28.1886 28.3174 28.2479 28.383 28.3181 28.4353C28.3883 28.4875 28.4681 28.5255 28.553 28.5469C28.6379 28.5684 28.7262 28.5729 28.8128 28.5602C30.1075 28.3707 31.0838 27.2369 31.0838 25.9231V13.1269C31.0838 8.18721 27.0652 4.16846 22.1258 4.16846H17.8759C12.9365 4.16846 8.91797 8.18721 8.91797 13.1269V25.9231C8.91797 27.237 9.89418 28.3707 11.1889 28.5602C11.2755 28.5729 11.3638 28.5684 11.4487 28.5469C11.5336 28.5255 11.6134 28.4876 11.6836 28.4353C11.7538 28.383 11.813 28.3173 11.8579 28.2422C11.9027 28.167 11.9324 28.0837 11.945 27.997C11.9706 27.8221 11.9257 27.6442 11.8201 27.5024C11.7145 27.3606 11.5569 27.2665 11.3819 27.2409C10.7373 27.1466 10.2512 26.58 10.2512 25.9231V13.1269C10.2512 8.92243 13.6717 5.50173 17.8759 5.50173H22.1258C26.3301 5.50173 29.7505 8.92243 29.7505 13.1269V25.9231C29.7505 26.58 29.2645 27.1466 28.6197 27.2409Z"/>
                <path d="M17.9179 18.6676C17.7411 18.6676 17.5715 18.7378 17.4465 18.8629C17.3215 18.9879 17.2512 19.1574 17.2512 19.3342V20.5009C17.2512 20.6777 17.3215 20.8472 17.4465 20.9722C17.5715 21.0973 17.7411 21.1675 17.9179 21.1675C18.0947 21.1675 18.2642 21.0973 18.3893 20.9722C18.5143 20.8472 18.5845 20.6777 18.5845 20.5009V19.3342C18.5845 19.1574 18.5143 18.9879 18.3893 18.8629C18.2642 18.7378 18.0947 18.6676 17.9179 18.6676ZM22.0844 21.1675C22.2612 21.1675 22.4307 21.0973 22.5557 20.9722C22.6808 20.8472 22.751 20.6777 22.751 20.5009V19.3342C22.751 19.1574 22.6808 18.9879 22.5557 18.8629C22.4307 18.7378 22.2612 18.6676 22.0844 18.6676C21.9076 18.6676 21.738 18.7378 21.613 18.8629C21.488 18.9879 21.4177 19.1574 21.4177 19.3342V20.5009C21.4177 20.6777 21.488 20.8472 21.613 20.9722C21.738 21.0973 21.9076 21.1675 22.0844 21.1675ZM18.8816 24.3703C18.7566 24.2453 18.587 24.1751 18.4102 24.1751C18.2334 24.1751 18.0639 24.2453 17.9389 24.3703C17.877 24.4322 17.8278 24.5057 17.7943 24.5866C17.7608 24.6674 17.7436 24.7541 17.7436 24.8417C17.7436 24.9292 17.7608 25.0159 17.7943 25.0968C17.8278 25.1777 17.877 25.2512 17.9389 25.3131C19.0759 26.4501 20.9262 26.4503 22.0634 25.3131C22.1254 25.2512 22.1745 25.1777 22.208 25.0968C22.2415 25.0159 22.2587 24.9292 22.2587 24.8417C22.2587 24.7541 22.2415 24.6674 22.208 24.5866C22.1745 24.5057 22.1254 24.4322 22.0634 24.3703C21.9384 24.2453 21.7689 24.1751 21.5921 24.1751C21.4153 24.1751 21.2458 24.2453 21.1207 24.3703C20.5033 24.9876 19.4989 24.9876 18.8816 24.3703ZM37.2977 16.1679C37.7076 16.1679 38.0191 15.8032 37.9575 15.4004C37.5303 12.6062 36.4326 9.91097 34.7831 7.60624C34.7322 7.53491 34.6677 7.47431 34.5934 7.42791C34.5191 7.38152 34.4363 7.35023 34.3499 7.33584C34.2634 7.32146 34.175 7.32425 34.0897 7.34407C34.0043 7.36388 33.9237 7.40033 33.8524 7.45133C33.7812 7.50233 33.7207 7.56688 33.6744 7.64128C33.6281 7.71568 33.5969 7.79848 33.5827 7.88493C33.5684 7.97139 33.5713 8.05981 33.5913 8.14514C33.6112 8.23046 33.6478 8.31102 33.6989 8.3822C35.227 10.5174 36.2439 13.0138 36.6396 15.6019C36.6636 15.7593 36.7432 15.9029 36.8639 16.0067C36.9846 16.1105 37.1385 16.1677 37.2977 16.1679ZM6.14928 7.45208C6.07809 7.40112 5.99755 7.36469 5.91228 7.34486C5.827 7.32503 5.73866 7.32219 5.65229 7.33651C5.56592 7.35082 5.48321 7.38201 5.40889 7.42829C5.33457 7.47457 5.2701 7.53504 5.21915 7.60624C3.56964 9.91097 2.47193 12.6062 2.0447 15.4004C1.98304 15.804 2.29527 16.1679 2.70451 16.1679C2.86371 16.1676 3.01757 16.1104 3.13828 16.0066C3.25899 15.9028 3.33857 15.7593 3.36265 15.6019C3.75838 13.0138 4.77517 10.5174 6.30336 8.3822C6.35432 8.31101 6.39075 8.23048 6.41059 8.14521C6.43043 8.05994 6.43327 7.9716 6.41896 7.88523C6.40466 7.79886 6.37348 7.71615 6.3272 7.64183C6.28093 7.56751 6.22047 7.50303 6.14928 7.45208ZM13.7831 2.52061C17.7347 0.948763 22.2674 0.948763 26.2191 2.52061C26.3829 2.58329 26.5647 2.57894 26.7253 2.50852C26.8858 2.43809 27.0122 2.30725 27.077 2.14433C27.1418 1.98141 27.1398 1.79953 27.0714 1.63807C27.0031 1.47661 26.8739 1.34856 26.7118 1.28167C22.4184 -0.42618 17.5892 -0.428263 13.2903 1.28167C13.1279 1.34835 12.9984 1.47638 12.9298 1.63799C12.8612 1.79959 12.8592 1.98172 12.924 2.14484C12.9889 2.30796 13.1155 2.43891 13.2764 2.50926C13.4372 2.57962 13.6193 2.58369 13.7831 2.52061ZM9.16824 7.00143C10.6386 7.00143 11.8348 5.80523 11.8348 4.33487C11.8348 2.86452 10.6386 1.66832 9.16824 1.66832C8.99143 1.66832 8.82187 1.73855 8.69685 1.86357C8.57183 1.98859 8.5016 2.15815 8.5016 2.33496C8.5016 2.51176 8.57183 2.68132 8.69685 2.80634C8.82187 2.93136 8.99143 3.00159 9.16824 3.00159C9.90337 3.00159 10.5015 3.59974 10.5015 4.33487C10.5015 5.07001 9.90337 5.66815 9.16824 5.66815C8.4331 5.66815 7.83496 5.07001 7.83496 4.33487C7.83496 4.15807 7.76473 3.98851 7.63971 3.86349C7.51469 3.73847 7.34513 3.66823 7.16832 3.66823C6.99152 3.66823 6.82196 3.73847 6.69694 3.86349C6.57192 3.98851 6.50168 4.15807 6.50168 4.33487C6.50168 5.80523 7.69788 7.00143 9.16824 7.00143ZM30.834 1.66832C29.3636 1.66832 28.1674 2.86452 28.1674 4.33487C28.1674 5.80523 29.3636 7.00143 30.834 7.00143C31.0108 7.00143 31.1804 6.93119 31.3054 6.80617C31.4304 6.68115 31.5006 6.51159 31.5006 6.33479C31.5006 6.15798 31.4304 5.98842 31.3054 5.8634C31.1804 5.73838 31.0108 5.66815 30.834 5.66815C30.0989 5.66815 29.5007 5.07001 29.5007 4.33487C29.5007 3.59974 30.0989 3.00159 30.834 3.00159C31.5691 3.00159 32.1673 3.59974 32.1673 4.33487C32.1673 4.51168 32.2375 4.68124 32.3625 4.80626C32.4876 4.93128 32.6571 5.00151 32.8339 5.00151C33.0107 5.00151 33.1803 4.93128 33.3053 4.80626C33.4303 4.68124 33.5006 4.51168 33.5006 4.33487C33.5006 2.8646 32.3044 1.66832 30.834 1.66832ZM37.3337 17.8343C37.1569 17.8343 36.9874 17.9045 36.8623 18.0296C36.7373 18.1546 36.6671 18.3241 36.6671 18.5009C36.6671 18.6778 36.7373 18.8473 36.8623 18.9723C36.9874 19.0974 37.1569 19.1676 37.3337 19.1676C38.0689 19.1676 38.667 19.7657 38.667 20.5009C38.667 21.236 38.0689 21.8341 37.3337 21.8341C36.5986 21.8341 36.0005 21.236 36.0005 20.5009C36.0005 20.3241 35.9302 20.1545 35.8052 20.0295C35.6802 19.9045 35.5106 19.8342 35.3338 19.8342C35.157 19.8342 34.9874 19.9045 34.8624 20.0295C34.7374 20.1545 34.6672 20.3241 34.6672 20.5009C34.6672 21.9712 35.8634 23.1674 37.3337 23.1674C38.8041 23.1674 40.0003 21.9712 40.0003 20.5009C40.0003 19.0305 38.8041 17.8343 37.3337 17.8343ZM4.66843 19.8342C4.49162 19.8342 4.32206 19.9045 4.19704 20.0295C4.07202 20.1545 4.00179 20.3241 4.00179 20.5009C4.00179 21.236 3.40364 21.8341 2.66851 21.8341C1.93337 21.8341 1.33523 21.236 1.33523 20.5009C1.33523 19.7657 1.93337 19.1676 2.66851 19.1676C2.84531 19.1676 3.01487 19.0974 3.13989 18.9723C3.26491 18.8473 3.33515 18.6778 3.33515 18.5009C3.33515 18.3241 3.26491 18.1546 3.13989 18.0296C3.01487 17.9045 2.84531 17.8343 2.66851 17.8343C1.19815 17.8343 0.00195312 19.0305 0.00195312 20.5009C0.00195312 21.9712 1.19815 23.1674 2.66851 23.1674C4.13886 23.1674 5.33506 21.9712 5.33506 20.5009C5.33506 20.3241 5.26483 20.1545 5.13981 20.0295C5.01479 19.9045 4.84523 19.8342 4.66843 19.8342Z"/>
            </g>
        </symbol>
        <symbol id="gear" viewBox="0 0 40 40">
            <title>gear</title>
            <g>
                <path d="M11.6834 34.3309C11.2938 34.6764 11.0465 35.1679 11.0042 35.6885C10.9453 36.4141 9.98435 36.6495 9.61352 36.023C8.87077 34.7683 9.67785 33.1836 11.099 33.0163C11.8354 32.9296 12.2381 33.8389 11.6834 34.3309Z"/>
                <path d="M30.0178 21.7423C30.2152 20.5891 30.2152 19.4109 30.0178 18.2578L30.9599 17.1652C31.2307 16.8507 31.397 16.4599 31.436 16.0468C31.4749 15.6336 31.3845 15.2186 31.1772 14.8591L30.0409 12.891C29.616 12.1552 28.7695 11.7676 27.9351 11.9262L26.5159 12.1961C25.6129 11.4406 24.6009 10.8555 23.4997 10.4525L23.0249 9.09133C22.888 8.69961 22.6327 8.36011 22.2945 8.1198C21.9562 7.8795 21.5516 7.75027 21.1366 7.75H18.864C18.0144 7.75 17.2555 8.289 16.9756 9.09133L16.5008 10.4525C15.3995 10.8555 14.3875 11.4405 13.4846 12.1961L12.0654 11.9262C11.2307 11.7677 10.3845 12.1552 9.95961 12.891L8.82328 14.8591C8.39844 15.5949 8.48578 16.5217 9.04061 17.1651L9.98269 18.2578C9.78528 19.4109 9.78528 20.5891 9.98269 21.7423L9.04061 22.8348C8.76981 23.1493 8.60343 23.5401 8.5645 23.9532C8.52556 24.3664 8.61599 24.7814 8.82328 25.1409L9.95961 27.109C10.3844 27.8448 11.2306 28.2325 12.0654 28.0738L13.4846 27.8039C14.3875 28.5594 15.3995 29.1445 16.5008 29.5475L16.9756 30.9087C17.2555 31.711 18.0144 32.25 18.864 32.25H21.1366C21.9863 32.25 22.7451 31.711 23.025 30.9087L23.6059 29.2433C23.6642 29.0764 23.6537 28.8932 23.5768 28.7339C23.4999 28.5747 23.363 28.4526 23.196 28.3943C23.0291 28.3361 22.8459 28.3466 22.6866 28.4235C22.5274 28.5003 22.4053 28.6373 22.347 28.8043L21.7661 30.4696C21.7205 30.6002 21.6354 30.7133 21.5226 30.7934C21.4098 30.8735 21.2749 30.9166 21.1366 30.9167H18.864C18.7257 30.9166 18.5908 30.8735 18.4781 30.7934C18.3653 30.7133 18.2802 30.6001 18.2345 30.4696L17.6536 28.8043C17.6199 28.7076 17.5645 28.6201 17.4915 28.5484C17.4185 28.4767 17.33 28.4227 17.2329 28.3907C16.079 28.0103 15.0319 27.405 14.1206 26.5915C14.0443 26.5234 13.9533 26.4737 13.8547 26.4464C13.7562 26.419 13.6526 26.4148 13.5521 26.4338L11.8163 26.764C11.6804 26.7897 11.5399 26.7725 11.4141 26.7149C11.2884 26.6573 11.1837 26.5621 11.1144 26.4424L9.97803 24.4743C9.90893 24.3545 9.87879 24.2161 9.89178 24.0784C9.90477 23.9407 9.96024 23.8104 10.0505 23.7056L11.2025 22.3695C11.2692 22.2921 11.3173 22.2005 11.3429 22.1016C11.3686 22.0027 11.3711 21.8992 11.3504 21.7992C11.107 20.6222 11.107 19.3778 11.3504 18.2008C11.3711 18.1008 11.3686 17.9973 11.3429 17.8984C11.3173 17.7996 11.2692 17.7079 11.2025 17.6305L10.0505 16.2943C9.96027 16.1895 9.90483 16.0592 9.89185 15.9215C9.87888 15.7838 9.90902 15.6455 9.97811 15.5257L11.1144 13.5576C11.1837 13.4378 11.2884 13.3426 11.4142 13.285C11.5399 13.2274 11.6805 13.2103 11.8164 13.236L13.5522 13.5662C13.6527 13.5854 13.7563 13.5811 13.8549 13.5538C13.9535 13.5264 14.0444 13.4767 14.1207 13.4085C15.0319 12.595 16.079 11.9898 17.2329 11.6093C17.3301 11.5773 17.4186 11.5233 17.4916 11.4516C17.5645 11.3799 17.62 11.2924 17.6537 11.1958L18.2346 9.53042C18.2803 9.39984 18.3654 9.28669 18.4781 9.20659C18.5909 9.1265 18.7258 9.08342 18.8641 9.08333H21.1367C21.275 9.08345 21.4099 9.12653 21.5226 9.20662C21.6354 9.28671 21.7205 9.39986 21.7662 9.53042L22.3471 11.1958C22.3808 11.2924 22.4363 11.3799 22.5092 11.4516C22.5822 11.5233 22.6707 11.5773 22.7679 11.6093C23.9218 11.9897 24.9689 12.595 25.8801 13.4085C25.9564 13.4767 26.0474 13.5263 26.146 13.5537C26.2445 13.581 26.3481 13.5853 26.4486 13.5662L28.1844 13.236C28.3203 13.2103 28.4609 13.2275 28.5866 13.2851C28.7123 13.3427 28.8171 13.4379 28.8864 13.5576L30.0227 15.5257C30.0918 15.6455 30.1219 15.7839 30.1089 15.9216C30.096 16.0593 30.0405 16.1896 29.9502 16.2944L28.7982 17.6305C28.7315 17.7079 28.6835 17.7996 28.6578 17.8984C28.6322 17.9973 28.6296 18.1008 28.6503 18.2008C28.8937 19.3778 28.8937 20.6222 28.6503 21.7992C28.6296 21.8992 28.6322 22.0027 28.6578 22.1016C28.6835 22.2005 28.7315 22.2921 28.7982 22.3695L29.9502 23.7057C30.0404 23.8105 30.0959 23.9408 30.1089 24.0785C30.1218 24.2162 30.0917 24.3545 30.0226 24.4743L28.8863 26.4424C28.8171 26.5622 28.7124 26.6575 28.5866 26.7151C28.4608 26.7727 28.3203 26.7898 28.1844 26.764L26.4485 26.4338C26.2748 26.4009 26.0952 26.4382 25.949 26.5377C25.8028 26.6371 25.7021 26.7905 25.669 26.9642C25.636 27.1379 25.6733 27.3176 25.7728 27.4638C25.8722 27.6099 26.0257 27.7106 26.1994 27.7437L27.9352 28.0738C28.7696 28.232 29.6161 27.8448 30.0409 27.109L31.1773 25.1409C31.6021 24.4051 31.5148 23.4783 30.9599 22.8349L30.0178 21.7423Z"/>
                <path d="M15.3045 17.3821C15.1406 17.3158 14.9571 17.3172 14.7943 17.3862C14.6315 17.4552 14.5028 17.586 14.4364 17.7498C12.8463 21.6779 15.7452 26.0001 20 26.0001C23.3084 26.0001 26 23.3085 26 20.0001C26 15.5383 21.3068 12.6681 17.3537 14.6138C17.195 14.6919 17.0739 14.8298 17.017 14.9972C16.96 15.1646 16.9719 15.3477 17.0499 15.5063C17.2125 15.8368 17.6122 15.973 17.9424 15.8102C21.0103 14.3003 24.6667 16.5266 24.6667 20.0001C24.6667 22.5733 22.5732 24.6668 20 24.6668C16.618 24.6668 14.4623 21.2393 15.6723 18.2502C15.7387 18.0863 15.7372 17.9028 15.6682 17.74C15.5992 17.5772 15.4684 17.4484 15.3045 17.3821ZM15.9773 3.80268C16.2743 3.80268 19.5446 2.75718 23.868 3.78443C24.04 3.82531 24.2212 3.79617 24.3718 3.70344C24.5223 3.6107 24.6299 3.46196 24.6708 3.28993C24.7116 3.11791 24.6825 2.93669 24.5898 2.78614C24.497 2.6356 24.3483 2.52806 24.1763 2.48718C21.4441 1.83793 18.5559 1.83793 15.8238 2.48718C15.7387 2.50742 15.6583 2.54424 15.5873 2.59553C15.5164 2.64683 15.4562 2.7116 15.4103 2.78614C15.3644 2.86068 15.3336 2.94354 15.3197 3.02998C15.3058 3.11642 15.3091 3.20475 15.3293 3.28993C15.364 3.43581 15.4467 3.56576 15.5643 3.65879C15.6819 3.75183 15.8274 3.80252 15.9773 3.80268ZM35.9775 15.2412C36.002 15.3257 36.0429 15.4045 36.0979 15.4731C36.153 15.5417 36.2211 15.5987 36.2983 15.6409C36.3754 15.683 36.4602 15.7095 36.5477 15.7188C36.6351 15.728 36.7236 15.7199 36.8079 15.6948C36.8922 15.6698 36.9707 15.6283 37.0389 15.5727C37.1071 15.5172 37.1636 15.4487 37.2052 15.3712C37.2468 15.2937 37.2727 15.2087 37.2813 15.1212C37.29 15.0337 37.2812 14.9453 37.2555 14.8612C36.4569 12.1759 35.0116 9.67543 33.0756 7.62968C32.9531 7.5053 32.7867 7.43391 32.6122 7.43083C32.4377 7.42775 32.2689 7.49323 32.1421 7.61321C32.0153 7.73319 31.9406 7.89811 31.9341 8.07255C31.9275 8.24698 31.9896 8.41703 32.1071 8.54618C33.9 10.4404 35.2383 12.7557 35.9775 15.2412ZM36.8066 24.3101C36.7227 24.2851 36.6347 24.2769 36.5476 24.286C36.4605 24.295 36.376 24.3212 36.2991 24.3629C36.2221 24.4046 36.1541 24.461 36.0989 24.529C36.0437 24.597 36.0025 24.6752 35.9776 24.7591C35.2384 27.2446 33.9001 29.5598 32.1073 31.4542C31.7039 31.8804 32.0118 32.5791 32.5913 32.5791C32.682 32.5792 32.7718 32.5608 32.855 32.525C32.9383 32.4891 33.0134 32.4366 33.0757 32.3707C35.0117 30.3249 36.457 27.8244 37.2556 25.1392C37.2805 25.0553 37.2887 24.9672 37.2797 24.8802C37.2706 24.7931 37.2445 24.7086 37.2028 24.6316C37.1611 24.5547 37.1047 24.4866 37.0367 24.4315C36.9687 24.3763 36.8905 24.3351 36.8066 24.3101ZM23.868 36.2158C21.3377 36.8171 18.6626 36.8171 16.1321 36.2158C16.0469 36.1955 15.9586 36.1923 15.8721 36.2062C15.7857 36.2201 15.7028 36.2508 15.6283 36.2968C15.5538 36.3427 15.489 36.4028 15.4377 36.4738C15.3864 36.5447 15.3496 36.6251 15.3293 36.7103C15.3091 36.7954 15.3058 36.8838 15.3197 36.9702C15.3336 37.0567 15.3644 37.1395 15.4103 37.2141C15.4562 37.2886 15.5164 37.3534 15.5873 37.4047C15.6583 37.456 15.7387 37.4928 15.8238 37.513C18.5556 38.1622 21.4442 38.1623 24.1763 37.513C24.2614 37.4928 24.3418 37.456 24.4127 37.4047C24.4837 37.3534 24.5438 37.2886 24.5898 37.2141C24.6357 37.1395 24.6665 37.0567 24.6804 36.9702C24.6943 36.8838 24.691 36.7954 24.6708 36.7103C24.6505 36.6251 24.6137 36.5447 24.5624 36.4738C24.5111 36.4028 24.4463 36.3427 24.3718 36.2968C24.2972 36.2508 24.2144 36.2201 24.128 36.2062C24.0415 36.1923 23.9532 36.1955 23.868 36.2158ZM4.0225 24.7591C3.97112 24.5908 3.85529 24.4496 3.70025 24.3664C3.54521 24.2831 3.36355 24.2646 3.19488 24.3147C3.0262 24.3649 2.8842 24.4797 2.79983 24.6341C2.71546 24.7885 2.69557 24.9701 2.7445 25.1391C3.54308 27.8244 4.98842 30.3249 6.92442 32.3706C6.98667 32.4365 7.06175 32.489 7.14504 32.5249C7.22833 32.5607 7.31807 32.5791 7.40875 32.579C7.9885 32.579 8.296 31.8801 7.89283 31.4541C6.1 29.5598 4.76167 27.2446 4.0225 24.7591ZM6.92433 7.6296C4.98833 9.67535 3.543 12.1759 2.74442 14.8611C2.71946 14.945 2.71127 15.033 2.72033 15.1201C2.72938 15.2072 2.75551 15.2916 2.7972 15.3686C2.8389 15.4456 2.89535 15.5136 2.96333 15.5688C3.03131 15.6239 3.1095 15.6652 3.19342 15.6901C3.27733 15.7151 3.36534 15.7232 3.45242 15.7142C3.5395 15.7051 3.62394 15.679 3.70092 15.6373C3.7779 15.5956 3.84592 15.5392 3.90108 15.4712C3.95624 15.4032 3.99747 15.325 4.02242 15.2411C4.76158 12.7556 6.09992 10.4404 7.89275 8.54602C8.01252 8.41728 8.07658 8.24644 8.07099 8.0707C8.0654 7.89496 7.9906 7.72854 7.86289 7.60768C7.73517 7.48682 7.56488 7.42132 7.3891 7.42542C7.21331 7.42953 7.04627 7.50291 6.92433 7.6296ZM12.6667 7.29843C12.8182 7.20919 12.9283 7.06374 12.973 6.89371C13.0178 6.72369 12.9936 6.54287 12.9057 6.3906C12.8178 6.23834 12.6733 6.12695 12.5037 6.08069C12.3341 6.03443 12.153 6.05704 12 6.1436C11.3633 6.51118 10.5463 6.29226 10.1787 5.65568C9.81108 5.01893 10.03 4.20193 10.6667 3.83435C11.3033 3.4666 12.1204 3.6856 12.488 4.32235C12.577 4.47422 12.7225 4.58471 12.8927 4.62971C13.0629 4.6747 13.244 4.65056 13.3965 4.56253C13.5489 4.47451 13.6604 4.32975 13.7065 4.15986C13.7526 3.98996 13.7297 3.80872 13.6427 3.65568C12.9075 2.38227 11.2734 1.94426 10 2.67968C8.72658 3.41485 8.28875 5.04901 9.02392 6.32243C9.75558 7.58951 11.3873 8.03693 12.6667 7.29843ZM27.3333 32.7018C27.1818 32.791 27.0717 32.9365 27.027 33.1065C26.9822 33.2765 27.0064 33.4573 27.0943 33.6096C27.1822 33.7619 27.3267 33.8732 27.4963 33.9195C27.6659 33.9658 27.847 33.9432 28 33.8566C28.6366 33.4889 29.4538 33.7078 29.8213 34.3445C30.1889 34.9812 29.97 35.7983 29.3333 36.1659C28.6967 36.5333 27.8795 36.3145 27.512 35.6778C27.3279 35.359 26.9202 35.25 26.6013 35.4338C26.4482 35.5222 26.3365 35.6678 26.2908 35.8386C26.245 36.0094 26.269 36.1914 26.3573 36.3445C26.8507 37.1991 27.7488 37.6774 28.6712 37.6774C30.7109 37.6774 32.0013 35.4535 30.9762 33.6778C30.2409 32.4046 28.6068 31.9667 27.3333 32.7018ZM27.3333 7.29843C28.6174 8.03952 30.2471 7.58493 30.9761 6.32235C31.7113 5.04893 31.2734 3.41477 30 2.6796C29.847 2.59259 29.6657 2.56964 29.4958 2.61577C29.3259 2.66189 29.1812 2.77334 29.0932 2.9258C29.0051 3.07826 28.981 3.25935 29.026 3.42954C29.071 3.59974 29.1815 3.74523 29.3333 3.83426C29.97 4.20193 30.189 5.01901 29.8213 5.65568C29.4538 6.29235 28.6368 6.51118 28 6.14368C27.3633 5.77602 27.1443 4.95893 27.512 4.32235C27.6004 4.16923 27.6244 3.98726 27.5786 3.81648C27.5328 3.6457 27.4211 3.50009 27.268 3.41168C27.1922 3.36789 27.1085 3.33946 27.0217 3.32802C26.9349 3.31658 26.8467 3.32236 26.7621 3.34502C26.6775 3.36767 26.5983 3.40677 26.5288 3.46008C26.4594 3.51338 26.4011 3.57985 26.3573 3.65568C25.6221 4.9291 26.0599 6.56318 27.3333 7.29843ZM13.3988 35.4338C13.0798 35.2499 12.6721 35.3589 12.4881 35.6778C12.1205 36.3146 11.3034 36.5333 10.6668 36.1659C10.0301 35.7983 9.81108 34.9812 10.1788 34.3445C10.5463 33.7078 11.3634 33.489 12.0001 33.8566C12.1531 33.9432 12.3341 33.9658 12.5038 33.9195C12.6734 33.8732 12.8179 33.7619 12.9058 33.6096C12.9937 33.4573 13.0179 33.2765 12.9731 33.1065C12.9283 32.9365 12.8182 32.791 12.6668 32.7018C11.3933 31.9669 9.75925 32.4046 9.024 33.6778C8.28883 34.9513 8.72667 36.5854 10.0001 37.3207C11.2814 38.0604 12.9123 37.6098 13.6428 36.3445C13.7312 36.1914 13.7551 36.0094 13.7093 35.8386C13.6636 35.6678 13.5519 35.5222 13.3988 35.4338ZM37.3333 17.3334C35.8629 17.3334 34.6667 18.5297 34.6667 20.0001C34.6667 21.4705 35.8629 22.6668 37.3333 22.6668C37.5101 22.6668 37.6797 22.5965 37.8047 22.4715C37.9298 22.3465 38 22.1769 38 22.0001C38 21.8233 37.9298 21.6537 37.8047 21.5287C37.6797 21.4037 37.5101 21.3334 37.3333 21.3334C36.5982 21.3334 36 20.7353 36 20.0001C36 19.2649 36.5982 18.6668 37.3333 18.6668C38.0685 18.6668 38.6667 19.2649 38.6667 20.0001C38.6667 20.1769 38.7369 20.3465 38.8619 20.4715C38.987 20.5965 39.1565 20.6668 39.3333 20.6668C39.5101 20.6668 39.6797 20.5965 39.8047 20.4715C39.9298 20.3465 40 20.1769 40 20.0001C40 18.5298 38.8038 17.3334 37.3333 17.3334ZM5.33333 20.0001C5.33333 18.5297 4.13708 17.3334 2.66667 17.3334C1.19625 17.3334 0 18.5298 0 20.0001C0 20.1769 0.0702379 20.3465 0.195262 20.4715C0.320286 20.5965 0.489856 20.6668 0.666667 20.6668C0.843478 20.6668 1.01305 20.5965 1.13807 20.4715C1.2631 20.3465 1.33333 20.1769 1.33333 20.0001C1.33333 19.2649 1.9315 18.6668 2.66667 18.6668C3.40183 18.6668 4 19.2649 4 20.0001C4 20.7353 3.40183 21.3334 2.66667 21.3334C2.48986 21.3334 2.32029 21.4037 2.19526 21.5287C2.07024 21.6537 2 21.8233 2 22.0001C2 22.1769 2.07024 22.3465 2.19526 22.4715C2.32029 22.5965 2.48986 22.6668 2.66667 22.6668C4.13708 22.6668 5.33333 21.4705 5.33333 20.0001Z"/>
            </g>
        </symbol>
        <symbol id="like" viewBox="0 0 40 40">
            <title>like</title>
            <g>
                <path d="M34.4895 27.1041C35.5433 25.0168 35.3029 23.3893 33.6988 21.7769C34.208 19.8808 33.8392 18.7105 33.4209 18.0508C32.4523 16.523 30.3937 16.0657 28.5766 16.0657C26.2629 16.0657 23.6001 16.7541 20.8758 18.0565C20.7197 18.1348 20.6006 18.2712 20.5441 18.4363C20.4875 18.6015 20.498 18.7823 20.5733 18.9398C20.6486 19.0973 20.7827 19.219 20.9468 19.2787C21.1109 19.3383 21.2918 19.3313 21.4507 19.259C23.9606 18.0589 26.4908 17.3984 28.5771 17.3984C29.8686 17.3984 31.6065 17.6778 32.2955 18.7644C32.7129 19.4228 32.7182 20.4926 32.3104 21.7766C32.2718 21.898 32.2689 22.0279 32.3019 22.1509C32.3349 22.2739 32.4024 22.3849 32.4965 22.4708C33.9919 23.8339 34.1634 24.9621 33.1517 26.7824C33.0967 26.8814 33.0678 26.9929 33.0679 27.1061C33.0679 27.2194 33.0968 27.3308 33.1518 27.4299C34.0692 29.0796 34.1061 30.0114 33.3232 31.7646C33.284 31.8524 33.2643 31.9478 33.2654 32.044C33.2665 32.1402 33.2884 32.235 33.3297 32.322C34.1783 34.1095 34.2821 35.4651 33.6386 36.3513C32.75 37.5748 30.3408 38.175 26.4743 38.1423C21.1231 38.0936 12.9705 36.7452 12.3918 36.7648C12.0381 36.7771 11.7655 37.0591 11.7494 37.3988C11.716 38.1101 11.1312 38.6674 10.4182 38.6674H7.32375C6.58891 38.6674 5.99102 38.0695 5.99102 37.3346V21.0053C5.99102 20.2705 6.58891 19.6726 7.32375 19.6726H10.4182C11.153 19.6726 11.7509 20.2705 11.7509 21.0053V33.487C11.7509 33.6637 11.8211 33.8332 11.9461 33.9581C12.0711 34.0831 12.2405 34.1533 12.4173 34.1533C12.594 34.1533 12.7635 34.0831 12.8885 33.9581C13.0134 33.8332 13.0836 33.6637 13.0836 33.487V21.1125C16.2174 18.6964 17.6557 14.7931 16.8132 10.9359C16.4522 9.28464 17.4329 8.21538 18.565 7.88811C19.7197 7.55451 21.142 7.92726 21.7163 9.51287C22.2573 11.0047 22.6352 12.5357 22.8396 14.0633C22.863 14.2385 22.955 14.3972 23.0955 14.5045C23.2359 14.6118 23.4132 14.6589 23.5884 14.6355C23.7636 14.612 23.9223 14.52 24.0296 14.3796C24.1369 14.2391 24.184 14.0618 24.1606 13.8866C23.9436 12.2644 23.5427 10.6399 22.9692 9.05875C21.3051 4.46474 14.4549 6.38912 15.5111 11.2204C16.205 14.3975 15.1435 17.5606 12.7286 19.6789C12.2678 18.8796 11.4051 18.34 10.4181 18.34H7.32366C5.85391 18.34 4.6582 19.5357 4.6582 21.0054V37.3347C4.6582 38.8045 5.85391 40.0002 7.32366 40.0002H10.4181C11.5967 40.0002 12.5994 39.2381 12.95 38.1701C21.9186 39.3246 32.0296 40.835 34.7169 37.1345C35.6296 35.8777 35.6105 34.1606 34.6613 32.0279C35.4469 30.149 35.4045 28.874 34.4895 27.1041Z"/>
                <path d="M35.4072 4.41767L32.7909 0.675944C32.1608 -0.225315 30.8236 -0.225315 30.1934 0.675944L27.5777 4.41717C26.8436 5.46703 27.5957 6.91179 28.8774 6.91179H29.3336C29.3521 8.81277 29.3372 12.3318 29.2762 13.9497C29.2729 14.0371 29.2868 14.1244 29.3172 14.2064C29.3476 14.2885 29.3939 14.3637 29.4534 14.4279C29.5129 14.4921 29.5844 14.5439 29.664 14.5804C29.7435 14.6169 29.8294 14.6374 29.9169 14.6407C30.2824 14.6559 30.5941 14.3678 30.6079 14C30.6777 12.1508 30.688 7.85103 30.6572 6.23277C30.6539 6.05825 30.5822 5.89201 30.4577 5.76977C30.3331 5.64753 30.1655 5.57905 29.9909 5.57906H28.8775C28.6724 5.57906 28.5518 5.34983 28.67 5.18082L31.2858 1.4396C31.3089 1.40632 31.3398 1.37913 31.3758 1.36035C31.4117 1.34158 31.4517 1.33178 31.4922 1.33178C31.5328 1.33178 31.5727 1.34158 31.6087 1.36035C31.6446 1.37913 31.6755 1.40632 31.6987 1.4396L34.3148 5.18132C34.4322 5.34925 34.3136 5.57906 34.1076 5.57906H32.9935C32.8189 5.57905 32.6514 5.64753 32.5268 5.76977C32.4022 5.89201 32.3305 6.05825 32.3272 6.23277C32.2965 7.85237 32.3068 12.1528 32.3765 14C32.3905 14.3702 32.7023 14.6546 33.0675 14.6407C33.155 14.6374 33.2409 14.6169 33.3205 14.5804C33.4 14.5439 33.4715 14.4921 33.531 14.4279C33.5905 14.3637 33.6368 14.2885 33.6672 14.2064C33.6976 14.1244 33.7116 14.0371 33.7083 13.9497C33.6473 12.3334 33.6324 8.81377 33.6509 6.91179H34.1076C35.3886 6.91179 36.1414 5.46786 35.4072 4.41767ZM5.88775 10.4946H6.34487C6.3627 12.0049 6.34313 13.5276 6.28632 15.0308C6.2812 15.2065 6.34568 15.377 6.46572 15.5054C6.58575 15.6337 6.75163 15.7095 6.92724 15.7161C7.10286 15.7227 7.27398 15.6597 7.40336 15.5408C7.53274 15.4219 7.6099 15.2566 7.61805 15.0811C7.68394 13.3358 7.70051 11.5642 7.66736 9.81556C7.66402 9.64106 7.59236 9.47482 7.46777 9.35259C7.34318 9.23035 7.17562 9.16187 7.00108 9.16186H5.88775C5.68284 9.16186 5.56231 8.9328 5.68051 8.76396L8.29574 5.02431C8.31892 4.99105 8.34979 4.96387 8.38573 4.94511C8.42167 4.92635 8.46161 4.91655 8.50215 4.91655C8.54269 4.91655 8.58263 4.92635 8.61857 4.94511C8.65451 4.96387 8.68538 4.99105 8.70856 5.02431L11.3243 8.76462C11.4412 8.9318 11.3235 9.16186 11.1174 9.16186H10.0032C9.82868 9.16183 9.66109 9.2303 9.53651 9.35255C9.41193 9.47479 9.3403 9.64105 9.33702 9.81556C9.3037 11.5623 9.32028 13.3338 9.38617 15.0811C9.39999 15.4489 9.71327 15.7344 10.0772 15.7218C10.1646 15.7185 10.2506 15.698 10.3301 15.6615C10.4096 15.625 10.4812 15.5732 10.5407 15.509C10.6002 15.4448 10.6464 15.3696 10.6769 15.2875C10.7073 15.2055 10.7212 15.1182 10.7179 15.0308C10.6611 13.5194 10.6416 12.0069 10.6594 10.4946H11.1174C12.3981 10.4946 13.1507 9.05091 12.4165 8.00088L9.80073 4.26049C9.17076 3.35965 7.83379 3.3594 7.20365 4.26049L4.58834 8.00013C3.85408 9.04983 4.60608 10.4946 5.88775 10.4946ZM8.16888 22.4892V23.3221C8.16888 23.4989 8.23909 23.6683 8.36406 23.7933C8.48903 23.9183 8.65852 23.9885 8.83525 23.9885C9.01198 23.9885 9.18147 23.9183 9.30644 23.7933C9.43141 23.6683 9.50161 23.4989 9.50161 23.3221V22.4892C9.50161 22.3124 9.43141 22.1429 9.30644 22.018C9.18147 21.893 9.01198 21.8228 8.83525 21.8228C8.65852 21.8228 8.48903 21.893 8.36406 22.018C8.23909 22.1429 8.16888 22.3124 8.16888 22.4892Z"/>
            </g>
        </symbol>
        <symbol id="starHand" viewBox="0 0 40 40">
            <title>starHand</title>
            <g>
                <path d="M15.0249 7.58133L17.0361 9.54169L16.5614 12.3098C16.2732 13.9894 18.04 15.2729 19.5484 14.48L22.3446 13.01C22.4221 12.9693 22.4908 12.9136 22.5468 12.8464C22.6028 12.7791 22.645 12.7014 22.671 12.6178C22.697 12.5342 22.7063 12.4463 22.6983 12.3591C22.6903 12.2719 22.6652 12.1871 22.6244 12.1096C22.5837 12.0321 22.5281 11.9634 22.4608 11.9074C22.3935 11.8514 22.3158 11.8092 22.2322 11.7832C22.1486 11.7572 22.0607 11.748 21.9735 11.756C21.8863 11.764 21.8016 11.789 21.7241 11.8298L18.9279 13.2998C18.3982 13.5784 17.7731 13.132 17.8755 12.5352L18.4095 9.42161C18.4277 9.31507 18.4198 9.20569 18.3864 9.10289C18.353 9.0001 18.2951 8.90696 18.2177 8.83152L15.9555 6.62649C15.5246 6.2064 15.7609 5.47589 16.3575 5.38931L19.4837 4.93505C19.5907 4.9195 19.6923 4.87819 19.7797 4.81466C19.8671 4.75113 19.9378 4.6673 19.9857 4.57038L21.3838 1.73751C21.6507 1.19684 22.4183 1.19792 22.6846 1.73751L24.0827 4.57038C24.1305 4.6673 24.2012 4.75115 24.2886 4.81468C24.3761 4.87821 24.4777 4.91952 24.5846 4.93505L27.7108 5.38931C28.3065 5.47581 28.5445 6.20565 28.1128 6.62649L25.8506 8.83152C25.7732 8.90696 25.7153 9.0001 25.6819 9.10289C25.6485 9.20569 25.6406 9.31507 25.6589 9.42161L26.1929 12.5352C26.2631 12.9448 25.9979 13.2407 25.7216 13.3423C25.5581 13.4051 25.4258 13.5297 25.3534 13.6893C25.281 13.8489 25.2743 14.0305 25.3348 14.195C25.3952 14.3594 25.518 14.4934 25.6765 14.5681C25.8351 14.6427 26.0166 14.6519 26.1819 14.5938C27.1177 14.2496 27.675 13.2891 27.507 12.3098L27.0322 9.54169L29.0434 7.58133C30.2649 6.39049 29.5899 4.31513 27.9024 4.06987L25.123 3.66603L23.88 1.1475C23.125 -0.382183 20.9425 -0.381516 20.1878 1.1475L18.9448 3.66603L16.1654 4.06987C14.4777 4.31521 13.8039 6.39115 15.0249 7.58133ZM36.6404 19.7087C36.6515 18.5424 36.2654 17.5734 35.5297 16.9488C34.7509 16.2876 33.6301 16.0658 32.5311 16.3554C30.7552 16.8237 30.2437 18.6464 29.0258 20.6366C28.7532 21.082 29.0774 21.6513 29.5938 21.6513C29.708 21.6515 29.8204 21.6222 29.9201 21.5664C30.0198 21.5106 30.1035 21.4301 30.1631 21.3326C31.3524 19.3893 31.7622 17.9371 32.8711 17.6449C33.5488 17.4662 34.2202 17.586 34.6668 17.9653C35.0249 18.2693 35.2358 18.7291 35.2926 19.3141C34.4443 19.2926 33.5114 19.66 32.7466 20.624C32.135 21.3942 31.4225 22.052 30.629 22.5791C28.7978 23.795 27.0069 24.0043 26.1461 24.1049C25.22 24.2133 24.257 24.2005 23.284 24.0666C23.1089 24.0425 22.9313 24.089 22.7904 24.1958C22.6495 24.3026 22.5568 24.461 22.5327 24.6362C22.5086 24.8114 22.5551 24.9889 22.6619 25.1299C22.7687 25.2708 22.9271 25.3635 23.1023 25.3876C24.187 25.5368 25.2632 25.5508 26.301 25.4292C27.2645 25.3166 29.2695 25.0824 31.3667 23.6898C32.2766 23.0854 33.0921 22.3329 33.7909 21.453C35.1468 19.7441 37.2383 21.0048 36.47 22.9756C32.8475 32.2648 24.9044 29.3045 21.6163 32.2505H5.73056C4.42971 30.0379 4.37854 27.3196 5.61789 25.0723C6.86891 22.8039 9.26727 21.3713 11.8771 21.3336C12.0034 21.3317 12.1265 21.2941 12.2322 21.2251C16.8959 18.1771 21.1817 18.9248 21.0923 20.6742C21.0366 21.7623 19.4569 23.6028 15.1904 25.5046C15.1105 25.5402 15.0383 25.5912 14.9781 25.6548C14.9178 25.7183 14.8707 25.7931 14.8393 25.8748C14.808 25.9566 14.7931 26.0437 14.7954 26.1312C14.7977 26.2187 14.8173 26.3049 14.8529 26.3849C14.8886 26.4649 14.9396 26.537 15.0031 26.5973C15.0667 26.6575 15.1414 26.7046 15.2232 26.736C15.3049 26.7673 15.3921 26.7823 15.4796 26.7799C15.5671 26.7776 15.6533 26.7581 15.7333 26.7224C19.9467 24.8443 22.3228 22.7205 22.4239 20.7422C22.5859 17.5739 17.15 16.5062 11.6632 20.0054C5.49589 20.2338 1.56742 26.6662 4.22171 32.2505H4.0342C2.93144 32.2505 2.03418 33.1477 2.03418 34.2505V38.0005C2.03418 39.1033 2.93144 40.0006 4.0342 40.0006H23.0344C24.1372 40.0006 25.0345 39.1033 25.0345 38.0005V36.3849C25.0345 36.2081 24.9642 36.0386 24.8392 35.9135C24.7142 35.7885 24.5446 35.7183 24.3678 35.7183C24.191 35.7183 24.0214 35.7885 23.8964 35.9135C23.7714 36.0386 23.7011 36.2081 23.7011 36.3849V38.0005C23.7011 38.3681 23.402 38.6672 23.0344 38.6672H4.0342C3.66662 38.6672 3.36753 38.3681 3.36753 38.0005V34.2505C3.36753 33.8829 3.66662 33.5838 4.0342 33.5838C23.1266 33.5838 21.9323 33.5999 22.0812 33.5545C22.1895 33.5203 22.2877 33.4597 22.3668 33.3782C24.881 30.7517 33.7991 33.4949 37.7124 23.4599C38.3848 21.7345 37.6372 20.3207 36.6404 19.7087Z"/>
                <path d="M6.53386 35.417C6.35705 35.417 6.18748 35.4872 6.06245 35.6122C5.93743 35.7373 5.86719 35.9068 5.86719 36.0836C5.86719 36.2604 5.93743 36.43 6.06245 36.555C6.18748 36.6801 6.35705 36.7503 6.53386 36.7503H8.11722C8.29403 36.7503 8.4636 36.6801 8.58863 36.555C8.71365 36.43 8.78389 36.2604 8.78389 36.0836C8.78389 35.9068 8.71365 35.7373 8.58863 35.6122C8.4636 35.4872 8.29403 35.417 8.11722 35.417H6.53386ZM13.477 2.21271C13.5964 2.342 13.7621 2.41884 13.9379 2.42645C14.1138 2.43407 14.2855 2.37186 14.4156 2.25338C14.5457 2.1349 14.6238 1.96978 14.6326 1.79401C14.6415 1.61824 14.5805 1.4461 14.463 1.31512L13.713 0.491277C13.5936 0.361987 13.4279 0.285155 13.252 0.277537C13.0762 0.269918 12.9045 0.332132 12.7744 0.45061C12.6442 0.569087 12.5662 0.734216 12.5574 0.909983C12.5485 1.08575 12.6095 1.25789 12.727 1.38887L13.477 2.21271ZM10.5339 8.74996H11.7006C11.8774 8.74996 12.047 8.67972 12.172 8.5547C12.297 8.42967 12.3673 8.2601 12.3673 8.08329C12.3673 7.90647 12.297 7.7369 12.172 7.61188C12.047 7.48685 11.8774 7.41661 11.7006 7.41661H10.5339C10.3571 7.41661 10.1875 7.48685 10.0625 7.61188C9.93748 7.7369 9.86724 7.90647 9.86724 8.08329C9.86724 8.2601 9.93748 8.42967 10.0625 8.5547C10.1875 8.67972 10.3571 8.74996 10.5339 8.74996ZM13.5586 13.5826L12.8626 14.2786C12.8007 14.3405 12.7516 14.414 12.7181 14.4949C12.6846 14.5758 12.6673 14.6624 12.6673 14.75C12.6673 14.8375 12.6846 14.9242 12.7181 15.0051C12.7516 15.086 12.8007 15.1595 12.8626 15.2214C12.9245 15.2833 12.998 15.3324 13.0789 15.3659C13.1598 15.3994 13.2464 15.4166 13.334 15.4166C13.4215 15.4166 13.5082 15.3994 13.5891 15.3659C13.67 15.3324 13.7435 15.2833 13.8054 15.2214L14.5014 14.5254C14.5633 14.4635 14.6124 14.39 14.6459 14.3091C14.6794 14.2282 14.6967 14.1415 14.6967 14.054C14.6967 13.9664 14.6794 13.8797 14.6459 13.7989C14.6124 13.718 14.5633 13.6445 14.5014 13.5826C14.3764 13.4576 14.2068 13.3874 14.03 13.3874C13.8532 13.3874 13.6836 13.4576 13.5586 13.5826ZM30.0978 2.43063C30.279 2.43063 30.4594 2.3573 30.591 2.2128L31.341 1.38895C31.46 1.25821 31.5222 1.08554 31.514 0.908927C31.5057 0.732314 31.4276 0.566224 31.2968 0.447193C31.2321 0.388238 31.1564 0.342613 31.074 0.312925C30.9917 0.283237 30.9043 0.270068 30.8168 0.274169C30.7293 0.278271 30.6436 0.299563 30.5643 0.336829C30.4851 0.374096 30.414 0.426606 30.3551 0.49136L29.6051 1.3152C29.2143 1.74421 29.5244 2.43063 30.0978 2.43063ZM32.3675 8.74996H33.5342C33.711 8.74996 33.8806 8.67972 34.0056 8.5547C34.1306 8.42967 34.2009 8.2601 34.2009 8.08329C34.2009 7.90647 34.1306 7.7369 34.0056 7.61188C33.8806 7.48685 33.711 7.41661 33.5342 7.41661H32.3675C32.1907 7.41661 32.0211 7.48685 31.8961 7.61188C31.7711 7.7369 31.7008 7.90647 31.7008 8.08329C31.7008 8.2601 31.7711 8.42967 31.8961 8.5547C32.0211 8.67972 32.1907 8.74996 32.3675 8.74996ZM30.5094 13.5826C30.3844 13.4576 30.2148 13.3874 30.038 13.3874C29.8612 13.3874 29.6917 13.4576 29.5667 13.5826C29.5047 13.6445 29.4556 13.718 29.4221 13.7989C29.3886 13.8797 29.3713 13.9664 29.3713 14.054C29.3713 14.1415 29.3886 14.2282 29.4221 14.3091C29.4556 14.39 29.5047 14.4635 29.5667 14.5254L30.2627 15.2214C30.3245 15.2834 30.398 15.3325 30.4789 15.3661C30.5598 15.3996 30.6465 15.4167 30.7341 15.4166C31.3226 15.4166 31.6268 14.6998 31.2055 14.2785L30.5094 13.5826Z"/>
            </g>
        </symbol>
        <symbol id="toDoList" viewBox="0 0 40 40">
            <title>toDoList</title>
            <g>
                <path d="M33.9788 34.2553C33.802 34.2553 33.6325 34.3256 33.5074 34.4506C33.3824 34.5756 33.3122 34.7452 33.3122 34.922V38C33.3122 38.3676 33.0131 38.6667 32.6455 38.6667H3.14551C2.77792 38.6667 2.47884 38.3676 2.47884 38V11.1667C2.47884 10.9899 2.4086 10.8203 2.28358 10.6953C2.15855 10.5702 1.98899 10.5 1.81217 10.5C1.63536 10.5 1.46579 10.5702 1.34077 10.6953C1.21575 10.8203 1.14551 10.9899 1.14551 11.1667V38C1.14551 39.1028 2.04276 40 3.14551 40H32.6455C33.7483 40 34.6455 39.1028 34.6455 38V34.922C34.6455 34.7452 34.5753 34.5756 34.4502 34.4506C34.3252 34.3256 34.1557 34.2553 33.9788 34.2553Z"/>
                <path d="M37.2648 3.96733C35.1766 3.5235 35.0859 3.468 34.6453 3.5225V2C34.6453 0.897167 33.7481 0 32.6453 0H8.22864C8.05183 1.18621e-05 7.88226 0.0702427 7.75723 0.19525C0.750058 7.20133 1.27006 6.65033 1.19623 6.828C1.04073 7.20425 1.25723 7.63058 1.64873 7.729C1.76823 7.75917 1.32773 7.75 6.89531 7.75C7.99806 7.75 8.89531 6.85275 8.89531 5.75V4.7715C8.89531 4.59469 8.82507 4.42512 8.70005 4.3001C8.57502 4.17507 8.40545 4.10483 8.22864 4.10483C8.05183 4.10483 7.88226 4.17507 7.75724 4.3001C7.63221 4.42512 7.56198 4.59469 7.56198 4.7715V5.75C7.56198 6.11758 7.26289 6.41667 6.89531 6.41667H3.42148L8.50481 1.33333H32.6454C33.013 1.33333 33.3121 1.63242 33.3121 2V4.28467C33.1275 4.52196 32.9991 4.79798 32.9365 5.092L27.6737 29.8511C27.5983 30.2055 27.5812 30.5699 27.6233 30.9298L28.017 34.3106C28.2201 36.0537 30.5207 36.5432 31.4153 35.0328L33.15 32.1045C33.4782 31.5505 33.537 31.1299 33.6768 30.4672C33.753 30.1063 33.523 29.7528 33.1633 29.6763L31.5911 29.3421C31.4181 29.3053 31.2376 29.3388 31.0893 29.4351C30.9411 29.5314 30.8371 29.6827 30.8004 29.8556C30.7636 30.0286 30.7971 30.2091 30.8934 30.3573C30.9897 30.5056 31.1409 30.6096 31.3139 30.6463L32.2333 30.8418C32.1255 31.283 32.221 31.0558 30.2681 34.3533C30.025 34.7638 29.397 34.6337 29.3413 34.1562L28.9476 30.7755C28.9224 30.5596 28.9326 30.341 28.9779 30.1283L34.2406 5.36917C34.2588 5.28351 34.2937 5.20227 34.3432 5.13009C34.3928 5.05792 34.4561 4.99622 34.5295 4.94853C34.603 4.90084 34.6851 4.86809 34.7712 4.85215C34.8573 4.83622 34.9457 4.83741 35.0313 4.85567L36.9876 5.2715C37.0733 5.28966 37.1545 5.32453 37.2267 5.37411C37.2989 5.42369 37.3606 5.48701 37.4083 5.56045C37.4559 5.63389 37.4887 5.71601 37.5046 5.80211C37.5205 5.88822 37.5193 5.97661 37.5011 6.06225L33.2824 25.9097C33.2456 26.0826 33.2791 26.2631 33.3754 26.4113C33.4717 26.5596 33.623 26.6636 33.7959 26.7003C33.8815 26.7186 33.9699 26.7197 34.056 26.7038C34.1421 26.6878 34.2242 26.6551 34.2976 26.6074C34.371 26.5597 34.4343 26.498 34.4839 26.4259C34.5335 26.3537 34.5684 26.2725 34.5866 26.1868L38.8052 6.33958C39.0351 5.25825 38.3462 4.19725 37.2648 3.96733Z"/>
                <path d="M8.39518 10.5833C6.92477 10.5833 5.72852 11.7796 5.72852 13.25C5.72852 14.7204 6.92477 15.9167 8.39518 15.9167C9.8656 15.9167 11.0618 14.7204 11.0618 13.25C11.0618 11.7796 9.8656 10.5833 8.39518 10.5833ZM8.39518 14.5833C7.66002 14.5833 7.06185 13.9852 7.06185 13.25C7.06185 12.5148 7.66002 11.9167 8.39518 11.9167C9.13035 11.9167 9.72852 12.5148 9.72852 13.25C9.72852 13.9852 9.13035 14.5833 8.39518 14.5833ZM8.39518 25.0833C9.8656 25.0833 11.0618 23.8871 11.0618 22.4167C11.0618 20.9463 9.8656 19.75 8.39518 19.75C6.92477 19.75 5.72852 20.9463 5.72852 22.4167C5.72852 23.8871 6.92485 25.0833 8.39518 25.0833ZM8.39518 21.0833C9.13035 21.0833 9.72852 21.6815 9.72852 22.4167C9.72852 23.1518 9.13035 23.75 8.39518 23.75C7.66002 23.75 7.06185 23.1518 7.06185 22.4167C7.06185 21.6815 7.66002 21.0833 8.39518 21.0833ZM10.6805 29.6268L7.98927 32.318L7.19993 31.5287C7.07466 31.4049 6.90549 31.3357 6.72938 31.3362C6.55327 31.3368 6.38453 31.407 6.25999 31.5315C6.13546 31.656 6.06526 31.8247 6.06471 32.0009C6.06417 32.177 6.13333 32.3461 6.2571 32.4714L7.51785 33.7322C7.57976 33.7941 7.65325 33.8432 7.73414 33.8767C7.81502 33.9102 7.90171 33.9274 7.98927 33.9274C8.07682 33.9274 8.16351 33.9102 8.2444 33.8767C8.32528 33.8432 8.39878 33.7941 8.46068 33.7322L11.6233 30.5695C11.6859 30.5077 11.7356 30.4342 11.7696 30.3532C11.8036 30.2721 11.8212 30.1851 11.8215 30.0973C11.8217 30.0094 11.8046 29.9223 11.7711 29.8411C11.7376 29.7598 11.6883 29.686 11.6262 29.6238C11.564 29.5617 11.4902 29.5125 11.409 29.4789C11.3277 29.4454 11.2406 29.4283 11.1527 29.4286C11.0649 29.4289 10.9779 29.4465 10.8968 29.4805C10.8158 29.5145 10.7423 29.5642 10.6805 29.6268ZM27.7285 10.5H14.0618C13.885 10.5 13.7155 10.5702 13.5904 10.6953C13.4654 10.8203 13.3952 10.9899 13.3952 11.1667C13.3952 11.3435 13.4654 11.513 13.5904 11.6381C13.7155 11.7631 13.885 11.8333 14.0618 11.8333H27.7285C27.9053 11.8333 28.0749 11.7631 28.1999 11.6381C28.3249 11.513 28.3952 11.3435 28.3952 11.1667C28.3952 10.9899 28.3249 10.8203 28.1999 10.6953C28.0749 10.5702 27.9053 10.5 27.7285 10.5ZM28.3952 15.3333C28.3952 15.1565 28.3249 14.987 28.1999 14.8619C28.0749 14.7369 27.9053 14.6667 27.7285 14.6667H14.0618C13.885 14.6667 13.7155 14.7369 13.5904 14.8619C13.4654 14.987 13.3952 15.1565 13.3952 15.3333C13.3952 15.5101 13.4654 15.6797 13.5904 15.8047C13.7155 15.9298 13.885 16 14.0618 16H27.7285C27.9053 16 28.0749 15.9298 28.1999 15.8047C28.3249 15.6797 28.3952 15.5101 28.3952 15.3333ZM28.0618 20.3333C28.0618 20.1565 27.9916 19.987 27.8666 19.8619C27.7416 19.7369 27.572 19.6667 27.3952 19.6667H14.0618C13.885 19.6667 13.7155 19.7369 13.5904 19.8619C13.4654 19.987 13.3952 20.1565 13.3952 20.3333C13.3952 20.5101 13.4654 20.6797 13.5904 20.8047C13.7155 20.9298 13.885 21 14.0618 21H27.3952C27.572 21 27.7416 20.9298 27.8666 20.8047C27.9916 20.6797 28.0618 20.5101 28.0618 20.3333ZM26.7285 24.5C26.7285 24.3232 26.6583 24.1536 26.5333 24.0286C26.4082 23.9036 26.2387 23.8333 26.0618 23.8333H14.0618C13.885 23.8333 13.7155 23.9036 13.5904 24.0286C13.4654 24.1536 13.3952 24.3232 13.3952 24.5C13.3952 24.6768 13.4654 24.8464 13.5904 24.9714C13.7155 25.0964 13.885 25.1667 14.0618 25.1667H26.0618C26.2387 25.1667 26.4082 25.0964 26.5333 24.9714C26.6583 24.8464 26.7285 24.6768 26.7285 24.5ZM27.3952 5.5H11.5618C11.385 5.5 11.2155 5.57024 11.0904 5.69526C10.9654 5.82029 10.8952 5.98986 10.8952 6.16667C10.8952 6.34348 10.9654 6.51305 11.0904 6.63807C11.2155 6.7631 11.385 6.83333 11.5618 6.83333H27.3952C27.572 6.83333 27.7416 6.7631 27.8666 6.63807C27.9916 6.51305 28.0618 6.34348 28.0618 6.16667C28.0618 5.98986 27.9916 5.82029 27.8666 5.69526C27.7416 5.57024 27.572 5.5 27.3952 5.5ZM14.0618 33C13.885 33 13.7155 33.0702 13.5904 33.1953C13.4654 33.3203 13.3952 33.4899 13.3952 33.6667C13.3952 33.8435 13.4654 34.0131 13.5904 34.1381C13.7155 34.2631 13.885 34.3333 14.0618 34.3333H23.1452C23.322 34.3333 23.4916 34.2631 23.6166 34.1381C23.7416 34.0131 23.8118 33.8435 23.8118 33.6667C23.8118 33.4899 23.7416 33.3203 23.6166 33.1953C23.4916 33.0702 23.322 33 23.1452 33H14.0618ZM25.4785 29.5C25.4785 29.3232 25.4083 29.1536 25.2833 29.0286C25.1582 28.9036 24.9887 28.8333 24.8118 28.8333H14.0618C13.885 28.8333 13.7155 28.9036 13.5904 29.0286C13.4654 29.1536 13.3952 29.3232 13.3952 29.5C13.3952 29.6768 13.4654 29.8464 13.5904 29.9714C13.7155 30.0964 13.885 30.1667 14.0618 30.1667H24.8118C24.9887 30.1667 25.1582 30.0964 25.2833 29.9714C25.4083 29.8464 25.4785 29.6768 25.4785 29.5Z"/>
            </g>
        </symbol>
        <symbol id="fistFire" viewBox="0 0 40 40">
            <title>fistFire</title>
            <g>
                <path d="M15.3474 12.1247C15.9543 12.1749 16.1832 12.9647 15.6892 13.3207C15.1682 13.696 14.8474 14.3148 14.8474 14.9764V17.6664H13.1807V14.143C13.1807 12.9998 14.1285 12.0239 15.3474 12.1247ZM19.2263 11.4168C20.0512 11.4348 20.3069 12.5201 19.5931 12.9339C19.0047 13.2749 18.5973 13.9093 18.5973 14.6588V18.3664C18.5126 18.1592 18.3681 17.982 18.1823 17.8574C17.9965 17.7327 17.7777 17.6662 17.554 17.6663H17.1806V13.4088C17.1807 12.3167 18.0712 11.3915 19.2263 11.4168ZM23.4129 12.1364C23.9616 12.2135 24.0952 12.947 23.622 13.235C23.0546 13.5804 22.6808 14.2045 22.6808 14.9088V17.8872C22.6844 18.4568 21.9813 18.72 21.6212 18.2788C21.3357 17.9296 21.18 17.4923 21.1808 17.0413V14.0755C21.1808 12.8867 22.2328 11.9705 23.4129 12.1364ZM27.5281 13.4325C27.9359 13.5721 27.9425 14.1424 27.5462 14.3119C26.9008 14.588 26.4308 15.2281 26.4308 15.9997C26.4308 15.9997 26.4316 19.1426 26.433 19.1725C26.4539 19.6038 25.9422 19.8525 25.6366 19.5476C25.4655 19.3774 25.3297 19.175 25.2372 18.9521C25.1447 18.7292 25.0972 18.4902 25.0975 18.2488V15.1663C25.0975 13.914 26.3293 13.022 27.5281 13.4325Z"/>
                <path d="M26.5349 20.0398C25.7053 19.8585 25.0965 19.1179 25.0965 18.2489V17.0414C25.0965 18.1275 24.2154 18.9998 23.1381 18.9998C22.0636 18.9998 21.1798 18.1296 21.1798 17.0414V17.1239C21.1798 18.0489 20.5664 18.8366 19.7554 19.0812C19.9154 19.0302 20.0179 18.8745 20.0108 18.7061C19.9522 17.3235 18.8183 16.333 17.5531 16.333C17.4541 16.333 17.3591 16.3723 17.2891 16.4424C17.2191 16.5124 17.1797 16.6073 17.1797 16.7063C17.1797 16.6073 17.1404 16.5124 17.0704 16.4424C17.0004 16.3723 16.9054 16.333 16.8064 16.333H13.553C13.454 16.333 13.3591 16.3723 13.289 16.4424C13.219 16.5124 13.1797 16.6073 13.1797 16.7063V17.6664H17.1797C17.5578 17.6664 17.8587 17.6336 18.1831 17.8589C18.3262 17.9543 18.4518 18.0889 18.5439 18.2555C18.6931 18.529 18.6953 18.7911 18.6648 19.1014C18.5133 20.7071 17.1551 21.9997 15.473 21.9997H14.8544C14.668 21.9997 14.6213 22.2613 14.7971 22.3229C16.766 23.0128 18.2728 24.7149 18.3323 26.8073C18.3414 27.1448 18.5948 27.4248 18.9306 27.459H18.9314C19.3273 27.499 19.6756 27.1856 19.6656 26.7873C19.6314 25.3706 19.0848 24.0273 18.1206 22.9348C17.9897 22.7864 18.0122 22.5598 18.1714 22.4423C18.8539 21.9363 19.3812 21.2496 19.6938 20.4597C20.1767 20.3877 20.728 20.1941 21.2681 19.7489C22.2087 20.4008 23.3776 20.4921 24.3607 20.0981C25.3112 21.4203 27.0651 21.7713 28.421 21.045C28.6342 20.9308 28.7632 20.7041 28.7632 20.4622V18.2497C28.7632 19.4685 27.6019 20.3066 26.5349 20.0398Z"/>
                <path d="M35.1286 12.6289C34.4862 11.5014 33.0301 11.3553 32.2048 12.3278C31.6297 8.01149 29.4719 4.42811 26.4513 2.28183C25.4261 1.55333 24.0224 2.09592 23.6693 3.3911C22.893 2.27442 21.9882 1.29116 20.9671 0.455978C19.8816 -0.431866 18.2272 0.0326397 17.7664 1.36599C17.459 2.25525 17.0012 3.06209 16.4004 3.77527C16.3902 3.72074 16.3805 3.66609 16.3714 3.61135C16.1344 2.18175 14.6388 1.50207 13.5414 2.28183C10.5209 4.42811 8.36317 8.01066 7.78792 12.3278C6.95974 11.3519 5.50455 11.5048 4.86421 12.629C0.944163 19.5102 2.83244 27.9042 8.77093 32.2637C8.8415 32.3155 8.92159 32.3529 9.00662 32.3738C9.09165 32.3946 9.17995 32.3985 9.26649 32.3853C9.35303 32.372 9.4361 32.3418 9.51098 32.2964C9.58585 32.251 9.65105 32.1914 9.70286 32.1208C9.80749 31.9783 9.85123 31.8 9.82444 31.6252C9.79766 31.4505 9.70254 31.2935 9.56002 31.1889C4.03904 27.1358 2.51835 19.4405 6.02273 13.2889C6.21056 12.9592 6.57007 12.9126 6.7994 13.2261C7.11316 13.6555 7.51383 14.0155 7.99025 14.2961C8.42101 14.5499 8.96885 14.2552 8.99443 13.7556C9.21385 9.46251 11.2025 5.57946 14.3138 3.3686C14.6368 3.13926 14.9898 3.42893 15.0562 3.82935C15.1388 4.3283 15.2629 4.81948 15.4273 5.29779C15.5818 5.74654 16.1455 5.8958 16.5014 5.57812C17.6718 4.53386 18.5214 3.26326 19.0266 1.80141C19.1837 1.34691 19.7509 1.18357 20.1231 1.48791C21.4108 2.54117 22.4971 3.8586 23.3519 5.40337C23.6309 5.9078 24.3779 5.84255 24.5655 5.29779C24.7298 4.8195 24.854 4.32831 24.9366 3.82935C25.0042 3.4221 25.3605 3.14218 25.679 3.36851C28.7903 5.57938 30.7789 9.46234 30.9984 13.7556C31.0239 14.2548 31.5711 14.5498 32.0026 14.296C32.4789 14.0154 32.8795 13.6554 33.1933 13.2261C33.422 12.913 33.7819 12.9586 33.97 13.2888C38.3534 20.9835 34.6943 30.2578 27.1806 32.9078C27.1806 31.0654 27.0889 30.6321 28.2226 28.5776C28.7888 27.5515 29.4306 26.3885 29.4306 24.6819V15.997C29.4306 15.8202 29.3604 15.6506 29.2353 15.5256C29.1103 15.4006 28.9407 15.3303 28.7639 15.3303C28.5871 15.3303 28.4175 15.4006 28.2925 15.5256C28.1675 15.6506 28.0973 15.8202 28.0973 15.997V18.2497C28.0973 18.893 27.5739 19.4164 26.9306 19.4164C26.2872 19.4164 25.7639 18.8928 25.7639 18.2491V15.1664C25.7639 14.5231 26.2872 13.9996 26.9306 13.9996C27.1074 13.9996 27.277 13.9294 27.402 13.8044C27.527 13.6794 27.5972 13.5098 27.5972 13.333C27.5972 13.1562 27.527 12.9866 27.402 12.8616C27.277 12.7365 27.1074 12.6663 26.9306 12.6663C26.4452 12.6659 25.9704 12.8076 25.5647 13.074C24.888 11.4414 22.8252 10.927 21.4654 12.055C20.4119 10.2924 17.9076 10.3371 16.8851 12.0573C16.3385 11.611 15.628 11.3954 14.9127 11.4633C13.5675 11.5909 12.5137 12.768 12.5137 14.1431C12.5137 14.3199 12.584 14.4895 12.709 14.6145C12.834 14.7395 13.0036 14.8097 13.1804 14.8097C13.3572 14.8097 13.5268 14.7395 13.6518 14.6145C13.7768 14.4895 13.8471 14.3199 13.8471 14.1431C13.8471 13.4481 14.3705 12.854 15.0387 12.7906C15.8214 12.7165 16.5138 13.2969 16.5138 14.0771V16.9996H11.3974C10.083 16.9996 9.01368 18.0689 9.01368 19.3833V24.4719C9.01368 26.7118 10.0985 27.9417 11.0556 29.0268C11.9721 30.0659 12.7637 30.9633 12.7637 32.698V39.3332C12.7637 39.51 12.834 39.6796 12.959 39.8046C13.084 39.9296 13.2536 39.9999 13.4304 39.9999C13.6072 39.9999 13.7768 39.9296 13.9018 39.8046C14.0268 39.6796 14.0971 39.51 14.0971 39.3332V32.698C14.0971 30.4592 13.0125 29.2296 12.0556 28.1448C11.1388 27.1055 10.347 26.2078 10.347 24.4719V19.3833C10.347 18.8041 10.8182 18.333 11.3974 18.333H17.5537C17.6757 18.3331 17.7926 18.3816 17.8789 18.4679C17.9651 18.5541 18.0136 18.6711 18.0138 18.793C18.0138 20.1936 16.8744 21.333 15.4738 21.333H13.1621C12.9866 21.3342 12.8185 21.4046 12.6945 21.5289C12.5705 21.6533 12.5006 21.8215 12.4999 21.9971C12.4993 22.1727 12.5679 22.3415 12.6909 22.4668C12.814 22.5921 12.9815 22.6637 13.1571 22.6663C15.6886 22.6857 17.9023 24.8313 17.6478 27.3283C17.6389 27.4154 17.6473 27.5034 17.6724 27.5873C17.6975 27.6711 17.7389 27.7492 17.7943 27.8171C17.8496 27.885 17.9177 27.9413 17.9948 27.9828C18.0719 28.0243 18.1564 28.0503 18.2435 28.0592C18.3306 28.068 18.4186 28.0597 18.5024 28.0345C18.5863 28.0094 18.6644 27.968 18.7323 27.9127C18.8001 27.8574 18.8564 27.7892 18.898 27.7122C18.9395 27.6351 18.9654 27.5506 18.9743 27.4635C19.1769 25.4757 18.2283 23.6386 16.6444 22.4855C18.2097 21.9881 19.3471 20.5208 19.3471 18.793C19.3471 17.9042 18.6966 17.1664 17.8471 17.0257V13.4086C17.8471 12.6775 18.4453 12.0828 19.1805 12.0828C19.9156 12.0828 20.5138 12.692 20.5138 13.4407V17.0412C20.5138 18.1994 21.2568 19.2075 22.3627 19.5494C22.7158 19.6586 23.0882 19.4599 23.1965 19.1094C23.2488 18.9405 23.2317 18.7577 23.1492 18.6014C23.0667 18.445 22.9255 18.3278 22.7566 18.2755C22.2128 18.1074 21.8473 17.6113 21.8473 17.0412V14.0756C21.8473 13.3634 22.4267 12.784 23.1389 12.784C23.8512 12.784 24.4306 13.3634 24.4306 14.0756V18.249C24.4306 20.1304 26.4412 21.3374 28.0973 20.4596V24.6818C28.0973 27.4913 25.8473 28.5711 25.8473 31.8287V39.333C25.8473 39.5099 25.9175 39.6794 26.0426 39.8045C26.1676 39.9295 26.3372 39.9997 26.514 39.9997C26.6908 39.9997 26.8604 39.9295 26.9854 39.8045C27.1104 39.6794 27.1807 39.5099 27.1807 39.333V34.3133C35.7769 31.6024 40.0085 21.195 35.1286 12.6289Z"/>
            </g>
        </symbol>
        <symbol id="protection" viewBox="0 0 40 40">
            <title>protection</title>
            <g>
                <path d="M40 10.7023V13.9712C40 25.4468 32.197 35.7658 20.2694 39.9544C20.0962 40.0152 19.9038 40.0152 19.7306 39.9544C7.84795 35.7812 0 25.4897 0 13.9711V10.7351C0 9.45849 0.998129 8.35441 2.37352 8.10974C4.88237 7.66341 7.08999 6.11783 8.27893 3.97541C8.32175 3.89612 8.38163 3.82526 8.45509 3.76693C8.52855 3.7086 8.61415 3.66395 8.70691 3.63558C8.79968 3.60721 8.89778 3.59567 8.99554 3.60163C9.0933 3.60759 9.18877 3.63094 9.27644 3.67032C9.3641 3.7097 9.44221 3.76433 9.50625 3.83105C9.57029 3.89777 9.61899 3.97525 9.64952 4.05901C9.68006 4.14277 9.69182 4.23115 9.68414 4.31904C9.67646 4.40692 9.64948 4.49256 9.60477 4.571C8.21243 7.07999 5.61661 8.89182 2.66094 9.41774C1.97783 9.53924 1.48191 10.0932 1.48191 10.7351V13.9711C1.48191 24.8431 8.83014 34.5813 20 38.6163C31.2598 34.5511 38.518 24.9061 38.518 13.9711V10.7022C38.518 10.0707 38.0311 9.51966 37.3602 9.39207C33.633 8.68332 30.3899 5.92899 29.564 2.40175C29.4191 1.78266 28.8085 1.33333 28.1123 1.33333H11.8927C11.6962 1.33333 11.5077 1.26309 11.3687 1.13807C11.2298 1.01305 11.1517 0.843477 11.1517 0.666666C11.1517 0.489855 11.2298 0.320286 11.3687 0.195262C11.5077 0.0702378 11.6962 0 11.8927 0L28.1123 0C29.5052 0 30.7257 0.894499 31.0142 2.12691C31.6918 5.02049 34.4274 7.47166 37.6667 8.08757C39.0187 8.34466 40 9.44432 40 10.7023ZM24.1105 16.6734L19.1144 21.1683L17.2321 19.4747C17.0928 19.351 16.9048 19.2818 16.7091 19.2823C16.5133 19.2828 16.3258 19.353 16.1873 19.4775C16.0489 19.6021 15.9709 19.7708 15.9703 19.9469C15.9697 20.123 16.0466 20.2922 16.1841 20.4175C18.7717 22.7455 18.7045 22.7777 19.1145 22.7777C19.311 22.7777 19.4995 22.7075 19.6385 22.5825L25.1587 17.6161C25.2976 17.4911 25.3757 17.3216 25.3757 17.1448C25.3757 16.968 25.2976 16.7984 25.1587 16.6734C25.0197 16.5484 24.8312 16.4781 24.6346 16.4781C24.438 16.4781 24.2495 16.5484 24.1105 16.6734ZM28.8546 11.6859C29.0039 11.8009 29.1979 11.8578 29.3938 11.8441C29.5897 11.8304 29.7716 11.7472 29.8994 11.6129C30.0272 11.4786 30.0904 11.3041 30.0752 11.1278C30.06 10.9515 29.9676 10.7879 29.8183 10.6729C28.5452 9.69339 27.454 8.53735 26.5858 7.24841C25.9112 6.24691 24.6926 5.62474 23.4057 5.62474H16.5943C15.3073 5.62474 14.0888 6.24691 13.4142 7.24841C12.1784 9.08282 10.4653 10.6656 8.46011 11.8255C7.38778 12.4457 6.74765 13.496 6.74765 14.6349V15.4081C6.74765 22.9595 11.8819 29.7494 19.7306 32.5055C19.9039 32.5664 20.0963 32.5664 20.2696 32.5055C24.1113 31.1559 27.3712 28.8239 29.697 25.7616C32.8313 21.6319 33.2584 17.826 33.2628 14.6477C33.2629 14.5602 33.2439 14.4735 33.2068 14.3925C33.1696 14.3116 33.1152 14.2381 33.0464 14.1761C32.9777 14.1141 32.8961 14.0649 32.8062 14.0313C32.7164 13.9977 32.62 13.9803 32.5227 13.9802C32.4254 13.9801 32.329 13.9973 32.2391 14.0307C32.1492 14.0641 32.0674 14.1131 31.9985 14.1749C31.9296 14.2367 31.8749 14.3102 31.8376 14.391C31.8002 14.4719 31.7809 14.5585 31.7808 14.6461C31.7766 17.6211 31.3805 21.1791 28.4733 25.0096C26.3711 27.7775 23.4457 29.9021 20 31.1669C12.8395 28.5416 8.22956 22.3846 8.22956 15.4082V14.635C8.22956 13.9518 8.61535 13.3208 9.2615 12.9471C11.4553 11.678 13.3295 9.94649 14.6816 7.93958C15.0956 7.32499 15.8106 6.95816 16.5943 6.95816H23.4057C24.1894 6.95816 24.9045 7.32508 25.3184 7.93958C26.2682 9.34962 27.4619 10.6143 28.8546 11.6859Z"/>
            </g>
        </symbol>
        <symbol id="timer" viewBox="0 0 40 40">
            <title>timer</title>
            <g>
                <path d="M20.4893 40C9.46712 40 0.5 32.6729 0.5 23.6667C0.5 16.8708 5.61347 10.8327 13.3142 8.41758C11.4647 4.31592 15.2023 0 20.4893 0C25.7689 0 29.5129 4.3085 27.6662 8.41325C29.9981 9.145 32.1549 10.2381 34.0344 11.656L35.2975 10.6239L34.8999 10.299C34.7469 10.174 34.6609 10.0044 34.6609 9.82758C34.6609 9.65077 34.7469 9.48119 34.8999 9.35617C35.0529 9.23114 35.2604 9.1609 35.4768 9.1609C35.6932 9.1609 35.9007 9.23114 36.0537 9.35617L38.0029 10.9488C38.1559 11.0739 38.2419 11.2434 38.2419 11.4202C38.2419 11.5971 38.1559 11.7666 38.0029 11.8917C37.8499 12.0167 37.6424 12.0869 37.426 12.0869C37.2096 12.0869 37.002 12.0167 36.849 11.8917L36.4514 11.5667C34.4809 13.1768 34.4915 13.2553 34.0469 13.2553C33.9397 13.2554 33.8336 13.2382 33.7345 13.2047C33.6355 13.1712 33.5456 13.122 33.4699 13.06C29.9545 10.1875 25.3163 8.66667 20.4893 8.66667C20.2729 8.66667 20.0653 8.59643 19.9123 8.47141C19.7593 8.34638 19.6734 8.17681 19.6734 8V5.41667H18.2456C18.0292 5.41667 17.8216 5.34643 17.6686 5.2214C17.5156 5.09638 17.4297 4.92681 17.4297 4.75C17.4297 4.57319 17.5156 4.40362 17.6686 4.2786C17.8216 4.15357 18.0292 4.08333 18.2456 4.08333H22.7329C22.9493 4.08333 23.1569 4.15357 23.3099 4.2786C23.4629 4.40362 23.5488 4.57319 23.5488 4.75C23.5488 4.92681 23.4629 5.09638 23.3099 5.2214C23.1569 5.34643 22.9493 5.41667 22.7329 5.41667H21.3051V7.34775C22.9548 7.40158 24.5688 7.61808 26.1197 7.988C27.6048 4.78883 24.6945 1.33333 20.4893 1.33333C17.1714 1.33333 14.4721 3.539 14.4721 6.25C14.4721 7.549 15.0791 8.35425 15.178 8.57775C15.334 8.93108 15.102 9.31733 14.6696 9.43583C7.17029 11.4825 2.13178 17.2014 2.13178 23.6667C2.13178 31.9377 10.3669 38.6667 20.4893 38.6667C34.1125 38.6667 43.032 26.8784 36.8932 16.9256C36.7958 16.7677 36.7792 16.5846 36.847 16.4167C36.9148 16.2488 37.0614 16.1098 37.2546 16.0302C37.4479 15.9506 37.6719 15.9371 37.8774 15.9925C38.0829 16.0479 38.253 16.1676 38.3505 16.3255C45.0253 27.1483 35.3435 40 20.4893 40ZM35.7871 23.6667C35.7871 30.5592 28.9245 36.1667 20.4893 36.1667C12.054 36.1667 5.19135 30.5592 5.19135 23.6667C5.19135 16.7742 12.054 11.1667 20.4893 11.1667C28.9245 11.1667 35.7871 16.7742 35.7871 23.6667ZM34.1554 23.6667C34.1554 17.5093 28.0248 12.5 20.4893 12.5C12.9537 12.5 6.82313 17.5093 6.82313 23.6667C6.82313 29.824 12.9537 34.8333 20.4893 34.8333C28.0248 34.8333 34.1554 29.824 34.1554 23.6667ZM23.0389 23C22.8225 23 22.615 23.0702 22.462 23.1953C22.309 23.3203 22.223 23.4899 22.223 23.6667C22.223 24.4478 21.4453 25.0833 20.4893 25.0833C19.5332 25.0833 18.7555 24.4478 18.7555 23.6667C18.7555 22.8855 19.5332 22.25 20.4893 22.25C20.7056 22.25 20.9132 22.1798 21.0662 22.0547C21.2192 21.9297 21.3051 21.7601 21.3051 21.5833V16.1667C21.3051 15.9899 21.2192 15.8203 21.0662 15.6953C20.9132 15.5702 20.7056 15.5 20.4893 15.5C20.2729 15.5 20.0653 15.5702 19.9123 15.6953C19.7593 15.8203 19.6734 15.9899 19.6734 16.1667V20.9988C18.2106 21.2976 17.1237 22.3803 17.1237 23.6667C17.1237 25.183 18.6335 26.4167 20.4893 26.4167C23.6814 26.4167 24.7769 23 23.0389 23Z"/>
            </g>
        </symbol>
        <symbol id="internet" viewBox="0 0 40 40">
            <title>internet</title>
            <g>
                <path d="M34.1389 5.86278C26.351 -1.92533 13.7086 -1.98314 5.86281 5.86278C-1.95137 13.677 -1.95196 26.3242 5.86281 34.139C13.6695 41.9458 26.3166 41.9614 34.1389 34.139C41.9532 26.3247 41.9538 13.6776 34.1389 5.86278ZM20.6673 19.3344V6.6713C20.6673 6.49454 20.5971 6.32502 20.4721 6.20003C20.3471 6.07504 20.1776 6.00483 20.0009 6.00483C19.8241 6.00483 19.6546 6.07504 19.5296 6.20003C19.4046 6.32502 19.3344 6.49454 19.3344 6.6713V19.3344H9.59808C9.74537 14.5059 11.4932 10.0697 14.8002 6.1407C16.9831 3.54711 19.1772 1.99555 20.0009 1.45912C20.8245 1.99547 23.0186 3.54703 25.2015 6.1407C28.5086 10.0697 30.2563 14.5058 30.4036 19.3344H20.6673ZM30.4034 20.6673C30.1844 27.8398 26.2257 34.0614 20.6674 38.0788V20.6673H30.4034ZM17.7027 1.48112C12.1852 5.83554 8.47598 12.1085 8.26413 19.3344H1.35277C1.67784 10.1236 8.70925 2.59055 17.7027 1.48112ZM1.35277 20.6673H8.26554C8.42175 25.9623 10.4183 30.6781 13.7127 34.6281C13.8267 34.7611 13.9885 34.8439 14.1631 34.8585C14.3377 34.8731 14.5111 34.8183 14.6456 34.7061C14.7802 34.5939 14.8651 34.4332 14.8821 34.2588C14.8991 34.0844 14.8467 33.9104 14.7364 33.7743C11.4703 29.8582 9.7447 25.4519 9.59858 20.6673H19.3346V38.649C9.5735 38.3044 1.69725 30.4283 1.35277 20.6673ZM22.2958 38.521C27.819 34.1536 31.5237 27.8765 31.7363 20.6673H34.3302C34.5069 20.6673 34.6765 20.5971 34.8015 20.4721C34.9264 20.3471 34.9967 20.1776 34.9967 20.0008C34.9967 19.8241 34.9264 19.6546 34.8015 19.5296C34.6765 19.4046 34.5069 19.3344 34.3302 19.3344H31.7377C31.5251 12.0833 27.7778 5.8048 22.299 1.48103C31.5086 2.61721 38.6622 10.489 38.6622 20.0008C38.6622 29.5139 31.5069 37.3863 22.2958 38.521Z"/>
            </g>
        </symbol>
    </defs>
</svg>