<svg width="24" height="24" viewBox="0 0 24 24" fill="none" xmlns="http://www.w3.org/2000/svg">
    <path fill-rule="evenodd" clip-rule="evenodd"
          d="M2.91674 2.93548C3.2437 2.60862 3.68709 2.425 4.14942 2.425C4.61174 2.425 5.05514 2.60862 5.3821 2.93548L11.9954 9.54873L18.6086 2.93548C18.7694 2.76896 18.9618 2.63613 19.1745 2.54475C19.3873 2.45337 19.6161 2.40528 19.8476 2.40326C20.0791 2.40125 20.3087 2.44537 20.5229 2.53303C20.7372 2.6207 20.9319 2.75016 21.0956 2.91387C21.2593 3.07757 21.3887 3.27224 21.4764 3.48652C21.5641 3.70079 21.6082 3.93038 21.6062 4.16189C21.6042 4.3934 21.5561 4.62218 21.4647 4.8349C21.3733 5.04762 21.2405 5.24001 21.074 5.40085L14.4607 12.0141L21.074 18.6273C21.3916 18.9562 21.5673 19.3966 21.5633 19.8538C21.5594 20.3109 21.376 20.7482 21.0527 21.0715C20.7295 21.3947 20.2922 21.5781 19.835 21.5821C19.3779 21.5861 18.9374 21.4103 18.6086 21.0927L11.9954 14.4795L5.3821 21.0927C5.05327 21.4103 4.61284 21.5861 4.15569 21.5821C3.69854 21.5781 3.26124 21.3947 2.93797 21.0715C2.61471 20.7482 2.43134 20.3109 2.42737 19.8538C2.4234 19.3966 2.59914 18.9562 2.91674 18.6273L9.52999 12.0141L2.91674 5.40085C2.58987 5.07388 2.40625 4.63049 2.40625 4.16816C2.40625 3.70584 2.58987 3.26244 2.91674 2.93548Z"
          fill="#555546"/>
</svg>
