<svg width="25" height="24" viewBox="0 0 25 24" fill="none" xmlns="http://www.w3.org/2000/svg">
    <path d="M12 2C8.27344 2 5.25 4.87766 5.25 8.42188C5.25 12.5 9.75 18.9627 11.4023 21.1948C11.4709 21.2891 11.5608 21.3657 11.6647 21.4186C11.7686 21.4715 11.8835 21.499 12 21.499C12.1165 21.499 12.2314 21.4715 12.3353 21.4186C12.4392 21.3657 12.5291 21.2891 12.5977 21.1948C14.25 18.9636 18.75 12.5033 18.75 8.42188C18.75 4.87766 15.7266 2 12 2Z"
          stroke="#0F0F00" stroke-width="1.5" stroke-linecap="round" stroke-linejoin="round"/>
    <path d="M12 11C13.2426 11 14.25 9.99264 14.25 8.75C14.25 7.50736 13.2426 6.5 12 6.5C10.7574 6.5 9.75 7.50736 9.75 8.75C9.75 9.99264 10.7574 11 12 11Z"
          stroke="#0F0F00" stroke-width="1.5" stroke-linecap="round" stroke-linejoin="round"/>
</svg>
