<svg width="25" height="24" viewBox="0 0 25 24" fill="none" xmlns="http://www.w3.org/2000/svg">
<path d="M21.0972 14.8554L16.6806 12.8764L16.6684 12.8707C16.4392 12.7727 16.189 12.7333 15.9407 12.7562C15.6924 12.7792 15.4537 12.8636 15.2463 13.002C15.2218 13.0181 15.1983 13.0356 15.1759 13.0545L12.8941 14.9998C11.4484 14.2976 9.95595 12.8164 9.25376 11.3895L11.2019 9.07294C11.2206 9.0495 11.2384 9.02606 11.2553 9.00075C11.3907 8.79384 11.4729 8.55667 11.4945 8.31035C11.5161 8.06402 11.4764 7.81618 11.3791 7.58887V7.57762L9.39438 3.15356C9.2657 2.85662 9.04444 2.60926 8.76362 2.44841C8.4828 2.28756 8.1575 2.22184 7.83626 2.26106C6.56592 2.42822 5.39986 3.05209 4.55588 4.01615C3.7119 4.98021 3.24771 6.21852 3.25001 7.49981C3.25001 14.9436 9.30626 20.9998 16.75 20.9998C18.0313 21.0021 19.2696 20.5379 20.2337 19.6939C21.1977 18.85 21.8216 17.6839 21.9888 16.4136C22.0281 16.0924 21.9625 15.7672 21.8018 15.4864C21.6411 15.2056 21.394 14.9843 21.0972 14.8554ZM16.75 19.4998C13.5685 19.4963 10.5182 18.2309 8.26856 15.9813C6.01888 13.7316 4.75348 10.6813 4.75001 7.49981C4.74648 6.58433 5.07631 5.69887 5.67789 5.00879C6.27947 4.3187 7.11167 3.87118 8.01907 3.74981C8.0187 3.75355 8.0187 3.75732 8.01907 3.76106L9.98782 8.16731L8.05001 10.4867C8.0303 10.5093 8.01243 10.5334 7.99657 10.5589C7.85549 10.7754 7.77273 11.0246 7.7563 11.2825C7.73988 11.5404 7.79035 11.7981 7.90282 12.0307C8.7522 13.7679 10.5025 15.5051 12.2584 16.3536C12.4928 16.465 12.752 16.5137 13.0108 16.495C13.2696 16.4762 13.5192 16.3907 13.735 16.2467C13.7591 16.2305 13.7823 16.213 13.8044 16.1942L16.0834 14.2498L20.4897 16.2232H20.5C20.3801 17.1319 19.9333 17.9658 19.2431 18.5689C18.5528 19.172 17.6666 19.5029 16.75 19.4998Z" fill="#0F0F00"/>
</svg>
