<svg width="40" height="45" viewBox="0 0 40 45" fill="none" xmlns="http://www.w3.org/2000/svg">
    <path d="M39.2594 11.8958V15.5286C39.2594 27.9959 31.6132 39.186 19.9998 43.719C8.38714 39.1855 0.741211 27.9944 0.741211 15.5286V11.9319C0.741211 10.8742 1.47943 9.94606 2.51776 9.74135C6.01529 9.04944 8.96633 6.14935 9.71381 2.52771C9.92778 1.4903 10.8336 0.740967 11.8933 0.740967H28.1129C29.1679 0.740967 30.0719 1.48382 30.2896 2.51659C31.05 6.12805 34.0576 8.98368 37.5134 9.71449C38.5369 9.93031 39.2594 10.8501 39.2594 11.8958Z"
          fill="#B9DCFF"/>
    <path d="M29.0621 4.6236C17.994 7.84139 9.48026 16.609 7.85024 29.5704C7.63692 31.267 5.36742 31.6996 4.53778 30.2044C0.342322 22.6438 0.74061 16.315 0.74061 11.9322C0.74061 10.8744 1.47883 9.9463 2.51716 9.7416C6.01469 9.04969 8.96573 6.1496 9.71321 2.52795C9.92717 1.49055 10.833 0.741211 11.8927 0.741211H28.1123C29.1235 0.741211 30.0577 1.43173 30.2926 2.53397C30.4874 3.44809 29.9596 4.36267 29.0621 4.6236Z"
          fill="#D1E7FF"/>
    <path d="M31.1494 13.7743C32.0034 14.3226 32.523 15.2646 32.5212 16.2807C32.5175 19.3188 32.2359 23.6009 29.0848 28.2164C26.8527 31.4842 23.686 34.002 19.9992 35.4402C12.4548 32.4947 7.48828 25.2255 7.48828 17.1264V16.2668C7.48828 15.2535 8.00791 14.3152 8.86006 13.7678C10.9714 12.4093 12.7453 10.5876 14.0471 8.4409C14.5889 7.54706 15.5494 6.99316 16.5943 6.99316H23.405C24.4498 6.99316 25.4103 7.54706 25.9522 8.4409C27.2557 10.5913 29.0334 12.4155 31.1494 13.7743Z"
          fill="#D1E7FF"/>
    <path d="M19.4268 9.3376C15.4291 12.2659 12.2753 16.1433 10.2367 20.7743C9.71777 21.953 7.97966 21.7261 7.77218 20.4551C7.5483 19.0838 7.48828 17.7354 7.48828 16.2668C7.48828 15.2535 8.00791 14.3152 8.86006 13.7678C10.9714 12.4093 12.7453 10.5876 14.0471 8.4409C14.5889 7.54706 15.5494 6.99316 16.5943 6.99316H18.6638C19.9191 6.99316 20.4396 8.59576 19.4268 9.3376Z"
          fill="#E8F3FF"/>
    <path d="M40 11.8957V15.529C40 28.2842 32.197 39.7538 20.2694 44.4094C20.0962 44.477 19.9038 44.477 19.7306 44.4094C7.84795 39.7709 0 28.3319 0 15.5289V11.9321C0 10.5131 0.998129 9.28595 2.37352 9.014C4.88237 8.5179 7.08999 6.79998 8.27893 4.41868C8.32175 4.33055 8.38163 4.25179 8.45509 4.18696C8.52855 4.12212 8.61415 4.0725 8.70691 4.04096C8.79968 4.00942 8.89778 3.9966 8.99554 4.00322C9.0933 4.00985 9.18877 4.0358 9.27644 4.07957C9.3641 4.12334 9.44221 4.18406 9.50625 4.25822C9.57029 4.33238 9.61899 4.4185 9.64952 4.5116C9.68006 4.60471 9.69182 4.70294 9.68414 4.80062C9.67646 4.8983 9.64948 4.99349 9.60477 5.08068C8.21243 7.86944 5.61661 9.88329 2.66094 10.4678C1.97783 10.6029 1.48191 11.2187 1.48191 11.9321V15.5289C1.48191 27.6131 8.83014 38.4372 20 42.9221C31.2598 38.4037 38.518 27.6832 38.518 15.5289V11.8956C38.518 11.1936 38.0311 10.5811 37.3602 10.4393C33.633 9.65154 30.3899 6.5901 29.564 2.66955C29.4191 1.98144 28.8085 1.482 28.1123 1.482H11.8927C11.6962 1.482 11.5077 1.40393 11.3687 1.26497C11.2298 1.126 11.1517 0.937527 11.1517 0.741001C11.1517 0.544476 11.2298 0.355999 11.3687 0.217034C11.5077 0.0780696 11.6962 0 11.8927 0L28.1123 0C29.5052 0 30.7257 0.994239 31.0142 2.36407C31.6918 5.5803 34.4274 8.30477 37.6667 8.98937C39.0187 9.27512 40 10.4974 40 11.8957ZM24.1105 18.5325L19.1144 23.5286L17.2321 21.6462C17.0928 21.5086 16.9048 21.4318 16.7091 21.4323C16.5133 21.4329 16.3258 21.5109 16.1873 21.6494C16.0489 21.7878 15.9709 21.9753 15.9703 22.1711C15.9697 22.3668 16.0466 22.5548 16.1841 22.6941C18.7717 25.2817 18.7045 25.3175 19.1145 25.3175C19.311 25.3175 19.4995 25.2394 19.6385 25.1005L25.1587 19.5804C25.2976 19.4414 25.3757 19.253 25.3757 19.0565C25.3757 18.86 25.2976 18.6715 25.1587 18.5325C25.0197 18.3936 24.8312 18.3155 24.6346 18.3155C24.438 18.3155 24.2495 18.3936 24.1105 18.5325ZM28.8546 12.9889C29.0039 13.1167 29.1979 13.18 29.3938 13.1647C29.5897 13.1495 29.7716 13.0571 29.8994 12.9078C30.0272 12.7585 30.0904 12.5645 30.0752 12.3686C30.06 12.1726 29.9676 11.9908 29.8183 11.863C28.5452 10.7742 27.454 9.4893 26.5858 8.05663C25.9112 6.94346 24.6926 6.25192 23.4057 6.25192H16.5943C15.3073 6.25192 14.0888 6.94346 13.4142 8.05663C12.1784 10.0956 10.4653 11.8548 8.46011 13.1441C7.38778 13.8335 6.74765 15.0008 6.74765 16.2667V17.1262C6.74765 25.5195 11.8819 33.0665 19.7306 36.13C19.9039 36.1976 20.0963 36.1976 20.2696 36.13C24.1113 34.6299 27.3712 32.0378 29.697 28.6341C32.8313 24.0439 33.2584 19.8136 33.2628 16.281C33.2629 16.1837 33.2439 16.0873 33.2068 15.9974C33.1696 15.9074 33.1152 15.8257 33.0464 15.7568C32.9777 15.6879 32.8961 15.6332 32.8062 15.5958C32.7164 15.5585 32.62 15.5392 32.5227 15.5391C32.4254 15.539 32.329 15.558 32.2391 15.5951C32.1492 15.6323 32.0674 15.6867 31.9985 15.7555C31.9296 15.8242 31.8749 15.9058 31.8376 15.9957C31.8002 16.0855 31.7809 16.1818 31.7808 16.2792C31.7766 19.586 31.3805 23.5406 28.4733 27.7982C26.3711 30.8748 23.4457 33.2362 20 34.6421C12.8395 31.7241 8.22956 24.8806 8.22956 17.1263V16.2668C8.22956 15.5075 8.61535 14.8061 9.2615 14.3907C11.4553 12.9801 13.3295 11.0556 14.6816 8.82486C15.0956 8.14175 15.8106 7.73402 16.5943 7.73402H23.4057C24.1894 7.73402 24.9045 8.14185 25.3184 8.82486C26.2682 10.3921 27.4619 11.7978 28.8546 12.9889Z"
          fill="#2E58FF"/>
</svg>
