<svg width="20" height="24" viewBox="0 0 20 24" fill="none" xmlns="http://www.w3.org/2000/svg">
<path d="M19.6302 6.82474V8.64112C19.6302 14.8748 15.8071 20.4698 10.0004 22.7364C4.19406 20.4696 0.371094 14.8741 0.371094 8.64112V6.8428C0.371094 6.31391 0.740205 5.84986 1.25937 5.74751C3.00813 5.40155 4.48365 3.95151 4.85739 2.14068C4.96438 1.62198 5.41731 1.24731 5.94713 1.24731H14.0569C14.5844 1.24731 15.0364 1.61874 15.1453 2.13513C15.5255 3.94085 17.0293 5.36867 18.7572 5.73408C19.2689 5.84199 19.6302 6.30187 19.6302 6.82474Z" fill="#B9DCFF"/>
<path d="M14.5311 3.18851C8.997 4.79741 4.74013 9.18122 3.92512 15.6619C3.81846 16.5102 2.68371 16.7265 2.26889 15.9789C0.171161 12.1986 0.370305 9.03422 0.370305 6.8428C0.370305 6.31391 0.739416 5.84986 1.25858 5.74751C3.00734 5.40155 4.48286 3.95151 4.85661 2.14068C4.96359 1.62198 5.41652 1.24731 5.94634 1.24731H14.0561C14.5617 1.24731 15.0288 1.59257 15.1463 2.14369C15.2437 2.60075 14.9798 3.05804 14.5311 3.18851Z" fill="#D1E7FF"/>
<path d="M15.5747 7.76384C16.0017 8.03801 16.2615 8.50901 16.2606 9.01705C16.2587 10.5361 16.1179 12.6771 14.5424 14.9849C13.4264 16.6188 11.843 17.8777 9.99958 18.5968C6.22742 17.1241 3.74414 13.4895 3.74414 9.43989V9.01011C3.74414 8.50345 4.00395 8.0343 4.43003 7.76059C5.48568 7.08138 6.37264 6.1705 7.02353 5.09716C7.29446 4.65024 7.77472 4.37329 8.29713 4.37329H11.7025C12.2249 4.37329 12.7052 4.65024 12.9761 5.09716C13.6279 6.17238 14.5167 7.08448 15.5747 7.76384Z" fill="#D1E7FF"/>
<path d="M9.71342 5.54551C7.71456 7.00964 6.13767 8.94837 5.11833 11.2639C4.85888 11.8532 3.98983 11.7398 3.88609 11.1043C3.77415 10.4186 3.74414 9.74439 3.74414 9.01011C3.74414 8.50345 4.00395 8.0343 4.43003 7.76059C5.48568 7.08138 6.37264 6.1705 7.02353 5.09716C7.29446 4.65024 7.77472 4.37329 8.29713 4.37329H9.33189C9.95957 4.37329 10.2198 5.17459 9.71342 5.54551Z" fill="#E8F3FF"/>
<path d="M20 6.82454V8.6412C20 15.0188 16.0985 20.7536 10.1347 23.0814C10.0481 23.1152 9.95191 23.1152 9.86528 23.0814C3.92397 20.7622 0 15.0427 0 8.64115V6.84274C0 6.13328 0.499064 5.51969 1.18676 5.38371C2.44118 5.13566 3.545 4.2767 4.13947 3.08605C4.16088 3.04199 4.19081 3.00261 4.22755 2.97019C4.26428 2.93777 4.30707 2.91296 4.35346 2.89719C4.39984 2.88142 4.44889 2.87501 4.49777 2.87832C4.54665 2.88163 4.59439 2.89461 4.63822 2.91649C4.68205 2.93838 4.72111 2.96874 4.75312 3.00582C4.78514 3.0429 4.80949 3.08596 4.82476 3.13251C4.84003 3.17906 4.84591 3.22818 4.84207 3.27702C4.83823 3.32586 4.82474 3.37345 4.80238 3.41705C4.10621 4.81143 2.8083 5.81836 1.33047 6.11063C0.988913 6.17816 0.740955 6.48604 0.740955 6.84274V8.64115C0.740955 14.6833 4.41507 20.0953 10 22.3378C15.6299 20.0786 19.259 14.7183 19.259 8.64115V6.8245C19.259 6.47349 19.0155 6.16727 18.6801 6.09637C16.8165 5.70248 15.1949 4.17176 14.782 2.21148C14.7095 1.86743 14.4042 1.61771 14.0561 1.61771H5.94635C5.84809 1.61771 5.75385 1.57868 5.68437 1.50919C5.61488 1.43971 5.57585 1.34547 5.57585 1.24721C5.57585 1.14895 5.61488 1.05471 5.68437 0.985226C5.75385 0.915744 5.84809 0.876709 5.94635 0.876709H14.0561C14.7526 0.876709 15.3629 1.37383 15.5071 2.05875C15.8459 3.66686 17.2137 5.0291 18.8333 5.37139C19.5094 5.51427 20 6.12541 20 6.82454ZM12.0553 10.143L9.5572 12.641L8.61604 11.6998C8.54642 11.631 8.4524 11.5926 8.35453 11.5929C8.25666 11.5932 8.16288 11.6322 8.09367 11.7014C8.02446 11.7706 7.98544 11.8644 7.98514 11.9622C7.98484 12.0601 8.02328 12.1541 8.09206 12.2238C9.38585 13.5175 9.35227 13.5355 9.55725 13.5355C9.65551 13.5355 9.74975 13.4964 9.81924 13.427L12.5793 10.6669C12.6488 10.5974 12.6878 10.5032 12.6878 10.4049C12.6878 10.3067 12.6488 10.2125 12.5793 10.143C12.5098 10.0735 12.4156 10.0344 12.3173 10.0344C12.219 10.0344 12.1248 10.0735 12.0553 10.143ZM14.4273 7.37117C14.502 7.43507 14.5989 7.46669 14.6969 7.45908C14.7949 7.45147 14.8858 7.40525 14.9497 7.3306C15.0136 7.25594 15.0452 7.15896 15.0376 7.06099C15.03 6.96302 14.9838 6.87209 14.9091 6.80819C14.2726 6.26383 13.727 5.62136 13.2929 4.90502C12.9556 4.34844 12.3463 4.00267 11.7029 4.00267H8.29713C7.65366 4.00267 7.04442 4.34844 6.70708 4.90502C6.08918 5.9245 5.23263 6.80412 4.23005 7.44874C3.69389 7.79345 3.37383 8.37713 3.37383 9.01008V9.43981C3.37383 13.6365 5.94093 17.41 9.86532 18.9417C9.95197 18.9755 10.0482 18.9755 10.1348 18.9417C12.0556 18.1916 13.6856 16.8956 14.8485 15.1938C16.4156 12.8987 16.6292 10.7835 16.6314 9.01721C16.6315 8.96856 16.6219 8.92037 16.6034 8.87539C16.5848 8.83042 16.5576 8.78954 16.5232 8.75509C16.4889 8.72065 16.448 8.6933 16.4031 8.67463C16.3582 8.65595 16.31 8.64631 16.2614 8.64625C16.2127 8.64619 16.1645 8.65571 16.1196 8.67427C16.0746 8.69284 16.0337 8.72008 15.9992 8.75444C15.9648 8.7888 15.9375 8.82961 15.9188 8.87454C15.9001 8.91946 15.8905 8.96763 15.8904 9.01629C15.8883 10.6697 15.6902 12.647 14.2366 14.7758C13.1856 16.3141 11.7228 17.4948 10 18.1978C6.41976 16.7388 4.11478 13.317 4.11478 9.43986V9.01013C4.11478 8.63046 4.30767 8.27978 4.63075 8.07206C5.72766 7.36677 6.66475 6.40449 7.34082 5.28914C7.54779 4.94759 7.90528 4.74372 8.29713 4.74372H11.7029C12.0947 4.74372 12.4523 4.94763 12.6592 5.28914C13.1341 6.07277 13.731 6.77562 14.4273 7.37117Z" fill="#2E58FF"/>
</svg>
