<svg width="20" height="25" viewBox="0 0 20 25" fill="none" xmlns="http://www.w3.org/2000/svg">
<path d="M19.5816 14.4821C19.5816 19.7767 15.2895 24.0688 9.99488 24.0688C4.70028 24.0688 0.408203 19.7767 0.408203 14.4821C0.408203 10.2497 3.15061 6.65824 6.9557 5.3875C13.1741 3.30923 19.5816 7.95581 19.5816 14.4821Z" fill="#B9DCFF"/>
<path d="M14.6084 6.07712C15.5817 6.61071 15.1313 8.10017 14.0269 7.98915C8.23983 7.40727 2.86471 12.2395 3.5191 18.5433C3.63343 19.6444 2.15055 20.1052 1.61222 19.1379C-1.27704 13.9466 1.22906 7.29978 6.95537 5.38744C9.54031 4.52352 12.3108 4.81759 14.6084 6.07712Z" fill="#D1E7FF"/>
<path d="M9.99491 21.723C13.994 21.723 17.2359 18.4811 17.2359 14.482C17.2359 10.4829 13.994 7.24097 9.99491 7.24097C5.99581 7.24097 2.75391 10.4829 2.75391 14.482C2.75391 18.4811 5.99581 21.723 9.99491 21.723Z" fill="#D1E7FF"/>
<path d="M9.99455 15.7567C10.6986 15.7567 11.2694 15.1859 11.2694 14.4819C11.2694 13.7778 10.6986 13.207 9.99455 13.207C9.29049 13.207 8.71973 13.7778 8.71973 14.4819C8.71973 15.1859 9.29049 15.7567 9.99455 15.7567Z" fill="#B9DCFF"/>
<path d="M10.1178 13.9899C9.84991 14.1185 9.62942 14.3384 9.50082 14.6063C9.30832 15.0072 8.6885 14.8715 8.72307 14.3881C8.7681 13.7582 9.2845 13.2426 9.92579 13.2089C10.3748 13.1853 10.5231 13.7953 10.1178 13.9899Z" fill="#D1E7FF"/>
<path d="M9.86156 7.23429C10.5608 7.21996 10.7383 8.20346 10.075 8.42502C7.13313 9.40766 4.89704 11.679 3.94586 14.5277C3.72496 15.1894 2.73993 15.0229 2.75406 14.3255C2.83463 10.3391 6.09425 7.31139 9.86156 7.23429Z" fill="#E8F3FF"/>
<path d="M9.99463 24.4766C4.48356 24.4766 0 19.9931 0 14.482C0 10.3235 2.55674 6.62868 6.40712 5.15085C5.48236 2.64098 7.35115 0 9.99463 0C12.6344 0 14.5064 2.63644 13.5831 5.1482C14.7491 5.59597 15.8275 6.26484 16.7672 7.13249L17.3988 6.50094L17.1999 6.30212C17.1234 6.22561 17.0804 6.12185 17.0804 6.01365C17.0804 5.90546 17.1234 5.80169 17.1999 5.72519C17.2764 5.64868 17.3802 5.6057 17.4884 5.6057C17.5966 5.6057 17.7004 5.64868 17.7769 5.72519L18.7514 6.69976C18.828 6.77627 18.8709 6.88004 18.8709 6.98823C18.8709 7.09643 18.828 7.20019 18.7514 7.2767C18.6749 7.35321 18.5712 7.39619 18.463 7.39619C18.3548 7.39619 18.251 7.35321 18.1745 7.2767L17.9757 7.07788C16.9905 8.06311 16.9958 8.1111 16.7734 8.1111C16.7198 8.11117 16.6668 8.10065 16.6173 8.08015C16.5678 8.05965 16.5228 8.02956 16.485 7.99162C14.7272 6.23389 12.4082 5.30327 9.99463 5.30327C9.88643 5.30327 9.78267 5.26029 9.70617 5.18379C9.62966 5.10728 9.58668 5.00352 9.58668 4.89533V3.31454H8.87278C8.76459 3.31454 8.66082 3.27156 8.58432 3.19506C8.50782 3.11856 8.46484 3.01479 8.46484 2.9066C8.46484 2.79841 8.50782 2.69464 8.58432 2.61814C8.66082 2.54164 8.76459 2.49866 8.87278 2.49866H11.1165C11.2247 2.49866 11.3284 2.54164 11.4049 2.61814C11.4814 2.69464 11.5244 2.79841 11.5244 2.9066C11.5244 3.01479 11.4814 3.11856 11.4049 3.19506C11.3284 3.27156 11.2247 3.31454 11.1165 3.31454H10.4026V4.4962C11.2274 4.52915 12.0344 4.66163 12.8098 4.88798C13.5524 2.93036 12.0973 0.815888 9.99463 0.815888C8.33572 0.815888 6.98604 2.16557 6.98604 3.82447C6.98604 4.61935 7.28955 5.1121 7.33901 5.24886C7.41698 5.46507 7.30102 5.70142 7.08481 5.77394C3.33515 7.02632 0.815888 10.5258 0.815888 14.482C0.815888 19.5432 4.93347 23.6607 9.99463 23.6607C16.8063 23.6607 21.266 16.4473 18.1966 10.357C18.1479 10.2604 18.1396 10.1484 18.1735 10.0457C18.2074 9.94291 18.2807 9.85782 18.3773 9.80911C18.4739 9.76045 18.5859 9.75216 18.6887 9.78605C18.7914 9.81993 18.8765 9.89323 18.9252 9.98983C22.2627 16.6125 17.4218 24.4766 9.99463 24.4766ZM17.6436 14.482C17.6436 18.6996 14.2123 22.131 9.99463 22.131C5.777 22.131 2.34568 18.6996 2.34568 14.482C2.34568 10.2644 5.777 6.83306 9.99463 6.83306C14.2123 6.83306 17.6436 10.2644 17.6436 14.482ZM16.8277 14.482C16.8277 10.7142 13.7624 7.64895 9.99463 7.64895C6.22686 7.64895 3.16157 10.7142 3.16157 14.482C3.16157 18.2498 6.22686 21.3151 9.99463 21.3151C13.7624 21.3151 16.8277 18.2498 16.8277 14.482ZM11.2694 14.0741C11.1613 14.0741 11.0575 14.117 10.981 14.1935C10.9045 14.2701 10.8615 14.3738 10.8615 14.482C10.8615 14.96 10.4726 15.3489 9.99463 15.3489C9.51662 15.3489 9.12774 14.96 9.12774 14.482C9.12774 14.004 9.51662 13.6151 9.99463 13.6151C10.1028 13.6151 10.2066 13.5721 10.2831 13.4956C10.3596 13.4191 10.4026 13.3154 10.4026 13.2072V9.89264C10.4026 9.78445 10.3596 9.68068 10.2831 9.60418C10.2066 9.52767 10.1028 9.4847 9.99463 9.4847C9.88643 9.4847 9.78267 9.52767 9.70617 9.60418C9.62966 9.68068 9.58668 9.78445 9.58668 9.89264V12.8495C8.85529 13.0323 8.31186 13.6948 8.31186 14.482C8.31186 15.4099 9.06676 16.1648 9.99463 16.1648C11.5907 16.1648 12.1385 14.0741 11.2694 14.0741Z" fill="#2E58FF"/>
</svg>
