<svg width="40" height="49" viewBox="0 0 40 49" fill="none" xmlns="http://www.w3.org/2000/svg">
    <path d="M39.1622 28.9642C39.1622 39.5534 30.578 48.1376 19.9888 48.1376C9.39959 48.1376 0.81543 39.5534 0.81543 28.9642C0.81543 20.4994 6.30023 13.3165 13.9104 10.775C26.3473 6.61845 39.1622 15.9116 39.1622 28.9642Z"
          fill="#B9DCFF"/>
    <path d="M29.2168 12.1542C31.1634 13.2214 30.2627 16.2003 28.0538 15.9783C16.4797 14.8145 5.72942 24.4789 7.03821 37.0867C7.26686 39.2888 4.30111 40.2104 3.22444 38.2758C-2.55408 27.8932 2.45812 14.5996 13.9107 10.7749C19.0806 9.04704 24.6216 9.63519 29.2168 12.1542Z"
          fill="#D1E7FF"/>
    <path d="M19.9888 43.446C27.987 43.446 34.4709 36.9621 34.4709 28.9639C34.4709 20.9658 27.987 14.4819 19.9888 14.4819C11.9907 14.4819 5.50684 20.9658 5.50684 28.9639C5.50684 36.9621 11.9907 43.446 19.9888 43.446Z"
          fill="#D1E7FF"/>
    <path d="M19.9891 31.5136C21.3972 31.5136 22.5388 30.3721 22.5388 28.964C22.5388 27.5558 21.3972 26.4143 19.9891 26.4143C18.581 26.4143 17.4395 27.5558 17.4395 28.964C17.4395 30.3721 18.581 31.5136 19.9891 31.5136Z"
          fill="#B9DCFF"/>
    <path d="M20.2356 27.9801C19.6998 28.2373 19.2588 28.6771 19.0016 29.2128C18.6166 30.0146 17.377 29.7432 17.4461 28.7764C17.5362 27.5166 18.569 26.4854 19.8516 26.4181C20.7496 26.3709 21.0462 27.5909 20.2356 27.9801Z"
          fill="#D1E7FF"/>
    <path d="M19.7221 14.4683C21.1206 14.4397 21.4757 16.4067 20.1491 16.8498C14.2653 18.8151 9.7931 23.3577 7.89075 29.0552C7.44895 30.3785 5.47889 30.0456 5.50714 28.6507C5.66827 20.678 12.1875 14.6225 19.7221 14.4683Z"
          fill="#E8F3FF"/>
    <path d="M19.9893 48.9533C8.96712 48.9533 0 39.9861 0 28.964C0 20.6471 5.11347 13.2574 12.8142 10.3017C10.9647 5.28196 14.7023 0 19.9893 0C25.2689 0 29.0129 5.27288 27.1662 10.2964C29.4981 11.1919 31.6549 12.5297 33.5344 14.265L34.7975 13.0019L34.3999 12.6042C34.2469 12.4512 34.1609 12.2437 34.1609 12.0273C34.1609 11.8109 34.2469 11.6034 34.3999 11.4504C34.5529 11.2974 34.7604 11.2114 34.9768 11.2114C35.1932 11.2114 35.4007 11.2974 35.5537 11.4504L37.5029 13.3995C37.6559 13.5525 37.7419 13.7601 37.7419 13.9765C37.7419 14.1929 37.6559 14.4004 37.5029 14.5534C37.3499 14.7064 37.1424 14.7924 36.926 14.7924C36.7096 14.7924 36.502 14.7064 36.349 14.5534L35.9514 14.1558C33.9809 16.1262 33.9915 16.2222 33.5469 16.2222C33.4397 16.2223 33.3336 16.2013 33.2345 16.1603C33.1355 16.1193 33.0456 16.0591 32.9699 15.9832C29.4545 12.4678 24.8163 10.6065 19.9893 10.6065C19.7729 10.6065 19.5653 10.5206 19.4123 10.3676C19.2593 10.2146 19.1734 10.007 19.1734 9.79065V6.62909H17.7456C17.5292 6.62909 17.3216 6.54313 17.1686 6.39012C17.0156 6.23711 16.9297 6.02959 16.9297 5.8132C16.9297 5.59681 17.0156 5.38929 17.1686 5.23628C17.3216 5.08327 17.5292 4.99731 17.7456 4.99731H22.2329C22.4493 4.99731 22.6569 5.08327 22.8099 5.23628C22.9629 5.38929 23.0488 5.59681 23.0488 5.8132C23.0488 6.02959 22.9629 6.23711 22.8099 6.39012C22.6569 6.54313 22.4493 6.62909 22.2329 6.62909H20.8051V8.99241C22.4548 9.05829 24.0688 9.32325 25.6197 9.77597C27.1048 5.86073 24.1945 1.63178 19.9893 1.63178C16.6714 1.63178 13.9721 4.33114 13.9721 7.64895C13.9721 9.2387 14.5791 10.2242 14.678 10.4977C14.834 10.9301 14.602 11.4028 14.1696 11.5479C6.67029 14.0526 1.63178 21.0516 1.63178 28.964C1.63178 39.0863 9.86694 47.3215 19.9893 47.3215C33.6125 47.3215 42.532 32.8947 36.3932 20.7141C36.2958 20.5208 36.2792 20.2968 36.347 20.0913C36.4148 19.8858 36.5614 19.7156 36.7546 19.6182C36.9479 19.5209 37.1719 19.5043 37.3774 19.5721C37.5829 19.6399 37.753 19.7865 37.8505 19.9797C44.5253 33.225 34.8435 48.9533 19.9893 48.9533ZM35.2871 28.964C35.2871 37.3993 28.4245 44.2619 19.9893 44.2619C11.554 44.2619 4.69135 37.3993 4.69135 28.964C4.69135 20.5288 11.554 13.6661 19.9893 13.6661C28.4245 13.6661 35.2871 20.5288 35.2871 28.964ZM33.6554 28.964C33.6554 21.4285 27.5248 15.2979 19.9893 15.2979C12.4537 15.2979 6.32313 21.4285 6.32313 28.964C6.32313 36.4996 12.4537 42.6301 19.9893 42.6301C27.5248 42.6301 33.6554 36.4996 33.6554 28.964ZM22.5389 28.1481C22.3225 28.1481 22.115 28.2341 21.962 28.3871C21.809 28.5401 21.723 28.7476 21.723 28.964C21.723 29.92 20.9453 30.6978 19.9893 30.6978C19.0332 30.6978 18.2555 29.92 18.2555 28.964C18.2555 28.008 19.0332 27.2303 19.9893 27.2303C20.2056 27.2303 20.4132 27.1443 20.5662 26.9913C20.7192 26.8383 20.8051 26.6308 20.8051 26.4144V19.7853C20.8051 19.5689 20.7192 19.3614 20.5662 19.2084C20.4132 19.0553 20.2056 18.9694 19.9893 18.9694C19.7729 18.9694 19.5653 19.0553 19.4123 19.2084C19.2593 19.3614 19.1734 19.5689 19.1734 19.7853V25.699C17.7106 26.0647 16.6237 27.3897 16.6237 28.964C16.6237 30.8198 18.1335 32.3296 19.9893 32.3296C23.1814 32.3296 24.2769 28.1481 22.5389 28.1481Z"
          fill="#2E58FF"/>
</svg>
