<svg width="16" height="16" viewBox="0 0 16 16" fill="none" xmlns="http://www.w3.org/2000/svg">
<g clip-path="url(#clip0_251_8583)">
<path fill-rule="evenodd" clip-rule="evenodd" d="M4.70998 7.99963L2.13126 1.59834C1.93951 1.11997 2.16785 0.575062 2.64126 0.381312C2.78087 0.323935 2.93248 0.301921 3.08265 0.317223C3.23281 0.332526 3.37687 0.384672 3.50204 0.46903L13.5251 7.22119C13.9505 7.50781 14.0655 8.08869 13.7819 8.51863C13.7112 8.62614 13.6189 8.71777 13.5108 8.78769L3.50204 15.5303C3.07657 15.8169 2.50173 15.7007 2.21807 15.2708C2.03223 14.989 2.01754 14.6425 2.14919 14.3564L4.70998 7.99963Z" stroke="#FAE82E" stroke-width="0.937506" stroke-miterlimit="22.9256" stroke-linecap="round" stroke-linejoin="round"/>
<path fill-rule="evenodd" clip-rule="evenodd" d="M5.02054 12.2465L11.3247 7.99956L5.02051 3.75269L6.73135 7.99956L5.02054 12.2465Z" stroke="#FAE82E" stroke-width="0.937506" stroke-miterlimit="22.9256" stroke-linecap="round" stroke-linejoin="round"/>
</g>
<defs>
<clipPath id="clip0_251_8583">
<rect width="16" height="16" fill="white"/>
</clipPath>
</defs>
</svg>
