<svg width="40" height="40" viewBox="0 0 40 40" fill="none" xmlns="http://www.w3.org/2000/svg">
    <path d="M13.478 33.8101C13.4466 33.8101 13.4151 33.7994 13.3849 33.7908C5.01792 31.417 0.669952 21.3382 5.44384 12.9591C5.87635 12.199 6.8297 12.1374 7.33803 12.8332C7.47867 13.0253 7.64053 13.2009 7.82054 13.3567C8.02463 13.534 8.34596 13.4035 8.36946 13.1342C8.73914 8.89192 10.7452 5.08679 13.9282 2.82559C14.6299 2.32642 15.5591 2.78726 15.7141 3.7206C15.7607 4.00237 15.8215 4.28159 15.8964 4.5572C15.9635 4.80403 16.2754 4.8847 16.4551 4.7027C17.3196 3.82719 17.9851 2.77467 18.3965 1.58391C18.7048 0.692231 19.8149 0.374727 20.5449 0.972235C21.7305 1.942 22.7376 3.11601 23.5493 4.42236C23.7046 4.67228 24.0862 4.61486 24.1553 4.32894C24.204 4.12778 24.2453 3.92489 24.2791 3.72069C24.4341 2.78734 25.3633 2.3265 26.0649 2.82567C29.2479 5.08679 31.254 8.892 31.6237 13.1343C31.6472 13.4036 31.9685 13.5341 32.1726 13.3568C32.3526 13.201 32.5145 13.0254 32.6551 12.8333C33.1634 12.1375 34.1168 12.1991 34.5493 12.9591C39.3324 21.3542 34.9582 31.4555 26.5594 33.8043C26.5229 33.8145 27.4697 33.8173 13.478 33.8101Z"
          fill="#D1E7FF"/>
    <path d="M26.5591 33.804C26.4889 33.8235 27.4142 33.817 13.4779 33.8099C13.4462 33.8099 13.4147 33.7989 13.3847 33.7906C9.79581 32.7727 6.94661 30.3367 5.23917 27.2258C4.94175 26.6838 5.48684 26.0632 6.06343 26.2862C15.6378 29.9878 25.6208 27.699 30.5331 21.4164C32.3881 19.0439 33.2999 16.3825 33.6942 13.8957C33.7956 13.2563 34.6553 13.1177 34.9475 13.6953C39.026 21.7579 34.846 31.4862 26.5591 33.804Z"
          fill="#B9DCFF"/>
    <path d="M26.1342 31.1433H13.819C8.05679 29.3279 4.65666 22.7711 6.76702 16.4933C6.87102 16.1839 7.18653 15.9998 7.50761 16.058C9.17772 16.3609 10.8659 15.2008 11.0265 13.3656C11.2272 11.0555 12.0351 8.75626 13.4554 6.93724C13.6789 6.6509 14.0921 6.6149 14.379 6.83791C15.5472 7.74584 17.2585 7.68483 18.3524 6.57632C18.8286 6.09484 19.2597 5.57066 19.6401 5.01038C19.8921 4.63846 20.436 4.61913 20.7047 4.97922C20.9099 5.25434 21.1032 5.5381 21.2841 5.82973C22.2272 7.34691 24.2058 7.66058 25.564 6.70116C25.8459 6.50199 26.2384 6.56232 26.4544 6.83149C27.9286 8.66843 28.7627 11.0169 28.9667 13.3656C29.127 15.1964 30.8126 16.3633 32.4857 16.0584C32.8068 15.9999 33.1224 16.1843 33.2265 16.4935C35.3295 22.7419 31.9699 29.3287 26.1342 31.1433Z"
          fill="#E8F3FF"/>
    <path d="M26.1336 31.143H13.8185C12.2434 30.6466 10.8257 29.7888 9.64702 28.6577C9.1656 28.1957 9.58727 27.3875 10.2407 27.5229C19.2623 29.3927 28.8257 26.3349 32.4318 18.2378C32.6997 17.6362 33.5911 17.7451 33.6974 18.3951C34.6273 24.0812 31.3375 29.5246 26.1336 31.143Z"
          fill="#D1E7FF"/>
    <path d="M26.9299 13.333C25.9166 13.333 25.0965 14.1529 25.0965 15.1663V14.0755C25.0965 12.9946 24.2199 12.1171 23.1382 12.1171C22.0575 12.1171 21.1798 12.9937 21.1798 14.0755V13.4405C21.1798 12.3629 20.3298 11.4163 19.1798 11.4163C18.0545 11.4163 17.1798 12.3217 17.1798 13.4088V14.0771C17.1798 12.9154 16.1614 12.0146 14.9748 12.1271C13.9481 12.2246 13.1797 13.1154 13.1797 14.143V17.6663H11.3964C10.4483 17.6663 9.67969 18.4349 9.67969 19.383V24.4723C9.67969 28.4473 13.4297 28.724 13.4297 32.6982V38.6666C13.4297 38.8434 13.5 39.013 13.625 39.138C13.75 39.263 13.9196 39.3333 14.0964 39.3333H25.8466C26.0234 39.3333 26.1929 39.263 26.318 39.138C26.443 39.013 26.5132 38.8434 26.5132 38.6666V31.829C26.5132 28.759 28.7633 27.7515 28.7633 24.6823V15.1671C28.7633 14.1546 27.9424 13.333 26.9299 13.333Z"
          fill="#D1E7FF"/>
    <path d="M15.2051 35.0816V38.6667C15.2051 38.8435 15.1349 39.0131 15.0099 39.1381C14.8848 39.2631 14.7153 39.3334 14.5384 39.3334H14.0976C13.9208 39.3334 13.7512 39.2631 13.6262 39.1381C13.5012 39.0131 13.4309 38.8435 13.4309 38.6667L13.4309 32.6727C13.4286 32.1212 14.1456 31.9071 14.4399 32.3735C14.8889 33.0851 15.2051 33.9275 15.2051 35.0816ZM17.4122 20.0498H16.0937C13.5641 20.0498 11.5044 22.0834 11.4721 24.6128C11.4572 25.7756 9.71422 25.7986 9.68305 24.6377C9.67964 24.5096 9.68089 19.3738 9.68089 19.3832C9.68089 18.4351 10.4495 17.6665 11.3976 17.6665H17.5543C19.1069 17.6664 19.0288 20.0498 17.4122 20.0498Z"
          fill="#E8F3FF"/>
    <path d="M15.3474 12.1247C15.9543 12.1749 16.1832 12.9647 15.6892 13.3207C15.1682 13.696 14.8474 14.3148 14.8474 14.9764V17.6664H13.1807V14.143C13.1807 12.9998 14.1285 12.0239 15.3474 12.1247ZM19.2263 11.4168C20.0512 11.4348 20.3069 12.5201 19.5931 12.9339C19.0047 13.2749 18.5973 13.9093 18.5973 14.6588V18.3664C18.5126 18.1592 18.3681 17.982 18.1823 17.8574C17.9965 17.7327 17.7777 17.6662 17.554 17.6663H17.1806V13.4088C17.1807 12.3167 18.0712 11.3915 19.2263 11.4168ZM23.4129 12.1364C23.9616 12.2135 24.0952 12.947 23.622 13.235C23.0546 13.5804 22.6808 14.2045 22.6808 14.9088V17.8872C22.6844 18.4568 21.9813 18.72 21.6212 18.2788C21.3357 17.9296 21.18 17.4923 21.1808 17.0413V14.0755C21.1808 12.8867 22.2328 11.9705 23.4129 12.1364ZM27.5281 13.4325C27.9359 13.5721 27.9425 14.1424 27.5462 14.3119C26.9008 14.588 26.4308 15.2281 26.4308 15.9997C26.4308 15.9997 26.4316 19.1426 26.433 19.1725C26.4539 19.6038 25.9422 19.8525 25.6366 19.5476C25.4655 19.3774 25.3297 19.175 25.2372 18.9521C25.1447 18.7292 25.0972 18.4902 25.0975 18.2488V15.1663C25.0975 13.914 26.3293 13.022 27.5281 13.4325Z"
          fill="#E8F3FF"/>
    <path d="M26.5349 20.0398C25.7053 19.8585 25.0965 19.1179 25.0965 18.2489V17.0414C25.0965 18.1275 24.2154 18.9998 23.1381 18.9998C22.0636 18.9998 21.1798 18.1296 21.1798 17.0414V17.1239C21.1798 18.0489 20.5664 18.8366 19.7554 19.0812C19.9154 19.0302 20.0179 18.8745 20.0108 18.7061C19.9522 17.3235 18.8183 16.333 17.5531 16.333C17.4541 16.333 17.3591 16.3723 17.2891 16.4424C17.2191 16.5124 17.1797 16.6073 17.1797 16.7063C17.1797 16.6073 17.1404 16.5124 17.0704 16.4424C17.0004 16.3723 16.9054 16.333 16.8064 16.333H13.553C13.454 16.333 13.3591 16.3723 13.289 16.4424C13.219 16.5124 13.1797 16.6073 13.1797 16.7063V17.6664H17.1797C17.5578 17.6664 17.8587 17.6336 18.1831 17.8589C18.3262 17.9543 18.4518 18.0889 18.5439 18.2555C18.6931 18.529 18.6953 18.7911 18.6648 19.1014C18.5133 20.7071 17.1551 21.9997 15.473 21.9997H14.8544C14.668 21.9997 14.6213 22.2613 14.7971 22.3229C16.766 23.0128 18.2728 24.7149 18.3323 26.8073C18.3414 27.1448 18.5948 27.4248 18.9306 27.459H18.9314C19.3273 27.499 19.6756 27.1856 19.6656 26.7873C19.6314 25.3706 19.0848 24.0273 18.1206 22.9348C17.9897 22.7864 18.0122 22.5598 18.1714 22.4423C18.8539 21.9363 19.3812 21.2496 19.6938 20.4597C20.1767 20.3877 20.728 20.1941 21.2681 19.7489C22.2087 20.4008 23.3776 20.4921 24.3607 20.0981C25.3112 21.4203 27.0651 21.7713 28.421 21.045C28.6342 20.9308 28.7632 20.7041 28.7632 20.4622V18.2497C28.7632 19.4685 27.6019 20.3066 26.5349 20.0398Z"
          fill="#B9DCFF"/>
    <path d="M35.1286 12.6289C34.4862 11.5014 33.0301 11.3553 32.2048 12.3278C31.6297 8.01149 29.4719 4.42811 26.4513 2.28183C25.4261 1.55333 24.0224 2.09592 23.6693 3.3911C22.893 2.27442 21.9882 1.29116 20.9671 0.455978C19.8816 -0.431866 18.2272 0.0326397 17.7664 1.36599C17.459 2.25525 17.0012 3.06209 16.4004 3.77527C16.3902 3.72074 16.3805 3.66609 16.3714 3.61135C16.1344 2.18175 14.6388 1.50207 13.5414 2.28183C10.5209 4.42811 8.36317 8.01066 7.78792 12.3278C6.95974 11.3519 5.50455 11.5048 4.86421 12.629C0.944163 19.5102 2.83244 27.9042 8.77093 32.2637C8.8415 32.3155 8.92159 32.3529 9.00662 32.3738C9.09165 32.3946 9.17995 32.3985 9.26649 32.3853C9.35303 32.372 9.4361 32.3418 9.51098 32.2964C9.58585 32.251 9.65105 32.1914 9.70286 32.1208C9.80749 31.9783 9.85123 31.8 9.82444 31.6252C9.79766 31.4505 9.70254 31.2935 9.56002 31.1889C4.03904 27.1358 2.51835 19.4405 6.02273 13.2889C6.21056 12.9592 6.57007 12.9126 6.7994 13.2261C7.11316 13.6555 7.51383 14.0155 7.99025 14.2961C8.42101 14.5499 8.96885 14.2552 8.99443 13.7556C9.21385 9.46251 11.2025 5.57946 14.3138 3.3686C14.6368 3.13926 14.9898 3.42893 15.0562 3.82935C15.1388 4.3283 15.2629 4.81948 15.4273 5.29779C15.5818 5.74654 16.1455 5.8958 16.5014 5.57812C17.6718 4.53386 18.5214 3.26326 19.0266 1.80141C19.1837 1.34691 19.7509 1.18357 20.1231 1.48791C21.4108 2.54117 22.4971 3.8586 23.3519 5.40337C23.6309 5.9078 24.3779 5.84255 24.5655 5.29779C24.7298 4.8195 24.854 4.32831 24.9366 3.82935C25.0042 3.4221 25.3605 3.14218 25.679 3.36851C28.7903 5.57938 30.7789 9.46234 30.9984 13.7556C31.0239 14.2548 31.5711 14.5498 32.0026 14.296C32.4789 14.0154 32.8795 13.6554 33.1933 13.2261C33.422 12.913 33.7819 12.9586 33.97 13.2888C38.3534 20.9835 34.6943 30.2578 27.1806 32.9078C27.1806 31.0654 27.0889 30.6321 28.2226 28.5776C28.7888 27.5515 29.4306 26.3885 29.4306 24.6819V15.997C29.4306 15.8202 29.3604 15.6506 29.2353 15.5256C29.1103 15.4006 28.9407 15.3303 28.7639 15.3303C28.5871 15.3303 28.4175 15.4006 28.2925 15.5256C28.1675 15.6506 28.0973 15.8202 28.0973 15.997V18.2497C28.0973 18.893 27.5739 19.4164 26.9306 19.4164C26.2872 19.4164 25.7639 18.8928 25.7639 18.2491V15.1664C25.7639 14.5231 26.2872 13.9996 26.9306 13.9996C27.1074 13.9996 27.277 13.9294 27.402 13.8044C27.527 13.6794 27.5972 13.5098 27.5972 13.333C27.5972 13.1562 27.527 12.9866 27.402 12.8616C27.277 12.7365 27.1074 12.6663 26.9306 12.6663C26.4452 12.6659 25.9704 12.8076 25.5647 13.074C24.888 11.4414 22.8252 10.927 21.4654 12.055C20.4119 10.2924 17.9076 10.3371 16.8851 12.0573C16.3385 11.611 15.628 11.3954 14.9127 11.4633C13.5675 11.5909 12.5137 12.768 12.5137 14.1431C12.5137 14.3199 12.584 14.4895 12.709 14.6145C12.834 14.7395 13.0036 14.8097 13.1804 14.8097C13.3572 14.8097 13.5268 14.7395 13.6518 14.6145C13.7768 14.4895 13.8471 14.3199 13.8471 14.1431C13.8471 13.4481 14.3705 12.854 15.0387 12.7906C15.8214 12.7165 16.5138 13.2969 16.5138 14.0771V16.9996H11.3974C10.083 16.9996 9.01368 18.0689 9.01368 19.3833V24.4719C9.01368 26.7118 10.0985 27.9417 11.0556 29.0268C11.9721 30.0659 12.7637 30.9633 12.7637 32.698V39.3332C12.7637 39.51 12.834 39.6796 12.959 39.8046C13.084 39.9296 13.2536 39.9999 13.4304 39.9999C13.6072 39.9999 13.7768 39.9296 13.9018 39.8046C14.0268 39.6796 14.0971 39.51 14.0971 39.3332V32.698C14.0971 30.4592 13.0125 29.2296 12.0556 28.1448C11.1388 27.1055 10.347 26.2078 10.347 24.4719V19.3833C10.347 18.8041 10.8182 18.333 11.3974 18.333H17.5537C17.6757 18.3331 17.7926 18.3816 17.8789 18.4679C17.9651 18.5541 18.0136 18.6711 18.0138 18.793C18.0138 20.1936 16.8744 21.333 15.4738 21.333H13.1621C12.9866 21.3342 12.8185 21.4046 12.6945 21.5289C12.5705 21.6533 12.5006 21.8215 12.4999 21.9971C12.4993 22.1727 12.5679 22.3415 12.6909 22.4668C12.814 22.5921 12.9815 22.6637 13.1571 22.6663C15.6886 22.6857 17.9023 24.8313 17.6478 27.3283C17.6389 27.4154 17.6473 27.5034 17.6724 27.5873C17.6975 27.6711 17.7389 27.7492 17.7943 27.8171C17.8496 27.885 17.9177 27.9413 17.9948 27.9828C18.0719 28.0243 18.1564 28.0503 18.2435 28.0592C18.3306 28.068 18.4186 28.0597 18.5024 28.0345C18.5863 28.0094 18.6644 27.968 18.7323 27.9127C18.8001 27.8574 18.8564 27.7892 18.898 27.7122C18.9395 27.6351 18.9654 27.5506 18.9743 27.4635C19.1769 25.4757 18.2283 23.6386 16.6444 22.4855C18.2097 21.9881 19.3471 20.5208 19.3471 18.793C19.3471 17.9042 18.6966 17.1664 17.8471 17.0257V13.4086C17.8471 12.6775 18.4453 12.0828 19.1805 12.0828C19.9156 12.0828 20.5138 12.692 20.5138 13.4407V17.0412C20.5138 18.1994 21.2568 19.2075 22.3627 19.5494C22.7158 19.6586 23.0882 19.4599 23.1965 19.1094C23.2488 18.9405 23.2317 18.7577 23.1492 18.6014C23.0667 18.445 22.9255 18.3278 22.7566 18.2755C22.2128 18.1074 21.8473 17.6113 21.8473 17.0412V14.0756C21.8473 13.3634 22.4267 12.784 23.1389 12.784C23.8512 12.784 24.4306 13.3634 24.4306 14.0756V18.249C24.4306 20.1304 26.4412 21.3374 28.0973 20.4596V24.6818C28.0973 27.4913 25.8473 28.5711 25.8473 31.8287V39.333C25.8473 39.5099 25.9175 39.6794 26.0426 39.8045C26.1676 39.9295 26.3372 39.9997 26.514 39.9997C26.6908 39.9997 26.8604 39.9295 26.9854 39.8045C27.1104 39.6794 27.1807 39.5099 27.1807 39.333V34.3133C35.7769 31.6024 40.0085 21.195 35.1286 12.6289Z"
          fill="#2E58FF"/>
</svg>
