<svg width="40" height="40" viewBox="0 0 40 40" fill="none" xmlns="http://www.w3.org/2000/svg">
    <path d="M30.6001 15.1926C30.8834 15.6834 30.8251 16.3001 30.4551 16.7301L29.3026 18.0659C29.566 19.3419 29.566 20.6583 29.3026 21.9342L30.4551 23.2701C30.6357 23.4797 30.7466 23.7403 30.7726 24.0157C30.7986 24.2912 30.7383 24.5679 30.6001 24.8076L29.4634 26.7759C29.325 27.0155 29.1155 27.2062 28.8639 27.3214C28.6123 27.4367 28.3311 27.4709 28.0593 27.4193L26.3234 27.0893C25.3524 27.9574 24.2128 28.6161 22.9759 29.0243L22.3951 30.6892C22.3041 30.9505 22.1341 31.1769 21.9086 31.3371C21.6831 31.4974 21.4134 31.5834 21.1368 31.5834H18.8634C18.2968 31.5834 17.7918 31.2251 17.6051 30.6892L17.0243 29.0243C15.7873 28.6161 14.6478 27.9574 13.6768 27.0893L11.9409 27.4193C11.6691 27.4709 11.3879 27.4367 11.1363 27.3214C10.8847 27.2062 10.6752 27.0155 10.5368 26.7759L9.4001 24.8076C9.11677 24.3168 9.1751 23.7001 9.5451 23.2701L10.6976 21.9342C10.4342 20.6583 10.4342 19.3419 10.6976 18.0659L9.5451 16.7301C9.36454 16.5204 9.2536 16.2599 9.22762 15.9844C9.20165 15.709 9.26192 15.4323 9.4001 15.1926L10.5368 13.2242C10.6752 12.9846 10.8847 12.794 11.1363 12.6787C11.3879 12.5635 11.6691 12.5293 11.9409 12.5809L13.6768 12.9109C14.6478 12.0428 15.7873 11.3841 17.0243 10.9759L17.6051 9.31092C17.7918 8.77508 18.2968 8.41675 18.8634 8.41675H21.1368C21.7034 8.41675 22.2084 8.775 22.3951 9.31083L22.9759 10.9759C24.2128 11.3841 25.3524 12.0428 26.3234 12.9109L28.0593 12.5809C28.3311 12.5293 28.6123 12.5635 28.8639 12.6787C29.1155 12.794 29.325 12.9846 29.4634 13.2242L30.6001 15.1926ZM25.3334 20.0001C25.3334 17.0542 22.9459 14.6667 20.0001 14.6667C17.0543 14.6667 14.6668 17.0542 14.6668 20.0001C14.6668 22.9459 17.0543 25.3334 20.0001 25.3334C22.9459 25.3334 25.3334 22.9459 25.3334 20.0001Z"
          fill="#D1E7FF"/>
    <path d="M22.3951 9.31083C22.5268 9.68866 22.2463 10.0834 21.8461 10.0834H21.3634C20.7968 10.0834 20.2918 10.4417 20.1051 10.9776L19.8532 11.6997C19.6584 12.2578 19.2285 12.7052 18.6746 12.9119C14.7188 14.3882 12.3214 18.2424 13.0175 22.7332C13.0619 23.0194 13.0435 23.3117 12.9637 23.5901C12.8839 23.8684 12.7446 24.1261 12.5554 24.3452L12.0451 24.9367C11.8645 25.1464 11.7536 25.4069 11.7276 25.6824C11.7016 25.9578 11.7619 26.2346 11.9001 26.4742C12.1859 26.9692 11.685 27.5526 11.1557 27.337C10.928 27.2442 10.7086 27.0735 10.5368 26.7759L9.4001 24.8076C9.11677 24.3167 9.1751 23.7001 9.5451 23.2701L10.6976 21.9342C10.4342 20.6583 10.4342 19.3419 10.6976 18.0659L9.5451 16.7301C9.36454 16.5204 9.2536 16.2599 9.22762 15.9844C9.20165 15.709 9.26192 15.4323 9.4001 15.1926L10.5368 13.2242C10.6752 12.9846 10.8847 12.794 11.1363 12.6787C11.3879 12.5635 11.6691 12.5293 11.9409 12.5809L13.6768 12.9109C14.6478 12.0428 15.7873 11.3841 17.0243 10.9759L17.6051 9.31091C17.7918 8.77508 18.2968 8.41675 18.8634 8.41675H21.1368C21.4133 8.41683 21.683 8.50293 21.9085 8.66313C22.134 8.82333 22.304 9.04968 22.3951 9.31083ZM29.1942 14.5072L29.1365 14.5181C29.0408 14.5365 28.9421 14.5332 28.8478 14.5085C28.7535 14.4839 28.6658 14.4384 28.5913 14.3755C28.3389 14.1611 28.0771 13.9579 27.8066 13.7667C27.3304 13.4306 27.4868 12.6896 28.0593 12.5808C28.3312 12.5292 28.6124 12.5634 28.864 12.6786C29.1156 12.7939 29.3251 12.9845 29.4635 13.2242L29.6412 13.5319C29.8675 13.9242 29.6391 14.4227 29.1942 14.5072Z"
          fill="#E8F3FF"/>
    <path d="M30.3988 34.0111C30.9513 34.9678 30.6238 36.1911 29.6672 36.7436C28.7105 37.2961 27.4872 36.9678 26.9355 36.0111C26.383 35.0545 26.7105 33.832 27.6672 33.2795C28.6238 32.727 29.8472 33.0545 30.3988 34.0111Z"
          fill="#B9DCFF"/>
    <path d="M29.0164 34.3311C28.6269 34.6767 28.3795 35.1681 28.3372 35.6888C28.2783 36.4144 27.3174 36.6498 26.9465 36.0233C26.2038 34.7685 27.0109 33.1839 28.432 33.0165C29.1684 32.9299 29.5711 33.8391 29.0164 34.3311Z"
          fill="#D1E7FF"/>
    <path d="M37.333 22.0002C38.4376 22.0002 39.333 21.1048 39.333 20.0002C39.333 18.8957 38.4376 18.0002 37.333 18.0002C36.2284 18.0002 35.333 18.8957 35.333 20.0002C35.333 21.1048 36.2284 22.0002 37.333 22.0002Z"
          fill="#B9DCFF"/>
    <path d="M37.6627 19.3205C37.2731 19.6661 37.0257 20.1575 36.9834 20.6781C36.9245 21.4037 35.9636 21.6391 35.5927 21.0126C34.85 19.7579 35.6571 18.1732 37.0782 18.0059C37.8147 17.9192 38.2173 18.8285 37.6627 19.3205ZM29.6672 3.25681C30.6238 3.80931 30.9513 5.03264 30.3988 5.98931C29.8472 6.94597 28.6238 7.27347 27.6672 6.72097C26.7105 6.16847 26.383 4.94597 26.9355 3.98931C27.4872 3.03264 28.7105 2.70431 29.6672 3.25681Z"
          fill="#D1E7FF"/>
    <path d="M29.0164 4.31671C28.6269 4.66229 28.3795 5.15371 28.3372 5.67438C28.2783 6.39996 27.3174 6.63538 26.9465 6.00888C26.2038 4.75413 27.0109 3.16946 28.432 3.00213C29.1684 2.91538 29.5711 3.82463 29.0164 4.31671Z"
          fill="#E8F3FF"/>
    <path d="M13.0648 3.98931C13.6173 4.94597 13.2898 6.16847 12.3332 6.72097C11.3765 7.27347 10.1532 6.94597 9.6015 5.98931C9.049 5.03264 9.3765 3.80931 10.3332 3.25681C11.2898 2.70431 12.5132 3.03264 13.0648 3.98931Z"
          fill="#B9DCFF"/>
    <path d="M11.6833 4.31671C11.2937 4.66229 11.0464 5.15371 11.0041 5.67438C10.9451 6.39996 9.98423 6.63538 9.6134 6.00888C8.8714 4.75546 9.6764 3.16963 11.0989 3.00213C11.8353 2.91538 12.238 3.82463 11.6833 4.31671Z"
          fill="#D1E7FF"/>
    <path d="M2.66699 22.0002C3.77156 22.0002 4.66699 21.1048 4.66699 20.0002C4.66699 18.8957 3.77156 18.0002 2.66699 18.0002C1.56242 18.0002 0.666992 18.8957 0.666992 20.0002C0.666992 21.1048 1.56242 22.0002 2.66699 22.0002Z"
          fill="#B9DCFF"/>
    <path d="M3.01644 19.3204C2.62686 19.6659 2.37952 20.1574 2.33719 20.678C2.27827 21.4036 1.31736 21.639 0.946525 21.0125C0.203775 19.7578 1.01086 18.1731 2.43202 18.0058C3.16844 17.9191 3.57111 18.8284 3.01644 19.3204ZM12.3333 33.2792C13.2899 33.8317 13.6174 35.0542 13.0649 36.0109C12.5133 36.9675 11.2899 37.2959 10.3333 36.7434C9.37661 36.1909 9.04911 34.9675 9.60161 34.0109C10.1533 33.0542 11.3766 32.7267 12.3333 33.2792Z"
          fill="#D1E7FF"/>
    <path d="M11.6834 34.3309C11.2938 34.6764 11.0465 35.1679 11.0042 35.6885C10.9453 36.4141 9.98435 36.6495 9.61352 36.023C8.87077 34.7683 9.67785 33.1836 11.099 33.0163C11.8354 32.9296 12.2381 33.8389 11.6834 34.3309Z"
          fill="#E8F3FF"/>
    <path d="M30.0178 21.7423C30.2152 20.5891 30.2152 19.4109 30.0178 18.2578L30.9599 17.1652C31.2307 16.8507 31.397 16.4599 31.436 16.0468C31.4749 15.6336 31.3845 15.2186 31.1772 14.8591L30.0409 12.891C29.616 12.1552 28.7695 11.7676 27.9351 11.9262L26.5159 12.1961C25.6129 11.4406 24.6009 10.8555 23.4997 10.4525L23.0249 9.09133C22.888 8.69961 22.6327 8.36011 22.2945 8.1198C21.9562 7.8795 21.5516 7.75027 21.1366 7.75H18.864C18.0144 7.75 17.2555 8.289 16.9756 9.09133L16.5008 10.4525C15.3995 10.8555 14.3875 11.4405 13.4846 12.1961L12.0654 11.9262C11.2307 11.7677 10.3845 12.1552 9.95961 12.891L8.82328 14.8591C8.39844 15.5949 8.48578 16.5217 9.04061 17.1651L9.98269 18.2578C9.78528 19.4109 9.78528 20.5891 9.98269 21.7423L9.04061 22.8348C8.76981 23.1493 8.60343 23.5401 8.5645 23.9532C8.52556 24.3664 8.61599 24.7814 8.82328 25.1409L9.95961 27.109C10.3844 27.8448 11.2306 28.2325 12.0654 28.0738L13.4846 27.8039C14.3875 28.5594 15.3995 29.1445 16.5008 29.5475L16.9756 30.9087C17.2555 31.711 18.0144 32.25 18.864 32.25H21.1366C21.9863 32.25 22.7451 31.711 23.025 30.9087L23.6059 29.2433C23.6642 29.0764 23.6537 28.8932 23.5768 28.7339C23.4999 28.5747 23.363 28.4526 23.196 28.3943C23.0291 28.3361 22.8459 28.3466 22.6866 28.4235C22.5274 28.5003 22.4053 28.6373 22.347 28.8043L21.7661 30.4696C21.7205 30.6002 21.6354 30.7133 21.5226 30.7934C21.4098 30.8735 21.2749 30.9166 21.1366 30.9167H18.864C18.7257 30.9166 18.5908 30.8735 18.4781 30.7934C18.3653 30.7133 18.2802 30.6001 18.2345 30.4696L17.6536 28.8043C17.6199 28.7076 17.5645 28.6201 17.4915 28.5484C17.4185 28.4767 17.33 28.4227 17.2329 28.3907C16.079 28.0103 15.0319 27.405 14.1206 26.5915C14.0443 26.5234 13.9533 26.4737 13.8547 26.4464C13.7562 26.419 13.6526 26.4148 13.5521 26.4338L11.8163 26.764C11.6804 26.7897 11.5399 26.7725 11.4141 26.7149C11.2884 26.6573 11.1837 26.5621 11.1144 26.4424L9.97803 24.4743C9.90893 24.3545 9.87879 24.2161 9.89178 24.0784C9.90477 23.9407 9.96024 23.8104 10.0505 23.7056L11.2025 22.3695C11.2692 22.2921 11.3173 22.2005 11.3429 22.1016C11.3686 22.0027 11.3711 21.8992 11.3504 21.7992C11.107 20.6222 11.107 19.3778 11.3504 18.2008C11.3711 18.1008 11.3686 17.9973 11.3429 17.8984C11.3173 17.7996 11.2692 17.7079 11.2025 17.6305L10.0505 16.2943C9.96027 16.1895 9.90483 16.0592 9.89185 15.9215C9.87888 15.7838 9.90902 15.6455 9.97811 15.5257L11.1144 13.5576C11.1837 13.4378 11.2884 13.3426 11.4142 13.285C11.5399 13.2274 11.6805 13.2103 11.8164 13.236L13.5522 13.5662C13.6527 13.5854 13.7563 13.5811 13.8549 13.5538C13.9535 13.5264 14.0444 13.4767 14.1207 13.4085C15.0319 12.595 16.079 11.9898 17.2329 11.6093C17.3301 11.5773 17.4186 11.5233 17.4916 11.4516C17.5645 11.3799 17.62 11.2924 17.6537 11.1958L18.2346 9.53042C18.2803 9.39984 18.3654 9.28669 18.4781 9.20659C18.5909 9.1265 18.7258 9.08342 18.8641 9.08333H21.1367C21.275 9.08345 21.4099 9.12653 21.5226 9.20662C21.6354 9.28671 21.7205 9.39986 21.7662 9.53042L22.3471 11.1958C22.3808 11.2924 22.4363 11.3799 22.5092 11.4516C22.5822 11.5233 22.6707 11.5773 22.7679 11.6093C23.9218 11.9897 24.9689 12.595 25.8801 13.4085C25.9564 13.4767 26.0474 13.5263 26.146 13.5537C26.2445 13.581 26.3481 13.5853 26.4486 13.5662L28.1844 13.236C28.3203 13.2103 28.4609 13.2275 28.5866 13.2851C28.7123 13.3427 28.8171 13.4379 28.8864 13.5576L30.0227 15.5257C30.0918 15.6455 30.1219 15.7839 30.1089 15.9216C30.096 16.0593 30.0405 16.1896 29.9502 16.2944L28.7982 17.6305C28.7315 17.7079 28.6835 17.7996 28.6578 17.8984C28.6322 17.9973 28.6296 18.1008 28.6503 18.2008C28.8937 19.3778 28.8937 20.6222 28.6503 21.7992C28.6296 21.8992 28.6322 22.0027 28.6578 22.1016C28.6835 22.2005 28.7315 22.2921 28.7982 22.3695L29.9502 23.7057C30.0404 23.8105 30.0959 23.9408 30.1089 24.0785C30.1218 24.2162 30.0917 24.3545 30.0226 24.4743L28.8863 26.4424C28.8171 26.5622 28.7124 26.6575 28.5866 26.7151C28.4608 26.7727 28.3203 26.7898 28.1844 26.764L26.4485 26.4338C26.2748 26.4009 26.0952 26.4382 25.949 26.5377C25.8028 26.6371 25.7021 26.7905 25.669 26.9642C25.636 27.1379 25.6733 27.3176 25.7728 27.4638C25.8722 27.6099 26.0257 27.7106 26.1994 27.7437L27.9352 28.0738C28.7696 28.232 29.6161 27.8448 30.0409 27.109L31.1773 25.1409C31.6021 24.4051 31.5148 23.4783 30.9599 22.8349L30.0178 21.7423Z"
          fill="#2E58FF"/>
    <path d="M15.3045 17.3821C15.1406 17.3158 14.9571 17.3172 14.7943 17.3862C14.6315 17.4552 14.5028 17.586 14.4364 17.7498C12.8463 21.6779 15.7452 26.0001 20 26.0001C23.3084 26.0001 26 23.3085 26 20.0001C26 15.5383 21.3068 12.6681 17.3537 14.6138C17.195 14.6919 17.0739 14.8298 17.017 14.9972C16.96 15.1646 16.9719 15.3477 17.0499 15.5063C17.2125 15.8368 17.6122 15.973 17.9424 15.8102C21.0103 14.3003 24.6667 16.5266 24.6667 20.0001C24.6667 22.5733 22.5732 24.6668 20 24.6668C16.618 24.6668 14.4623 21.2393 15.6723 18.2502C15.7387 18.0863 15.7372 17.9028 15.6682 17.74C15.5992 17.5772 15.4684 17.4484 15.3045 17.3821ZM15.9773 3.80268C16.2743 3.80268 19.5446 2.75718 23.868 3.78443C24.04 3.82531 24.2212 3.79617 24.3718 3.70344C24.5223 3.6107 24.6299 3.46196 24.6708 3.28993C24.7116 3.11791 24.6825 2.93669 24.5898 2.78614C24.497 2.6356 24.3483 2.52806 24.1763 2.48718C21.4441 1.83793 18.5559 1.83793 15.8238 2.48718C15.7387 2.50742 15.6583 2.54424 15.5873 2.59553C15.5164 2.64683 15.4562 2.7116 15.4103 2.78614C15.3644 2.86068 15.3336 2.94354 15.3197 3.02998C15.3058 3.11642 15.3091 3.20475 15.3293 3.28993C15.364 3.43581 15.4467 3.56576 15.5643 3.65879C15.6819 3.75183 15.8274 3.80252 15.9773 3.80268ZM35.9775 15.2412C36.002 15.3257 36.0429 15.4045 36.0979 15.4731C36.153 15.5417 36.2211 15.5987 36.2983 15.6409C36.3754 15.683 36.4602 15.7095 36.5477 15.7188C36.6351 15.728 36.7236 15.7199 36.8079 15.6948C36.8922 15.6698 36.9707 15.6283 37.0389 15.5727C37.1071 15.5172 37.1636 15.4487 37.2052 15.3712C37.2468 15.2937 37.2727 15.2087 37.2813 15.1212C37.29 15.0337 37.2812 14.9453 37.2555 14.8612C36.4569 12.1759 35.0116 9.67543 33.0756 7.62968C32.9531 7.5053 32.7867 7.43391 32.6122 7.43083C32.4377 7.42775 32.2689 7.49323 32.1421 7.61321C32.0153 7.73319 31.9406 7.89811 31.9341 8.07255C31.9275 8.24698 31.9896 8.41703 32.1071 8.54618C33.9 10.4404 35.2383 12.7557 35.9775 15.2412ZM36.8066 24.3101C36.7227 24.2851 36.6347 24.2769 36.5476 24.286C36.4605 24.295 36.376 24.3212 36.2991 24.3629C36.2221 24.4046 36.1541 24.461 36.0989 24.529C36.0437 24.597 36.0025 24.6752 35.9776 24.7591C35.2384 27.2446 33.9001 29.5598 32.1073 31.4542C31.7039 31.8804 32.0118 32.5791 32.5913 32.5791C32.682 32.5792 32.7718 32.5608 32.855 32.525C32.9383 32.4891 33.0134 32.4366 33.0757 32.3707C35.0117 30.3249 36.457 27.8244 37.2556 25.1392C37.2805 25.0553 37.2887 24.9672 37.2797 24.8802C37.2706 24.7931 37.2445 24.7086 37.2028 24.6316C37.1611 24.5547 37.1047 24.4866 37.0367 24.4315C36.9687 24.3763 36.8905 24.3351 36.8066 24.3101ZM23.868 36.2158C21.3377 36.8171 18.6626 36.8171 16.1321 36.2158C16.0469 36.1955 15.9586 36.1923 15.8721 36.2062C15.7857 36.2201 15.7028 36.2508 15.6283 36.2968C15.5538 36.3427 15.489 36.4028 15.4377 36.4738C15.3864 36.5447 15.3496 36.6251 15.3293 36.7103C15.3091 36.7954 15.3058 36.8838 15.3197 36.9702C15.3336 37.0567 15.3644 37.1395 15.4103 37.2141C15.4562 37.2886 15.5164 37.3534 15.5873 37.4047C15.6583 37.456 15.7387 37.4928 15.8238 37.513C18.5556 38.1622 21.4442 38.1623 24.1763 37.513C24.2614 37.4928 24.3418 37.456 24.4127 37.4047C24.4837 37.3534 24.5438 37.2886 24.5898 37.2141C24.6357 37.1395 24.6665 37.0567 24.6804 36.9702C24.6943 36.8838 24.691 36.7954 24.6708 36.7103C24.6505 36.6251 24.6137 36.5447 24.5624 36.4738C24.5111 36.4028 24.4463 36.3427 24.3718 36.2968C24.2972 36.2508 24.2144 36.2201 24.128 36.2062C24.0415 36.1923 23.9532 36.1955 23.868 36.2158ZM4.0225 24.7591C3.97112 24.5908 3.85529 24.4496 3.70025 24.3664C3.54521 24.2831 3.36355 24.2646 3.19488 24.3147C3.0262 24.3649 2.8842 24.4797 2.79983 24.6341C2.71546 24.7885 2.69557 24.9701 2.7445 25.1391C3.54308 27.8244 4.98842 30.3249 6.92442 32.3706C6.98667 32.4365 7.06175 32.489 7.14504 32.5249C7.22833 32.5607 7.31807 32.5791 7.40875 32.579C7.9885 32.579 8.296 31.8801 7.89283 31.4541C6.1 29.5598 4.76167 27.2446 4.0225 24.7591ZM6.92433 7.6296C4.98833 9.67535 3.543 12.1759 2.74442 14.8611C2.71946 14.945 2.71127 15.033 2.72033 15.1201C2.72938 15.2072 2.75551 15.2916 2.7972 15.3686C2.8389 15.4456 2.89535 15.5136 2.96333 15.5688C3.03131 15.6239 3.1095 15.6652 3.19342 15.6901C3.27733 15.7151 3.36534 15.7232 3.45242 15.7142C3.5395 15.7051 3.62394 15.679 3.70092 15.6373C3.7779 15.5956 3.84592 15.5392 3.90108 15.4712C3.95624 15.4032 3.99747 15.325 4.02242 15.2411C4.76158 12.7556 6.09992 10.4404 7.89275 8.54602C8.01252 8.41728 8.07658 8.24644 8.07099 8.0707C8.0654 7.89496 7.9906 7.72854 7.86289 7.60768C7.73517 7.48682 7.56488 7.42132 7.3891 7.42542C7.21331 7.42953 7.04627 7.50291 6.92433 7.6296ZM12.6667 7.29843C12.8182 7.20919 12.9283 7.06374 12.973 6.89371C13.0178 6.72369 12.9936 6.54287 12.9057 6.3906C12.8178 6.23834 12.6733 6.12695 12.5037 6.08069C12.3341 6.03443 12.153 6.05704 12 6.1436C11.3633 6.51118 10.5463 6.29226 10.1787 5.65568C9.81108 5.01893 10.03 4.20193 10.6667 3.83435C11.3033 3.4666 12.1204 3.6856 12.488 4.32235C12.577 4.47422 12.7225 4.58471 12.8927 4.62971C13.0629 4.6747 13.244 4.65056 13.3965 4.56253C13.5489 4.47451 13.6604 4.32975 13.7065 4.15986C13.7526 3.98996 13.7297 3.80872 13.6427 3.65568C12.9075 2.38227 11.2734 1.94426 10 2.67968C8.72658 3.41485 8.28875 5.04901 9.02392 6.32243C9.75558 7.58951 11.3873 8.03693 12.6667 7.29843ZM27.3333 32.7018C27.1818 32.791 27.0717 32.9365 27.027 33.1065C26.9822 33.2765 27.0064 33.4573 27.0943 33.6096C27.1822 33.7619 27.3267 33.8732 27.4963 33.9195C27.6659 33.9658 27.847 33.9432 28 33.8566C28.6366 33.4889 29.4538 33.7078 29.8213 34.3445C30.1889 34.9812 29.97 35.7983 29.3333 36.1659C28.6967 36.5333 27.8795 36.3145 27.512 35.6778C27.3279 35.359 26.9202 35.25 26.6013 35.4338C26.4482 35.5222 26.3365 35.6678 26.2908 35.8386C26.245 36.0094 26.269 36.1914 26.3573 36.3445C26.8507 37.1991 27.7488 37.6774 28.6712 37.6774C30.7109 37.6774 32.0013 35.4535 30.9762 33.6778C30.2409 32.4046 28.6068 31.9667 27.3333 32.7018ZM27.3333 7.29843C28.6174 8.03952 30.2471 7.58493 30.9761 6.32235C31.7113 5.04893 31.2734 3.41477 30 2.6796C29.847 2.59259 29.6657 2.56964 29.4958 2.61577C29.3259 2.66189 29.1812 2.77334 29.0932 2.9258C29.0051 3.07826 28.981 3.25935 29.026 3.42954C29.071 3.59974 29.1815 3.74523 29.3333 3.83426C29.97 4.20193 30.189 5.01901 29.8213 5.65568C29.4538 6.29235 28.6368 6.51118 28 6.14368C27.3633 5.77602 27.1443 4.95893 27.512 4.32235C27.6004 4.16923 27.6244 3.98726 27.5786 3.81648C27.5328 3.6457 27.4211 3.50009 27.268 3.41168C27.1922 3.36789 27.1085 3.33946 27.0217 3.32802C26.9349 3.31658 26.8467 3.32236 26.7621 3.34502C26.6775 3.36767 26.5983 3.40677 26.5288 3.46008C26.4594 3.51338 26.4011 3.57985 26.3573 3.65568C25.6221 4.9291 26.0599 6.56318 27.3333 7.29843ZM13.3988 35.4338C13.0798 35.2499 12.6721 35.3589 12.4881 35.6778C12.1205 36.3146 11.3034 36.5333 10.6668 36.1659C10.0301 35.7983 9.81108 34.9812 10.1788 34.3445C10.5463 33.7078 11.3634 33.489 12.0001 33.8566C12.1531 33.9432 12.3341 33.9658 12.5038 33.9195C12.6734 33.8732 12.8179 33.7619 12.9058 33.6096C12.9937 33.4573 13.0179 33.2765 12.9731 33.1065C12.9283 32.9365 12.8182 32.791 12.6668 32.7018C11.3933 31.9669 9.75925 32.4046 9.024 33.6778C8.28883 34.9513 8.72667 36.5854 10.0001 37.3207C11.2814 38.0604 12.9123 37.6098 13.6428 36.3445C13.7312 36.1914 13.7551 36.0094 13.7093 35.8386C13.6636 35.6678 13.5519 35.5222 13.3988 35.4338ZM37.3333 17.3334C35.8629 17.3334 34.6667 18.5297 34.6667 20.0001C34.6667 21.4705 35.8629 22.6668 37.3333 22.6668C37.5101 22.6668 37.6797 22.5965 37.8047 22.4715C37.9298 22.3465 38 22.1769 38 22.0001C38 21.8233 37.9298 21.6537 37.8047 21.5287C37.6797 21.4037 37.5101 21.3334 37.3333 21.3334C36.5982 21.3334 36 20.7353 36 20.0001C36 19.2649 36.5982 18.6668 37.3333 18.6668C38.0685 18.6668 38.6667 19.2649 38.6667 20.0001C38.6667 20.1769 38.7369 20.3465 38.8619 20.4715C38.987 20.5965 39.1565 20.6668 39.3333 20.6668C39.5101 20.6668 39.6797 20.5965 39.8047 20.4715C39.9298 20.3465 40 20.1769 40 20.0001C40 18.5298 38.8038 17.3334 37.3333 17.3334ZM5.33333 20.0001C5.33333 18.5297 4.13708 17.3334 2.66667 17.3334C1.19625 17.3334 0 18.5298 0 20.0001C0 20.1769 0.0702379 20.3465 0.195262 20.4715C0.320286 20.5965 0.489856 20.6668 0.666667 20.6668C0.843478 20.6668 1.01305 20.5965 1.13807 20.4715C1.2631 20.3465 1.33333 20.1769 1.33333 20.0001C1.33333 19.2649 1.9315 18.6668 2.66667 18.6668C3.40183 18.6668 4 19.2649 4 20.0001C4 20.7353 3.40183 21.3334 2.66667 21.3334C2.48986 21.3334 2.32029 21.4037 2.19526 21.5287C2.07024 21.6537 2 21.8233 2 22.0001C2 22.1769 2.07024 22.3465 2.19526 22.4715C2.32029 22.5965 2.48986 22.6668 2.66667 22.6668C4.13708 22.6668 5.33333 21.4705 5.33333 20.0001Z"
          fill="#2E58FF"/>
</svg>
