<svg width="40" height="40" viewBox="0 0 40 40" fill="none" xmlns="http://www.w3.org/2000/svg">
    <g clip-path="url(#clip0_852_4031)">
        <path d="M19.9997 39.3287C30.6742 39.3287 39.3275 30.6754 39.3275 20.0009C39.3275 9.32645 30.6742 0.673096 19.9997 0.673096C9.32523 0.673096 0.671875 9.32645 0.671875 20.0009C0.671875 30.6754 9.32523 39.3287 19.9997 39.3287Z"
              fill="#0F0F00"/>
        <path d="M31.0802 20.0009H39.3278C39.3278 30.6753 30.6745 39.3287 20 39.3287C20.459 39.0596 31.0802 32.5714 31.0802 20.0009Z"
              fill="#0F0F00"/>
        <path d="M39.3278 20.0008H31.0802V19.9175C31.0335 7.40022 20.5015 0.967056 20 0.672974C30.6745 0.672974 39.3278 9.32634 39.3278 20.0008ZM20 39.3286V20.0008H31.0802C31.0802 32.5714 20.459 39.0595 20 39.3286Z"
              fill="#0F0F00"/>
        <path d="M20.002 0.673096C20.5036 0.967178 31.0356 7.40034 31.0822 19.9176V20.0009H20.002V0.673096ZM20.002 20.0009V39.3287C19.543 39.0596 8.92188 32.5715 8.92188 20.0009H20.002Z"
              fill="#0F0F00"/>
        <path d="M19.9997 0.673096V20.0009H8.91952V19.9176C8.96617 7.40034 19.4982 0.967178 19.9997 0.673096ZM8.91952 20.0009C8.91952 32.5715 19.5407 39.0596 19.9997 39.3287C9.32524 39.3287 0.671875 30.6754 0.671875 20.0009H8.91952Z"
              fill="#0F0F00"/>
        <path d="M34.1389 5.86278C26.351 -1.92533 13.7086 -1.98314 5.86281 5.86278C-1.95137 13.677 -1.95196 26.3242 5.86281 34.139C13.6695 41.9458 26.3166 41.9614 34.1389 34.139C41.9532 26.3247 41.9538 13.6776 34.1389 5.86278ZM20.6673 19.3344V6.6713C20.6673 6.49454 20.5971 6.32502 20.4721 6.20003C20.3471 6.07504 20.1776 6.00483 20.0009 6.00483C19.8241 6.00483 19.6546 6.07504 19.5296 6.20003C19.4046 6.32502 19.3344 6.49454 19.3344 6.6713V19.3344H9.59808C9.74537 14.5059 11.4932 10.0697 14.8002 6.1407C16.9831 3.54711 19.1772 1.99555 20.0009 1.45912C20.8245 1.99547 23.0186 3.54703 25.2015 6.1407C28.5086 10.0697 30.2563 14.5058 30.4036 19.3344H20.6673ZM30.4034 20.6673C30.1844 27.8398 26.2257 34.0614 20.6674 38.0788V20.6673H30.4034ZM17.7027 1.48112C12.1852 5.83554 8.47598 12.1085 8.26413 19.3344H1.35277C1.67784 10.1236 8.70925 2.59055 17.7027 1.48112ZM1.35277 20.6673H8.26554C8.42175 25.9623 10.4183 30.6781 13.7127 34.6281C13.8267 34.7611 13.9885 34.8439 14.1631 34.8585C14.3377 34.8731 14.5111 34.8183 14.6456 34.7061C14.7802 34.5939 14.8651 34.4332 14.8821 34.2588C14.8991 34.0844 14.8467 33.9104 14.7364 33.7743C11.4703 29.8582 9.7447 25.4519 9.59858 20.6673H19.3346V38.649C9.5735 38.3044 1.69725 30.4283 1.35277 20.6673ZM22.2958 38.521C27.819 34.1536 31.5237 27.8765 31.7363 20.6673H34.3302C34.5069 20.6673 34.6765 20.5971 34.8015 20.4721C34.9264 20.3471 34.9967 20.1776 34.9967 20.0008C34.9967 19.8241 34.9264 19.6546 34.8015 19.5296C34.6765 19.4046 34.5069 19.3344 34.3302 19.3344H31.7377C31.5251 12.0833 27.7778 5.8048 22.299 1.48103C31.5086 2.61721 38.6622 10.489 38.6622 20.0008C38.6622 29.5139 31.5069 37.3863 22.2958 38.521Z"
              fill="#FFFF9C"/>
    </g>
    <defs>
        <clipPath id="clip0_852_4031">
            <rect width="40" height="40" fill="white"/>
        </clipPath>
    </defs>
</svg>
