<svg width="40" height="40" viewBox="0 0 40 40" fill="none" xmlns="http://www.w3.org/2000/svg">
    <g clip-path="url(#clip0_148_599)">
        <path d="M38.9171 30.0633L38.6871 29.8333C38.3329 29.4791 37.8163 29.3266 37.3329 29.4591C35.7345 29.8974 34.1687 28.3349 34.6087 26.734C34.7412 26.2515 34.5878 25.734 34.2337 25.3798L34.0045 25.1507C33.4478 24.594 32.5453 24.594 31.9886 25.1507L29.4427 27.6974L23.7284 21.9831C25.3634 19.8289 26.3343 17.143 26.3343 14.2304C26.3343 7.1427 20.5883 1.39673 13.5006 1.39673C6.41297 1.39673 0.666992 7.1427 0.666992 14.2304C0.666992 21.3181 6.41297 27.064 13.5006 27.064C16.4132 27.064 19.0991 26.0932 21.2533 24.4581L35.0087 38.2135C35.5295 38.7343 36.3737 38.7343 36.8946 38.2135L37.4837 37.6243C38.0046 37.1035 38.0046 36.2593 37.4837 35.7384L36.3704 34.6251L38.9171 32.0783C39.4738 31.5216 39.4738 30.62 38.9171 30.0633Z"
              fill="#D1E7FF"/>
        <path d="M36.0196 37.3912C36.5586 37.93 35.8677 38.8052 35.228 38.3911C35.0553 38.2792 35.8634 39.0682 22.5557 25.7606C22.2711 25.476 22.318 25.006 22.6485 24.7764C22.9261 24.5836 23.2654 24.6369 23.4746 24.8461L36.0196 37.3912ZM2.33371 15.0637C2.33371 17.3975 2.95672 19.5859 4.04567 21.4716C4.33659 21.9753 3.62107 22.4423 3.26948 21.9789C1.66119 19.8588 0.696832 17.2234 0.667665 14.3639C0.595329 7.26771 6.36822 1.3989 13.4967 1.39673C14.0797 1.39656 14.1337 2.2475 13.5556 2.32242C7.47158 3.11027 2.33371 8.26707 2.33371 15.0637Z"
              fill="#E8F3FF"/>
        <path d="M38.9178 30.0633C39.4744 30.62 39.4744 31.5217 38.9178 32.0783L36.371 34.6251L29.4434 27.6974L31.9893 25.1507C32.5459 24.594 33.4485 24.594 34.0051 25.1507L34.2343 25.3798C34.5885 25.734 34.7418 26.2515 34.6093 26.734C34.1693 28.3349 35.7352 29.8975 37.3336 29.4591C37.8169 29.3266 38.3336 29.4791 38.6878 29.8333L38.9178 30.0633Z"
              fill="#D1E7FF"/>
        <path d="M38.7508 29.8993C39.1565 30.283 38.997 30.967 38.4169 31.1258C37.7874 31.2984 37.163 31.1607 36.6641 30.8325C36.1023 30.4629 36.3337 29.594 37.0024 29.522C37.1143 29.5099 37.225 29.4889 37.3336 29.4591C37.7901 29.3339 38.2762 29.463 38.6273 29.7761C38.6273 29.7761 38.7371 29.8863 38.7508 29.8993ZM34.2433 25.3889C34.5899 25.7417 34.3758 26.3462 33.8859 26.4132C33.5778 26.4551 33.2921 26.5972 33.0726 26.8174L31.2512 28.6394C31.1944 28.6963 31.1269 28.7414 31.0526 28.7722C30.9784 28.803 30.8988 28.8188 30.8184 28.8188C30.738 28.8188 30.6584 28.803 30.5841 28.7722C30.5098 28.7415 30.4423 28.6964 30.3855 28.6395L29.4434 27.6974L31.9893 25.1507C32.5459 24.594 33.4485 24.594 34.0051 25.1507L34.2433 25.3889Z"
              fill="#E8F3FF"/>
        <path d="M13.5019 4.56348C8.16257 4.56348 3.83496 8.89108 3.83496 14.2304C3.83496 16.1446 4.39081 17.9288 5.35083 19.4297C9.15584 25.3846 17.8491 25.3827 21.6529 19.4297C22.6129 17.9288 23.1688 16.1446 23.1688 14.2304C23.1688 8.89108 18.8412 4.56348 13.5019 4.56348Z"
              fill="#D1E7FF"/>
        <path d="M14.0872 4.58092C14.6673 4.61551 14.7232 5.45803 14.1527 5.56936C8.80886 6.61197 5.28394 11.937 6.61072 17.3636C6.62967 17.4408 6.62967 17.5214 6.61072 17.5986C6.59177 17.6759 6.55443 17.7473 6.50189 17.807C6.06163 18.3055 5.67577 18.8494 5.35086 19.4297C4.37667 17.9068 3.81874 16.092 3.83532 14.1458C3.88215 8.67711 8.53327 4.24975 14.0872 4.58092Z"
              fill="#E8F3FF"/>
        <path d="M21.6507 19.4296C17.8458 25.3845 9.1524 25.3827 5.34863 19.4296C6.48366 17.4004 8.35537 15.8387 10.6004 15.1062C12.1972 16.7156 14.8005 16.7173 16.3989 15.1062C18.644 15.8387 20.5157 17.4004 21.6507 19.4296Z"
              fill="#B9DCFF"/>
        <path d="M8.1952 22.3135C7.05409 21.5631 6.08411 20.5803 5.34863 19.4295C5.56422 19.0445 5.80674 18.6753 6.0744 18.3245C6.31457 18.0097 6.80442 18.08 6.94292 18.4508C7.3701 19.5941 8.0157 20.6511 8.8418 21.5607C9.23815 21.9971 8.68772 22.6373 8.1952 22.3135ZM13.4997 8.14673C15.7547 8.14673 17.5831 9.97511 17.5831 12.2302C17.5831 13.3519 17.1314 14.3677 16.3989 15.1061C14.8021 16.7154 12.1989 16.7172 10.6004 15.1061C9.86791 14.3677 9.41623 13.3519 9.41623 12.2302C9.41623 9.97511 11.2446 8.14673 13.4997 8.14673Z"
              fill="#D1E7FF"/>
        <path d="M11.3405 14.4917C11.5311 15.0032 10.879 15.4085 10.5075 15.0085C9.78077 14.2258 9.35684 13.1569 9.42393 11.989C9.5546 9.71502 11.5744 7.92889 13.9196 8.16798C14.466 8.22365 14.5369 8.98858 14.0105 9.14517C11.7139 9.82836 10.5236 12.3013 11.3405 14.4917Z"
              fill="#E8F3FF"/>
        <path d="M39.3883 29.5917L39.1586 29.3619C38.6285 28.8318 37.8615 28.6224 37.1568 28.8158C36.0541 29.1184 34.9477 28.0144 35.251 26.911C35.4449 26.2064 35.2356 25.4391 34.705 24.9084L34.4756 24.679C33.6583 23.8616 32.335 23.8613 31.5174 24.679L31.2252 24.9711C31.1633 25.033 31.1142 25.1065 31.0807 25.1873C31.0471 25.2682 31.0299 25.3549 31.0299 25.4425C31.0299 25.53 31.0471 25.6167 31.0806 25.6976C31.1141 25.7785 31.1632 25.852 31.2251 25.9139C31.287 25.9758 31.3605 26.0249 31.4414 26.0584C31.5222 26.0919 31.6089 26.1092 31.6965 26.1092C31.784 26.1092 31.8707 26.092 31.9516 26.0585C32.0325 26.025 32.106 25.9759 32.1679 25.9139L32.4601 25.6218C32.5306 25.5513 32.6142 25.4954 32.7062 25.4572C32.7982 25.4191 32.8969 25.3994 32.9965 25.3994C33.0961 25.3994 33.1948 25.4191 33.2868 25.4572C33.3788 25.4954 33.4624 25.5513 33.5328 25.6218L33.7623 25.8512C33.9545 26.0434 34.0324 26.314 33.9654 26.5574C33.3883 28.6566 35.4075 30.6782 37.5094 30.1016C37.7529 30.0348 38.0237 30.1126 38.2159 30.3047L38.4455 30.5344C38.7413 30.8301 38.7413 31.3113 38.4455 31.6071L35.8988 34.1537C35.8369 34.2156 35.7878 34.2891 35.7543 34.37C35.7208 34.4509 35.7035 34.5376 35.7035 34.6251C35.7035 34.7127 35.7208 34.7994 35.7543 34.8802C35.7878 34.9611 35.8369 35.0346 35.8988 35.0965L37.0123 36.21C37.0742 36.2719 37.1234 36.3454 37.1569 36.4263C37.1904 36.5072 37.2077 36.5939 37.2077 36.6814C37.2077 36.769 37.1904 36.8557 37.1569 36.9366C37.1234 37.0174 37.0742 37.0909 37.0123 37.1528L36.423 37.7421C36.1631 38.002 35.7401 38.002 35.4801 37.7421L21.7242 23.9863C21.6103 23.8723 21.4589 23.8035 21.2981 23.7925C21.1373 23.7816 20.978 23.8293 20.8497 23.9267C18.7208 25.5429 16.1794 26.3973 13.5003 26.3973C6.79142 26.3973 1.33337 20.9392 1.33337 14.2303C1.33337 7.5214 6.79142 2.06335 13.5003 2.06335C20.2093 2.06335 25.6673 7.5214 25.6673 14.2303C25.6673 16.9094 24.813 19.4508 23.1967 21.5797C23.0993 21.708 23.0517 21.8673 23.0626 22.0281C23.0736 22.1889 23.1424 22.3402 23.2563 22.4542L33.1647 32.3625C33.2898 32.4875 33.4593 32.5578 33.6361 32.5578C33.8129 32.5578 33.9825 32.4875 34.1075 32.3625C34.1694 32.3006 34.2186 32.2271 34.2521 32.1463C34.2856 32.0654 34.3028 31.9787 34.3028 31.8911C34.3028 31.8036 34.2856 31.7169 34.2521 31.636C34.2186 31.5551 34.1694 31.4816 34.1075 31.4197L24.6016 21.9139C26.1731 19.6516 27.0007 17.0074 27.0007 14.2303C27.0007 6.78621 20.9444 0.72998 13.5003 0.72998C6.05623 0.72998 0 6.78621 0 14.2303C0 21.6744 6.05623 27.7307 13.5003 27.7307C16.2774 27.7307 18.9216 26.903 21.1839 25.3317L34.5373 38.685C35.3171 39.4648 36.586 39.4649 37.3658 38.685L37.955 38.0957C38.7366 37.3141 38.7368 36.0489 37.955 35.2673L37.313 34.6252L39.3883 32.5499C40.2039 31.7344 40.2039 30.4073 39.3883 29.5917Z"
              fill="#2E58FF"/>
        <path d="M4.78797 19.7888C6.69694 22.7802 9.95635 24.5639 13.5007 24.5639C19.1987 24.5639 23.8343 19.9283 23.8343 14.2303C23.8343 8.53234 19.1987 3.89673 13.5007 3.89673C7.60513 3.89673 2.91476 8.8016 3.17752 14.6977C3.18613 14.8739 3.26414 15.0394 3.3945 15.1581C3.52486 15.2768 3.69693 15.3391 3.87307 15.3312C4.04921 15.3234 4.21507 15.2461 4.33436 15.1162C4.45364 14.9864 4.51663 14.8146 4.50955 14.6384C4.28088 9.50804 8.35965 5.2301 13.5007 5.2301C18.4634 5.2301 22.5009 9.26761 22.5009 14.2303C22.5009 19.193 18.4634 23.2305 13.5007 23.2305C10.5488 23.2305 7.8263 21.8079 6.13776 19.4062C7.14945 17.7786 8.65807 16.5398 10.4464 15.8674C12.2063 17.3503 14.7834 17.3541 16.5529 15.8662C17.3838 16.1787 18.1614 16.6177 18.8583 17.1676C18.9975 17.2741 19.173 17.3215 19.3468 17.2996C19.5207 17.2778 19.679 17.1883 19.7874 17.0506C19.8958 16.913 19.9457 16.7381 19.9262 16.564C19.9067 16.3898 19.8195 16.2304 19.6833 16.12C19.0108 15.5902 18.2728 15.1491 17.4875 14.8079C17.9696 14.0649 18.2509 13.1801 18.2509 12.2304C18.2509 9.61112 16.12 7.48023 13.5008 7.48023C11.095 7.48023 9.06716 9.27945 8.78391 11.6654C8.76307 11.841 8.81283 12.0177 8.92224 12.1566C9.03166 12.2954 9.19176 12.3852 9.36734 12.406C9.73376 12.4499 10.0645 12.1882 10.1079 11.8226C10.3115 10.1072 11.7701 8.81368 13.5007 8.81368C15.3847 8.81368 16.9174 10.3465 16.9174 12.2304C16.9174 15.2006 13.3289 16.8283 11.0763 14.6388C10.9894 14.5504 10.8796 14.488 10.7592 14.4586C10.6388 14.4292 10.5126 14.434 10.3947 14.4723C8.00014 15.254 6.00034 16.8984 4.76789 19.1045C4.70947 19.2099 4.68051 19.329 4.68404 19.4494C4.68758 19.5698 4.72348 19.6871 4.78797 19.7888Z"
              fill="#2E58FF"/>
    </g>
    <defs>
        <clipPath id="clip0_148_599">
            <rect width="40" height="40" fill="white"/>
        </clipPath>
    </defs>
</svg>
