<svg width="40" height="40" viewBox="0 0 40 40" fill="none" xmlns="http://www.w3.org/2000/svg">
    <path d="M33.9323 32.0365C34.7919 30.1116 34.7677 28.9637 33.7349 27.1062C34.8568 25.0872 34.7452 23.6187 32.946 21.9786C33.6182 19.8612 33.1135 18.8092 32.8586 18.4077C32.2728 17.4808 31.1169 17.0226 30.0299 16.8442C28.0156 16.5003 25.612 16.9717 23.6636 17.6347C23.7905 14.9966 23.372 12.123 22.3433 9.28597C20.9681 5.48935 15.2782 7.03199 16.1628 11.0785C16.9799 14.8185 15.5014 18.5643 12.4062 20.7866C12.297 19.7854 11.4483 19.0066 10.4187 19.0066H7.32429C6.22062 19.0066 5.3252 19.9012 5.3252 21.0057V37.335C5.3252 38.4386 6.22062 39.334 7.32429 39.334H10.4187C11.4907 39.334 12.3662 38.4894 12.4153 37.4299C23.542 38.8359 38.3228 41.2857 33.9323 32.0365Z"
          fill="#D1E7FF"/>
    <path d="M19.6247 7.1221C20.8845 7.23555 21.108 8.9716 19.9277 9.42648C18.5924 9.94116 17.5843 11.2808 17.9954 13.1607C18.9441 17.5012 17.3274 20.1551 14.25 22.1334C13.4584 22.6423 12.416 22.078 12.4107 21.1369C12.4095 20.9249 12.408 20.8023 12.4062 20.7864C15.5015 18.5641 16.98 14.8183 16.1629 11.0783C15.6074 8.53746 17.6725 6.94635 19.6247 7.1221ZM30.5273 18.8106C29.3526 18.7995 28.1216 18.9927 26.989 19.2764C26.2488 19.4619 25.5328 18.9144 25.5076 18.1517C25.4858 17.4928 25.9455 17.0044 26.511 16.9156C27.9375 16.6917 29.5141 16.6563 30.7863 17.0105C31.8252 17.2998 31.6058 18.8207 30.5273 18.8106Z"
          fill="#E8F3FF"/>
    <path d="M12.4178 21.0054C12.4178 21.0054 12.4169 37.398 12.4153 37.4297C12.3628 38.489 11.4907 39.3338 10.4187 39.3338H7.32429C6.22062 39.3338 5.3252 38.4384 5.3252 37.3347V21.0054C5.3252 19.9009 6.22062 19.0063 7.32429 19.0063H10.4187C11.5127 19.0063 12.4178 19.8884 12.4178 21.0054Z"
          fill="#B9DCFF"/>
    <path d="M10.4649 20.4225H9.32366C8.21957 20.4225 7.32456 21.3175 7.32456 22.4216V37.3619C7.32456 38.6452 5.39302 38.7193 5.32805 37.4377C5.32396 37.3577 5.32546 33.3438 5.32546 21.0056C5.32546 19.9015 6.22048 19.0065 7.32456 19.0065C7.32456 19.0065 10.4832 19.0072 10.515 19.0087C11.4248 19.0517 11.3757 20.4225 10.4649 20.4225ZM34.8617 4.80048C35.2873 5.40937 34.8517 6.24566 34.1087 6.24566H32.9942C32.9661 7.73831 32.9728 11.2596 33.0227 13.2902C33.0319 13.6645 32.7309 13.9722 32.3566 13.9722H30.6295C30.5407 13.9722 30.4528 13.9545 30.3709 13.92C30.289 13.8855 30.2149 13.835 30.1529 13.7715C30.0908 13.7079 30.0421 13.6326 30.0097 13.5499C29.9772 13.4672 29.9616 13.3789 29.9638 13.2901C30.0137 11.2594 30.0204 7.73831 29.9922 6.24566H28.8786C28.1356 6.24566 27.6991 5.40853 28.1256 4.79964L30.7411 1.05967C31.1067 0.537403 31.8805 0.537403 32.2462 1.05967L34.8617 4.80048Z"
          fill="#D1E7FF"/>
    <path d="M30.8266 13.9722H30.6296C30.5408 13.9725 30.4527 13.9548 30.3708 13.9204C30.2889 13.886 30.2147 13.8355 30.1526 13.7719C30.0905 13.7083 30.0418 13.6329 30.0094 13.5501C29.977 13.4674 29.9616 13.379 29.9639 13.2901C29.9996 11.8296 30.0133 9.59781 30.0072 7.90424C30.0057 7.45661 30.3622 7.09002 30.8097 7.08003C31.3107 7.06887 31.665 7.45378 31.6687 7.89408C31.6809 9.32176 31.6751 11.4857 31.6487 13.1635C31.6415 13.6125 31.2756 13.9722 30.8266 13.9722ZM32.4199 1.30814C32.5427 1.48389 32.5321 1.71404 32.4092 1.88962C29.6017 5.90173 29.769 5.65875 29.7284 5.73605C29.5626 6.05083 29.2344 6.24566 28.8787 6.24566C28.1357 6.24566 27.6992 5.40853 28.1257 4.79964L30.7412 1.05967C31.1068 0.537403 31.8806 0.537403 32.2463 1.05967L32.4199 1.30814Z"
          fill="#E8F3FF"/>
    <path d="M11.8716 8.38299C12.2972 8.99189 11.8616 9.82817 11.1186 9.82817H10.0041C9.97676 11.279 9.98234 12.9896 10.0285 14.3669C10.0411 14.7434 9.73928 15.0558 9.36253 15.0558H7.64356C7.26681 15.0558 6.9652 14.7436 6.97778 14.3671C7.02392 12.9899 7.02942 11.279 7.0021 9.82817H5.88844C5.14544 9.82817 4.70897 8.99105 5.13544 8.38216L7.75093 4.64219C8.1166 4.11992 8.89041 4.11992 9.25608 4.64219L11.8716 8.38299Z"
          fill="#D1E7FF"/>
    <path d="M7.85047 15.0558H7.64356C7.26715 15.0558 6.96537 14.7434 6.97778 14.3671C7.0036 13.5871 7.01709 12.1347 7.01868 11.4803C7.01976 11.0345 7.3766 10.6721 7.8224 10.662C8.32192 10.6508 8.67568 11.0335 8.68042 11.472C8.68809 12.1706 8.68501 13.5924 8.6706 14.2528C8.66085 14.6989 8.2966 15.0558 7.85047 15.0558ZM9.42967 4.89057C9.54453 5.055 9.55145 5.28198 9.41684 5.47514C6.61169 9.50082 6.77879 9.24144 6.73814 9.31857C6.57488 9.62868 6.24952 9.82817 5.88844 9.82817C5.14544 9.82817 4.70897 8.99105 5.13544 8.38216L7.75093 4.64219C8.1166 4.11992 8.89041 4.11992 9.25608 4.64219L9.42967 4.89057Z"
          fill="#E8F3FF"/>
    <path d="M34.4895 27.1041C35.5433 25.0168 35.3029 23.3893 33.6988 21.7769C34.208 19.8808 33.8392 18.7105 33.4209 18.0508C32.4523 16.523 30.3937 16.0657 28.5766 16.0657C26.2629 16.0657 23.6001 16.7541 20.8758 18.0565C20.7197 18.1348 20.6006 18.2712 20.5441 18.4363C20.4875 18.6015 20.498 18.7823 20.5733 18.9398C20.6486 19.0973 20.7827 19.219 20.9468 19.2787C21.1109 19.3383 21.2918 19.3313 21.4507 19.259C23.9606 18.0589 26.4908 17.3984 28.5771 17.3984C29.8686 17.3984 31.6065 17.6778 32.2955 18.7644C32.7129 19.4228 32.7182 20.4926 32.3104 21.7766C32.2718 21.898 32.2689 22.0279 32.3019 22.1509C32.3349 22.2739 32.4024 22.3849 32.4965 22.4708C33.9919 23.8339 34.1634 24.9621 33.1517 26.7824C33.0967 26.8814 33.0678 26.9929 33.0679 27.1061C33.0679 27.2194 33.0968 27.3308 33.1518 27.4299C34.0692 29.0796 34.1061 30.0114 33.3232 31.7646C33.284 31.8524 33.2643 31.9478 33.2654 32.044C33.2665 32.1402 33.2884 32.235 33.3297 32.322C34.1783 34.1095 34.2821 35.4651 33.6386 36.3513C32.75 37.5748 30.3408 38.175 26.4743 38.1423C21.1231 38.0936 12.9705 36.7452 12.3918 36.7648C12.0381 36.7771 11.7655 37.0591 11.7494 37.3988C11.716 38.1101 11.1312 38.6674 10.4182 38.6674H7.32375C6.58891 38.6674 5.99102 38.0695 5.99102 37.3346V21.0053C5.99102 20.2705 6.58891 19.6726 7.32375 19.6726H10.4182C11.153 19.6726 11.7509 20.2705 11.7509 21.0053V33.487C11.7509 33.6637 11.8211 33.8332 11.9461 33.9581C12.0711 34.0831 12.2405 34.1533 12.4173 34.1533C12.594 34.1533 12.7635 34.0831 12.8885 33.9581C13.0134 33.8332 13.0836 33.6637 13.0836 33.487V21.1125C16.2174 18.6964 17.6557 14.7931 16.8132 10.9359C16.4522 9.28464 17.4329 8.21538 18.565 7.88811C19.7197 7.55451 21.142 7.92726 21.7163 9.51287C22.2573 11.0047 22.6352 12.5357 22.8396 14.0633C22.863 14.2385 22.955 14.3972 23.0955 14.5045C23.2359 14.6118 23.4132 14.6589 23.5884 14.6355C23.7636 14.612 23.9223 14.52 24.0296 14.3796C24.1369 14.2391 24.184 14.0618 24.1606 13.8866C23.9436 12.2644 23.5427 10.6399 22.9692 9.05875C21.3051 4.46474 14.4549 6.38912 15.5111 11.2204C16.205 14.3975 15.1435 17.5606 12.7286 19.6789C12.2678 18.8796 11.4051 18.34 10.4181 18.34H7.32366C5.85391 18.34 4.6582 19.5357 4.6582 21.0054V37.3347C4.6582 38.8045 5.85391 40.0002 7.32366 40.0002H10.4181C11.5967 40.0002 12.5994 39.2381 12.95 38.1701C21.9186 39.3246 32.0296 40.835 34.7169 37.1345C35.6296 35.8777 35.6105 34.1606 34.6613 32.0279C35.4469 30.149 35.4045 28.874 34.4895 27.1041Z"
          fill="#2E58FF"/>
    <path d="M35.4072 4.41767L32.7909 0.675944C32.1608 -0.225315 30.8236 -0.225315 30.1934 0.675944L27.5777 4.41717C26.8436 5.46703 27.5957 6.91179 28.8774 6.91179H29.3336C29.3521 8.81277 29.3372 12.3318 29.2762 13.9497C29.2729 14.0371 29.2868 14.1244 29.3172 14.2064C29.3476 14.2885 29.3939 14.3637 29.4534 14.4279C29.5129 14.4921 29.5844 14.5439 29.664 14.5804C29.7435 14.6169 29.8294 14.6374 29.9169 14.6407C30.2824 14.6559 30.5941 14.3678 30.6079 14C30.6777 12.1508 30.688 7.85103 30.6572 6.23277C30.6539 6.05825 30.5822 5.89201 30.4577 5.76977C30.3331 5.64753 30.1655 5.57905 29.9909 5.57906H28.8775C28.6724 5.57906 28.5518 5.34983 28.67 5.18082L31.2858 1.4396C31.3089 1.40632 31.3398 1.37913 31.3758 1.36035C31.4117 1.34158 31.4517 1.33178 31.4922 1.33178C31.5328 1.33178 31.5727 1.34158 31.6087 1.36035C31.6446 1.37913 31.6755 1.40632 31.6987 1.4396L34.3148 5.18132C34.4322 5.34925 34.3136 5.57906 34.1076 5.57906H32.9935C32.8189 5.57905 32.6514 5.64753 32.5268 5.76977C32.4022 5.89201 32.3305 6.05825 32.3272 6.23277C32.2965 7.85237 32.3068 12.1528 32.3765 14C32.3905 14.3702 32.7023 14.6546 33.0675 14.6407C33.155 14.6374 33.2409 14.6169 33.3205 14.5804C33.4 14.5439 33.4715 14.4921 33.531 14.4279C33.5905 14.3637 33.6368 14.2885 33.6672 14.2064C33.6976 14.1244 33.7116 14.0371 33.7083 13.9497C33.6473 12.3334 33.6324 8.81377 33.6509 6.91179H34.1076C35.3886 6.91179 36.1414 5.46786 35.4072 4.41767ZM5.88775 10.4946H6.34487C6.3627 12.0049 6.34313 13.5276 6.28632 15.0308C6.2812 15.2065 6.34568 15.377 6.46572 15.5054C6.58575 15.6337 6.75163 15.7095 6.92724 15.7161C7.10286 15.7227 7.27398 15.6597 7.40336 15.5408C7.53274 15.4219 7.6099 15.2566 7.61805 15.0811C7.68394 13.3358 7.70051 11.5642 7.66736 9.81556C7.66402 9.64106 7.59236 9.47482 7.46777 9.35259C7.34318 9.23035 7.17562 9.16187 7.00108 9.16186H5.88775C5.68284 9.16186 5.56231 8.9328 5.68051 8.76396L8.29574 5.02431C8.31892 4.99105 8.34979 4.96387 8.38573 4.94511C8.42167 4.92635 8.46161 4.91655 8.50215 4.91655C8.54269 4.91655 8.58263 4.92635 8.61857 4.94511C8.65451 4.96387 8.68538 4.99105 8.70856 5.02431L11.3243 8.76462C11.4412 8.9318 11.3235 9.16186 11.1174 9.16186H10.0032C9.82868 9.16183 9.66109 9.2303 9.53651 9.35255C9.41193 9.47479 9.3403 9.64105 9.33702 9.81556C9.3037 11.5623 9.32028 13.3338 9.38617 15.0811C9.39999 15.4489 9.71327 15.7344 10.0772 15.7218C10.1646 15.7185 10.2506 15.698 10.3301 15.6615C10.4096 15.625 10.4812 15.5732 10.5407 15.509C10.6002 15.4448 10.6464 15.3696 10.6769 15.2875C10.7073 15.2055 10.7212 15.1182 10.7179 15.0308C10.6611 13.5194 10.6416 12.0069 10.6594 10.4946H11.1174C12.3981 10.4946 13.1507 9.05091 12.4165 8.00088L9.80073 4.26049C9.17076 3.35965 7.83379 3.3594 7.20365 4.26049L4.58834 8.00013C3.85408 9.04983 4.60608 10.4946 5.88775 10.4946ZM8.16888 22.4892V23.3221C8.16888 23.4989 8.23909 23.6683 8.36406 23.7933C8.48903 23.9183 8.65852 23.9885 8.83525 23.9885C9.01198 23.9885 9.18147 23.9183 9.30644 23.7933C9.43141 23.6683 9.50161 23.4989 9.50161 23.3221V22.4892C9.50161 22.3124 9.43141 22.1429 9.30644 22.018C9.18147 21.893 9.01198 21.8228 8.83525 21.8228C8.65852 21.8228 8.48903 21.893 8.36406 22.018C8.23909 22.1429 8.16888 22.3124 8.16888 22.4892Z"
          fill="#2E58FF"/>
</svg>
