<svg width="40" height="40" viewBox="0 0 40 40" fill="none" xmlns="http://www.w3.org/2000/svg">
    <path d="M39.2584 10.7026V13.9709C39.2584 25.1876 31.6122 35.255 19.9989 39.3334C8.38616 35.2546 0.740234 25.1862 0.740234 13.9709V10.7351C0.740234 9.78341 1.47846 8.94841 2.51679 8.76424C6.01431 8.14174 8.96535 5.53258 9.71284 2.27425C9.9268 1.34091 10.8327 0.666748 11.8923 0.666748H28.1119C29.1669 0.666748 30.0709 1.33508 30.2886 2.26425C31.049 5.51341 34.0566 8.08257 37.5124 8.74007C38.5359 8.93424 39.2584 9.76174 39.2584 10.7026Z"
          fill="#0F0F00"/>
    <path d="M29.0621 4.15978C17.994 7.05478 9.48026 14.9429 7.85024 26.604C7.63692 28.1304 5.36742 28.5196 4.53778 27.1744C0.342322 20.3723 0.74061 14.6784 0.74061 10.7352C0.74061 9.78353 1.47883 8.94853 2.51716 8.76436C6.01469 8.14186 8.96573 5.5327 9.71321 2.27437C9.92717 1.34104 10.833 0.66687 11.8927 0.66687H28.1123C29.1235 0.66687 30.0577 1.28812 30.2926 2.27979C30.4874 3.1022 29.9596 3.92503 29.0621 4.15978Z"
          fill="#0F0F00"/>
    <path d="M31.1494 12.3925C32.0034 12.8858 32.523 13.7333 32.5212 14.6475C32.5175 17.3808 32.2359 21.2333 29.0848 25.3858C26.8527 28.3258 23.686 30.591 19.9992 31.8849C12.4548 29.2349 7.48828 22.6949 7.48828 15.4083V14.635C7.48828 13.7233 8.00791 12.8791 8.86006 12.3866C10.9714 11.1645 12.7453 9.52546 14.0471 7.59412C14.5889 6.78996 15.5494 6.29163 16.5943 6.29163H23.405C24.4498 6.29163 25.4103 6.78996 25.9522 7.59412C27.2557 9.52884 29.0334 11.17 31.1494 12.3925Z"
          fill="#0F0F00"/>
    <path d="M19.4268 8.40087C15.4291 11.0354 12.2753 14.5239 10.2367 18.6903C9.71777 19.7507 7.97966 19.5466 7.77218 18.4031C7.5483 17.1694 7.48828 15.9562 7.48828 14.635C7.48828 13.7233 8.00791 12.8791 8.86006 12.3866C10.9714 11.1645 12.7453 9.52546 14.0471 7.59412C14.5889 6.78996 15.5494 6.29163 16.5943 6.29163H18.6638C19.9191 6.29163 20.4396 7.73346 19.4268 8.40087Z"
          fill="#0F0F00"/>
    <path d="M40 10.7023V13.9712C40 25.4468 32.197 35.7658 20.2694 39.9544C20.0962 40.0152 19.9038 40.0152 19.7306 39.9544C7.84795 35.7812 0 25.4897 0 13.9711V10.7351C0 9.45849 0.998129 8.35441 2.37352 8.10974C4.88237 7.66341 7.08999 6.11783 8.27893 3.97541C8.32175 3.89612 8.38163 3.82526 8.45509 3.76693C8.52855 3.7086 8.61415 3.66395 8.70691 3.63558C8.79968 3.60721 8.89778 3.59567 8.99554 3.60163C9.0933 3.60759 9.18877 3.63094 9.27644 3.67032C9.3641 3.7097 9.44221 3.76433 9.50625 3.83105C9.57029 3.89777 9.61899 3.97525 9.64952 4.05901C9.68006 4.14277 9.69182 4.23115 9.68414 4.31904C9.67646 4.40692 9.64948 4.49256 9.60477 4.571C8.21243 7.07999 5.61661 8.89182 2.66094 9.41774C1.97783 9.53924 1.48191 10.0932 1.48191 10.7351V13.9711C1.48191 24.8431 8.83014 34.5813 20 38.6163C31.2598 34.5511 38.518 24.9061 38.518 13.9711V10.7022C38.518 10.0707 38.0311 9.51966 37.3602 9.39207C33.633 8.68332 30.3899 5.92899 29.564 2.40175C29.4191 1.78266 28.8085 1.33333 28.1123 1.33333H11.8927C11.6962 1.33333 11.5077 1.26309 11.3687 1.13807C11.2298 1.01305 11.1517 0.843477 11.1517 0.666666C11.1517 0.489855 11.2298 0.320286 11.3687 0.195262C11.5077 0.0702378 11.6962 0 11.8927 0L28.1123 0C29.5052 0 30.7257 0.894499 31.0142 2.12691C31.6918 5.02049 34.4274 7.47166 37.6667 8.08757C39.0187 8.34466 40 9.44432 40 10.7023ZM24.1105 16.6734L19.1144 21.1683L17.2321 19.4747C17.0928 19.351 16.9048 19.2818 16.7091 19.2823C16.5133 19.2828 16.3258 19.353 16.1873 19.4775C16.0489 19.6021 15.9709 19.7708 15.9703 19.9469C15.9697 20.123 16.0466 20.2922 16.1841 20.4175C18.7717 22.7455 18.7045 22.7777 19.1145 22.7777C19.311 22.7777 19.4995 22.7075 19.6385 22.5825L25.1587 17.6161C25.2976 17.4911 25.3757 17.3216 25.3757 17.1448C25.3757 16.968 25.2976 16.7984 25.1587 16.6734C25.0197 16.5484 24.8312 16.4781 24.6346 16.4781C24.438 16.4781 24.2495 16.5484 24.1105 16.6734ZM28.8546 11.6859C29.0039 11.8009 29.1979 11.8578 29.3938 11.8441C29.5897 11.8304 29.7716 11.7472 29.8994 11.6129C30.0272 11.4786 30.0904 11.3041 30.0752 11.1278C30.06 10.9515 29.9676 10.7879 29.8183 10.6729C28.5452 9.69339 27.454 8.53735 26.5858 7.24841C25.9112 6.24691 24.6926 5.62474 23.4057 5.62474H16.5943C15.3073 5.62474 14.0888 6.24691 13.4142 7.24841C12.1784 9.08282 10.4653 10.6656 8.46011 11.8255C7.38778 12.4457 6.74765 13.496 6.74765 14.6349V15.4081C6.74765 22.9595 11.8819 29.7494 19.7306 32.5055C19.9039 32.5664 20.0963 32.5664 20.2696 32.5055C24.1113 31.1559 27.3712 28.8239 29.697 25.7616C32.8313 21.6319 33.2584 17.826 33.2628 14.6477C33.2629 14.5602 33.2439 14.4735 33.2068 14.3925C33.1696 14.3116 33.1152 14.2381 33.0464 14.1761C32.9777 14.1141 32.8961 14.0649 32.8062 14.0313C32.7164 13.9977 32.62 13.9803 32.5227 13.9802C32.4254 13.9801 32.329 13.9973 32.2391 14.0307C32.1492 14.0641 32.0674 14.1131 31.9985 14.1749C31.9296 14.2367 31.8749 14.3102 31.8376 14.391C31.8002 14.4719 31.7809 14.5585 31.7808 14.6461C31.7766 17.6211 31.3805 21.1791 28.4733 25.0096C26.3711 27.7775 23.4457 29.9021 20 31.1669C12.8395 28.5416 8.22956 22.3846 8.22956 15.4082V14.635C8.22956 13.9518 8.61535 13.3208 9.2615 12.9471C11.4553 11.678 13.3295 9.94649 14.6816 7.93958C15.0956 7.32499 15.8106 6.95816 16.5943 6.95816H23.4057C24.1894 6.95816 24.9045 7.32508 25.3184 7.93958C26.2682 9.34962 27.4619 10.6143 28.8546 11.6859Z"
          fill="#red"/>
</svg>
