<svg width="40" height="40" viewBox="0 0 40 40" fill="none" xmlns="http://www.w3.org/2000/svg">
    <g clip-path="url(#clip0_148_887)">
        <path d="M35.9523 20.11C36.2006 17.5 34.3631 16.5617 32.7006 17C30.393 17.6083 30.653 21.3234 26.223 24.7668C23.9542 25.0328 21.6918 24.5963 19.6137 23.7418C25.2505 19.3734 18.7687 16.1558 11.867 20.6667C9.01694 20.7075 6.40191 22.2684 5.03356 24.7501C3.62271 27.3085 3.75021 30.4585 5.35856 32.9169H4.03355C3.29687 32.9169 2.7002 33.5135 2.7002 34.2502V38.0003C2.7002 38.7369 3.29687 39.3336 4.03355 39.3336H23.0338C23.7705 39.3336 24.3671 38.7369 24.3671 38.0003V34.2502C24.3671 33.5135 23.7705 32.9169 23.0338 32.9169H21.8846C24.7196 29.9552 33.2806 32.9877 37.0906 23.2176C37.6698 21.7317 36.989 20.5033 35.9523 20.11Z"
              fill="#D1E7FF"/>
        <path d="M36.6872 20.5895C36.9403 20.847 36.8026 21.2833 36.4498 21.3603C35.9266 21.4744 35.395 21.7945 34.935 22.3716C31.7813 26.3353 26.763 26.8465 21.9201 25.4904C21.5657 25.3911 21.4665 24.9368 21.744 24.695C21.8613 24.593 21.9998 24.5595 22.1352 24.583C26.4506 25.3326 30.5522 24.4519 33.2684 21.0382C34.3568 19.6712 35.8571 19.745 36.6872 20.5895ZM20.3465 19.8122C18.1685 19.6989 15.5495 20.709 13.6414 21.9303C13.5707 21.9754 13.4891 22.0004 13.4053 22.0027C8.11888 22.1599 4.51392 27.3089 6.08902 32.2716C6.18836 32.5846 5.96127 32.904 5.63327 32.92C5.54791 32.9236 5.46289 32.933 5.37876 32.9479C3.75124 30.4845 3.61707 27.3191 5.03376 24.7499C6.40211 22.2682 9.01714 20.7073 11.8672 20.6665C14.2239 19.1265 16.5314 18.4873 18.3248 18.4873C19.0594 18.4873 19.9037 18.6084 20.5734 18.9361C21.0226 19.156 20.846 19.8382 20.3465 19.8122Z"
              fill="#E8F3FF"/>
        <path d="M32.7002 17C34.3628 16.5617 36.2003 17.5 35.9519 20.11C35.1303 19.7984 34.0836 20.01 33.2677 21.0384C32.8111 21.6134 32.0769 22.4167 30.9969 23.1342C29.0352 24.4368 27.1427 24.6593 26.2227 24.7668C30.6527 21.3234 30.3927 17.6083 32.7002 17Z"
              fill="#B9DCFF"/>
        <path d="M32.7286 16.9926C33.5176 16.7919 34.0573 17.7758 33.4756 18.3454C32.2385 19.5565 31.7674 21.5144 29.9272 23.6656C29.8486 23.7575 29.7505 23.8308 29.64 23.8802C28.586 24.3494 27.4792 24.6445 26.2227 24.7668C30.6673 21.312 30.3862 17.5886 32.7286 16.9926Z"
              fill="#D1E7FF"/>
        <path d="M23.0338 32.917C23.7705 32.917 24.3671 33.5137 24.3671 34.2503V38.0004C24.3671 38.7371 23.7705 39.3337 23.0338 39.3337H4.03355C3.29687 39.3337 2.7002 38.7371 2.7002 38.0004V34.2503C2.7002 33.5137 3.29687 32.917 4.03355 32.917H23.0338Z"
              fill="#B9DCFF"/>
        <path d="M23.0407 34.5834H6.53358C5.79715 34.5834 5.20023 35.1803 5.20023 35.9167V38.1668C5.20023 38.8111 4.67789 39.3334 4.03355 39.3334C3.29712 39.3334 2.7002 38.7365 2.7002 38.0001V34.25C2.7002 33.5136 3.29712 32.9167 4.03355 32.9167H23.0338C24.194 32.9167 24.1177 34.5834 23.0407 34.5834ZM27.8063 4.72968C28.948 4.89552 29.4039 6.29803 28.578 7.10388L26.3155 9.3089L26.8497 12.4223C27.0447 13.5598 25.8513 14.4265 24.8296 13.8898L22.0338 12.4198L19.2379 13.8898C18.2162 14.4265 17.0229 13.5598 17.2179 12.4223L17.752 9.3089L15.4895 7.10388C14.6637 6.29803 15.1195 4.89552 16.2612 4.72968L19.3871 4.27467L20.7854 1.44214C21.2963 0.407959 22.7713 0.407959 23.2821 1.44214L24.6805 4.27467L27.8063 4.72968Z"
              fill="#D1E7FF"/>
        <path d="M23.3075 1.49442C23.5852 2.0571 23.4589 2.72111 23.0271 3.17645C22.833 3.3812 22.8973 3.29853 21.7264 5.67048C21.6216 5.88263 21.4669 6.06615 21.2755 6.20522C21.0841 6.3443 20.8617 6.43476 20.6276 6.46882L18.2609 6.81332C17.9614 6.85682 17.7091 6.98533 17.5148 7.16583C16.9633 7.67808 16.0732 7.6735 15.4892 7.10416C14.663 6.29865 15.1192 4.8958 16.2609 4.72996L19.3867 4.27496L20.7851 1.44242C21.2785 0.443411 22.7435 0.35191 23.3075 1.49442ZM19.6258 12.0032L19.4538 12.834C19.1635 14.2322 17.0455 13.9264 17.2055 12.5073C17.2124 12.4462 17.209 12.4721 17.3659 11.5575C17.5165 10.6794 18.5977 10.268 19.3056 10.9578C19.4424 11.0912 19.5434 11.2569 19.5994 11.4396C19.6554 11.6222 19.6645 11.8161 19.6258 12.0032Z"
              fill="#E8F3FF"/>
        <path d="M15.0249 7.58133L17.0361 9.54169L16.5614 12.3098C16.2732 13.9894 18.04 15.2729 19.5484 14.48L22.3446 13.01C22.4221 12.9693 22.4908 12.9136 22.5468 12.8464C22.6028 12.7791 22.645 12.7014 22.671 12.6178C22.697 12.5342 22.7063 12.4463 22.6983 12.3591C22.6903 12.2719 22.6652 12.1871 22.6244 12.1096C22.5837 12.0321 22.5281 11.9634 22.4608 11.9074C22.3935 11.8514 22.3158 11.8092 22.2322 11.7832C22.1486 11.7572 22.0607 11.748 21.9735 11.756C21.8863 11.764 21.8016 11.789 21.7241 11.8298L18.9279 13.2998C18.3982 13.5784 17.7731 13.132 17.8755 12.5352L18.4095 9.42161C18.4277 9.31507 18.4198 9.20569 18.3864 9.10289C18.353 9.0001 18.2951 8.90696 18.2177 8.83152L15.9555 6.62649C15.5246 6.2064 15.7609 5.47589 16.3575 5.38931L19.4837 4.93505C19.5907 4.9195 19.6923 4.87819 19.7797 4.81466C19.8671 4.75113 19.9378 4.6673 19.9857 4.57038L21.3838 1.73751C21.6507 1.19684 22.4183 1.19792 22.6846 1.73751L24.0827 4.57038C24.1305 4.6673 24.2012 4.75115 24.2886 4.81468C24.3761 4.87821 24.4777 4.91952 24.5846 4.93505L27.7108 5.38931C28.3065 5.47581 28.5445 6.20565 28.1128 6.62649L25.8506 8.83152C25.7732 8.90696 25.7153 9.0001 25.6819 9.10289C25.6485 9.20569 25.6406 9.31507 25.6589 9.42161L26.1929 12.5352C26.2631 12.9448 25.9979 13.2407 25.7216 13.3423C25.5581 13.4051 25.4258 13.5297 25.3534 13.6893C25.281 13.8489 25.2743 14.0305 25.3348 14.195C25.3952 14.3594 25.518 14.4934 25.6765 14.5681C25.8351 14.6427 26.0166 14.6519 26.1819 14.5938C27.1177 14.2496 27.675 13.2891 27.507 12.3098L27.0322 9.54169L29.0434 7.58133C30.2649 6.39049 29.5899 4.31513 27.9024 4.06987L25.123 3.66603L23.88 1.1475C23.125 -0.382183 20.9425 -0.381516 20.1878 1.1475L18.9448 3.66603L16.1654 4.06987C14.4777 4.31521 13.8039 6.39115 15.0249 7.58133ZM36.6404 19.7087C36.6515 18.5424 36.2654 17.5734 35.5297 16.9488C34.7509 16.2876 33.6301 16.0658 32.5311 16.3554C30.7552 16.8237 30.2437 18.6464 29.0258 20.6366C28.7532 21.082 29.0774 21.6513 29.5938 21.6513C29.708 21.6515 29.8204 21.6222 29.9201 21.5664C30.0198 21.5106 30.1035 21.4301 30.1631 21.3326C31.3524 19.3893 31.7622 17.9371 32.8711 17.6449C33.5488 17.4662 34.2202 17.586 34.6668 17.9653C35.0249 18.2693 35.2358 18.7291 35.2926 19.3141C34.4443 19.2926 33.5114 19.66 32.7466 20.624C32.135 21.3942 31.4225 22.052 30.629 22.5791C28.7978 23.795 27.0069 24.0043 26.1461 24.1049C25.22 24.2133 24.257 24.2005 23.284 24.0666C23.1089 24.0425 22.9313 24.089 22.7904 24.1958C22.6495 24.3026 22.5568 24.461 22.5327 24.6362C22.5086 24.8114 22.5551 24.9889 22.6619 25.1299C22.7687 25.2708 22.9271 25.3635 23.1023 25.3876C24.187 25.5368 25.2632 25.5508 26.301 25.4292C27.2645 25.3166 29.2695 25.0824 31.3667 23.6898C32.2766 23.0854 33.0921 22.3329 33.7909 21.453C35.1468 19.7441 37.2383 21.0048 36.47 22.9756C32.8475 32.2648 24.9044 29.3045 21.6163 32.2505H5.73056C4.42971 30.0379 4.37854 27.3196 5.61789 25.0723C6.86891 22.8039 9.26727 21.3713 11.8771 21.3336C12.0034 21.3317 12.1265 21.2941 12.2322 21.2251C16.8959 18.1771 21.1817 18.9248 21.0923 20.6742C21.0366 21.7623 19.4569 23.6028 15.1904 25.5046C15.1105 25.5402 15.0383 25.5912 14.9781 25.6548C14.9178 25.7183 14.8707 25.7931 14.8393 25.8748C14.808 25.9566 14.7931 26.0437 14.7954 26.1312C14.7977 26.2187 14.8173 26.3049 14.8529 26.3849C14.8886 26.4649 14.9396 26.537 15.0031 26.5973C15.0667 26.6575 15.1414 26.7046 15.2232 26.736C15.3049 26.7673 15.3921 26.7823 15.4796 26.7799C15.5671 26.7776 15.6533 26.7581 15.7333 26.7224C19.9467 24.8443 22.3228 22.7205 22.4239 20.7422C22.5859 17.5739 17.15 16.5062 11.6632 20.0054C5.49589 20.2338 1.56742 26.6662 4.22171 32.2505H4.0342C2.93144 32.2505 2.03418 33.1477 2.03418 34.2505V38.0005C2.03418 39.1033 2.93144 40.0006 4.0342 40.0006H23.0344C24.1372 40.0006 25.0345 39.1033 25.0345 38.0005V36.3849C25.0345 36.2081 24.9642 36.0386 24.8392 35.9135C24.7142 35.7885 24.5446 35.7183 24.3678 35.7183C24.191 35.7183 24.0214 35.7885 23.8964 35.9135C23.7714 36.0386 23.7011 36.2081 23.7011 36.3849V38.0005C23.7011 38.3681 23.402 38.6672 23.0344 38.6672H4.0342C3.66662 38.6672 3.36753 38.3681 3.36753 38.0005V34.2505C3.36753 33.8829 3.66662 33.5838 4.0342 33.5838C23.1266 33.5838 21.9323 33.5999 22.0812 33.5545C22.1895 33.5203 22.2877 33.4597 22.3668 33.3782C24.881 30.7517 33.7991 33.4949 37.7124 23.4599C38.3848 21.7345 37.6372 20.3207 36.6404 19.7087Z"
              fill="#2E58FF"/>
        <path d="M6.53386 35.417C6.35705 35.417 6.18748 35.4872 6.06245 35.6122C5.93743 35.7373 5.86719 35.9068 5.86719 36.0836C5.86719 36.2604 5.93743 36.43 6.06245 36.555C6.18748 36.6801 6.35705 36.7503 6.53386 36.7503H8.11722C8.29403 36.7503 8.4636 36.6801 8.58863 36.555C8.71365 36.43 8.78389 36.2604 8.78389 36.0836C8.78389 35.9068 8.71365 35.7373 8.58863 35.6122C8.4636 35.4872 8.29403 35.417 8.11722 35.417H6.53386ZM13.477 2.21271C13.5964 2.342 13.7621 2.41884 13.9379 2.42645C14.1138 2.43407 14.2855 2.37186 14.4156 2.25338C14.5457 2.1349 14.6238 1.96978 14.6326 1.79401C14.6415 1.61824 14.5805 1.4461 14.463 1.31512L13.713 0.491277C13.5936 0.361987 13.4279 0.285155 13.252 0.277537C13.0762 0.269918 12.9045 0.332132 12.7744 0.45061C12.6442 0.569087 12.5662 0.734216 12.5574 0.909983C12.5485 1.08575 12.6095 1.25789 12.727 1.38887L13.477 2.21271ZM10.5339 8.74996H11.7006C11.8774 8.74996 12.047 8.67972 12.172 8.5547C12.297 8.42967 12.3673 8.2601 12.3673 8.08329C12.3673 7.90647 12.297 7.7369 12.172 7.61188C12.047 7.48685 11.8774 7.41661 11.7006 7.41661H10.5339C10.3571 7.41661 10.1875 7.48685 10.0625 7.61188C9.93748 7.7369 9.86724 7.90647 9.86724 8.08329C9.86724 8.2601 9.93748 8.42967 10.0625 8.5547C10.1875 8.67972 10.3571 8.74996 10.5339 8.74996ZM13.5586 13.5826L12.8626 14.2786C12.8007 14.3405 12.7516 14.414 12.7181 14.4949C12.6846 14.5758 12.6673 14.6624 12.6673 14.75C12.6673 14.8375 12.6846 14.9242 12.7181 15.0051C12.7516 15.086 12.8007 15.1595 12.8626 15.2214C12.9245 15.2833 12.998 15.3324 13.0789 15.3659C13.1598 15.3994 13.2464 15.4166 13.334 15.4166C13.4215 15.4166 13.5082 15.3994 13.5891 15.3659C13.67 15.3324 13.7435 15.2833 13.8054 15.2214L14.5014 14.5254C14.5633 14.4635 14.6124 14.39 14.6459 14.3091C14.6794 14.2282 14.6967 14.1415 14.6967 14.054C14.6967 13.9664 14.6794 13.8797 14.6459 13.7989C14.6124 13.718 14.5633 13.6445 14.5014 13.5826C14.3764 13.4576 14.2068 13.3874 14.03 13.3874C13.8532 13.3874 13.6836 13.4576 13.5586 13.5826ZM30.0978 2.43063C30.279 2.43063 30.4594 2.3573 30.591 2.2128L31.341 1.38895C31.46 1.25821 31.5222 1.08554 31.514 0.908927C31.5057 0.732314 31.4276 0.566224 31.2968 0.447193C31.2321 0.388238 31.1564 0.342613 31.074 0.312925C30.9917 0.283237 30.9043 0.270068 30.8168 0.274169C30.7293 0.278271 30.6436 0.299563 30.5643 0.336829C30.4851 0.374096 30.414 0.426606 30.3551 0.49136L29.6051 1.3152C29.2143 1.74421 29.5244 2.43063 30.0978 2.43063ZM32.3675 8.74996H33.5342C33.711 8.74996 33.8806 8.67972 34.0056 8.5547C34.1306 8.42967 34.2009 8.2601 34.2009 8.08329C34.2009 7.90647 34.1306 7.7369 34.0056 7.61188C33.8806 7.48685 33.711 7.41661 33.5342 7.41661H32.3675C32.1907 7.41661 32.0211 7.48685 31.8961 7.61188C31.7711 7.7369 31.7008 7.90647 31.7008 8.08329C31.7008 8.2601 31.7711 8.42967 31.8961 8.5547C32.0211 8.67972 32.1907 8.74996 32.3675 8.74996ZM30.5094 13.5826C30.3844 13.4576 30.2148 13.3874 30.038 13.3874C29.8612 13.3874 29.6917 13.4576 29.5667 13.5826C29.5047 13.6445 29.4556 13.718 29.4221 13.7989C29.3886 13.8797 29.3713 13.9664 29.3713 14.054C29.3713 14.1415 29.3886 14.2282 29.4221 14.3091C29.4556 14.39 29.5047 14.4635 29.5667 14.5254L30.2627 15.2214C30.3245 15.2834 30.398 15.3325 30.4789 15.3661C30.5598 15.3996 30.6465 15.4167 30.7341 15.4166C31.3226 15.4166 31.6268 14.6998 31.2055 14.2785L30.5094 13.5826Z"
              fill="#2E58FF"/>
    </g>
    <defs>
        <clipPath id="clip0_148_887">
            <rect width="40" height="40" fill="white"/>
        </clipPath>
    </defs>
</svg>
