<svg width="41" height="40" viewBox="0 0 41 40" fill="none" xmlns="http://www.w3.org/2000/svg">
    <path d="M39.6631 23.6668C39.6631 32.3193 31.079 39.3335 20.4898 39.3335C9.90057 39.3335 1.31641 32.3193 1.31641 23.6668C1.31641 16.7501 6.80121 10.881 14.4114 8.80428C26.8483 5.40795 39.6631 13.0015 39.6631 23.6668Z"
          fill="#0F0F00"/>
    <path d="M29.7168 9.93115C31.6634 10.8031 30.7627 13.2372 28.5538 13.0558C16.9797 12.1049 6.22942 20.0017 7.53821 30.3036C7.76686 32.103 4.80111 32.856 3.72444 31.2752C-2.05408 22.7916 2.95812 11.9292 14.4107 8.80406C19.5806 7.39223 25.1216 7.87281 29.7168 9.93115Z"
          fill="#0F0F00"/>
    <path d="M20.4898 35.4999C28.488 35.4999 34.9718 30.202 34.9718 23.6666C34.9718 17.1312 28.488 11.8333 20.4898 11.8333C12.4916 11.8333 6.00781 17.1312 6.00781 23.6666C6.00781 30.202 12.4916 35.4999 20.4898 35.4999Z"
          fill="#0F0F00"/>
    <path d="M20.4891 25.7499C21.8972 25.7499 23.0388 24.8172 23.0388 23.6666C23.0388 22.516 21.8972 21.5833 20.4891 21.5833C19.081 21.5833 17.9395 22.516 17.9395 23.6666C17.9395 24.8172 19.081 25.7499 20.4891 25.7499Z"
          fill="#0F0F00"/>
    <path d="M20.7356 22.8626C20.1998 23.0728 19.7588 23.4321 19.5016 23.8699C19.1166 24.525 17.877 24.3033 17.9461 23.5133C18.0362 22.4839 19.069 21.6413 20.3516 21.5863C21.2496 21.5477 21.5462 22.5446 20.7356 22.8626Z"
          fill="#0F0F00"/>
    <path d="M20.2231 11.8222C21.6216 11.7987 21.9767 13.406 20.65 13.7681C14.7663 15.3739 10.2941 19.0857 8.39173 23.7412C7.94993 24.8225 5.97986 24.5504 6.00811 23.4107C6.16925 16.8962 12.6885 11.9482 20.2231 11.8222Z"
          fill="#0F0F00"/>
    <path d="M20.4893 40C9.46712 40 0.5 32.6729 0.5 23.6667C0.5 16.8708 5.61347 10.8327 13.3142 8.41758C11.4647 4.31592 15.2023 0 20.4893 0C25.7689 0 29.5129 4.3085 27.6662 8.41325C29.9981 9.145 32.1549 10.2381 34.0344 11.656L35.2975 10.6239L34.8999 10.299C34.7469 10.174 34.6609 10.0044 34.6609 9.82758C34.6609 9.65077 34.7469 9.48119 34.8999 9.35617C35.0529 9.23114 35.2604 9.1609 35.4768 9.1609C35.6932 9.1609 35.9007 9.23114 36.0537 9.35617L38.0029 10.9488C38.1559 11.0739 38.2419 11.2434 38.2419 11.4202C38.2419 11.5971 38.1559 11.7666 38.0029 11.8917C37.8499 12.0167 37.6424 12.0869 37.426 12.0869C37.2096 12.0869 37.002 12.0167 36.849 11.8917L36.4514 11.5667C34.4809 13.1768 34.4915 13.2553 34.0469 13.2553C33.9397 13.2554 33.8336 13.2382 33.7345 13.2047C33.6355 13.1712 33.5456 13.122 33.4699 13.06C29.9545 10.1875 25.3163 8.66667 20.4893 8.66667C20.2729 8.66667 20.0653 8.59643 19.9123 8.47141C19.7593 8.34638 19.6734 8.17681 19.6734 8V5.41667H18.2456C18.0292 5.41667 17.8216 5.34643 17.6686 5.2214C17.5156 5.09638 17.4297 4.92681 17.4297 4.75C17.4297 4.57319 17.5156 4.40362 17.6686 4.2786C17.8216 4.15357 18.0292 4.08333 18.2456 4.08333H22.7329C22.9493 4.08333 23.1569 4.15357 23.3099 4.2786C23.4629 4.40362 23.5488 4.57319 23.5488 4.75C23.5488 4.92681 23.4629 5.09638 23.3099 5.2214C23.1569 5.34643 22.9493 5.41667 22.7329 5.41667H21.3051V7.34775C22.9548 7.40158 24.5688 7.61808 26.1197 7.988C27.6048 4.78883 24.6945 1.33333 20.4893 1.33333C17.1714 1.33333 14.4721 3.539 14.4721 6.25C14.4721 7.549 15.0791 8.35425 15.178 8.57775C15.334 8.93108 15.102 9.31733 14.6696 9.43583C7.17029 11.4825 2.13178 17.2014 2.13178 23.6667C2.13178 31.9377 10.3669 38.6667 20.4893 38.6667C34.1125 38.6667 43.032 26.8784 36.8932 16.9256C36.7958 16.7677 36.7792 16.5846 36.847 16.4167C36.9148 16.2488 37.0614 16.1098 37.2546 16.0302C37.4479 15.9506 37.6719 15.9371 37.8774 15.9925C38.0829 16.0479 38.253 16.1676 38.3505 16.3255C45.0253 27.1483 35.3435 40 20.4893 40ZM35.7871 23.6667C35.7871 30.5592 28.9245 36.1667 20.4893 36.1667C12.054 36.1667 5.19135 30.5592 5.19135 23.6667C5.19135 16.7742 12.054 11.1667 20.4893 11.1667C28.9245 11.1667 35.7871 16.7742 35.7871 23.6667ZM34.1554 23.6667C34.1554 17.5093 28.0248 12.5 20.4893 12.5C12.9537 12.5 6.82313 17.5093 6.82313 23.6667C6.82313 29.824 12.9537 34.8333 20.4893 34.8333C28.0248 34.8333 34.1554 29.824 34.1554 23.6667ZM23.0389 23C22.8225 23 22.615 23.0702 22.462 23.1953C22.309 23.3203 22.223 23.4899 22.223 23.6667C22.223 24.4478 21.4453 25.0833 20.4893 25.0833C19.5332 25.0833 18.7555 24.4478 18.7555 23.6667C18.7555 22.8855 19.5332 22.25 20.4893 22.25C20.7056 22.25 20.9132 22.1798 21.0662 22.0547C21.2192 21.9297 21.3051 21.7601 21.3051 21.5833V16.1667C21.3051 15.9899 21.2192 15.8203 21.0662 15.6953C20.9132 15.5702 20.7056 15.5 20.4893 15.5C20.2729 15.5 20.0653 15.5702 19.9123 15.6953C19.7593 15.8203 19.6734 15.9899 19.6734 16.1667V20.9988C18.2106 21.2976 17.1237 22.3803 17.1237 23.6667C17.1237 25.183 18.6335 26.4167 20.4893 26.4167C23.6814 26.4167 24.7769 23 23.0389 23Z"
          fill="#FFFF9C"/>
</svg>
