<svg width="40" height="40" viewBox="0 0 40 40" fill="none" xmlns="http://www.w3.org/2000/svg">
    <path d="M33.9801 1.99984C33.9801 1.26317 33.3835 0.666504 32.6468 0.666504H8.23014L1.81348 7.08317V37.9998C1.81348 38.7365 2.41014 39.3332 3.14681 39.3332H32.6468C33.3835 39.3332 33.9801 38.7365 33.9801 37.9998V1.99984Z"
          fill="#E8F3FF"/>
    <path d="M32.5999 12.4344C33.1405 11.9664 33.9801 12.3474 33.9801 13.0624V37.9999C33.9801 38.7363 33.3832 39.3333 32.6468 39.3333H3.14681C2.41039 39.3333 1.81348 38.7363 1.81348 37.9999V23.6403C1.81348 23.1648 2.21064 22.7877 2.68573 22.8084C13.6711 23.2891 24.3 19.6203 32.5999 12.4344Z"
          fill="#D1E7FF"/>
    <path d="M8.23014 0.666504V5.74984C8.23014 6.4865 7.63348 7.08317 6.89681 7.08317H1.81348L8.23014 0.666504Z"
          fill="#B9DCFF"/>
    <path d="M8.39746 15.25C9.50203 15.25 10.3975 14.3546 10.3975 13.25C10.3975 12.1454 9.50203 11.25 8.39746 11.25C7.29289 11.25 6.39746 12.1454 6.39746 13.25C6.39746 14.3546 7.29289 15.25 8.39746 15.25Z"
          fill="#D1E7FF"/>
    <path d="M8.39746 24.4167C9.50203 24.4167 10.3975 23.5213 10.3975 22.4167C10.3975 21.3122 9.50203 20.4167 8.39746 20.4167C7.29289 20.4167 6.39746 21.3122 6.39746 22.4167C6.39746 23.5213 7.29289 24.4167 8.39746 24.4167Z"
          fill="#D1E7FF"/>
    <path d="M9.96452 22.5163C10.1976 22.4871 10.391 22.7004 10.3312 22.9275C10.1055 23.7844 9.32443 24.4166 8.39727 24.4166C7.59418 24.4166 6.90152 23.9428 6.58335 23.2593C6.48427 23.0465 6.6376 22.8025 6.87202 22.7902C7.90583 22.7364 8.93734 22.645 9.96452 22.5163ZM38.1548 6.20081C38.3081 5.48081 37.8481 4.77247 37.1281 4.61914L35.1714 4.20331C34.4514 4.05081 33.7439 4.50997 33.5906 5.23081L28.3273 29.99C28.2673 30.2733 28.2539 30.565 28.2873 30.8525L28.6806 34.2333C28.8098 35.3425 30.2739 35.6541 30.8439 34.6933L32.5781 31.765C32.7264 31.515 32.8323 31.2433 32.8923 30.96L38.1548 6.20081Z"
          fill="#B9DCFF"/>
    <path d="M37.214 4.64056C37.9975 4.86256 37.682 6.04931 36.8854 5.88014C36.0666 5.70622 35.4025 6.21139 35.2566 6.89747L30.5333 29.118C30.4569 29.4781 30.1028 29.7075 29.7427 29.6308C28.445 29.3545 28.4683 29.3583 28.4609 29.3583L33.5899 5.23081C33.7433 4.50997 34.4508 4.05081 35.1708 4.20331C35.1708 4.20322 37.1856 4.63247 37.214 4.64056Z"
          fill="#D1E7FF"/>
    <path d="M33.0261 30.3284C32.8853 30.9914 32.8462 31.3126 32.5778 31.7651L30.8436 34.6934C30.2736 35.6542 28.8094 35.3426 28.6803 34.2334L28.2869 30.8526C28.2239 30.3093 28.3329 29.9618 28.4614 29.3584L33.0261 30.3284Z"
          fill="#D1E7FF"/>
    <path d="M30.1551 34.0927C30.2288 35.0398 28.8115 35.1987 28.6833 34.2574C28.6822 34.2495 28.2869 30.8526 28.2869 30.8526C28.2239 30.3093 28.3331 29.9618 28.4613 29.3584C28.4687 29.3584 28.4431 29.3541 29.7663 29.6358C30.1146 29.71 30.3413 30.0447 30.2854 30.3963C30.0738 31.7293 30.0608 32.8795 30.1551 34.0927Z"
          fill="#E8F3FF"/>
    <path d="M33.9788 34.2553C33.802 34.2553 33.6325 34.3256 33.5074 34.4506C33.3824 34.5756 33.3122 34.7452 33.3122 34.922V38C33.3122 38.3676 33.0131 38.6667 32.6455 38.6667H3.14551C2.77792 38.6667 2.47884 38.3676 2.47884 38V11.1667C2.47884 10.9899 2.4086 10.8203 2.28358 10.6953C2.15855 10.5702 1.98899 10.5 1.81217 10.5C1.63536 10.5 1.46579 10.5702 1.34077 10.6953C1.21575 10.8203 1.14551 10.9899 1.14551 11.1667V38C1.14551 39.1028 2.04276 40 3.14551 40H32.6455C33.7483 40 34.6455 39.1028 34.6455 38V34.922C34.6455 34.7452 34.5753 34.5756 34.4502 34.4506C34.3252 34.3256 34.1557 34.2553 33.9788 34.2553Z"
          fill="#2E58FF"/>
    <path d="M37.2648 3.96733C35.1766 3.5235 35.0859 3.468 34.6453 3.5225V2C34.6453 0.897167 33.7481 0 32.6453 0H8.22864C8.05183 1.18621e-05 7.88226 0.0702427 7.75723 0.19525C0.750058 7.20133 1.27006 6.65033 1.19623 6.828C1.04073 7.20425 1.25723 7.63058 1.64873 7.729C1.76823 7.75917 1.32773 7.75 6.89531 7.75C7.99806 7.75 8.89531 6.85275 8.89531 5.75V4.7715C8.89531 4.59469 8.82507 4.42512 8.70005 4.3001C8.57502 4.17507 8.40545 4.10483 8.22864 4.10483C8.05183 4.10483 7.88226 4.17507 7.75724 4.3001C7.63221 4.42512 7.56198 4.59469 7.56198 4.7715V5.75C7.56198 6.11758 7.26289 6.41667 6.89531 6.41667H3.42148L8.50481 1.33333H32.6454C33.013 1.33333 33.3121 1.63242 33.3121 2V4.28467C33.1275 4.52196 32.9991 4.79798 32.9365 5.092L27.6737 29.8511C27.5983 30.2055 27.5812 30.5699 27.6233 30.9298L28.017 34.3106C28.2201 36.0537 30.5207 36.5432 31.4153 35.0328L33.15 32.1045C33.4782 31.5505 33.537 31.1299 33.6768 30.4672C33.753 30.1063 33.523 29.7528 33.1633 29.6763L31.5911 29.3421C31.4181 29.3053 31.2376 29.3388 31.0893 29.4351C30.9411 29.5314 30.8371 29.6827 30.8004 29.8556C30.7636 30.0286 30.7971 30.2091 30.8934 30.3573C30.9897 30.5056 31.1409 30.6096 31.3139 30.6463L32.2333 30.8418C32.1255 31.283 32.221 31.0558 30.2681 34.3533C30.025 34.7638 29.397 34.6337 29.3413 34.1562L28.9476 30.7755C28.9224 30.5596 28.9326 30.341 28.9779 30.1283L34.2406 5.36917C34.2588 5.28351 34.2937 5.20227 34.3432 5.13009C34.3928 5.05792 34.4561 4.99622 34.5295 4.94853C34.603 4.90084 34.6851 4.86809 34.7712 4.85215C34.8573 4.83622 34.9457 4.83741 35.0313 4.85567L36.9876 5.2715C37.0733 5.28966 37.1545 5.32453 37.2267 5.37411C37.2989 5.42369 37.3606 5.48701 37.4083 5.56045C37.4559 5.63389 37.4887 5.71601 37.5046 5.80211C37.5205 5.88822 37.5193 5.97661 37.5011 6.06225L33.2824 25.9097C33.2456 26.0826 33.2791 26.2631 33.3754 26.4113C33.4717 26.5596 33.623 26.6636 33.7959 26.7003C33.8815 26.7186 33.9699 26.7197 34.056 26.7038C34.1421 26.6878 34.2242 26.6551 34.2976 26.6074C34.371 26.5597 34.4343 26.498 34.4839 26.4259C34.5335 26.3537 34.5684 26.2725 34.5866 26.1868L38.8052 6.33958C39.0351 5.25825 38.3462 4.19725 37.2648 3.96733Z"
          fill="#2E58FF"/>
    <path d="M8.39518 10.5833C6.92477 10.5833 5.72852 11.7796 5.72852 13.25C5.72852 14.7204 6.92477 15.9167 8.39518 15.9167C9.8656 15.9167 11.0618 14.7204 11.0618 13.25C11.0618 11.7796 9.8656 10.5833 8.39518 10.5833ZM8.39518 14.5833C7.66002 14.5833 7.06185 13.9852 7.06185 13.25C7.06185 12.5148 7.66002 11.9167 8.39518 11.9167C9.13035 11.9167 9.72852 12.5148 9.72852 13.25C9.72852 13.9852 9.13035 14.5833 8.39518 14.5833ZM8.39518 25.0833C9.8656 25.0833 11.0618 23.8871 11.0618 22.4167C11.0618 20.9463 9.8656 19.75 8.39518 19.75C6.92477 19.75 5.72852 20.9463 5.72852 22.4167C5.72852 23.8871 6.92485 25.0833 8.39518 25.0833ZM8.39518 21.0833C9.13035 21.0833 9.72852 21.6815 9.72852 22.4167C9.72852 23.1518 9.13035 23.75 8.39518 23.75C7.66002 23.75 7.06185 23.1518 7.06185 22.4167C7.06185 21.6815 7.66002 21.0833 8.39518 21.0833ZM10.6805 29.6268L7.98927 32.318L7.19993 31.5287C7.07466 31.4049 6.90549 31.3357 6.72938 31.3362C6.55327 31.3368 6.38453 31.407 6.25999 31.5315C6.13546 31.656 6.06526 31.8247 6.06471 32.0009C6.06417 32.177 6.13333 32.3461 6.2571 32.4714L7.51785 33.7322C7.57976 33.7941 7.65325 33.8432 7.73414 33.8767C7.81502 33.9102 7.90171 33.9274 7.98927 33.9274C8.07682 33.9274 8.16351 33.9102 8.2444 33.8767C8.32528 33.8432 8.39878 33.7941 8.46068 33.7322L11.6233 30.5695C11.6859 30.5077 11.7356 30.4342 11.7696 30.3532C11.8036 30.2721 11.8212 30.1851 11.8215 30.0973C11.8217 30.0094 11.8046 29.9223 11.7711 29.8411C11.7376 29.7598 11.6883 29.686 11.6262 29.6238C11.564 29.5617 11.4902 29.5125 11.409 29.4789C11.3277 29.4454 11.2406 29.4283 11.1527 29.4286C11.0649 29.4289 10.9779 29.4465 10.8968 29.4805C10.8158 29.5145 10.7423 29.5642 10.6805 29.6268ZM27.7285 10.5H14.0618C13.885 10.5 13.7155 10.5702 13.5904 10.6953C13.4654 10.8203 13.3952 10.9899 13.3952 11.1667C13.3952 11.3435 13.4654 11.513 13.5904 11.6381C13.7155 11.7631 13.885 11.8333 14.0618 11.8333H27.7285C27.9053 11.8333 28.0749 11.7631 28.1999 11.6381C28.3249 11.513 28.3952 11.3435 28.3952 11.1667C28.3952 10.9899 28.3249 10.8203 28.1999 10.6953C28.0749 10.5702 27.9053 10.5 27.7285 10.5ZM28.3952 15.3333C28.3952 15.1565 28.3249 14.987 28.1999 14.8619C28.0749 14.7369 27.9053 14.6667 27.7285 14.6667H14.0618C13.885 14.6667 13.7155 14.7369 13.5904 14.8619C13.4654 14.987 13.3952 15.1565 13.3952 15.3333C13.3952 15.5101 13.4654 15.6797 13.5904 15.8047C13.7155 15.9298 13.885 16 14.0618 16H27.7285C27.9053 16 28.0749 15.9298 28.1999 15.8047C28.3249 15.6797 28.3952 15.5101 28.3952 15.3333ZM28.0618 20.3333C28.0618 20.1565 27.9916 19.987 27.8666 19.8619C27.7416 19.7369 27.572 19.6667 27.3952 19.6667H14.0618C13.885 19.6667 13.7155 19.7369 13.5904 19.8619C13.4654 19.987 13.3952 20.1565 13.3952 20.3333C13.3952 20.5101 13.4654 20.6797 13.5904 20.8047C13.7155 20.9298 13.885 21 14.0618 21H27.3952C27.572 21 27.7416 20.9298 27.8666 20.8047C27.9916 20.6797 28.0618 20.5101 28.0618 20.3333ZM26.7285 24.5C26.7285 24.3232 26.6583 24.1536 26.5333 24.0286C26.4082 23.9036 26.2387 23.8333 26.0618 23.8333H14.0618C13.885 23.8333 13.7155 23.9036 13.5904 24.0286C13.4654 24.1536 13.3952 24.3232 13.3952 24.5C13.3952 24.6768 13.4654 24.8464 13.5904 24.9714C13.7155 25.0964 13.885 25.1667 14.0618 25.1667H26.0618C26.2387 25.1667 26.4082 25.0964 26.5333 24.9714C26.6583 24.8464 26.7285 24.6768 26.7285 24.5ZM27.3952 5.5H11.5618C11.385 5.5 11.2155 5.57024 11.0904 5.69526C10.9654 5.82029 10.8952 5.98986 10.8952 6.16667C10.8952 6.34348 10.9654 6.51305 11.0904 6.63807C11.2155 6.7631 11.385 6.83333 11.5618 6.83333H27.3952C27.572 6.83333 27.7416 6.7631 27.8666 6.63807C27.9916 6.51305 28.0618 6.34348 28.0618 6.16667C28.0618 5.98986 27.9916 5.82029 27.8666 5.69526C27.7416 5.57024 27.572 5.5 27.3952 5.5ZM14.0618 33C13.885 33 13.7155 33.0702 13.5904 33.1953C13.4654 33.3203 13.3952 33.4899 13.3952 33.6667C13.3952 33.8435 13.4654 34.0131 13.5904 34.1381C13.7155 34.2631 13.885 34.3333 14.0618 34.3333H23.1452C23.322 34.3333 23.4916 34.2631 23.6166 34.1381C23.7416 34.0131 23.8118 33.8435 23.8118 33.6667C23.8118 33.4899 23.7416 33.3203 23.6166 33.1953C23.4916 33.0702 23.322 33 23.1452 33H14.0618ZM25.4785 29.5C25.4785 29.3232 25.4083 29.1536 25.2833 29.0286C25.1582 28.9036 24.9887 28.8333 24.8118 28.8333H14.0618C13.885 28.8333 13.7155 28.9036 13.5904 29.0286C13.4654 29.1536 13.3952 29.3232 13.3952 29.5C13.3952 29.6768 13.4654 29.8464 13.5904 29.9714C13.7155 30.0964 13.885 30.1667 14.0618 30.1667H24.8118C24.9887 30.1667 25.1582 30.0964 25.2833 29.9714C25.4083 29.8464 25.4785 29.6768 25.4785 29.5Z"
          fill="#2E58FF"/>
</svg>
