<svg width="40" height="40" viewBox="0 0 40 40" fill="none" xmlns="http://www.w3.org/2000/svg">
    <g clip-path="url(#clip0_148_888)">
        <path d="M32.8092 38.5958C32.6299 36.8727 31.472 35.3869 29.8119 34.8064L26.2079 33.5638C24.385 32.9333 23.1672 31.2202 23.1672 29.2981C23.7728 29.0463 24.346 28.7229 24.8746 28.3348C26.1613 28.2315 27.4437 28.0865 28.7162 27.9007C29.6945 27.7573 30.4169 26.9115 30.4169 25.9233V13.1271C30.4169 8.54747 26.7056 4.83496 22.1256 4.83496H17.8758C13.2968 4.83496 9.58445 8.54731 9.58445 13.1271V25.9233C9.58445 26.9115 10.3069 27.7573 11.2852 27.9007C12.5607 28.0867 13.8419 28.2314 15.1267 28.3344C15.655 28.7232 16.2283 29.0468 16.8341 29.2981C16.8341 31.2187 15.6177 32.9329 13.7934 33.5638C12.837 33.8965 10.2086 34.7945 10.2003 34.8029C8.51691 35.3864 7.37038 36.8863 7.19213 38.5968C7.15113 38.9905 7.46012 39.3335 7.85594 39.3335H32.1456C32.5417 39.3335 32.8502 38.9899 32.8092 38.5958Z"
              fill="#D1E7FF"/>
        <path d="M19.3984 27.6581C20.6472 28.1651 20.1475 30.0361 18.8138 29.8432C14.7925 29.2617 11.751 25.8077 11.751 21.6785V16.9129C11.751 16.5221 12.0858 16.2138 12.4749 16.2488C12.6912 16.2684 12.9222 16.2853 13.1663 16.2978C13.7732 16.329 14.2509 16.8277 14.2509 17.4355C14.2509 17.4355 14.2509 20.0786 14.2517 20.112C14.2921 23.5358 16.416 26.4473 19.3984 27.6581Z"
              fill="#E8F3FF"/>
        <path d="M22.8034 30.7748C21.0289 31.4176 19.0004 31.4279 17.1996 30.7751C16.9 30.6666 16.7204 30.3576 16.7729 30.0433C16.8137 29.7998 16.8347 29.5507 16.8347 29.2981C18.8011 30.1167 21.0973 30.1599 23.1677 29.2981C23.1677 29.5506 23.1887 29.7998 23.2295 30.0432C23.282 30.3573 23.1028 30.6663 22.8034 30.7748ZM30.4174 13.1271V25.9232C30.4174 26.9115 29.695 27.7573 28.7167 27.9007C27.4412 28.0869 26.16 28.2317 24.8752 28.3348C26.9217 26.8332 28.2509 24.4116 28.2509 21.6784V16.6497C28.2507 16.5136 28.2089 16.3808 28.1311 16.2692C28.0534 16.1575 27.9434 16.0722 27.8158 16.0248C26.6089 15.5724 25.5736 14.7048 24.903 13.4522C24.7152 13.1014 24.2616 12.9983 23.9349 13.2256C20.5769 15.5619 16.5503 16.6186 12.4755 16.2487C12.0864 16.2133 11.7515 16.5221 11.7515 16.9128V21.6783C11.7515 24.4107 13.0806 26.8335 15.1272 28.3343C13.8424 28.2313 12.5612 28.0866 11.2857 27.9006C10.3074 27.7573 9.58496 26.9115 9.58496 25.9232V13.1271C9.58496 8.54731 13.2973 4.83496 17.8763 4.83496H22.1261C26.7057 4.83496 30.4174 8.54714 30.4174 13.1271Z"
              fill="#B9DCFF"/>
        <path d="M22.4927 4.84296C23.58 4.89029 23.5626 6.50331 22.4744 6.51889C21.8473 6.52789 21.1577 6.51589 20.3757 6.50156C15.7975 6.41789 12.0844 10.2139 12.0844 14.7937V16.3353C11.9829 16.3937 11.8986 16.4779 11.8401 16.5793C11.7816 16.6807 11.7509 16.7957 11.751 16.9128V21.6783C11.751 24.3713 13.0482 26.8108 15.1267 28.3343C15.1267 28.3427 13.3073 28.1937 11.2852 27.9006C10.3069 27.7573 9.58446 26.9115 9.58446 25.9232V13.1271C9.58446 8.54731 13.2968 4.83496 17.8758 4.83496C17.8758 4.83496 22.3709 4.83763 22.4927 4.84296ZM32.8092 38.5958C32.8502 38.9899 32.5419 39.3335 32.1457 39.3335H7.85595C7.46005 39.3335 7.15107 38.9905 7.19215 38.5968C7.37039 36.8863 8.51693 35.3864 10.2003 34.8029C10.2086 34.7945 12.837 33.8964 13.7935 33.5638C14.0151 33.4871 14.2284 33.3946 14.4309 33.2871C15.3942 35.4662 17.5741 36.917 20.0007 36.917C22.4273 36.917 24.6072 35.4662 25.5705 33.2871C26.1019 33.5692 26.2416 33.5577 29.8119 34.8064C31.472 35.3869 32.63 36.8728 32.8092 38.5958Z"
              fill="#D1E7FF"/>
        <path d="M27.3434 34.8313C26.3715 36.3148 24.8192 37.2661 23.1369 37.5172C22.3866 37.6292 22.0675 36.6026 22.7445 36.2602C23.9848 35.6329 24.9943 34.5906 25.5704 33.2871C25.9909 33.5104 26.5226 33.6725 27.0007 33.8376C27.4103 33.979 27.5808 34.4689 27.3434 34.8313ZM14.7158 33.8501C14.924 34.2135 14.751 34.6763 14.3549 34.8124C13.3949 35.1422 12.4553 35.4644 12.4501 35.4695C10.829 36.0312 9.74033 37.5025 9.49243 38.7923C9.46338 38.9445 9.38217 39.0819 9.26277 39.1806C9.14337 39.2794 8.99326 39.3335 8.83829 39.3335H7.85591C7.4601 39.3335 7.15128 38.9901 7.19211 38.5968C7.37043 36.886 8.51697 35.3862 10.2002 34.8029C10.2086 34.7945 12.8368 33.8963 13.7934 33.5638C14.0151 33.4871 14.2284 33.3946 14.4309 33.2871C14.516 33.4796 14.6111 33.6675 14.7158 33.8501Z"
              fill="#E8F3FF"/>
        <path d="M37.3329 22.5008C38.4374 22.5008 39.3328 21.6054 39.3328 20.5009C39.3328 19.3964 38.4374 18.501 37.3329 18.501C36.2284 18.501 35.333 19.3964 35.333 20.5009C35.333 21.6054 36.2284 22.5008 37.3329 22.5008Z"
              fill="#B9DCFF"/>
        <path d="M37.3254 18.501C37.9156 18.4986 38.1342 19.2568 37.6435 19.5849C37.1142 19.9388 36.7501 20.543 36.7501 21.2509C36.7501 21.8754 35.994 22.0902 35.6755 21.6194C34.7855 20.3033 35.7276 18.5073 37.3254 18.501Z"
              fill="#D1E7FF"/>
        <path d="M30.8329 6.33479C31.9374 6.33479 32.8328 5.4394 32.8328 4.33488C32.8328 3.23035 31.9374 2.33496 30.8329 2.33496C29.7284 2.33496 28.833 3.23035 28.833 4.33488C28.833 5.4394 29.7284 6.33479 30.8329 6.33479Z"
              fill="#B9DCFF"/>
        <path d="M30.8254 2.33497C31.4156 2.33263 31.6342 3.09077 31.1435 3.41884C30.6142 3.77274 30.2501 4.37696 30.2501 5.08485C30.2501 5.70941 29.494 5.92423 29.1755 5.45334C28.2855 4.13731 29.2276 2.3413 30.8254 2.33497Z"
              fill="#D1E7FF"/>
        <path d="M9.16789 6.33479C10.2724 6.33479 11.1678 5.4394 11.1678 4.33488C11.1678 3.23035 10.2724 2.33496 9.16789 2.33496C8.06336 2.33496 7.16797 3.23035 7.16797 4.33488C7.16797 5.4394 8.06336 6.33479 9.16789 6.33479Z"
              fill="#B9DCFF"/>
        <path d="M9.15935 2.33497C9.74958 2.33263 9.96824 3.09077 9.47751 3.41884C8.9482 3.77274 8.58404 4.37696 8.58404 5.08485C8.58404 5.70941 7.82799 5.92423 7.50951 5.45334C6.61946 4.13731 7.56159 2.3413 9.15935 2.33497Z"
              fill="#D1E7FF"/>
        <path d="M2.66789 22.5008C3.77241 22.5008 4.6678 21.6054 4.6678 20.5009C4.6678 19.3964 3.77241 18.501 2.66789 18.501C1.56336 18.501 0.667969 19.3964 0.667969 20.5009C0.667969 21.6054 1.56336 22.5008 2.66789 22.5008Z"
              fill="#B9DCFF"/>
        <path d="M2.65935 18.501C3.24958 18.4986 3.46824 19.2568 2.97751 19.5849C2.4482 19.9388 2.08404 20.543 2.08404 21.2509C2.08404 21.8754 1.32799 22.0902 1.00951 21.6194C0.119459 20.3033 1.06159 18.5073 2.65935 18.501Z"
              fill="#D1E7FF"/>
        <path d="M30.0119 34.1693L26.4264 32.9332C25.7895 32.7135 25.2215 32.3304 24.779 31.8223C24.663 31.6889 24.4988 31.607 24.3224 31.5947C24.146 31.5824 23.972 31.6406 23.8385 31.7566C23.7051 31.8726 23.6232 32.0369 23.6109 32.2133C23.5986 32.3897 23.6568 32.5637 23.7728 32.6971C24.0471 33.012 24.3585 33.2925 24.7002 33.5325C23.1858 36.1591 19.7906 37.0478 17.1819 35.4559C16.8675 35.2638 16.4574 35.3633 16.2655 35.6775C16.1734 35.8284 16.1451 36.0097 16.1867 36.1816C16.2282 36.3534 16.3364 36.5017 16.4873 36.5938C19.7427 38.5807 24.0011 37.4701 25.8798 34.153C26.054 34.2175 29.3997 35.3674 29.5757 35.4292C31.1227 35.9728 32.1675 37.4246 32.1675 39.0645V39.3334C32.1675 39.5102 32.2377 39.6797 32.3627 39.8047C32.4877 39.9298 32.6573 40 32.8341 40C33.0109 40 33.1805 39.9298 33.3055 39.8047C33.4305 39.6797 33.5007 39.5102 33.5007 39.3334V39.0645C33.5009 36.8567 32.0988 34.8897 30.0119 34.1693ZM28.9178 21.6779V16.1677C28.9178 16.0227 28.8705 15.8816 28.783 15.7659C28.6956 15.6502 28.5728 15.5661 28.4333 15.5265C26.9478 15.1046 25.7723 14.0072 25.2082 12.5154C25.0503 12.098 24.5337 11.9504 24.1791 12.2221C20.649 14.9277 16.2668 16.0945 11.8394 15.5069C11.442 15.4536 11.0851 15.7636 11.0851 16.1677V21.6779C11.0851 23.8111 11.8503 25.8753 13.2398 27.4904C13.2969 27.5567 13.3665 27.6112 13.4446 27.6506C13.5227 27.6901 13.6079 27.7138 13.6952 27.7203C13.7825 27.7269 13.8702 27.7162 13.9534 27.6888C14.0366 27.6615 14.1135 27.618 14.1799 27.5609C14.2462 27.5038 14.3007 27.4342 14.3402 27.3561C14.3796 27.2779 14.4033 27.1928 14.4099 27.1055C14.4164 27.0182 14.4057 26.9305 14.3784 26.8473C14.351 26.7641 14.3076 26.6872 14.2505 26.6208C13.069 25.2476 12.4184 23.4921 12.4184 21.678V16.913C16.6532 17.2997 20.8274 16.2037 24.3175 13.7721C25.0345 15.1103 26.1819 16.1237 27.5844 16.6498V21.678C27.5844 27.1932 21.9746 30.7107 17.0953 28.6843C16.6401 28.4952 16.1645 28.8368 16.1681 29.3029C16.166 30.9408 15.1252 32.3993 13.5765 32.9333L9.99239 34.169C7.8914 34.8493 6.50195 36.8563 6.50195 39.0647V39.3336C6.50195 39.5104 6.57219 39.68 6.69721 39.805C6.82223 39.93 6.99179 40.0002 7.16859 40.0002C7.3454 40.0002 7.51496 39.93 7.63998 39.805C7.765 39.68 7.83523 39.5104 7.83523 39.3336V39.0647C7.83523 37.4249 8.87685 35.964 10.4271 35.4294L10.4263 35.4269C10.4292 35.4353 10.2884 35.4774 14.0111 34.1938C15.8045 33.5754 17.0914 32.0362 17.4189 30.2148C23.0898 31.9332 28.9178 27.6869 28.9178 21.6779Z"
              fill="#2E58FF"/>
        <path d="M28.6197 27.2409C28.5331 27.2536 28.4498 27.2832 28.3746 27.3281C28.2995 27.3729 28.2339 27.4322 28.1816 27.5024C28.1293 27.5726 28.0913 27.6524 28.0699 27.7373C28.0485 27.8222 28.044 27.9105 28.0566 27.9971C28.0693 28.0837 28.0989 28.167 28.1438 28.2422C28.1886 28.3174 28.2479 28.383 28.3181 28.4353C28.3883 28.4875 28.4681 28.5255 28.553 28.5469C28.6379 28.5684 28.7262 28.5729 28.8128 28.5602C30.1075 28.3707 31.0838 27.2369 31.0838 25.9231V13.1269C31.0838 8.18721 27.0652 4.16846 22.1258 4.16846H17.8759C12.9365 4.16846 8.91797 8.18721 8.91797 13.1269V25.9231C8.91797 27.237 9.89418 28.3707 11.1889 28.5602C11.2755 28.5729 11.3638 28.5684 11.4487 28.5469C11.5336 28.5255 11.6134 28.4876 11.6836 28.4353C11.7538 28.383 11.813 28.3173 11.8579 28.2422C11.9027 28.167 11.9324 28.0837 11.945 27.997C11.9706 27.8221 11.9257 27.6442 11.8201 27.5024C11.7145 27.3606 11.5569 27.2665 11.3819 27.2409C10.7373 27.1466 10.2512 26.58 10.2512 25.9231V13.1269C10.2512 8.92243 13.6717 5.50173 17.8759 5.50173H22.1258C26.3301 5.50173 29.7505 8.92243 29.7505 13.1269V25.9231C29.7505 26.58 29.2645 27.1466 28.6197 27.2409Z"
              fill="#2E58FF"/>
        <path d="M17.9179 18.6676C17.7411 18.6676 17.5715 18.7378 17.4465 18.8629C17.3215 18.9879 17.2512 19.1574 17.2512 19.3342V20.5009C17.2512 20.6777 17.3215 20.8472 17.4465 20.9722C17.5715 21.0973 17.7411 21.1675 17.9179 21.1675C18.0947 21.1675 18.2642 21.0973 18.3893 20.9722C18.5143 20.8472 18.5845 20.6777 18.5845 20.5009V19.3342C18.5845 19.1574 18.5143 18.9879 18.3893 18.8629C18.2642 18.7378 18.0947 18.6676 17.9179 18.6676ZM22.0844 21.1675C22.2612 21.1675 22.4307 21.0973 22.5557 20.9722C22.6808 20.8472 22.751 20.6777 22.751 20.5009V19.3342C22.751 19.1574 22.6808 18.9879 22.5557 18.8629C22.4307 18.7378 22.2612 18.6676 22.0844 18.6676C21.9076 18.6676 21.738 18.7378 21.613 18.8629C21.488 18.9879 21.4177 19.1574 21.4177 19.3342V20.5009C21.4177 20.6777 21.488 20.8472 21.613 20.9722C21.738 21.0973 21.9076 21.1675 22.0844 21.1675ZM18.8816 24.3703C18.7566 24.2453 18.587 24.1751 18.4102 24.1751C18.2334 24.1751 18.0639 24.2453 17.9389 24.3703C17.877 24.4322 17.8278 24.5057 17.7943 24.5866C17.7608 24.6674 17.7436 24.7541 17.7436 24.8417C17.7436 24.9292 17.7608 25.0159 17.7943 25.0968C17.8278 25.1777 17.877 25.2512 17.9389 25.3131C19.0759 26.4501 20.9262 26.4503 22.0634 25.3131C22.1254 25.2512 22.1745 25.1777 22.208 25.0968C22.2415 25.0159 22.2587 24.9292 22.2587 24.8417C22.2587 24.7541 22.2415 24.6674 22.208 24.5866C22.1745 24.5057 22.1254 24.4322 22.0634 24.3703C21.9384 24.2453 21.7689 24.1751 21.5921 24.1751C21.4153 24.1751 21.2458 24.2453 21.1207 24.3703C20.5033 24.9876 19.4989 24.9876 18.8816 24.3703ZM37.2977 16.1679C37.7076 16.1679 38.0191 15.8032 37.9575 15.4004C37.5303 12.6062 36.4326 9.91097 34.7831 7.60624C34.7322 7.53491 34.6677 7.47431 34.5934 7.42791C34.5191 7.38152 34.4363 7.35023 34.3499 7.33584C34.2634 7.32146 34.175 7.32425 34.0897 7.34407C34.0043 7.36388 33.9237 7.40033 33.8524 7.45133C33.7812 7.50233 33.7207 7.56688 33.6744 7.64128C33.6281 7.71568 33.5969 7.79848 33.5827 7.88493C33.5684 7.97139 33.5713 8.05981 33.5913 8.14514C33.6112 8.23046 33.6478 8.31102 33.6989 8.3822C35.227 10.5174 36.2439 13.0138 36.6396 15.6019C36.6636 15.7593 36.7432 15.9029 36.8639 16.0067C36.9846 16.1105 37.1385 16.1677 37.2977 16.1679ZM6.14928 7.45208C6.07809 7.40112 5.99755 7.36469 5.91228 7.34486C5.827 7.32503 5.73866 7.32219 5.65229 7.33651C5.56592 7.35082 5.48321 7.38201 5.40889 7.42829C5.33457 7.47457 5.2701 7.53504 5.21915 7.60624C3.56964 9.91097 2.47193 12.6062 2.0447 15.4004C1.98304 15.804 2.29527 16.1679 2.70451 16.1679C2.86371 16.1676 3.01757 16.1104 3.13828 16.0066C3.25899 15.9028 3.33857 15.7593 3.36265 15.6019C3.75838 13.0138 4.77517 10.5174 6.30336 8.3822C6.35432 8.31101 6.39075 8.23048 6.41059 8.14521C6.43043 8.05994 6.43327 7.9716 6.41896 7.88523C6.40466 7.79886 6.37348 7.71615 6.3272 7.64183C6.28093 7.56751 6.22047 7.50303 6.14928 7.45208ZM13.7831 2.52061C17.7347 0.948763 22.2674 0.948763 26.2191 2.52061C26.3829 2.58329 26.5647 2.57894 26.7253 2.50852C26.8858 2.43809 27.0122 2.30725 27.077 2.14433C27.1418 1.98141 27.1398 1.79953 27.0714 1.63807C27.0031 1.47661 26.8739 1.34856 26.7118 1.28167C22.4184 -0.42618 17.5892 -0.428263 13.2903 1.28167C13.1279 1.34835 12.9984 1.47638 12.9298 1.63799C12.8612 1.79959 12.8592 1.98172 12.924 2.14484C12.9889 2.30796 13.1155 2.43891 13.2764 2.50926C13.4372 2.57962 13.6193 2.58369 13.7831 2.52061ZM9.16824 7.00143C10.6386 7.00143 11.8348 5.80523 11.8348 4.33487C11.8348 2.86452 10.6386 1.66832 9.16824 1.66832C8.99143 1.66832 8.82187 1.73855 8.69685 1.86357C8.57183 1.98859 8.5016 2.15815 8.5016 2.33496C8.5016 2.51176 8.57183 2.68132 8.69685 2.80634C8.82187 2.93136 8.99143 3.00159 9.16824 3.00159C9.90337 3.00159 10.5015 3.59974 10.5015 4.33487C10.5015 5.07001 9.90337 5.66815 9.16824 5.66815C8.4331 5.66815 7.83496 5.07001 7.83496 4.33487C7.83496 4.15807 7.76473 3.98851 7.63971 3.86349C7.51469 3.73847 7.34513 3.66823 7.16832 3.66823C6.99152 3.66823 6.82196 3.73847 6.69694 3.86349C6.57192 3.98851 6.50168 4.15807 6.50168 4.33487C6.50168 5.80523 7.69788 7.00143 9.16824 7.00143ZM30.834 1.66832C29.3636 1.66832 28.1674 2.86452 28.1674 4.33487C28.1674 5.80523 29.3636 7.00143 30.834 7.00143C31.0108 7.00143 31.1804 6.93119 31.3054 6.80617C31.4304 6.68115 31.5006 6.51159 31.5006 6.33479C31.5006 6.15798 31.4304 5.98842 31.3054 5.8634C31.1804 5.73838 31.0108 5.66815 30.834 5.66815C30.0989 5.66815 29.5007 5.07001 29.5007 4.33487C29.5007 3.59974 30.0989 3.00159 30.834 3.00159C31.5691 3.00159 32.1673 3.59974 32.1673 4.33487C32.1673 4.51168 32.2375 4.68124 32.3625 4.80626C32.4876 4.93128 32.6571 5.00151 32.8339 5.00151C33.0107 5.00151 33.1803 4.93128 33.3053 4.80626C33.4303 4.68124 33.5006 4.51168 33.5006 4.33487C33.5006 2.8646 32.3044 1.66832 30.834 1.66832ZM37.3337 17.8343C37.1569 17.8343 36.9874 17.9045 36.8623 18.0296C36.7373 18.1546 36.6671 18.3241 36.6671 18.5009C36.6671 18.6778 36.7373 18.8473 36.8623 18.9723C36.9874 19.0974 37.1569 19.1676 37.3337 19.1676C38.0689 19.1676 38.667 19.7657 38.667 20.5009C38.667 21.236 38.0689 21.8341 37.3337 21.8341C36.5986 21.8341 36.0005 21.236 36.0005 20.5009C36.0005 20.3241 35.9302 20.1545 35.8052 20.0295C35.6802 19.9045 35.5106 19.8342 35.3338 19.8342C35.157 19.8342 34.9874 19.9045 34.8624 20.0295C34.7374 20.1545 34.6672 20.3241 34.6672 20.5009C34.6672 21.9712 35.8634 23.1674 37.3337 23.1674C38.8041 23.1674 40.0003 21.9712 40.0003 20.5009C40.0003 19.0305 38.8041 17.8343 37.3337 17.8343ZM4.66843 19.8342C4.49162 19.8342 4.32206 19.9045 4.19704 20.0295C4.07202 20.1545 4.00179 20.3241 4.00179 20.5009C4.00179 21.236 3.40364 21.8341 2.66851 21.8341C1.93337 21.8341 1.33523 21.236 1.33523 20.5009C1.33523 19.7657 1.93337 19.1676 2.66851 19.1676C2.84531 19.1676 3.01487 19.0974 3.13989 18.9723C3.26491 18.8473 3.33515 18.6778 3.33515 18.5009C3.33515 18.3241 3.26491 18.1546 3.13989 18.0296C3.01487 17.9045 2.84531 17.8343 2.66851 17.8343C1.19815 17.8343 0.00195312 19.0305 0.00195312 20.5009C0.00195312 21.9712 1.19815 23.1674 2.66851 23.1674C4.13886 23.1674 5.33506 21.9712 5.33506 20.5009C5.33506 20.3241 5.26483 20.1545 5.13981 20.0295C5.01479 19.9045 4.84523 19.8342 4.66843 19.8342Z"
              fill="#2E58FF"/>
    </g>
    <defs>
        <clipPath id="clip0_148_888">
            <rect width="40" height="40" fill="white"/>
        </clipPath>
    </defs>
</svg>
